<?xml version="1.0" encoding="utf-8"?>
<!-- Generator: Adobe Illustrator 28.1.0, SVG Export Plug-In . SVG Version: 6.00 Build 0)  -->
<svg version="1.1" id="Capa_1" xmlns="http://www.w3.org/2000/svg" xmlns:xlink="http://www.w3.org/1999/xlink" x="0px" y="0px"
	 viewBox="0 0 500 500" style="enable-background:new 0 0 500 500;" xml:space="preserve">
<style type="text/css">
	.st0{fill:#AAC8A3;}
	.st1{fill:#1F411F;}
	.st2{fill:#FFFFFF;}
	.st3{fill:#21421F;}
	.st4{fill:#373536;}
	.st5{fill:#373636;}
	.st6{fill:#383637;}
	.st7{fill:#3B3B3B;}
	.st8{fill:#D8D5D5;}
	.st9{fill:#BCCB26;}
	.st10{fill:#FDFDFD;}
	.st11{fill:#F9F7F8;}
	.st12{fill:#FCFCFC;}
	.st13{fill:#FFFEFF;}
	.st14{fill:#20421F;}
	.st15{fill:#CFCFCF;}
	.st16{fill:#DBDBDB;}
	.st17{fill:#8ABD27;}
	.st18{fill:#77B62C;}
	.st19{fill:#8FBE26;}
	.st20{fill:#71B42D;}
	.st21{fill:#A6C720;}
	.st22{fill:#7AB72B;}
	.st23{fill:#A1C522;}
	.st24{fill:#76B62C;}
	.st25{fill:#89BC27;}
	.st26{fill:#91BF25;}
	.st27{fill:#A2C521;}
	.st28{fill:#90BF25;}
	.st29{fill:#A0C522;}
	.st30{fill:#392320;}
	.st31{fill:#7EB82A;}
	.st32{fill:#A3C521;}
	.st33{fill:#92BF25;}
	.st34{fill:#5DAC32;}
	.st35{fill:#5CAC32;}
	.st36{fill:#15602E;}
	.st37{fill:#1A642E;}
	.st38{fill:#538B32;}
	.st39{fill:#A4C621;}
	.st40{fill:#377831;}
	.st41{fill:#236A2F;}
	.st42{fill:#04512B;}
	.st43{fill:#05512C;}
	.st44{fill:#629531;}
	.st45{fill:#83AB2A;}
	.st46{fill:#629530;}
	.st47{fill:#236A30;}
	.st48{fill:#367831;}
	.st49{fill:#4A8532;}
	.st50{fill:#6A9A2F;}
	.st51{fill:#77A32D;}
	.st52{fill:#689A30;}
	.st53{fill:#7AA52C;}
	.st54{fill:#719F2E;}
	.st55{fill:#8E8E8E;}
	.st56{fill:#8C8D8C;}
	.st57{fill:#3E3A2A;}
	.st58{fill:#3F3A2A;}
	.st59{fill:#F7F5F5;}
	.st60{fill:#F7F6F6;}
	.st61{fill:#DADADA;}
	.st62{fill:#E0DFDF;}
	.st63{fill:#A9A9A9;}
	.st64{fill:#646464;}
	.st65{fill:#909090;}
	.st66{fill:#115C2E;}
	.st67{fill:#296F30;}
	.st68{fill:#759248;}
	.st69{fill:#0B592E;}
	.st70{fill:#6D824C;}
	.st71{fill:#ADC91F;}
	.st72{fill:#407E32;}
	.st73{fill:#337631;}
	.st74{fill:#17622E;}
	.st75{fill:#B4CC1F;}
	.st76{fill:#5F9331;}
	.st77{fill:#91BF24;}
	.st78{fill:#14602E;}
	.st79{fill:#BCCF1D;}
	.st80{fill:#93B624;}
	.st81{fill:#90B325;}
	.st82{fill:#95C024;}
	.st83{fill:#2D7130;}
	.st84{fill:#BCCE1D;}
	.st85{fill:#87AC29;}
	.st86{fill:#639630;}
	.st87{fill:#86AC29;}
	.st88{fill:#92C025;}
	.st89{fill:#3C7C32;}
	.st90{fill:#4C8632;}
	.st91{fill:#ACC91F;}
	.st92{fill:#81AA2A;}
	.st93{fill:#AEC91F;}
	.st94{fill:#88AD28;}
	.st95{fill:#7BA52C;}
	.st96{fill:#95C124;}
	.st97{fill:#367731;}
	.st98{fill:#8CB027;}
	.st99{fill:#78A42D;}
	.st100{fill:#A2C522;}
	.st101{fill:#367532;}
	.st102{fill:#697451;}
	.st103{fill:#256B30;}
	.st104{fill:#487A39;}
	.st105{fill:#FEFDFE;}
	.st106{fill:#BCBCBC;}
	.st107{fill:#2A6F30;}
	.st108{fill:#ACC920;}
	.st109{fill:#4D8632;}
	.st110{fill:#C4D21D;}
	.st111{fill:#679830;}
	.st112{fill:#4D8732;}
	.st113{fill:#689930;}
	.st114{fill:#ABC820;}
	.st115{fill:#ABC920;}
	.st116{fill:#4E8732;}
	.st117{fill:#7DA62B;}
	.st118{fill:#B1CA1F;}
	.st119{fill:#2D7231;}
	.st120{fill:#458132;}
	.st121{fill:#DADB1C;}
	.st122{fill:#D2D71B;}
	.st123{fill:#9FBB1F;}
	.st124{fill:#C0D01E;}
	.st125{fill:#518A32;}
	.st126{fill:#D7D91D;}
	.st127{fill:#A3BD1D;}
	.st128{fill:#CAD41C;}
	.st129{fill:#77A22D;}
	.st130{fill:#C0D11D;}
	.st131{fill:#C8D41C;}
	.st132{fill:#C7D31D;}
	.st133{fill:#B0CA1F;}
	.st134{fill:#9BB921;}
	.st135{fill:#BFD01F;}
	.st136{fill:#A9C81F;}
	.st137{fill:#9CC223;}
	.st138{fill:#478232;}
	.st139{fill:#CAD41E;}
	.st140{fill:#C8D41D;}
	.st141{fill:#CDD51D;}
	.st142{fill:#B5CC20;}
	.st143{fill:#D1D71E;}
	.st144{fill:#74A02D;}
	.st145{fill:#75A12D;}
	.st146{fill:#77A12D;}
	.st147{fill:#6C9A2F;}
	.st148{fill:#6F9C2E;}
	.st149{fill:#81A82A;}
	.st150{fill:#538A31;}
	.st151{fill:#4E8731;}
	.st152{fill:#619430;}
</style>
<g>
	<path class="st0" d="M453.8,247.8c10.9,0,21.8,0,32.7,0c0,5.7,0,11.3,0,17l-0.3,0.2l-0.3,0c-1.9-2.2-1.1-5-1.2-7.5
		c-0.2-8.7,1-7.8-7.8-7.9c-6.3,0-12.7,0.1-19,0C456.5,249.5,454.6,249.9,453.8,247.8z"/>
	<path class="st1" d="M453.8,247.8c1.1,1,2.4,0.5,3.6,0.5c8.5,0,16.9,0.2,25.4,0c2.8-0.1,3.4,0.9,3.3,3.5c-0.2,4.4-0.1,8.8-0.1,13.2
		c-1.4,25.5-6.7,50.2-15.9,74.1c-0.9,2.4-1.9,2.7-4.2,1.8c-8.4-3.2-17-6.1-25.4-9.2c-1.9-0.7-2.7-0.4-3.5,1.5
		c-6.9,15.9-15.5,30.8-26.3,44.4c-1.4,1.7-0.9,2.6,0.6,3.8c7.1,5.8,14,11.8,21.1,17.6c1.6,1.3,1.7,2,0.4,3.6
		c-19.5,23.5-42.5,42.6-69.3,57.4c-2.2,1.2-3.1,1-4.3-1.2c-4.3-7.8-8.9-15.4-13.3-23.2c-1.1-1.9-1.8-2.5-4-1.3
		c-14.6,7.4-29.9,13.1-46,16.6c-2.4,0.5-3,1.4-2.5,3.9c1.8,9,3.2,18,4.9,27c0.3,1.8-0.1,2.3-1.8,2.6c-20.1,3.9-40.3,5.4-60.7,4
		c-10.3-0.7-20.4-2-30.6-3.8c-2.1-0.4-3.2-0.6-2.6-3.5c1.9-8.8,3.2-17.8,4.9-26.6c0.4-2.2-0.3-3-2.3-3.4
		c-16.5-3.6-32.2-9.4-47.2-17.1c-1.8-0.9-2.5-0.4-3.3,1.2c-4.6,8-9.3,16-13.9,24c-1,1.8-1.7,2-3.5,1c-26.9-14.9-50.1-34.3-69.7-58
		c-1.6-1.9-1-2.7,0.6-3.9c7-5.8,14-11.8,21-17.7c1.4-1.2,1.6-1.9,0.4-3.5c-10.4-13.4-19-28-25.7-43.6c-0.8-1.9-1.6-2.2-3.5-1.4
		c-8.4,3.2-16.9,6.2-25.3,9.5c-2.1,0.8-3.1,0.8-4.1-1.7c-11.1-28.2-16.3-57.4-16.6-87.6c0-3.3,0.9-4.2,4.1-4.1
		c8.7,0.2,17.4,0,26.1,0.1c2,0,2.8-0.4,2.8-2.6c0.5-16.6,3.1-32.8,7.7-48.7c0.7-2.5,0.1-3.3-2.2-4c-8.6-3-17.2-6.2-25.8-9.2
		c-1.7-0.6-2-1.1-1.5-2.8c9.9-30.4,25.3-57.8,46.2-82c0.3-0.3,0.7-0.6,1-1c7.6,6.4,15.2,12.6,22.6,19c1.7,1.5,2.7,1.5,4.3-0.2
		c11.4-12.6,24.2-23.7,38.5-33.1c2-1.3,2.4-2.3,1-4.5c-4.7-7.7-9.1-15.6-13.7-23.4c-1-1.6-1.1-2.5,0.8-3.6
		c26.9-16.5,55.9-27.1,87-32.3c2.2-0.4,2.7,0.5,3,2.4c1.5,9,3.2,18,4.7,27c0.3,2,0.9,2.6,3,2.3c17.5-2.4,34.9-2.5,52.4,0
		c2.3,0.3,2.6-0.8,2.9-2.5c1.6-9,3.3-18,4.7-27c0.3-2.2,1.1-2.6,3-2.2c21.7,3.6,42.6,9.8,62.5,19.1c8.2,3.8,16.1,8.2,23.9,12.7
		c2.1,1.2,2.6,2,1.2,4.3c-4.6,7.5-8.8,15.2-13.4,22.8c-1.3,2.2-1.3,3.3,0.9,4.8c13.8,9,26.2,19.6,37.3,31.8c1.4,1.6,2.3,1.8,4,0.3
		c6.8-5.9,13.8-11.6,20.7-17.6c1.8-1.6,2.7-1.4,4.2,0.4c20.1,23.3,35.1,49.4,45.2,78.4c0.7,2.1-0.2,2.5-1.7,3
		c-8.7,3.2-17.3,6.4-26,9.6c-1.5,0.6-2.5,0.9-1.8,3c5.5,17.8,8.6,36,9.1,54.6C453.4,247.2,453.7,247.5,453.8,247.8z"/>
	<path class="st2" d="M456.5,261.8c4.1,0,8.2,0.2,12.2-0.1c3-0.2,3.8,0.6,3.6,3.6c-1.3,18.2-4.3,36.1-9.8,53.5
		c-1.7,5.5-1.7,5.5-7.2,3.5c-7-2.5-14.1-4.7-21-7.6c-3.4-1.4-4.4-0.5-5.6,2.6c-5.5,14.2-12.2,27.9-20.7,40.6
		c-4.9,7.3-10.3,14.3-15.9,21.1c-1.7,2-1.3,2.9,0.5,4.5c6.8,5.6,13.5,11.3,20.4,16.9c1.8,1.4,1.7,2.2,0.2,3.8
		c-13.5,14.3-28.5,26.7-45.1,37.2c-1.9,1.2-2.5,0.8-3.5-0.9c-4.4-7.7-9-15.4-13.3-23.2c-1.2-2.1-2.1-2.3-4.1-1.2
		c-14.5,7.9-29.4,14.8-45.4,19.1c-7.1,1.9-14.2,3.6-21.4,5c-2.8,0.5-3.1,1.7-2.7,4c1.6,8.7,3,17.3,4.7,26c0.4,2.1-0.1,2.6-2.2,2.9
		c-19.6,2.5-39.2,2.6-58.9,0.1c-2.9-0.4-3.2-1.4-2.8-3.8c1.6-8.2,2.9-16.4,4.5-24.6c0.5-2.7,0.3-4.1-3-4.7
		c-23.8-4.1-46.1-12.4-67-24.3c-2-1.1-2.8-0.7-3.8,1.1c-4.4,7.9-9.1,15.6-13.5,23.4c-0.9,1.6-1.6,2-3.3,0.9
		c-16.8-10.7-31.9-23.3-45.5-37.8c-1.6-1.7-1.2-2.3,0.3-3.6c6.9-5.7,13.7-11.5,20.6-17.2c1.8-1.5,1.9-2.4,0.4-4.2
		c-15.6-18.5-27.9-39.1-36.5-61.8c-1-2.6-1.9-3-4.5-1.9c-8,3.2-16.3,6-24.4,9.1c-2,0.8-2.8,0.7-3.6-1.6c-6-18.7-9.5-37.8-10.8-57.4
		c-0.2-2.6,0.6-3.2,3.1-3.1c8.7,0.2,17.4,0,26.1,0.1c2.4,0,3-0.8,3.1-3c0.2-10.6,0.5-21.2,2-31.8c1.8-13,5-25.7,9.1-38.1
		c1-3,0.3-4-2.6-4.9c-8.2-2.7-16.3-5.8-24.5-8.7c-1.8-0.6-2.2-1.1-1.5-3.1c7.5-19.1,17.5-36.8,29.8-53.3c1.5-2,2.3-1.3,3.6-0.2
		c6.8,5.8,13.7,11.4,20.5,17.3c1.7,1.5,2.5,1.4,3.9-0.3c15.8-19.2,34.4-35.2,55.7-48c2.1-1.3,2.1-2.3,0.9-4.2
		c-4.6-7.7-8.9-15.4-13.5-23.1c-1.1-1.8-0.9-2.5,1-3.5c18-9.5,36.9-16.6,56.8-21.1c2.6-0.6,3,0.2,3.3,2.3c1.4,8.3,2.9,16.7,4.3,25
		c0.4,2.6,0.9,4,4.3,3.5c8.7-1.5,17.4-2.5,26.2-3c14.9-0.9,29.6,0.3,44.2,2.7c5.8,0.9,5.7,1,6.6-4.7c1.3-8,2.8-16,4.2-24
		c0.3-1.8,0.9-2.2,2.9-1.7c20,4.4,39.1,11.6,57.2,21.1c2,1,1.9,1.7,0.9,3.4c-4.5,7.6-8.8,15.2-13.3,22.8c-1.2,2.1-1.5,3.1,1,4.6
		c20.7,12.3,38.8,27.7,54.2,46.1c1.6,1.9,2.5,2.2,4.5,0.4c6.5-5.7,13.4-11.2,19.9-16.9c2.1-1.8,2.9-1.4,4.5,0.6
		c11.6,15.4,21.2,31.9,28.7,49.7c0.9,2.2,1.1,3.1-1.5,4c-8.1,2.8-16,6-24.1,8.7c-2.8,0.9-3.4,1.9-2.4,4.7
		c4.1,11.6,7.4,23.4,9.5,35.6c2.2,12.5,2.7,25.2,2.9,37.8c0,2.9,1.1,3.3,3.6,3.2C447.9,261.7,452.2,261.8,456.5,261.8z"/>
	<path class="st3" d="M250.5,397.6c-78.7,0.2-143.3-64.3-143.5-143.2c-0.2-78.9,64.1-143.4,143.1-143.6
		c78.8-0.3,143.4,64.1,143.7,143.1C394,332.7,329.6,397.3,250.5,397.6z"/>
	<path class="st4" d="M264.4,419.1c0-5.2,0-10.1,0-15.1c0-1.4,0.4-1.9,1.9-2.1c6.8-0.9,7-0.8,7.5,5.9c0.5,7.9,0.7,15.8,1.1,23.7
		c0.1,1.7-0.3,2.6-2.2,2.3c-0.1,0-0.2,0-0.3,0c-4.8,1-8.2-0.5-10.8-5c-2.2-3.9-5.3-7.2-8.2-11.1c0,4.8-0.1,9.3,0.1,13.7
		c0.1,2.4-0.3,3.3-3,3.4c-6.1,0.2-6.1,0.3-6.4-5.8c-0.4-7.9-0.6-15.8-1-23.7c-0.1-1.8,0.4-2,2.1-2.4c4.8-0.9,8.2,0.1,10.9,4.6
		C258.3,411.7,261.6,415.3,264.4,419.1z"/>
	<path class="st4" d="M177,387.7c-0.1,7.8-6.2,16.7-11.9,18.9c-4.5,1.7-8.7,0.5-12.5-2c-3.8-2.5-7.3-5.2-11.1-7.7
		c-1.6-1.1-1.3-1.9-0.4-3.1c5.3-7.4,10.6-14.9,15.8-22.4c0.9-1.3,1.6-1.9,3.1-0.7c4,3,8.1,5.8,12.1,8.7
		C175.4,381.9,177,385.2,177,387.7z"/>
	<path class="st4" d="M316.5,414.1c-0.1,5.4-2.3,9.2-6.9,11.4c-3.4,1.7-7,2.5-10.8,2.8c-5.7,0.5-10.5-3.2-12.4-9.4
		c-1.7-5.6-3.1-11.3-4.7-16.9c-0.5-1.7,0-2.3,1.6-2.8c7.2-2.2,7.2-2.2,9.2,5.2c1.1,3.9,2.1,7.8,3.3,11.7c1.1,3.7,3.5,5,6.9,4.1
		c3.2-0.9,4.7-3.5,3.7-7.2c-1.4-5.3-2.9-10.6-4.5-15.9c-0.5-1.9-0.7-2.9,1.8-3.5c7.1-1.7,7.1-1.9,8.9,5.1
		C314,403.9,316,409,316.5,414.1z"/>
	<path class="st4" d="M338.4,375.3c1.7,1,2.1,2.9,3.2,4.4c1.1,1.4-0.3,1.7-1,2.2c-3.6,2.2-7,4.5-10.7,6.4c-2.1,1.1-1.3,2.1-0.5,3.5
		c0.8,1.3,1.3,2.6,3.3,1.2c2.8-1.9,5.8-3.5,8.6-5.4c2.1-1.4,3.2-1.3,4.6,1c1.6,2.5,1.1,3.5-1.3,4.8c-3,1.6-5.8,3.5-8.7,5.1
		c-3,1.7-0.1,3,0.3,4.3c0.4,1.4,1.2,2.6,3.1,1.2c3.3-2.3,7-4.1,10.4-6.3c1.9-1.2,2.8-1.4,4.1,0.8c2.1,3.8,2.3,3.8-1.5,6.1
		c-5.9,3.6-11.8,7.1-17.6,10.7c-1.5,0.9-2.2,0.8-3.1-0.8c-4.7-8-9.6-16-14.5-24c-0.7-1.1-1-1.8,0.4-2.7c6.7-3.9,13.3-8,20-12
		C337.6,375.7,337.9,375.6,338.4,375.3z"/>
	<path class="st4" d="M412.8,340.1c-1.3,1.8-2.3,3.2-3.1,4.6c-1.5,2.7-2.9,3.7-6.6,2.7c-3.6-0.9-3.9,4.1-6,6.1
		c-0.9,0.9-2.3,2-0.8,3.7c0.9,1,2.8,2,2,3.6c-1.3,2.5-3.1,4.7-4.8,6.9c-0.6,0.8-1.1-0.2-1.4-0.7c-5.8-8.5-11.6-16.9-17.4-25.4
		c-0.6-0.8-0.8-1.5-0.1-2.4c1.5-2.1,3-4.2,4.4-6.4c0.7-1.1,1.6-1.1,2.6-0.9C391.7,334.7,402.1,337.3,412.8,340.1z"/>
	<path class="st4" d="M203.4,411.7c0,4.7-0.1,9.5,0,14.2c0,2.4-0.7,3.1-3,1.9c-1.1-0.6-2.3-1.1-3.5-1.3c-2.6-0.5-3.6-1.9-3-4.5
		c0.4-1.7-0.2-2.7-2-3.2c-1.5-0.4-3-1.1-4.4-1.8c-2.6-1.3-4.7-1.6-6.3,1.5c-0.7,1.5-1.9,1-3.2,0.5c-7.4-2.8-7.4-2.8-2.1-8.5
		c5.4-5.8,10.7-11.6,15.9-17.5c1.5-1.7,2.6-1.8,4.5-1c7.3,3,7.3,3,7,10.9c-0.1,2.9,0,5.9,0,8.8C203.5,411.7,203.4,411.7,203.4,411.7
		z"/>
	<path class="st4" d="M367.4,349.7c4.3,10,8.4,19.7,12.7,29.3c0.7,1.5,0.5,2.4-0.6,3.5c-5.9,6.2-5.8,6.2-13.5,2.5
		c-7.8-3.7-15.6-7.4-23.5-11.2c0.2-0.4,0.3-0.8,0.5-1c2.2-2.1,4.3-5.4,6.8-5.8c2.3-0.4,5.1,2.3,7.7,3.7c4.2,2.3,8.4,4.7,13.6,7.5
		c-2.7-5.4-4.9-10-7.2-14.5c-3.8-7.4-3.8-7.4,2.3-13C366.4,350.5,366.7,350.3,367.4,349.7z"/>
	<path class="st4" d="M138.5,351.1c-10.7,3.1-21,6-31.2,9c-0.1,0-0.2,0.1-0.3,0.1c-3.5-0.8-4-4.5-6.2-6.5c-1-0.9-1.3-1.9-0.4-3.2
		c5.6-8.5,11.1-17,16.5-25.5c0.9-1.4,1.5-1.5,2.3,0c0.1,0.1,0.1,0.2,0.2,0.3c4.9,6.1,4.8,6.1,0.3,12.4c-3.1,4.3-6.2,8.5-9.8,13.4
		c7.1-2.5,13.6-4.5,19.9-7c2.2-0.8,3.5-0.6,4.7,1.4C135.5,347.4,136.9,349,138.5,351.1z"/>
	<path class="st4" d="M365.9,117c4.3,2.3,4.9,5.5,3.6,9.9c-1.7,5.8-2.6,11.9-3.5,16.3c3.5-3.1,8.1-6.9,12.3-11
		c1.9-1.9,2.6-1.3,4.2,0.1c1.7,1.6,1.9,2.5,0.2,4.2c-6,6-11.7,12.3-17.6,18.4c-0.9,0.9-1.5,3.4-3.1,2.1c-1.8-1.4-4.6-2.4-3.7-6
		c1.5-6,2.6-12.1,3.9-18.2c0.2-0.9,0.3-1.8,0.6-3.6c-4.5,4.7-8.6,8.8-12.4,13c-1.6,1.7-2.5,1.9-4.2,0.2c-1.6-1.6-2.2-2.5-0.3-4.4
		C352.7,131,359.3,123.9,365.9,117z"/>
	<path class="st4" d="M160.6,106.9c0.1-6.7,3.2-11.1,8.6-14c4.5-2.4,9.1-3.5,13.7-0.4c1,0.6,3.5,1.4,2,2.9c-1.3,1.3-2.6,4.5-5.7,2.6
		c-3.2-2-6.4-1.2-9.1,0.9c-2.8,2.1-3.9,5-3.2,8.4c0.5,2.3,1.5,4.5,2.8,6.5c4.4,6.6,12.4,6.4,16.7-0.4c1.2-1.9,0.3-3.3-0.7-4.6
		c-1.1-1.4-1.9,0.5-2.8,0.6c-1.6,0.1-2.9,3.4-4.9,0.4c-1.5-2.3-1.4-3.7,1.3-4.7c2.4-0.9,4.7-2.2,6.9-3.5c2.1-1.3,3.1-0.7,4,1.4
		c0.7,1.7,1.3,3.4,2.4,4.8c2.8,3.4,1.3,6.1-1,8.9c-6.1,7.5-15.6,10-22.5,5.5C163.8,118.5,161.1,113,160.6,106.9z"/>
	<path class="st4" d="M106.4,194.9c-9.4-0.1-18.3-7.9-18.3-16c0-8.7,7.1-16.4,15.2-16.3c9.6,0,18.4,7.8,18.4,16.3
		C121.6,187.6,114.6,195,106.4,194.9z"/>
	<path class="st4" d="M242.3,92.4c0.1,9.5-5.4,15.5-14.3,16.3c-8.6,0.7-15-4.4-16.4-13c-0.6-3.6-0.7-7.2,0.5-10.7
		c2.3-6.4,8-9.8,15.8-9.5c6.4,0.2,11.6,4.4,13.5,10.9C242.1,88.5,242.4,90.7,242.3,92.4z"/>
	<path class="st4" d="M405.8,227.6c-8.6,0-14.9-6.8-14.9-16.2c0-8.9,7.9-15.4,18.7-15.3c8.8,0.1,14.7,6.7,14.6,16.3
		C424.2,221.3,416.5,227.6,405.8,227.6z"/>
	<path class="st4" d="M313.5,115.3c0,2.7-1.7,4-4.6,3c-6-2-11.9-4.1-17.9-6.1c-1.7-0.5-2-1.1-1.4-2.8c3.1-8.7,6-17.4,9-26.2
		c0.5-1.6,1.2-2,2.9-1.4c6.1,2.2,12.3,4.5,18.5,6.4c2.6,0.8,1.3,2.1,1,3.3c-0.4,1.3-0.5,2.8-2.8,1.9c-3.9-1.6-8.1-2.8-12.1-4.3
		c-1.7-0.6-2.7-0.5-3,1.5c-0.1,0.8-0.5,1.5-0.8,2.2c-0.7,1.6-0.6,2.6,1.4,3.1c3.6,1,7,2.5,10.6,3.5c2.3,0.7,2.3,1.7,1.6,3.7
		c-0.7,2-1.4,2.4-3.3,1.6c-3.6-1.4-7.2-2.5-10.8-3.8c-1.5-0.6-2.1-0.2-2.7,1.3c-2.4,6.2-2.5,6.2,3.8,8.4c3,1,6,2,8.9,3
		C312.4,113.8,313.6,113.8,313.5,115.3z"/>
	<path class="st5" d="M143.9,131.9c4.9,7.2,4.9,7.2,11.6,2c2-1.5,4-2.9,5.8-4.6c1.6-1.5,2.5-1.1,3.6,0.5c1,1.4,1.9,2.2-0.1,3.7
		c-5.3,4-10.5,8.2-15.7,12.3c-1.2,1-1.9,1.1-2.9-0.3c-5.7-7.4-11.5-14.8-17.4-22.1c-0.9-1.2-1-1.8,0.3-2.9c5.3-4,10.6-8.1,15.7-12.4
		c1.8-1.5,2.3-0.1,3,0.9c0.8,1,2.4,2,0.3,3.5c-3.5,2.5-6.7,5.4-10.2,7.9c-1.8,1.3-1.7,2.1-0.4,3.7c2.9,3.5,2.8,3.6,6.4,0.7
		c2.5-1.9,5.1-3.8,7.4-5.9c1.9-1.7,2.4-0.2,3.3,0.9c1,1.1,2,2,0.1,3.4C151.1,126.1,147.5,129.1,143.9,131.9z"/>
	<path class="st5" d="M93.4,228.2c-9.1-0.1-16.1-4.8-17.9-12.1c-1.8-7.1,2.4-15,9-16.7c1-0.3,2.8-1.3,3,0.6c0.1,1.9,1.7,4.7-1.1,5.6
		c-3.7,1.2-5.4,3.5-5.6,7.1c-0.2,3.3,1.9,5.8,5.8,7.4c3,1.2,6.1,1.7,9.3,1.5c3.3-0.2,5.5-2,6.4-5.1c0.9-3.1,0.1-6-2.8-7.7
		c-3.9-2.3-0.1-3.9,0.5-5.6c1-2.5,2.4-0.3,3.3,0.3c4.8,3.5,6.2,8.9,4.1,15.1C105.4,224.7,100.3,228.2,93.4,228.2z"/>
	<path class="st5" d="M321.5,117.7c0-10.9,10.8-20.3,20.4-17.8c6.7,1.8,11.7,7.9,10.9,13.7c-0.1,1,0.4,3.4-1.6,2.7
		c-1.8-0.6-5,0.1-4.9-3.2c0.2-3.5-1.3-5.9-4.4-7.2c-3.2-1.4-6-0.5-8.4,1.8c-2.6,2.5-4.4,5.5-5.4,8.9c-1,3.2-0.3,6.1,2.6,8.1
		c2.7,1.9,5.6,2,8.2,0c3.5-2.7,3.9,1.2,5.2,2.5c1.9,1.9-0.7,2.3-1.7,2.9c-4.3,2.8-8.7,2.7-13.1,0.3
		C324.2,127.6,321.5,123.1,321.5,117.7z"/>
	<path class="st4" d="M396.1,162.7c6.4,0,10.5,2.8,13.2,7.9c2.4,4.5,2.8,9.1-0.3,13.4c-0.5,0.8-1.2,3.3-2.8,1.4
		c-1.2-1.4-4.5-2.3-2.4-5.3c1.8-2.5,1.6-5.1,0.2-7.6c-1.5-2.5-3.8-3.9-6.8-3.6c-4.8,0.5-8.9,2.6-12,6.3c-1.9,2.3-2,5-0.7,7.6
		c1.3,2.7,3.7,3.8,6.6,3.8c0.9,0,2.3-0.9,2.7,0.4c0.5,1.7,0.8,3.5,0.7,5.3c0,0.8-1.3,0.5-2.1,0.6c-5.7,0.6-9.8-1.8-12.6-6.7
		c-3.1-5.5-2.8-11.3,0.9-15.8C385,165.6,390.4,163.2,396.1,162.7z"/>
	<path class="st4" d="M285.7,82.8c-2.4,0.1-5.1-1.8-6.6-0.2c-1.2,1.3-0.8,4.1-1.1,6.2c-0.8,5.8-1.5,11.6-2.2,17.5
		c-0.2,1.5-0.5,2.7-2.4,1.9c-1.5-0.7-4.5,1.1-4-2.7c0.9-6.6,1.6-13.2,2.5-19.8c0.6-4.4,0.7-4.4-3.6-4.9c-0.8-0.1-1.6-0.4-2.3-0.4
		c-2.9,0.3-2.8-1.4-2.7-3.5c0.2-3,2.1-2,3.6-1.8c6.4,0.8,12.8,1.6,19.2,2.4c1.6,0.2,3.2,0,2.6,2.6C288.2,81.9,288.3,83.8,285.7,82.8
		z"/>
	<path class="st4" d="M128.6,385.1c-1.2-0.3-1.7-1.2-2.4-1.9c-4.8-4.7-4.8-4.7-0.1-9.5c5.1-5.2,10.2-10.5,15.2-15.9
		c1.6-1.8,2.6-1.7,4.2,0c4.9,5,4.9,4.9,0,9.9c-5.2,5.3-10.4,10.7-15.6,16C129.4,384.2,129,384.7,128.6,385.1z"/>
	<path class="st5" d="M109.2,143.6c0.8,0.6,1.5,1.1,2.1,1.6c5.3,4.2,10.7,8.3,15.9,12.6c1.9,1.6,3,1.9,4.6-0.4
		c2.1-3.1,4.7-5.8,6.8-8.8c1.6-2.2,2.4-0.3,3.4,0.4c1,0.7,2.3,1.3,0.9,3c-4,4.8-7.8,9.7-11.5,14.6c-1.1,1.5-1.9,1.3-3.2,0.3
		c-7.1-5.7-14.3-11.3-21.5-17c-0.5-0.4-2-0.7-1.2-1.9C106.6,146.4,107.6,144.7,109.2,143.6z"/>
	<path class="st6" d="M208.6,111.7c-1,1.5-3,1.3-4.4,2.1c-1.3,0.7-1.7-0.1-2.1-1.2c-3-9.1-5.9-18.1-9.1-27.1
		c-0.6-1.7,0.3-2.2,1.4-2.2c1.6,0,3.6-2.8,4.6-0.2c3.4,9.3,6.3,18.7,9.4,28.1C208.4,111.2,208.4,111.3,208.6,111.7z"/>
	<path class="st5" d="M370.1,168.4c-1.5-1.1-2.4-2.8-3.4-4.3c-0.9-1.2,0.5-1.5,1.2-1.9c7.5-5.4,15.1-10.7,22.5-16.2
		c2.4-1.8,2.9,0.1,3.8,1.4c0.8,1.2,2.6,2.3,0.1,4c-7.7,5.3-15.3,10.8-22.9,16.2C371,167.8,370.7,168,370.1,168.4z"/>
	<path class="st6" d="M105,309.8c0.3,0.8,0.4,1.6,0.8,2.2c1,1.5,0.3,2.2-1.1,2.7c-0.1,0-0.2,0.1-0.3,0.2c-2,0.6-4.3,3.1-5.7,1.9
		c-1.9-1.6-2.5-4.6-3.7-7c-0.3-0.7,0.1-1.1,0.6-1.3c3.2-1.2,6.1-3.3,9.7-3.7c2.5-0.3,4.7,0.5,6.6,1.9c0.8,0.6,2.6,1.1,1.2,2.8
		c-1,1.1-1.7,2.8-3.6,1C108.4,309.2,106.7,309.1,105,309.8z"/>
	<path class="st6" d="M109.4,319.2c-0.1,1.7,2.1,3.1,1,4.1c-1.8,1.5-4.3,2.3-6.6,3.3c-0.8,0.3-1.1-0.5-1.4-1.1
		c-4-6.2-3.7-6.9,2.8-9.9c4.1-1.9,8-2,11.7,0.9c1.2,0.9,1.4,1.6,0.4,2.7c-0.8,0.8-1.1,2.7-2.9,1
		C113.1,318.9,111.4,318.7,109.4,319.2z"/>
	<path class="st6" d="M390.8,311.8c-0.3-1.3,1.9-8.1,2.8-8.7c0.2-0.1,0.4-0.1,0.6-0.2c4.7-0.2,12,6.4,12.4,11.1
		c0.1,1.5,0,2.5-1.9,2.7c-1.8,0.2-2.6-0.2-2.4-2c0-0.1,0-0.2,0-0.3c-0.3-1.4-0.9-3-2.1-3.2c-1.7-0.2-1.4,1.9-2,2.9
		C395.1,315.5,392.9,313.9,390.8,311.8z"/>
	<path class="st6" d="M397,315.5c3.4,1.9,5.3,4.6,5.5,8.6c0.1,1.8-0.8,2-2.2,2.2c-1.4,0.2-2.1-0.1-2.1-1.7c0-0.8-0.3-1.6-0.6-2.2
		c-0.4-0.8-0.8-1.8-1.8-1.8c-1-0.1-1.1,1.1-1.3,1.7c-0.6,1.8-1.3,1.8-3,1.1c-5.9-2.5-6-2.4-3.4-8.2c0.5-1.1,0.5-2.5,2-2.9
		C392.5,313.1,395.1,313.7,397,315.5z"/>
	<path class="st7" d="M308.9,81.1c4.5-5.4,4.5-5.4,10.2-3.2C316.4,81.3,312.5,82.5,308.9,81.1z"/>
	<path class="st8" d="M397,315.5c-2.4-0.9-4.8-1.8-6.9-3.2c0.2-0.2,0.5-0.4,0.7-0.6c2.6,0.4,4.6,2.8,7.5,2.4
		C398.3,315,397.4,315,397,315.5z"/>
	<path class="st9" d="M249.9,393.5c-79.1-0.6-142.5-66.8-138.7-146.4c3.5-73.1,65.5-134.9,144.2-132.2c75.2,2.5,138,66.6,134,146.4
		C385.8,334.5,324.8,393.5,249.9,393.5z"/>
	<path class="st10" d="M167.6,387.7c0.1,3.1-4.4,9.6-7.3,10.8c-2,0.8-6.3-0.8-7.6-2.6c-0.8-1.1,0.2-1.7,0.6-2.3
		c2.5-3.6,5.1-7.1,7.5-10.8c1-1.5,1.8-1.7,3.1-0.5C165.7,383.8,167.6,385.1,167.6,387.7z"/>
	<path class="st11" d="M383.3,340.7c4.4,1.4,7.8,2.5,11.3,3.6c-0.1,0.5-0.1,0.8-0.3,1.1c-3.2,5.1-3.2,5.1-7,0.3
		C386.1,344.4,385,343,383.3,340.7z"/>
	<path class="st12" d="M195.7,400.6c-0.4,4.4-0.2,8-1.1,11.7c-2.2-0.4-4.1-1.4-6.3-2.4C190.6,406.9,192.8,404.2,195.7,400.6z"/>
	<path class="st2" d="M102.8,169c6.5,0.1,13.2,5.7,13.1,10.9c-0.1,4.7-4,8.5-8.8,8.4c-6.5,0-13.1-5.5-12.9-10.9
		C94.2,172.6,98,168.9,102.8,169z"/>
	<path class="st2" d="M217.8,91.2c0-6.1,3-9.7,8-10.2c4.5-0.5,8.2,2.4,9.4,7.4c0.6,2.4,0.8,4.9,0.4,7.4c-0.7,4-3.4,6.7-7.4,7.3
		c-3.4,0.5-7-1.3-8.7-4.6C218.3,96,217.8,93.3,217.8,91.2z"/>
	<path class="st13" d="M418.7,211.5c0,5.3-5.2,9.3-12.7,9.7c-5,0.2-8.8-3-9.3-7.8c-0.5-5.8,4.8-10.4,12.6-10.7
		C414.7,202.3,418.7,206.1,418.7,211.5z"/>
	<path class="st14" d="M376,254.2c-0.1,69.1-55.8,125.7-125.8,125.6c-70.6-0.1-125.4-57.1-125.5-125.5
		c-0.1-68.8,55.3-125.7,125.6-125.8C320,128.4,376,184.9,376,254.2z"/>
	<path class="st15" d="M182.5,355.1c-4.9-3.8-10-7.2-14.3-11.6c0.2-1.6,1.6-1.4,2.6-1.6c6.6-1.3,13.4-1.8,20.1-2.6
		c7.7-1,15.5-0.7,23.3-0.8c4.4-0.1,8.8,0.2,13.1,0.9c1.3,0.3,2.6,0.5,3.9,0.5c1.1,0.1,2.2,0.4,3.2,0.8c3.4,1.5,3.9,1.3,4.6-2.5
		c0.8-4.2,1.5-8.4,2.3-12.6c0.3-1.7,0.3-3.6,1.6-5.1c1.7-1.1,2.7,0.1,3.8,1.1c1.3,1.1,2.2,2.5,3.1,3.9c0.4,0.6,0.7,1.2,0.8,1.9
		c0,0.3,0,0.7-0.1,1c-1.5,4.5-2.3,9.1-2.9,13.8c-0.3,2-2.3,3.9-1.7,5.5c0.7,1.7,2.4,3.2,3.4,4.9c0.2,0.4,0.4,0.8,0.6,1.2
		c0.3,0.6,0.4,1.2,0.8,1.8c0.3-0.2,0.3-0.6,0.4-0.9c2.1-4.3,5.3-7.7,9.1-10.5c2.5-2.8,6.2-2.9,9.3-4.2c1.5-0.2,3-0.4,4.5-0.7
		c9.4-1.5,19-1,28.4-0.7c8.9,0.3,17.7,1.5,26.5,2.8c1.3,0.2,3.1,0.1,3.5,2.1c-4.4,4.4-9.4,7.9-14.3,11.5c-5,0.8-10.1,0.3-15.1,0
		c-9.5-0.6-18.9,0.1-28.2,2.1c-1.4,0.3-2.9,0.7-4.1,1.5c-5.1,3.5-10.6,3.2-16.5,3.1c-9.3-0.1-18.1-0.5-27.1-4.2
		c-8.9-3.6-19.2-3.2-29.1-2.4C192.8,355.5,187.7,356.1,182.5,355.1z"/>
	<path class="st16" d="M343.3,332.6c-3.5,3.1-5.8,7.5-10.1,9.7c-4.2,0.2-8.2-0.8-12.3-1.3c-9.1-1.1-18.1-2.1-27.2-1.9
		c-3.2,0.1-6.3,0-9.5,0c-1.6-1.9,0.5-1.6,1.1-1.7c2.3-0.4,4.7-0.2,7.1-0.2c4.2-0.1,4.2-0.1,3.2-4.2c-1.1-4.6-1.7-9.2-0.6-13.9
		c0.5-0.4,1-0.5,1.6-0.5c5.4,0.7,10.8,1.2,16.1,1.6c2.7,0,5.3,0,8,0c2.7-0.1,5,0.8,7.3,2.1c3.8,2.6,7.8,4.8,11.9,7.1
		C341.3,330.1,342.7,330.9,343.3,332.6z"/>
	<path class="st16" d="M166.8,342.2c-3.4-2.8-6.3-6-8.9-9.6c0.4-1.3,1.5-1.9,2.6-2.5c4.5-2.5,8.9-5.2,13.3-7.8
		c2.7-1.8,5.7-2.7,9-1.9c5.8,1,11.5-0.4,17.3-0.7c1.7-0.3,3.5-0.4,5.2,0.1c3,1,3.9,2.9,2.6,5.9c-0.8,2-0.7,4.2-1.3,6.3
		c-0.7,2.4-0.7,4.6,1,6.5c-0.9,0.8-1.9,0.4-2.9,0.4c-9.7,0-19.3,1.3-29,2.6C172.9,342,169.9,343.3,166.8,342.2z"/>
	<path class="st17" d="M129.5,266.8c-0.4-7.3-1.3-14.5,0-21.8c0.6-0.9,1.5-1.3,2.5-1.5c6.3-1,12.6-2.6,19-3.4
		c4.9-0.5,9.6-2.1,14.6-2.2c0.6,0.2,1.1,0.6,0.7,1.2c-1.4,2.4-0.2,5-0.9,7.5c-0.5,1.6,1.1,2.8,2.1,4c0.7,0.8,2,1.1,2.3,2.3
		c-1.7,2.1-4.5,2.3-6.8,3.3c-3.4,1.4-7,2.2-10.3,3.8c-6.3,2.4-12.7,4.5-19,6.8C132.3,267.2,130.9,267.9,129.5,266.8z"/>
	<path class="st18" d="M356.1,311.8c0.7,0.9,0.2,1.7-0.2,2.4c-3,5.1-6.2,10-9.9,14.6c-0.7,0.9-1.4,1.7-2.7,1.2c-3.6-0.3-6-2.4-8.2-5
		c-4-5.3-8.5-10.2-12.7-15.3c-0.9-1.1-2.4-1.9-1.5-3.7c0.1-0.1,0.2-0.2,0.3-0.2c3.9,1.1,5.9-1.3,7.5-4.1c1.6-2.8,3.7-5.2,5.7-7.7
		c3.4,0.1,5,3.1,7.4,4.8c4.2,3.5,8.6,6.9,12.6,10.6C355,310.2,355.9,310.8,356.1,311.8z"/>
	<path class="st19" d="M130.9,233.5c0.5-6.8,2.7-13.2,4.8-19.6c1.8-1.5,4-1.2,6.1-1c6.2,0.6,12.5,0.9,18.7,1.5
		c4.1,0.6,8.3,0.7,12.4,1.1c1.4,0.1,3-0.2,4.1,1.1c-0.3,1.8-1.8,1.3-2.8,1.5c-1.3,0.2-2.7,0-4,0.4c-1,0.3-2.1,0.8-1.7,2.1
		c0.8,2.7-0.6,5.7,1.3,8.2c0.4,0.5,0.2,1.3-0.1,1.9c-4,1.9-8.4,1-12.5,1.7c-4.7,0.7-9.4,0.4-14.1,1.1c-2.7,0.3-5.4,0.5-8.1,0.9
		C133.6,234.7,132.1,234.6,130.9,233.5z"/>
	<path class="st20" d="M156.7,331.3c-4.4-5.1-8.2-10.6-11.6-16.5c-0.6-1-1-1.8,0-2.7c3.8-5.1,9.3-8.4,13.9-12.7c2-1.1,3.2-3.7,6-3.4
		c2.2,4.8,6.2,8,10.1,11.3c0.9,0.8,2.2,1.1,2.9,2.2c0.5,1.6-0.6,2.5-1.5,3.5c-3.2,4-6.8,7.7-9.9,11.8
		C163.7,327.6,160.8,330.4,156.7,331.3z"/>
	<path class="st21" d="M242.9,133.2c5.2-0.9,10.4-0.8,15.5,0c1.2,1.3,1,2.9,0.8,4.5c-0.8,6-0.9,12.1-1.6,18.1
		c-0.2,1.4-0.1,2.9,1.7,3.1c1.7,0.2,1.9-1.2,2.3-2.4c0.7-2.2,0.3-4.8,2-6.7c3.2-2.4,6.4-2,9.8-0.3c2.2,1.1,3.1,2.8,2.9,5.2
		c-0.5,3.3-2.1,6.4-3.1,9.6c-0.3,0.8-0.8,1.7-1.9,1.6c-0.9-0.4-1.2-1.3-1.5-2.1c-0.6-2-2-3-4-2.9c-2.2,0.1-3.1,1.7-3.5,3.6
		c-0.7,3.4-1.4,6.8-2.2,10.2c-0.5,1.8-0.9,4.3-3.2,4c-2.2-0.2-2.5-2.6-2.7-4.5c-0.3-2.7,0.5-5.4,0.6-8.1c0.1-1.2,0.1-2.5-0.1-3.7
		c-0.6-3.8-3.2-5-6.6-3.1c-0.9,0.5-1.7,1.6-3,1.2c-2.1-3.8-1.2-8.1-1.8-12.1c-0.2-1.6,0.1-3.4-0.5-5
		C242.9,139.9,241.4,136.5,242.9,133.2z"/>
	<path class="st22" d="M368.5,278.3c1.2,0.9,0.4,2,0.2,3.1c-1.2,6.6-3.9,12.8-5.7,19.2c-1.7,1.3-2.9,0.1-4.1-0.8
		c-3.1-2.3-6.4-4.4-9.7-6.6c-4.4-3.5-9.5-6.1-13.5-10.1c0-0.3,0-0.6,0.2-0.9c4.3,0.9,5.3-2.9,7.3-5.2c2.4-2.8,2.5-6.2,2.1-9.7
		c3.3-0.1,5.8,2.2,8.6,3.4C358.9,272.9,364,275,368.5,278.3z"/>
	<path class="st23" d="M333.2,165.7c4.8,3.6,8.5,8.3,12.2,12.9c0.2,1.7-1.3,1.9-2.3,2.4c-2.9,1.6-6,3-9,4.4c-6.7,3-13.3,6.2-20,9.4
		c-1.2,0.3-2.3,0.9-3.5,0.2c-0.2-0.3-0.5-0.5-0.5-0.9c0.2-4.6-2.7-6.3-6.6-7c-1-1.4,0.4-1.7,1.1-2.2c2.5-1.9,5.1-3.6,7.7-5.4
		c6-4.7,12.5-8.6,18.7-12.9C331.6,166,332.3,165.6,333.2,165.7z"/>
	<path class="st24" d="M138.3,301.4c-2.4-6.5-5-13-6.3-19.9c-0.2-1.1-1-2.1,0.2-3.1c5.9-3.7,12.5-6.3,18.8-9.2
		c0.4-0.2,0.9-0.1,1.3,0.1c0.3,0.2,0.6,0.6,0.4,0.8c-2.2,2.7-0.6,4.6,1,6.9c2.2,3,3.3,6.9,7,8.7c0.4,1.8-1,2.4-2.1,3.1
		c-2.1,1.5-4.3,2.9-6.5,4.4c-3.3,2.4-6.8,4.7-10.1,7.1C141.1,301,140,302.4,138.3,301.4z"/>
	<path class="st25" d="M365,214c2.2,6.4,4.4,12.8,4.8,19.6c-1.1,1-2.4,1.1-3.8,0.9c-2.8-0.5-5.5-0.4-8.3-0.8
		c-4.5-0.7-9-0.4-13.4-1.1c-1.4-0.2-3,0-4.1-1.1c-0.1-0.1-0.2-0.2-0.2-0.3c1.9-5.2,0.4-10.1-0.8-15.1c0-0.2,0.2-0.4,0.4-0.5
		c1.9-1.4,4.2-1.2,6.4-1.2c1.3,0,2.6,0,3.9-0.5c3.2-0.3,6.5-0.5,9.7-0.9C361.4,212.7,363.3,212.6,365,214z"/>
	<path class="st26" d="M352,187.5c2.9,5.1,6.3,10,8.4,15.5c-0.3,2.1-2.1,2.1-3.5,2.5c-2.9,0.7-5.9,1.1-8.9,1.7
		c-4.5,0.5-9,1.6-13.5,2.3c-1.4,0.2-2.8,0.7-4.3,0.2c-1.2-0.6-0.9-1.6-0.5-2.5c1.4-3.2,0.4-7.5-2.2-9.7c-0.5-0.4-1.1-0.7-1.4-1.4
		c0.4-1.6,1.8-1.8,3-2.3c2.2-0.9,4.5-1.2,6.6-2.3c4-1.5,8.1-2.8,12.1-4.3C349.3,186.7,350.7,186.3,352,187.5z"/>
	<path class="st27" d="M312.8,150.1c4.8,2.2,8.7,5.7,12.9,8.8c1,1.8-0.6,2.7-1.5,3.6c-4.6,4.4-9.6,8.2-14.4,12.4
		c-2.6,1.7-4.6,4.2-7.2,5.9c-0.9,0.6-1.5,1.8-2.9,1c-0.3-0.4-0.4-0.8-0.5-1.2c-0.8-4.9-1.4-5.4-6.3-5.6c-0.3,0-0.6-0.1-1-0.3
		c-1-1.5,0.4-2.2,1.1-3.1c3-3.9,6.5-7.4,9.5-11.3c2.6-3.2,5.4-6.4,8.2-9.5C311.3,150.5,311.8,149.7,312.8,150.1z"/>
	<path class="st28" d="M140.2,203c2.3-5.8,5.7-11,9-16.2c0.8-0.8,1.7-0.5,2.5-0.2c6.6,2.4,13.3,4.5,19.8,7.1
		c0.8,0.3,1.6,0.8,2.1,1.6c0.1,0.5,0.1,1-0.3,1.2c-3.5,1.5-3.1,5.1-4.4,7.9c-0.5,1.1-0.1,2.2,0.6,3.1c0.4,0.6,1.2,1.2,0.2,2
		c-3,0.6-5.8-0.9-8.7-1c-5.8-1-11.6-2.3-17.5-3.2C142.3,205.1,140.5,205.1,140.2,203z"/>
	<path class="st29" d="M175,158.9c4.1-3.3,8.2-6.5,12.9-8.9c2-0.9,2.9,0.7,3.8,1.8c3,3.5,6,7,8.8,10.6c2.2,2.2,4,4.8,6.1,7.1
		c0.9,1,2.2,2,1.5,3.7c-1.4,0.9-3-0.3-4.6,0.5c-3,1.4-3.2,3.9-3.2,6.6c-1.5,0.9-2.3-0.4-3.1-1c-2.7-2-5.1-4.3-7.7-6.4
		c-4.1-3.3-8-6.9-12.1-10.3C176.3,161.7,174.7,160.9,175,158.9z"/>
	<path class="st30" d="M182.5,355.1c13.1-1.2,26.2-1.9,39.2,0c4.4,0.6,8.8,1.5,12.5,4c2.8,1.9,5.5,2.3,8.6,1.9
		c6.2-0.8,12.3-0.5,18.4,0.2c1.4,0.2,2.8,0.2,3.9-0.6c6-4.5,13.1-5.4,20.2-6c11-1,21.9-0.5,32.8,0.6c-4,3.1-8.7,1.8-13.1,2.1
		c-1.9,0.1-3.8,0-5.7,0c-5,0.8-10.1,0-15.1,0.9c-3.1,0.6-6,2.1-9.2,1.9c-4,1.9-7.7,4.7-12.4,4.8c-1.8,1.4-3.9,1-5.8,0.8
		c-4-0.6-8-0.6-12.1,0c-2,0.3-4,0.6-5.8-0.8c-4.2,0-7.3-2.6-10.7-4.3c-0.5-0.2-1-0.3-1.6-0.5c-2.7,0.4-4.9-1.3-7.4-1.7
		c-4.4-0.7-8.9-0.9-13.4-0.8c-1.2,0-2.5,0.3-3.6-0.3c-3.7,0-7.4-0.1-11.1,0C187.9,357.2,185,357,182.5,355.1z"/>
	<path class="st31" d="M371,244.6c1.4,7.4,0.9,14.8,0.1,22.2c-1.1,1-2.2,0.4-3.2,0c-6-2.3-12.2-4.1-18.1-6.5c-1-0.6-2.5-0.6-2.6-2.2
		c3.7-4.5,6.6-9.2,4.6-15.4c-0.2-0.5,0.1-0.9,0.4-1.2c0.5-0.3,1-0.5,1.5-0.5c5.3,0.5,10.4,1.7,15.6,2.7
		C370,243.7,370.6,244,371,244.6z"/>
	<path class="st27" d="M291.1,139.9c4.8,1.1,9.1,3.5,13.5,5.6c1,1.2,0.2,2.1-0.4,3c-2,2.7-3.7,5.6-5.7,8.2
		c-2.8,4.2-5.7,8.3-8.6,12.4c-0.7,1-1.2,2.6-3,2c-0.8-4.6-1.4-5.1-6.1-5.8c-0.9-0.1-1.8-0.1-2.5-0.7c-0.7-2.2,1-3.5,1.7-5.2
		c0.5-1.4,1.2-2.7,1.6-4.1c2.1-4.6,4.4-9,6.7-13.5C288.8,140.7,289.2,139.1,291.1,139.9z"/>
	<path class="st23" d="M196.7,145.3c4.7-2.7,9.6-4.9,14.9-6.1c3.1,3.2,3.9,7.7,6,11.4c1.4,2.9,3,5.8,4.3,8.8
		c0.6,1.3,1.4,2.6,0.8,4.2c-5.3-0.8-7.5,2.3-8.7,6.7c0,0.1-0.2,0.2-0.2,0.2c-1.5,0.2-1.8-1.1-2.4-2c-2.4-3.3-4.5-6.7-7-10
		c-2.2-3.2-4.3-6.4-6.5-9.7C197.2,147.9,196.1,146.9,196.7,145.3z"/>
	<path class="st32" d="M219.8,136.6c4.8-1.6,9.8-2.4,14.9-2.8c1.4,0.9,1.5,2.4,1.8,3.8c0.7,3.4,1.2,6.8,1.8,10.2
		c0.2,2.7,1.1,5.2,1.6,7.8c0.2,1.2,0.6,2.4,0,3.6c-0.6,0.8-1.3,0.6-2.1,0.5c-5.9-0.9-6.4-0.2-8.4,3.9c-1.8-0.2-1.8-1.8-2.2-2.9
		c-1.6-4.2-3.1-8.4-4.6-12.6c-1.1-2.7-1.9-5.4-2.8-8.1C219.4,138.9,218.8,137.7,219.8,136.6z"/>
	<path class="st33" d="M155.9,177.9c3.5-4.4,7.2-8.6,11.5-12.2c1.1-0.7,2-0.1,2.8,0.5c5,3.4,9.9,7,14.9,10.3c0.8,0.5,1.8,1,1.4,2.4
		c-0.3,0.3-0.8,0.6-1.2,0.5c-4.5-0.8-5.5,3.4-7.9,5.5c-1.1,1,0.8,2.8-0.4,4.1c-1,0.6-2,0.2-2.9-0.3c-5.4-2.8-11-5-16.4-7.9
		C156.8,180.2,155.2,179.7,155.9,177.9z"/>
	<path class="st34" d="M202.1,357.1c8.4-1.3,16.6-1.2,24.4,2.8c-0.7,3.6-1.4,7.3-2,10.9c-0.2,1.5-0.7,1.9-2.2,1.5
		c-7.3-1.5-14.2-4.2-21-7c-1.6-0.7-1.6-1.6-1.1-2.9C200.9,360.7,201.5,358.9,202.1,357.1z"/>
	<path class="st35" d="M275,359.9c7.8-3.6,16-4.1,24.3-2.8c2.4,7.6,2.4,7.6-5.1,10.4c-4.2,1.6-8.5,3-12.8,4.2
		c-2.7,0.7-4.5,0.8-4.8-2.8C276.4,365.8,275.6,362.9,275,359.9z"/>
	<path class="st35" d="M238.9,364.7c7.9-0.7,15.8-0.8,23.7,0c1.1,2.8,0.5,5.8,1.2,8.6c0.3,1.5-0.8,1.9-2,1.9
		c-7.2,0.3-14.4,0.4-21.6,0.1c-1.6-0.1-2.2-0.7-2.1-2.3C238.2,370.2,238,367.4,238.9,364.7z"/>
	<path class="st36" d="M152.6,269.5c-5.7,2.6-11.5,5.2-17.2,7.9c-1,0.5-2,1.2-3.2,1c-0.6-2.5-0.9-5.1-1.9-7.4
		c-0.6-1.4-0.8-2.7-0.9-4.1c6.9-1.5,13.2-4.5,19.9-6.7c1.1-0.3,2.1-0.6,3.2-0.9c0.5,2.5,1.1,5,3.7,6.4c0.6,0.3,0.8,1,0.6,1.8
		C155.7,268.7,154.3,269.5,152.6,269.5z"/>
	<path class="st37" d="M350.1,259.5c7,2.4,14,4.9,21,7.3c-1.3,2.4-1.6,5-1.3,7.6c0.2,1.6-1.1,2.6-1.3,3.9c-7-3.2-14-6.5-21-9.7
		c-0.7-0.3-1.4-0.6-2.1-0.9c-0.3,0.1-0.6,0-0.9-0.3C345.7,264.3,347.3,261.5,350.1,259.5z"/>
	<path class="st38" d="M155.9,177.9c1,2.5,3.6,2.7,5.6,3.7c5.1,2.5,10.3,4.8,15.5,7.2c0.8-0.3,1.2,0.1,1.7,0.7
		c0.6,1.8-0.3,3.7,0.4,5.6c0.4,1.2-1,1.8-2.3,1.8c-1.2-0.1-2.3-0.4-3.2-1.3c-7.9-3.4-16.2-6-24.4-8.8
		C151.5,183.8,153.7,180.8,155.9,177.9z"/>
	<path class="st39" d="M275.5,154.8c-0.3-3.9-4.2-6.8-8-5.8c-1.2,0.3-2.4,0.7-3.5,1.1c-0.9-0.9-0.7-2-0.6-3.1
		c0.5-3.3,1.1-6.6,1.9-9.9c0.5-2.3,1.7-3.6,4.3-2.7c3.9,0,7.7,1.2,11.4,2.2c2,1,1.2,2.7,0.7,4.1c-1.2,3.9-2.9,7.6-4,11.5
		C277,153.2,277.2,154.8,275.5,154.8z"/>
	<path class="st40" d="M140.2,203c3.3,2.3,7.3,1.7,11,2.7c3.3,0.9,6.8,1.4,10.2,2.1c0.6,1.8,0.4,3.8,0.6,5.7
		c0.1,0.8,0.1,1.9-1.3,1.8c-8.4,0.1-16.6-1.8-25-1.3C137,210.2,138.4,206.5,140.2,203z"/>
	<path class="st41" d="M130.9,233.5c4-0.2,8.1-0.5,12.1-0.7c4.4-0.6,8.3,2.1,9.2,6.2c0.2,0.9-0.1,1.5-1,1.9
		c-7.3,1.4-14.5,2.7-21.8,4.1C129.2,241.1,130.1,237.3,130.9,233.5z"/>
	<path class="st42" d="M138.3,301.4c4.9-2.4,8.9-6.2,13.6-8.8c3.2,1.7,6.1,3.8,7.4,7.3c-4.8,4.1-9.5,8.1-14.3,12.2
		C143.3,308.3,141.3,304.6,138.3,301.4z"/>
	<path class="st43" d="M349.5,292.6c3.2,2.2,6.4,4.4,9.7,6.5c1.1,0.7,2.1,2.2,3.8,1.6c-2.4,3.6-5.6,6.9-6.8,11.2
		c-4.9-4.1-9.9-8.3-14.8-12.4C343.8,296.8,346,293.9,349.5,292.6z"/>
	<path class="st44" d="M309.4,174.5c4.8-4.2,9.6-8.4,14.3-12.6c0.9-0.8,2.1-1.5,2-3c2.7,2.1,5.3,4.2,7.5,6.8
		c-6.8,4.7-13.6,9.5-20.4,14.2C310.1,179.7,309.5,178.7,309.4,174.5z"/>
	<path class="st45" d="M269.5,134.4c-1.6,0-2.9,0.2-3.2,2.1c-0.8,4.5-1.6,9-2.3,13.5c-1,2.1-0.8,4.4-1.4,6.5c-0.5,2-0.6,4.1-3.6,3.6
		c-3-0.5-2.5-2.6-2.4-4.6c0.6-7.5,1.3-14.9,1.9-22.4C262.2,132.9,265.9,133.5,269.5,134.4z"/>
	<path class="st46" d="M186.5,178.6c-6.2-4.5-12.4-9.2-19.1-13c2.5-2.2,5.1-4.4,7.6-6.7c4,4.7,9.2,8.2,13.7,12.3
		c0.4,0.4,0.8,0.8,1.1,1.2c-0.2,2.4,0.5,5.1-2.4,6.6C187.1,179,186.8,178.9,186.5,178.6z"/>
	<path class="st47" d="M371,244.6c-5.8-1-11.7-2-17.5-3c-0.2-0.1-0.5-0.2-0.6-0.3c-1.1-2.8,1.8-8,4.7-8.4c4.1,0.2,8.1,0.5,12.2,0.7
		C370.7,237.2,371.6,240.8,371,244.6z"/>
	<path class="st48" d="M348.1,206.4c3.1-0.7,6.3-1.4,9.5-2c1.1-0.2,2.2-0.4,2.9-1.4c2.1,3.4,2.6,7.5,4.5,11
		c-5.2-0.6-10.3,1-15.5,0.6c-2.3,0.7-2.8-0.9-2.8-2.5C346.7,210.1,346.8,208.1,348.1,206.4z"/>
	<path class="st49" d="M352,187.5c-3.7-0.4-6.7,2-10.2,2.8c-2,0.5-4,1.3-6,1.9c-1.9,0.7-2.4-0.8-2.7-2c-0.5-1.9-0.7-3.8,0.7-5.4
		c3.7-2.4,8.1-3.4,11.5-6.2C347.6,181.5,349.8,184.5,352,187.5z"/>
	<path class="st50" d="M196.7,145.3c2.7,4.3,5.4,8.6,8.1,12.9c0.7,3.8-1.2,5.7-4.8,4.8c-2.7-3.2-5.5-6.4-8.2-9.6c-1.1-1.3-2-3-4-3.3
		C190.7,148.2,193.6,146.5,196.7,145.3z"/>
	<path class="st51" d="M276.8,152.1c1.4-4,2.7-8,4.1-12c0.4-1.2,0.9-2.3-0.1-3.5c3.5,0.8,7,1.6,10.2,3.3c-1.4,0.1-1.7,1.3-2.2,2.3
		c-2.2,4.4-4.5,8.9-6.7,13.3C278.9,156.7,278.1,154.1,276.8,152.1z"/>
	<path class="st52" d="M297.9,156.2c2-3.7,5.2-6.7,6.7-10.7c2.9,1.2,5.6,2.8,8.2,4.6c-3.2,3.6-6.3,7.2-9.5,10.8
		C300.1,161.5,298.3,159.9,297.9,156.2z"/>
	<path class="st53" d="M237.5,148c-0.9-4.7-1.8-9.4-2.8-14.2c2.7-1.2,5.4-0.7,8.2-0.7c0.6,3.3,0.8,6.7,0.7,10.1
		c0.5,2.2,1,4.5-1.5,5.8C240.4,149.9,238.6,149.9,237.5,148z"/>
	<path class="st54" d="M219.8,136.6c0.5,4,2.5,7.5,3.3,11.4c-1.1,3.9-3.3,4.9-6.1,2.7c-2.3-3.6-3.8-7.6-5.4-11.5
		C214.1,137.6,217.1,137.3,219.8,136.6z"/>
	<path class="st55" d="M166.8,342.2c6.4-0.7,12.7-1.4,19.1-2.2c6.3-0.8,12.5-1.6,18.9-1.2c1,0,2.1,0.1,2.9-0.6
		c0.3-0.4,0.6-0.7,1.1-0.7c6.2-0.7,12.2,0.2,18.2,1.4c0.7,0.1,1.2,0.6,1.1,1.4c-9.4-1.2-18.9-1.2-28.3-0.6
		c-10.6,0.6-21.2,1.5-31.6,3.8C167.7,343,167.3,342.6,166.8,342.2z"/>
	<path class="st56" d="M283.6,338.6c4.4,0,8.8,0.1,13.2,0.1c12.3,0,24.4,1.7,36.4,3.6c0,0.5-0.1,1-0.7,1.2c-4.7-2-9.8-1.8-14.7-2.5
		c-12-1.7-24.2-1.7-36.3-1.5c-2.7,0-5.3,1.2-8,0.7C275.4,337.8,279.9,337.2,283.6,338.6z"/>
	<path class="st57" d="M156.7,331.3c3-2.4,6.8-3.8,9.3-6.8c2.5-1.1,4.8-3.1,7.8-1.3c-5.3,3.1-10.5,6.3-15.8,9.4
		C157.1,332.6,156.7,332.1,156.7,331.3z"/>
	<path class="st58" d="M335.8,324.6c1.9,2.7,5,3.6,7.5,5.5c-1.3,0.8,1.7,1.7,0,2.5c-4.7-3.7-10.4-5.8-15.2-9.3
		C331.1,321,333.4,323.2,335.8,324.6z"/>
	<path class="st59" d="M283.6,338.6c-3.4,0.2-6.9,0.1-10.2,1.5c-1.2,1.2-2.7,0.5-4.1,0.7c-1.5-1.6-1.6-3.7-2-5.6
		c-1.1-5-1.4-10-2.5-15c-0.5-2.2,0.8-3.1,2.6-3.6c0.3-0.2,0.7-0.3,1.1-0.4c1.7-0.6,3.4-0.7,5.1-0.4c3,0.7,6.1,0.1,9,1
		c4.2,0.5,8.7,0,12.5,2.5c0.4,1.1,2.1,1.4,0.4,3.5c-1.7,2.1,0.1,5.6,0.7,8.4c1.4,6.9,1.5,6.8-5.7,6.9
		C288.2,338.1,285.8,337.5,283.6,338.6z"/>
	<path class="st60" d="M228.1,340.3c-1.6-1.5-3.8-1.3-5.6-1.4c-4.9-0.3-9.8-1.2-14.8-0.7c-2.7,0.1-3.3-1.1-2.5-3.5
		c1.2-3.8,0.9-7.9,2.6-11.6c0.8-1.8-2.6-0.6-2.2-2.5c0.3-0.8,1-1.2,1.7-1.4c4.4-1.2,9-1.1,13.5-2.1c3.6,0,7.2-0.7,10.8-0.9
		c1.3-0.1,2.7-0.1,3.9,0.7c1.5,1.8,4,3.5,0.7,6c-0.5,0.4-0.2,1.3-0.2,1.9c-0.3,4.2-1.4,8.2-2.1,12.3c-0.3,1.6-0.7,3.1-2.6,3.6
		C230.2,340.7,229,341.1,228.1,340.3z"/>
	<path class="st61" d="M268,317c-2.2,0.7-2.6,1.8-2,4.3c1.5,6.4,2.3,12.9,3.4,19.4c-2.7,1.9-6.5,1.3-8.7,4.1
		c-0.2-0.1-0.3-0.2-0.5-0.3c-1.7-2.4-1.9-5.2-2.5-8c-0.8-3.8-1.6-7.7-2.3-11.5c-0.3-1.7-0.4-3.3,0.8-4.8c1.6-1.6,3.2-3.4,5.7-3.7
		C263.9,316.9,266.1,315.4,268,317z"/>
	<path class="st62" d="M231.3,340.7c2.7-3.8,2.4-8.4,3.3-12.7c0.3-1.6,1.6-3.6,0-5.4c-0.1-0.1,0.1-0.5,0.2-0.5
		c5.2-0.7,0.7-2.9,0.7-4.4c0.7-0.7,1.6-0.7,2.5-0.7c1.5,0.2,3,0.6,4.3,1.5c0.6,0.5,1.4,0.9,1.5,1.9c-1.8,5.6-2.2,11.6-3.5,17.3
		c-0.2,1-0.6,2-0.6,2.9c0,2.7-1.6,2.4-3.4,2C234.4,342.1,233.3,340.3,231.3,340.7z"/>
	<path class="st63" d="M249.5,354.4c-1.6-1.9-2.4-4.3-4.3-5.9c-0.4-0.3-1-0.8-0.6-1.4c3.5-4.9,2.4-10.9,4.3-16.2
		c0.4-1.1,0.6-2.1,1.3-3c1.2,1,1,2.4,1.1,3.7c0,6.4,0.1,12.8,0,19.1C251.2,352.1,251.9,354,249.5,354.4z"/>
	<path class="st63" d="M250.1,327.2c-0.5-0.2-0.5-0.6-0.5-1.1c0-0.1,0.1-0.3,0.1-0.4c1.1-0.5,1.8-1.6,2.7-2.3
		c0.7-0.5,1.4-0.8,1.7,0.4c-2.1,4.8-1.9,9.5,0,14.3c1,2.4,0.9,5.3,1.4,8c1.8-0.1,2.9-2.5,4.9-1.3c0,0,0.1,0,0.1,0
		c-3.5,2.9-6.5,6.2-8.9,10c-2.1,0-1-1.6-1-2.4c-0.1-7.4,0-14.8-0.1-22.2C250.6,329.2,251.3,328,250.1,327.2z"/>
	<path class="st64" d="M250.1,327.2c1.6,0.5,0.9,1.9,0.9,2.9c0.1,7.2,0.1,14.4,0.2,21.7c0,1-0.5,2.3,0.6,3.1c0.1,1,0,1.9-0.9,2.7
		c-0.9-0.9-1.1-2.1-1.3-3.2c0.5-0.3,0.7-0.8,0.7-1.4c0-8.4,0-16.8,0-25.1C250.2,327.6,250.1,327.4,250.1,327.2z"/>
	<path class="st65" d="M243.6,320.3c-0.4-0.5-1.5-0.2-1.5-1.2c3.7-0.8,7.3,2.3,7.9,6.7c-0.2,0.1-0.4,0.2-0.5,0.4
		C247.7,324.1,246.4,321.4,243.6,320.3z"/>
	<path class="st66" d="M335.8,324.6c-2.6-0.1-4.9-2.4-7.7-1.4c-4.7-3.4-10.2-1.7-15.4-2.3c-0.1-0.3,0-0.6,0.3-0.8
		c1-0.6,2.2-0.3,3.5-0.7c-1.9-4.3-5.8-7.3-6.9-11.8c0.8-4.5,3.7-5.6,7.8-5c1.7,0.7,3,1.8,3.5,3.7c4,5.7,8.9,10.6,13.2,16
		C334.6,323,335.2,323.8,335.8,324.6z"/>
	<path class="st67" d="M295.1,319.2c-4.3-0.6-8.6-1.1-12.9-1.7c-0.1-0.3-0.1-0.6,0.1-0.9c1.1-1.4,0.3-2.8-0.2-4.1
		c-1.6-4.3-3-8.7-4.6-13c-0.5-1.3-1-2.5-0.3-3.9c2.5-1.4,4.9-0.4,7.4-0.1c1.2,0.6,1.6,1.9,2.2,2.9c3.4,6.7,6,13.8,9.8,20.2
		c0,0.2-0.1,0.3-0.1,0.5C296,319.2,295.6,319.2,295.1,319.2z"/>
	<path class="st68" d="M312.9,320.4c0,0.2-0.1,0.4-0.2,0.5c-5.4-0.3-10.9-0.2-16.2-1.8c0,0-0.1-0.2-0.1-0.2c1.8-1.4,3.9-1.1,5.8-0.8
		C305.8,318.7,309.6,318.3,312.9,320.4z"/>
	<path class="st69" d="M173.8,323.2c-2.8-0.8-5,1.8-7.8,1.3c3-4.5,6.9-8.2,10.2-12.4c0.6-0.8,1.2-1.6,1.8-2.4
		c-0.1-2.7,2-3.6,3.9-4.7c3.5,1.2,5.8,3.6,7.2,7c-0.8,3.1-3.1,5.3-4.7,7.9c-0.5,0.6-0.8,1.5-1.9,1.2
		C179.3,320.6,176.5,321.6,173.8,323.2z"/>
	<path class="st70" d="M182.5,321.2c0.4-0.5,0.7-0.9,1.1-1.4c5.2-0.5,10.5-0.6,15.7,0c0.4,0.2,0.7,0.4,0.9,0.8
		C194.3,321.2,188.4,322.6,182.5,321.2z"/>
	<path class="st70" d="M206.9,319.8c-0.5,0.2-0.9,0.5-1.4,0.7c-1.8,0-3.6,0-5.3,0c0,0-0.1-0.2-0.1-0.2c1.4-2.5,3.7-1.6,5.8-1.8
		C206.4,318.8,206.8,319.2,206.9,319.8z"/>
	<path class="st71" d="M169.6,252.6c-4.2-1.4-5.2-3.6-4.7-7.8c0.2-2.2-0.8-4.5,1.4-6.3c2.5-2,5.6-2.1,8.6-2.4
		c4.9-0.5,9.6-2.4,14.6-2.2c0.9,0.4,0.8,1.2,0.7,2c-0.5,3.2,0.5,5.7,3.6,7c0.3,0.1,0.4,0.5,0.4,0.9c-0.8,1.8-2.7,2-4.2,2.7
		c-6.1,2.2-12.2,4.5-18.4,6.7C170.8,253.2,170.1,253.1,169.6,252.6z"/>
	<path class="st72" d="M174.9,236.8c-2.9,0.5-5.8,1.1-8.7,1.6c-5,0.8-10,1.7-15,2.5c0.6-4-3.3-7.9-8.2-8.1c4.6-1.1,9.3-0.7,14-1.3
		c4.2-0.6,8.5-0.2,12.6-1.3c1.2-1.1,2.5-1.1,3.9-0.4C174.6,232,176.1,234.2,174.9,236.8z"/>
	<path class="st73" d="M169.6,252.6c0.7-0.1,1.3-0.2,2-0.2c0.6,2.3,1.6,4.6,1.9,7.1c-0.2,0.9-0.8,1.5-1.6,1.9
		c-3.9,1.7-7.8,3.4-11.6,5.3c-1.1,0.5-2.2,1.6-3.7,0.7c0-1-0.8-1.2-1.5-1.6c-2.5-1.5-3.7-3.5-2.5-6.4c4.4-2.5,9.4-3.4,14-5.3
		C167.6,253.5,168.8,253.5,169.6,252.6z"/>
	<path class="st26" d="M320.8,306.3c-1.1-1.1-2.2-2.3-3.3-3.4c-2.8-1.3-4.1-4.1-6.1-6.2c-2-2.1-3.9-4.4-5.6-6.7
		c-0.6-0.8-1.7-1.6-1.1-3c1.6-1.1,3.8-0.3,5.3-1.9c2.4-2.4,4.5-4.9,3.3-8.7c0.6-0.6,1.2-0.2,1.8,0.1c4.9,4,9.9,7.8,14.4,12.2
		c1.7,1.8,3.8,3.2,5,5.4c-0.1,0.7,0.1,1.7-0.2,1.9c-3.5,2.5-4.9,6.7-7.5,9.9c-0.9,1.2-2.2,2.1-3.7,0.7
		C322.4,306.1,321.6,306.2,320.8,306.3z"/>
	<path class="st74" d="M334.5,294.1c-2.1-1.3-3.9-3-5.3-5c0.8-2.6,4.3-5.8,6.7-6c4.8,2.8,9.3,6.1,13.6,9.5c-2.7,2.3-4.8,5.4-8.2,6.8
		C338.9,297.8,337.1,295.4,334.5,294.1z"/>
	<path class="st75" d="M173.6,230.2c-1.3,0-2.7,0-4,0c-3-2.8-0.6-7-2.5-10.1c-0.6-1,0.6-1.5,1.4-1.9c2.7-1.6,5.7-0.6,8.6-0.9
		c2.1-1.6,4.5-0.9,6.7-0.7c4.2,0.6,8.5,0.7,12.7,1.1c1.6,0.1,3.2-0.1,4.5,1c1.2,3.2,1.2,6.4,0,9.6c-3,1.9-6.6,0.9-9.8,1.4
		c-5.1,0.7-10.2,1.1-15.4,1.2C175.1,230.7,174.3,230.7,173.6,230.2z"/>
	<path class="st76" d="M183.8,217.3c-2.2,0-4.5,0-6.7,0c-4-1.1-8.1-0.8-12.2-1.3c-1.4-0.2-2.9,0.5-4.2-0.7c1.2-1.1,0.5-2.2,0.2-3.3
		c-0.3-1.4-0.3-2.8,0.5-4.2c3-0.3,5.8,1.2,8.8,1.3c0.3-0.3,0.7-0.6,1.2-0.5c5.1,0.9,10.4,1.1,15.3,3.2c0.5,0.6,0.7,1.4,0.8,2.1
		C188.1,217,187.3,217.7,183.8,217.3z"/>
	<path class="st77" d="M181.8,305.5c-1.4,1.3-3.1,2.3-3.9,4.2c-5.6-1.6-8-7.3-12.5-10.3c-1.1-0.7-0.5-2.3-0.6-3.5
		c0-2.5,2.6-2.9,3.8-4.4c0.9-1.2,2.3-1.8,3.4-2.8c4-3.8,8.6-7,12.5-11c0.8-0.8,1.7-1.6,3-0.8c0.2,2.4,0.7,4.7,3.6,5.2
		c1.2,4.4,4.5,3.4,7.6,2.8c0.9,2-1.3,2.7-1.9,4.1c-4,4.6-7.9,9.4-11.8,14.1C184,304.1,182.9,304.9,181.8,305.5z"/>
	<path class="st78" d="M172.3,289.2c-2.5,2.3-5,4.5-7.5,6.8c-1.8,1.3-3.6,2.7-5.4,4c-2.5-2.4-4.9-4.9-7.4-7.3
		c2.7-2.6,6.4-3.9,8.9-6.7c0.9-1.5,2.1-2.7,4.1-2.5c2.2,0.9,4.1,2.3,6.2,3.5C171.9,287.4,173.2,287.8,172.3,289.2z"/>
	<path class="st79" d="M229.3,163.7c0.3-4.4,4.5-6.7,8.4-4.8c0.6,0.3,1.2,0.5,1.8,0.8c1.6,1.7,1.3,4,1.9,6c0.3,0.9,0.4,1.7,0.7,2.6
		c0.3,0.9,0.6,2.2,1.8,2.1c1.4-0.2,0.9-1.5,0.9-2.5c0.1-2.5-0.8-5.1,0.8-7.5c1.4-0.5,1.5-2.4,3.2-2.7c4.6-0.8,6.6,0.7,7,5.5
		c0.3,3.4-0.8,6.7-0.7,10.1c0,0.8-0.1,1.6,0.1,2.4c0.3,1.2,0.8,2.7,2.1,2.6c0.9,0,1.6-1.4,1.8-2.6c0.9-4,1.8-8.1,2.5-12.2
		c0.4-2.7,2.3-3.7,4.4-3.6c2.3,0.1,4.8,0.8,4.7,4.1c0,0.6,0.4,1.3,0.6,1.9c1,1.3,0.1,2.6-0.2,3.9c-0.2,0.9-0.7,1.7-0.8,2.6
		c-0.1,1-0.5,2.3,0.7,2.7c1.3,0.4,1.6-1,2.1-1.8c1.7-2.9,2.3-6.4,5-8.7c1.9,0,3.7-0.1,5.6,0.6c3.6,1.3,4.2,2.4,3.2,6.2
		c0,1.5-0.9,2.6-1.6,3.8c-3.8,5.9-8,11.5-11.5,17.6c0.9,0.7,1.7-0.3,2.3,0.2c0.5,1,0.1,1.8-0.5,2.4c-3.6,3.7-6.5,8-10.1,11.6
		c-0.9,0.9-1.7,2.2-3.3,1.5c-0.5-0.8-0.5-1.6-0.2-2.5c2.8-5.3,7.1-9.6,9.9-15c0.6-1.2,1.2-2.4,1.4-3.8c0.1-0.6,0.3-1.4-0.4-1.8
		c-0.7-0.4-1.3,0-1.9,0.4c-1.6,1-2.4,2.6-3.3,4.2c-0.9,1.7-1.8,3.4-3,4.9c-0.9,1.1-1.9,1.8-2.8-0.1c-0.6-2.3-0.4-4.7-0.3-7
		c0.1-2.5-1-3.4-3.4-3.4c-6.2,0.1-12.4-0.1-18.5,0.1c-2.3,0.7-1.1,2.7-1.3,4.1c-0.3,1.8,0.8,4.6-0.9,5.3c-2,0.8-2.1-2.3-3.3-3.5
		c-1.1-1.1-2.5-3-3.8-2.3c-1.5,0.9-0.3,2.9,0.4,4.3c1.2,2.3,2.6,4.5,4.1,6.6c0.8,1.1,1.7,2.1,2.4,3.3c0.9,1.5,1.9,3.4,0.2,4.6
		c-1.5,1-2.5-1-3.4-2c-1.9-2.3-3.9-4.4-5.8-6.7c-1.2-1.4-2.5-2.7-4.1-3.5c-1-0.6-2.2-1.8-3.3-0.9c-1.2,1,0.3,2,0.5,3
		c0.1,0.4,0.2,0.9,0,1.3c-2.3,0.8-3.4-1.3-4.8-2.3c-3.6-2.6-6.4-6-10.2-8.4c-2.2-2.2-5.3-3.5-6.4-6.8c-1.1-3.1-0.5-5.2,2.4-7.3
		c2.3-1.6,3.9,0.1,5.7-0.2c1.7-0.4,2.3,1.1,3.2,2c2.5,2.9,4.8,6,7.6,8.6c0.5,0.5,1.2,1.3,2,0.5c0.6-0.6,0-1.3-0.3-1.8
		c-1.4-2.4-3-4.8-4.6-7.1c-1-1.5-2.7-2.8-2.4-5c0.3-1.5,0.4-3.1,1-4.5c1.2-2.9,3.8-3.5,7.8-2.3c2.1,0.1,2.2,2,2.8,3.3
		c0.9,1.9,1.7,3.9,2.9,5.7c0.4,0.7,1,1.4,1.9,1c0.9-0.4,0.8-1.3,0.7-2c-0.3-1.9-1.4-3.6-1.8-5.4
		C228.7,165.3,228.5,164.4,229.3,163.7z"/>
	<path class="st80" d="M245.6,160.3c0.1,2.8-0.1,5.7,0.3,8.4c0.2,1.5,0.2,2.5-1.3,2.9c-1.5,0.4-2.7-0.1-3.1-1.8
		c-0.8-3.4-1.8-6.7-2.1-10.2c0-4-1.9-7.6-2-11.6c4.7,1.6,6,0.6,6.1-4.7c1.1,4.2,0.7,8.6,1.3,12.8C245.1,157.5,244.4,159,245.6,160.3
		z"/>
	<path class="st81" d="M278.2,164.3c-1.6,3.3-3.1,6.7-4.7,10c-0.5,1.1-1.2,2.5-2.7,2c-1.3-0.4-1.6-1.9-1.3-3.2c0.5-2.5,1.3-5,2-7.4
		c1.9-3.4,2.9-7.2,4.1-10.9c0.5-0.9,0.9-1.8,1.4-2.7c2,0.9,2.7,3.7,5.4,3.4C281.6,158.8,279.5,161.4,278.2,164.3z"/>
	<path class="st82" d="M344.8,267.3c0.2,0.1,0.4,0.2,0.6,0.4c1.8,4.7,0.5,8.9-3.6,12.3c-0.2,0.1-0.5,0.3-0.5,0.4
		c0.1,5.5-3.3,2.1-5.4,2.2c-0.9,0.6-1.7,0.1-2.4-0.4c-4.5-3.1-9-6.2-13.5-9.3c-3-2.4-6.2-4.3-9.2-6.6c-0.9-0.7-2.3-1.2-2-2.8
		c0.1-0.1,0.2-0.2,0.3-0.2c4.1,0.6,4.5-3.4,6.5-5.3c1.3-1.2-1.1-2.8,0.2-4.1c2.9-0.5,4.9,1.8,7.4,2.5c1.8,0.5,3.4,1.6,5.1,2.4
		c4.5,2.1,9,4.2,13.4,6.4C342.7,265.6,343.9,266.2,344.8,267.3z"/>
	<path class="st83" d="M320.3,272.2c5.2,3.4,10.3,6.9,15.5,10.3c0,0.2,0.1,0.4,0.1,0.6c-2.3,2-4.9,3.6-6.7,6
		c-4.8-4-9.6-8.1-14.3-12.1C314.9,273.5,317.8,273,320.3,272.2z"/>
	<path class="st84" d="M291.7,174.5c6.4-1.2,9.1,1.5,8.1,7.4c-2.4,4.5-7,6.9-10.5,10.2c-1.6,1.5-3.4,2.8-4.6,4.9
		c1.5,0.8,2.2-0.2,2.9-0.7c3.7-2.6,7.5-4.9,11.1-7.6c1.3-0.9,2.5-2.4,4.4-2c6.2,0,7.4,1.4,7.5,8.2c0,1.8-1.6,2-2.7,2.5
		c-5.7,2.8-11.6,5.4-17.3,8.3c-0.9,0.4-1.9,0.8-2.9,0.3c-0.3-0.2-0.4-0.6-0.3-0.9c0.5-1.1,1.2-2.3-0.2-3.3c-1.3-0.9-2.6-0.7-3.8,0.1
		c-2.6,1.9-5.6,3.4-8.2,5.4c-3,2.3-6.3,4.3-9.5,6.5c-1,0.7-2,1.6-3.4,0.9c-0.3-0.4-0.4-0.9-0.3-1.4c3.2-4,7.4-6.8,11.2-10.1
		c2.4-2.1,4.6-4.3,7.1-6.2c0.8-0.6,1.4-1.4,1.9-2.3c0.6-1,0.6-1.9-0.2-2.8c-0.8-0.8-1.6-0.6-2.5-0.2c-1,0.5-1.7,1.5-3,1.1
		c-0.7-1.6,0.5-2.5,1.4-3.5c3.1-3.4,6.2-6.9,8.9-10.6C288.5,177.3,289.3,175.1,291.7,174.5z"/>
	<path class="st85" d="M303.3,186.7c-5.4,3.7-10.8,7.4-16.2,11c-0.9,0.6-1.9,1.7-3,0.6c-1.2-1.3,0-2.3,0.9-3.1
		c4.9-4.4,9.9-8.8,14.9-13.2c3.4-2.1,5.9-5.6,9.5-7.4c1.7,1.4,0.3,4.9,3.4,5.4C309.6,182.2,306.4,184.5,303.3,186.7z"/>
	<path class="st86" d="M333.8,184.7c0.6,2.5-1.6,5.8,2,7.5c-1.8,1.7-4.3,1.4-6.4,2.5c-1.1,0.5-2.4,0.6-3.2,1.6
		c-3.4,2.2-7.1,3.8-11.3,3.8c-2.3-1.6-2.2-3.6-0.9-5.8C320.4,190.5,327.1,187.6,333.8,184.7z"/>
	<path class="st87" d="M314.1,194.2c0.4,1.8-0.9,4.1,1.4,5.4c0,1.7-1.6,1.7-2.6,2.1c-4.3,1.6-8.5,3.4-12.9,4.6
		c-3,0.8-5.7,3.1-9.2,2.2c-1-1.1-1.4-2.2-0.5-3.5c5.6-2.7,11.2-5.5,16.9-8.2c1.2-0.6,2.5-0.9,3.5-2
		C311.9,194.6,313,194.4,314.1,194.2z"/>
	<path class="st88" d="M164.8,283.7c-1.6,0.1-2.3,2-3.9,2.2c-3.7,0.2-4.4-3.2-5.9-5.3c-1.5-2-2.1-4.7-4.4-6.2
		c-1.1-0.7-0.8-1.9,0.2-2.5c0.9-0.6,1.4-1.4,1.8-2.4c1.3-0.7,2.7-1.5,4-2.2c5.1-1.9,9.7-5.1,15-6.5c3.1,3.7,5.8,7.8,9.1,11.3
		c0,0.5,0,1-0.4,1.2C175.4,277.1,170.6,281.2,164.8,283.7z"/>
	<path class="st21" d="M339.3,215.9c1.6,1.9,2.4,4,2.1,6.5c-0.1,0.7-0.2,1.5,0.1,2c1.9,2.7,0.6,4.6-1.5,6.4c-1.9,1.5-3.9,0.9-6,0.7
		c-4.3-0.5-8.6-1-13-1.1c-1.8-0.1-3.6,0.1-5.2-1.1c-1.6-2.1-0.3-4.4-0.1-6.5c0.3-2.6-0.7-3.1-2.8-3.4c-1.4-0.2-3.4,0.8-4.2-1.5
		c3.8-1.8,8.1-1.1,12.1-1.7c1.9-0.3,3.8,0.1,5.6-0.4c2.9-0.3,5.8-0.9,8.7-0.9C336.6,214.9,338.1,214.7,339.3,215.9z"/>
	<path class="st89" d="M333.9,230.8c2,0,4.1,0,6.1,0c4.2,1,8.6,1,12.9,1.3c1.6,0.1,3.4-0.4,4.9,0.6c-2.9,2.2-4.3,5.1-4.1,8.7
		c-0.5,0-0.9,0.1-1.4,0.1c-1.9,0.6-3.8,0.2-5.7-0.3c-5.3-1.3-10.9-1.4-16.1-3.5C329.5,234.2,330.9,231.3,333.9,230.8z"/>
	<path class="st90" d="M339.3,215.9c-4.3-0.4-8.6,0.8-12.9,0.7c-2-0.4-1.4-1.9-1.2-3.1c0.3-1.4,1-2.7,2-3.8c0.8-0.6,1.5-1,2.5-0.6
		c4.7-0.2,9.2-1.4,13.7-2.2c1.5-0.3,3-0.5,4.6-0.5c0,1.6,0,3.1-0.5,4.7c-0.5,1.6-0.4,3.2,1.9,3.5
		C346.2,215.9,342.6,214.8,339.3,215.9z"/>
	<path class="st91" d="M329.8,209.1c-0.7,0.2-1.3,0.5-2,0.7c-1.7,1.2-3.7,1.6-5.7,1.9c-5.8,0.9-11.5,2.7-17.5,2.7
		c-1.5-0.8-1-1.8-0.2-2.7c0.6-0.8,1.8-0.9,2.3-1.9c-1.5-2.7-5-2-6.8-4.1c4.3-1.6,8.6-3.2,12.9-4.9c0.9-0.4,2-0.3,2.7-1.2
		c3.6-1.1,7.2-2.3,10.8-3.4c2.3,0.5,4.2,1.4,4.2,4.3c0,0.5,0.2,1.2,0.5,1.5c1.9,2.1,1.4,3.9-0.7,5.6
		C330,207.9,329.9,208.6,329.8,209.1z"/>
	<path class="st92" d="M291.7,174.5c-1.4,1.6-2.7,3.2-4.1,4.7c-3.2,0-3.7-0.9-2.7-4.7c0.7-1.1,1.4-2.3,2-3.4c3.4-3.6,5.7-8,8.7-11.9
		c0.7-1,1.5-2,2.2-3c1.2,2.2,2.3,4.6,5.4,4.7C299.4,165.4,295.6,170,291.7,174.5z"/>
	<path class="st93" d="M186.5,211.9c-5.4-1-10.8-1.9-16.3-2.9c-2.6-1.5-3-3.6-1.6-6.2c0.2-0.4,0.6-0.8,0.5-1.2
		c-0.3-3.4,1.9-4.8,4.4-6.1c1.1,0.2,2.2,0.5,3.4,0.7c6.5,1.6,12.8,3.4,18.6,6.9c-0.1,2.3-2.3,3.9-2.2,6.5c0,1.3,1.8,2.6,0.1,4
		C191,214,188.5,213.7,186.5,211.9z"/>
	<path class="st94" d="M213.7,170.4c2.6,3.9,5.3,7.8,7.9,11.8c0.6,1,1.6,2.2,0.3,3.3c-1.4,1.1-2.2-0.1-3.1-0.9
		c-3.8-3.5-6.5-8.1-10.4-11.5c-2.7-3.4-5.4-6.8-8.2-10.2c3.4,0.2,4.3-2,4.8-4.8C208.4,161.9,210.6,166.5,213.7,170.4z"/>
	<path class="st95" d="M200.1,180.6c2.3,2,4.5,4.1,6.8,6.1c0.5,2.2,0.2,3.9-2.3,4.6c-0.3,0-0.7,0-1-0.1c-4.8-3.2-9.5-6.6-14.3-9.9
		c-0.9-0.7-2.3-1.1-2.1-2.7c1.6-0.2,1.4-1.4,1.4-2.5c0-1.4,0.9-2.5,1.4-3.7C193.3,175.2,196.7,177.9,200.1,180.6z"/>
	<path class="st96" d="M330.5,237.5c7.2,1.4,14.4,2.8,21.7,4.2c2.1,2.2,2.2,4.4,0.8,7.2c-1.1,2.2-1.5,4.7-2.3,7
		c-0.5,1.6-1.8,2.2-3.4,2.2c-1.3,1-2.6,0.3-3.8-0.1c-4.3-1.7-8.8-3-13.1-4.7c-1.8-1.2-4.5-0.8-5.6-3.2c0.9-1.8,3.2-2.4,3.5-4.8
		c0.3-2.4,1.9-4.8-1.5-6.4c-0.7-0.3-1.1-1.4-0.2-2.3C328.1,235.9,329.4,236.5,330.5,237.5z"/>
	<path class="st97" d="M330.4,252.6c5.6,1.8,11.3,3.7,16.9,5.5c0.9,0.5,1.9,0.9,2.8,1.4c-1.8,2.6-3.6,5.2-5.4,7.8
		c-5.7-2.7-11.3-5.4-17-8C325.1,255.2,325.7,253.5,330.4,252.6z"/>
	<path class="st98" d="M229.3,163.7c0,2.6,1.5,4.7,2.2,7c0.5,1.7,0.8,3.5-0.8,4.2c-1.6,0.7-2.6-0.7-3.6-2.3c-1.7-2.9-2.3-6.4-4.6-9
		c-0.9-4.7-4.2-8.4-5.5-12.9c3.3,1.8,4.5-0.8,6.1-2.7c1.6,4.1,3.1,8.2,4.7,12.3C228.3,161.4,228.3,162.7,229.3,163.7z"/>
	<path class="st93" d="M187.2,178.6c4.4,3.7,9.3,6.6,13.9,9.9c0.9,0.6,1.9,1.2,2.5,2.2c-2.8,2-5,4.6-6.7,7.6
		c-1.2,0.5-2.2-0.2-3.2-0.7c-4.2-2-8.3-4.4-12.8-6.1c-1.1-0.4-1.9-1.2-2.5-2.1c-0.4-0.2-0.9-0.5-1.3-0.7c0-0.9-0.1-1.8-0.8-2.5
		c-0.4-0.4-0.7-1-0.4-1.5c0.3-0.4,0.7-0.9,1.2-1.1c2.8-1.2,2.7-6.7,7.4-5.1c0.6,0.2,1.3,0,2,0C186.7,178.6,187,178.6,187.2,178.6z"
		/>
	<path class="st99" d="M178.3,189.5c6.1,2.9,12.3,5.8,18.4,8.7c2.8-0.4,4.8,1,6.7,2.7c0.9,1.9,3.2,3.9-0.4,5.4
		c-2.8-0.2-5.5-0.7-7.6-2.8c-5-2.4-10.3-4-15.4-5.9c-1.1-0.4-2.2-0.5-3-1.5c0.7-0.2,2.1-0.7,1.6-1.1
		C176.5,193.2,178.6,191.4,178.3,189.5z"/>
	<path class="st100" d="M277.4,296.1c2.1,6.1,4.1,12.2,6.3,18.3c0.7,1.8,0.4,2.7-1.5,3.1c-2.9-1.6-6.2-0.1-9.3-1
		c-1.4,0.1-2.9,0.2-4.3,0.3c-2.6,0-2.6-2.1-2.9-3.7c-1.3-6.7-2.4-13.4-3.8-20.1c-0.1-0.7-0.1-1.4,0.3-2.1c1.4-0.9,2.2,0.7,3.4,0.8
		c1.6,0.1,2.9-0.3,4.2-1.1c1.7-1.1,3.3-1.2,5.1-0.4C276.9,291.6,277.3,293.8,277.4,296.1z"/>
	<path class="st101" d="M262.7,292.7c1.8,6.5,2.7,13.2,4,19.9c0.3,1.6,0.1,3.4,2.1,4.2c-0.3,0.1-0.5,0.2-0.8,0.3
		c-2-0.9-3.9,1.3-5.9,0.1c-1.1-3.1-0.5-6.2-0.6-9.3c-0.1-3.7-0.1-7.4,0-11.1C261.5,295.3,261.4,293.8,262.7,292.7z"/>
	<path class="st102" d="M273,316.4c3.1,0.5,6.4-1.2,9.3,1c0,0-0.1,0.1-0.1,0.1C279.2,316.8,276,317.5,273,316.4z"/>
	<path class="st103" d="M206.9,319.8c-0.3-0.3-0.6-0.6-0.9-0.9c-0.7-1.5,0.2-2.6,0.8-3.7c2-3.9,3.7-7.9,5.4-11.8
		c1-1.7,1.8-3.6,3.3-5c3.1-1.5,5.1,0.4,7.1,2.3c0.7,2.2-0.7,3.9-1.3,5.7c-0.9,2.7-1.6,5.4-2.8,7.9c-0.9,1.9-0.2,2.6,1.5,3
		c0.1,0.1,0.2,0.2,0.3,0.4C216,319,211.5,319.4,206.9,319.8z"/>
	<path class="st104" d="M238.1,317.7c-0.9,0-1.8,0-2.6-0.1c-5-1.5-10,0.7-15,0.1c0,0,0,0,0,0c0.1-1.4,1.3-1.4,2.2-1.5
		c2.2-0.3,4.4-0.7,6.7-0.8c3.9-0.1,4.3-0.5,5-4.4c0.4-2.2,0.7-4.4,1.1-6.6c0.3-1.3,0.3-2.7,1.7-3.6c2,1.5,0.8,4,1.8,5.9
		C239,310.3,240.1,314.1,238.1,317.7z"/>
	<path class="st105" d="M238.1,317.7c0-3.9-0.1-7.8-0.1-11.6c0-3.1-0.7-6.1-0.8-9.2c-0.1-0.6-0.1-1.3,0-1.9
		c-0.2-17.1,0.3-34.3-0.3-51.4c-0.4-0.7-1.2-0.8-1.9-0.8c-3.5,0.5-7-1.4-10.6-0.2c-0.4,0.1-0.8,0.2-1.2,0.2
		c-6.7,0.8-13.4-0.9-20.1-0.7c-2,0.1-3.1-1.1-3.2-3.1c-0.2-2.1-0.1-4.3,0-6.4c-0.1-1.5-0.1-3,0.7-4.4c0.2-3.1,0.4-6.2,0.5-9.3
		c1.2-1.4,2.8-1.1,4.4-1.2c5-0.1,10,0.2,15,0c4.4-0.1,8.8-0.1,13.2,0.1c2.4,0.1,3.6-0.6,3.4-3.2c-0.3-4.7,0.6-9.3,0.2-14.1
		c-0.5-5.6,0.5-11.4,0.8-17.1c7.3,0,14.7,0,22-0.1c1.9,0,2.5,0.6,2.5,2.5c-0.1,3.3,0,6.5,0.1,9.8c1.6,3.4,1.1,6.8,0,10.2
		c0,0.9,0,1.8,0,2.7c1.3,1.6,0.7,3.2,0,4.8c0,0.4,0,0.9,0,1.3c0.6,0.7,0.7,1.7,0.9,2.6c0.6,0.8,1.4,0.5,2.2,0.6
		c5.3-0.1,10.6-0.2,15.8-0.1c3.9,0.2,7.8-0.1,11.7,0c1.2,0,2.5,0,3.6,0.6c2.3,2.6,2,5.6,1.7,8.7c-0.4,1.6-0.6,3.2-0.1,4.8
		c0.3,2.9,0.2,5.9-0.3,8.8c-0.3,0.5-0.7,0.9-1.3,1.1c-6.4,0.6-12.8,1.2-19.2,1.1c-1.3,0-2.6,0-3.9-0.2c-2.3-0.2-4.6,0.3-6.9,0.1
		c-0.5,0-1-0.1-1.5-0.2c-1.7-0.3-1.7,0.9-1.8,2c-0.1,2,0,4,0,6c-0.1,2,0.2,4,0,5.9c0.1,9.8,0.1,19.6,0.1,29.4c0,1.7,0.3,3.4-1,4.8
		c0,0.7,0,1.4,0,2.1c0,7.1-0.1,14.2-0.1,21.3c0,1.1,0.5,2.2-0.4,3.2c-2.2,0.1-3.2,2.3-4.9,3.2c-1.3,0.6-2.1,2-3.5,2.3
		c-0.8,1-1.9,1.8-2.3,3.1c-0.2,0.8-0.8,0.3-1.3,0c-1.9-3.1-3.7-6.3-7.9-6.7C240.8,318.6,239.4,318.1,238.1,317.7z"/>
	<path class="st106" d="M253.6,322.7c0.9-1.3,1.7-2.6,3.5-2.3c-1.9,2.1-0.9,4.4-0.4,6.6c1.2,6,2.6,12,3.9,17.9
		c-2.2,0.1-3.4,2-5.7,3.3C254.7,339.4,249,331.4,253.6,322.7z"/>
	<path class="st33" d="M312.9,320.4c-5.5-0.5-10.9-1.8-16.5-1.5c-2.9-2.3-3.4-5.9-5-8.9c-1.9-3.6-3.4-7.5-5.1-11.3
		c0.2-0.5,0.8-1,0.9-0.8c3.4,3.7,5.8-1.7,8.9-1.1c1,0.2,1.2-1.1,1.2-2.1c0-1.2-0.4-2.5,0.4-3.6c0.9-0.4,1.5,0.2,2,0.8
		c3.3,4.6,6.6,9.3,9.8,14c0.3,0.5,0.3,1.1,0.5,1.6c2.7,4.1,5.4,8.2,8.4,12.8C316.2,320.4,314.5,320.4,312.9,320.4z"/>
	<path class="st107" d="M310,307.7c-3.7-4.2-6.5-9.2-9.8-13.7c-0.7-1-1.5-1.9-2.3-2.9c-1.4-0.4-1.7-1.5-1.8-2.8
		c0.9-2.8,2.9-4.1,5.7-4.4c1.7,0.4,2.5,1.6,2.8,3.3c4.3,5.2,8.6,10.4,12.8,15.7c-0.6,0.4-1,1.7-1.8,1.1c-3.1-2.1-3.9,0.1-4.8,2.3
		C310.7,306.8,310.3,307.2,310,307.7z"/>
	<path class="st108" d="M296.5,288.5c0.5,0.9,0.9,1.7,1.4,2.6c0,1.2,0.1,2.4,0.3,3.7c0.3,2-0.3,3.7-2.9,3.2
		c-1.4-0.3-2.3-0.1-2.9,1.3c-0.9,2.1-2.2,3-3.6,0.3c-0.5-1-1.3-1.5-2.5-0.8c-0.5-0.9-1-1.8-1.5-2.7c-3.8-5.4-6.9-11-8.2-17.6
		c4.4-0.3,6.2-3.3,7.6-7c1-0.4,1.5,0.3,1.9,0.9c3.5,4.5,6.5,9.5,9.8,14.1C296.3,287.2,296.2,287.9,296.5,288.5z"/>
	<path class="st109" d="M276.7,278.4c2.2,6.1,5.6,11.7,8,17.7c-2.4,0.3-4.9-0.8-7.3,0c-0.8-1.8-1.7-3.7-2.5-5.5
		c-0.6-0.5-1.3-1-1.6-1.7c-2.1-4.8-3.5-9.8-4.4-14.9c1.1-1.4,2.1-3,3.8-3.8C274.7,272.5,276.2,275.2,276.7,278.4z"/>
	<path class="st33" d="M213,303.5c-1.6,5.4-4.7,10.2-6.9,15.5c-1.9,1-4.2,0.3-6,1.5c-4.4,0-8.7,0.1-13.1,0.1c-1.2,0-2.5,0.3-3.5-0.7
		c1.7-2.6,3.3-5.1,5-7.7c2.8-6.1,7.2-11.1,10.8-16.5c0.5-0.7,1.2-1.4,2.3-0.9c0.9,3.7,4.6,4,7.1,5.6
		C210.2,301.2,212,301.8,213,303.5z"/>
	<path class="st41" d="M201.4,294.4c-4.1,4.7-7.1,10.1-10.7,15.1c-0.7,0.9-1.4,1.7-2.1,2.6c-1.7-2.8-3.8-5.1-6.7-6.6
		c4.8-5.6,9.6-11.3,14.4-16.9c2.5,0.4,3.9,2.7,6.1,3.7C202.6,293.3,202.2,294,201.4,294.4z"/>
	<path class="st110" d="M200.5,232.3c0.6,2,0.3,4,0.2,6.1c-0.1,2.2,0.8,2.9,3,2.9c6.8,0,13.5,0.3,20.3,0.4c0.2,1.4-0.9,1.9-1.8,2.6
		c-4.5,3.9-9.8,6.7-14.6,10.1c-1,0.7-2.1,1.4-3,2.2c-1.9,1.4-3.6,3.2-6.2,3.5c-2.8-0.2-4.6-2.4-6.4-4c-1.8-1.6-0.3-3.9,0.6-5.9
		c4.3-3.6,9.9-4.9,14.7-7.6c0.5-0.3,1.1-0.3,1.5-0.8c-0.6,0.5-1.4,0.7-2.2,0.7c-3.6,0-7.2,0-10.7,1.4c-0.6,0.2-1.3,0.2-2-0.2
		c-4.6-1.8-5.8-4.7-4.1-9.4C193.2,232.2,196.8,231.9,200.5,232.3z"/>
	<path class="st111" d="M200.5,232.3c-3.5,0.7-7,1.3-10.6,2c-5,0.8-10,1.7-15,2.5c0.1-2.3-1.9-4.2-1.3-6.6c4.2-1.5,8.6-0.5,12.9-1.3
		c4.6-0.8,9.3-0.7,14-0.9C200.8,229.4,200.9,230.9,200.5,232.3z"/>
	<path class="st112" d="M173,259.4c-0.5-2.3-2.6-4.4-1.4-7.1c6-2.6,12.1-4.8,18.3-6.5c1.4,1.7,1,3.7,0.6,5.6c-0.4,1-1.2,1.6-2.2,2
		c-4,1.7-7.9,4-11.9,5.7C175.3,259.6,174.3,260.4,173,259.4z"/>
	<path class="st113" d="M189.9,251.8c0-2,0-4,0-6c1.4-0.7,2.7-1.4,4.1-2.1c5-2.3,10.3-2.4,16.5-1.8c-6.2,3.1-11.7,5.8-17.2,8.6
		C192.2,251,191.5,252.7,189.9,251.8z"/>
	<path class="st114" d="M189.9,251.8c1.1-0.4,2.3-0.8,3.4-1.3c-1.6,4.8,0.2,7.7,5.6,8.9c0.1,1.6-1.3,2-2.2,2.7
		c-4.5,3.4-9.4,6.3-13.9,9.7c-0.7,0.4-1.5,0.8-2.3,0.4c-3.9-2.2-5.4-6.7-8.6-9.6c-0.4-0.3-0.1-1.3-0.2-1.9c0.5-0.5,0.9-0.9,1.4-1.4
		C178.9,257.5,184.2,254.2,189.9,251.8z"/>
	<path class="st115" d="M304.6,287.2c-0.9-0.9-1.8-1.8-2.7-2.7c-3.9-2.8-6.3-6.9-9.5-10.3c-1.7-1.8-3.4-3.5-4.8-5.6
		c-0.6-1-1.8-1.8-1.4-3.2c1.1-0.8,2.1-0.2,3.2,0c2.9,0.5,4.2-1,3.2-3.8c-0.3-0.9-0.9-1.8-0.4-2.9c1.1-0.7,1.8,0.2,2.7,0.6
		c5.8,4.7,11.4,9.7,17.1,14.6c0.7,0.6,1.8,1.1,1.4,2.4C315.8,282,311.6,287.1,304.6,287.2z"/>
	<path class="st116" d="M313.5,276.3c-6.3-5.5-12.6-10.9-18.9-16.4c0.6-2.4,2.5-2.9,4.6-3.2c3.6,1.7,6.7,3.9,9.5,6.7
		c3.9,2.9,7.8,5.8,11.7,8.7c-1.6,1.9-4.5,2.3-5.5,4.9C314.4,276.8,313.9,276.6,313.5,276.3z"/>
	<path class="st117" d="M220.4,218.5c-6.5,0.1-12.9,0.1-19.4,0.2c-5-0.3-10-0.5-15.1-0.8c-0.8,0-1.6,0-2.2-0.7
		c5.2,0.4,2.1-3.4,2.7-5.4c2.5,0.3,4.9,1.3,7.5,1.2c1.3-0.9,2.6-0.3,3.9-0.1c6.3,1.1,12.6,2.2,18.9,3.5
		C218,217.2,220,216.6,220.4,218.5z"/>
	<path class="st118" d="M198.7,285.1c-0.8,0.3-1.7,0.5-2.5,1c-2.6,1.6-4.2,1.1-4.9-1.9c-0.2-0.8-0.2-1.6-1.2-1.7
		c-3.9-0.3-3.6-2.8-2.9-5.5c-0.3-1,0.4-1.5,1-2c6.4-5.3,12.5-10.9,19-16.1c0.8-0.5,1.4-1.4,2.6-0.9c0.2,0.3,0.4,0.6,0.4,0.9
		c0.6,4.4,1.2,4.9,6.2,5.1c0.2,2.7-2.2,3.9-3.5,5.7c-1.1,1.5-2.5,2.8-3.6,4.3c-2.9,3-5.2,6.5-8.1,9.5
		C200.6,284.2,200.2,285.5,198.7,285.1z"/>
	<path class="st119" d="M188.4,275.5c-0.4,0.5-0.8,1-1.3,1.5c-3.8,1.8-6,5.5-9.4,7.8c-1.9,1.3-3.7,2.9-5.5,4.4
		c-1.8-2.8-5.5-2.9-7.5-5.5c4.3-3,8.5-6.1,12.8-9.1c1-0.7,2.2-1.1,2.9-2.3c0.6-0.3,1.3-0.6,1.9-0.9
		C184.6,272.5,187,273.3,188.4,275.5z"/>
	<path class="st120" d="M198.7,285.1c3.4-3.9,6.8-7.7,10.2-11.6c2.1-0.9,3.8-0.4,5.5,1c0.6,1.1,0.1,2-0.4,2.8
		c-3.5,4.9-6.6,9.9-10.3,14.6c-0.3,0.4-0.8,0.8-1.4,0.6c-2.4-0.7-4.7-1.7-6-4C197,287.4,197.8,286.3,198.7,285.1z"/>
	<path class="st121" d="M220.4,218.5c-0.9-1.1-2.5-0.1-3.4-1.3c-0.8-0.8-1.9-0.5-2.8-1.1c-1.3-0.8-2.4-1.7-2.4-3.3
		c0-1.6,1.1-2.3,2.5-2.7c7.6,1.2,14.6,4.4,20.9,6.8c-4.6-2.3-10.4-4.2-15.5-7.6c-0.6-0.6-0.9-1.5-1.6-2.1c-1-0.9-2.3-1.7-1.7-3.3
		c0.6-1.7,2-2.3,3.7-2.1c5.5,2.2,9.8,6.4,14.6,9.2c-4.3-3.4-8.6-7.2-12.9-11c-0.5-0.4-1-1-0.7-1.7c0.1-1.2-0.8-1.8-1.5-2.6
		c-0.7-0.9-0.8-1.9-0.1-2.8c0.9-1,1.9-0.8,3-0.3c5.3,2.6,8.3,7.5,12,11.6c0.7,0.8,1.2,1.9,2.5,2.3c0.7-2-0.2-3.4-1.3-4.9
		c-2.6-3.6-5.6-7-6.9-11.5c-0.4-1.4-0.6-2.9,0.6-3.7c1.3-1,1.7,1,2.7,1.3c2.9,0.8,3,3.9,4.8,5.8c1-3.5-0.7-7.1,0.9-10.3
		c0,10.8-0.1,21.7,0,32.5c0,2.2-0.6,2.9-2.8,2.9C230.4,218.5,225.4,218.6,220.4,218.5z"/>
	<path class="st122" d="M262.7,213.2c0-1.6,0-3.2,0-4.8c5.2-4.6,9.4-10,13.5-15.6c0.2-0.2,0.4-0.3,0.6,0c2.1-1.2,4.2-4.2,6.5-1
		c2.1,3-1,4.7-2.7,6.2C274.7,203.3,268.7,208.2,262.7,213.2z"/>
	<path class="st123" d="M221.1,198.3c5.4,4.7,10.8,9.4,16.2,14.1c-6.3-2.4-11.4-6.6-16.9-10c-5.9-2.5-10.7-6.9-15.9-10.4
		c-0.4-0.3-0.5-0.7-0.3-1.2c2.7-0.2,1.7-2.8,2.7-4.1C212.1,190.1,216,194.9,221.1,198.3z"/>
	<path class="st122" d="M262.7,205.7c0-3.4,0-6.8,0-10.2c2.3-1.3,2.9-3.8,4.2-5.8c1.3-2.2,2.3-4.8,5.1-5.5c1.7-0.4,2.9-0.6,2.5,2.2
		c-0.5,3.1-2.1,5.5-3.6,7.9C268.4,198.3,265.4,201.9,262.7,205.7z"/>
	<path class="st27" d="M276.8,192.8c-0.2,0-0.4,0-0.6,0c-0.3,0.2-0.6,0.3-0.9,0.5c-0.7,0.4-1.2,1.8-2.2,1c-0.9-0.8-0.2-1.8,0.4-2.7
		c1.4-2.1,2.6-4.2,4-6.3c2.4-3.6,5-7.2,7.4-10.8c0,2.1-0.2,4.3,2.7,4.7c-2.7,3.9-5.9,7.4-9.1,10.8
		C277.8,190.9,276.8,191.5,276.8,192.8z"/>
	<path class="st124" d="M308.6,263.5c-3.5-1.5-6.2-4.3-9.4-6.1c-2.6-0.8-4.8-2.4-7-4c-4.2-3-8.6-5.9-12.8-8.9
		c-1-0.7-2.3-1.2-1.9-2.8c6.5-0.2,13-0.7,19.5-0.3c-1.2,2.1-3,0.8-4.2,0.9c5.4,2.2,10.9,4.9,16.4,7.5c2.2,1.4,5.3,1.2,6.4,4.2
		c2.8,3.1-1.2,4.8-1.4,6.9C313.8,266.1,310.4,262.6,308.6,263.5z"/>
	<path class="st125" d="M315.5,253.9c-2-1.7-4.5-2.3-6.7-3.5c-0.9-2.7,0.6-4.1,2.7-5.2c4.8,0.6,9.3,2.3,13.4,4.7
		c1.5,1.5,4,1.2,5.5,2.6c-3.1,1.4-4.5,3.4-2.7,6.7C323.7,257.5,319.6,255.7,315.5,253.9z"/>
	<path class="st126" d="M262.7,218c0-1.1,0-2.3,0-3.4c4.2-1.9,7.7-4.9,11.6-7.4c3.1-2,6.1-4.3,9.2-6.3c2-1.2,3.9-0.8,5.4,1
		c1.6,1.9-0.4,2.7-1.2,3.9c0,1.5-1.3,1.7-2.2,2.2c-6.7,3.1-13.1,6.6-19.8,9.4C264.7,217.8,263.7,218.1,262.7,218z"/>
	<path class="st127" d="M262.7,218c8.3-4.1,16.7-8.1,25-12.2c0.9-0.2,1.8-0.4,2.7-0.7c0.2,1.1,0.4,2.3,0.6,3.4c0,1.6-1.4,1.6-2.3,2
		c-8,2.9-15.8,6.2-24.2,8.1C263.9,218.5,263,219.2,262.7,218z"/>
	<path class="st128" d="M264.6,218.5c4.6-2.2,9.5-3.7,14.3-5.4c4.1-1.4,8.1-3.1,12.1-4.7c2.9-0.9,5.9-1.8,8.8-2.8
		c3.3,0.4,6.1,1.7,8.6,4c-1,2-4.3,1.4-4.5,4.1c-1.3,1.9-3.5,1.8-5.4,2.1c-5.6,1.1-11.2,1.9-16.9,2.6
		C275.9,218.5,270.3,218.5,264.6,218.5z"/>
	<path class="st46" d="M297.8,231.6c-0.5-1.4-0.5-2.8,0-4.2c2.4-1.5,4.9-0.3,7.2-0.2c3.5,0.2,7.2,0,10.5,1.6
		c4.8,1.1,9.7,0.6,14.5,1.4c1.3,0.2,2.7-0.4,3.8,0.7c-2.4,1.6-3,4.1-3.3,6.7c-1.4-0.2-2.8-0.3-4.1-0.5c-1.3,0.9-2.6,0.3-3.9,0.1
		c-7-1.3-14-2.7-21-3.9C300.1,233,298.8,232.7,297.8,231.6z"/>
	<path class="st129" d="M281.6,218.5c4.9-2,10.3-2.1,15.4-3.3c2.3-0.5,4.6-0.9,6.9-1.4c7.1-0.8,14.1-2.4,21.1-3.7
		c0.9-0.2,1.8-0.2,2.7-0.3c-0.3,2.3-3.4,4-1.4,6.8c-4.4,1.3-9,0.5-13.5,1.3c-1.4,0.3-2.9-0.5-4.2,0.7c-3.9,1.1-7.7,2.5-11.6,0.1
		C291.9,218.7,286.8,218.6,281.6,218.5z"/>
	<path class="st130" d="M297,218.7c3.9,0.9,7.7-0.7,11.6-0.1c2.3,0.2,4.7-0.4,7,0.6c0.8,0.4,2.2,0.8,1.6,1.7c-1.7,2.5,0,5.5-1.7,7.9
		c-6,0.1-11.8-0.7-17.7-1.4C297.4,224.5,297.9,221.6,297,218.7z"/>
	<path class="st131" d="M214.4,210.5c-2.6,2.3-2.5,3.7,0.7,5.3c0.8,0.4,1.7,0.6,2,1.5c-7.8-0.9-15.4-2.5-23.1-4.1
		c-2.4-3-1.9-6,1.4-9.5c2.5,0.7,5,1.4,7.4,2.1c3.1,0.5,6,1.4,8.8,2.6C212.7,208.8,214,209.1,214.4,210.5z"/>
	<path class="st132" d="M204.2,190.8c5.4,3.8,10.8,7.7,16.3,11.5c-1.4,0-2.8,0.2-3.4,1.7c-0.7,1.7,1,2,1.9,2.7
		c0.9,0.6,0.9,1.5,0.9,2.4c-0.2,0.1-0.4,0.3-0.6,0.2c-5.8-2.2-11.3-4.8-16.4-8.3c-2-0.9-4-1.9-6.1-2.8c0.2-3,4.1-7.2,6.8-7.5
		C203.8,190.8,204,190.8,204.2,190.8z"/>
	<path class="st133" d="M297.8,231.6c9.5,1.8,19.1,3.6,28.6,5.4c0.2,0.3,0.2,0.7,0.5,0.9c3.1,1.7,3.9,3.6,2.4,7.2
		c-1,2.4-1.9,4.1-4.4,4.8c-4.5-1.4-8.9-2.8-13.4-4.2c-4.3-0.4-8.1-2.4-12.1-3.8c-0.7-0.3-1.4-0.8-1.6-1.6
		C297.4,237.4,297.5,234.5,297.8,231.6z"/>
	<path class="st134" d="M202.8,201c5.9,2.2,11.3,5.5,17,8.1c5.8,2.6,11.5,5.3,17.3,7.9c-0.1,0.3-0.3,0.7-0.4,1
		c-7.4-2.5-14.9-5-22.3-7.5c-3.6-2.2-8-2.5-11.6-4.8C206.2,204.1,202.5,202.6,202.8,201z"/>
	<path class="st135" d="M269.3,273.6c2,5.6,2.9,11.5,5.6,16.9c-1.8-0.1-3.4-0.3-5.2,1c-2.2,1.6-5,1.9-7-0.9c0-11.5,0-23.1,0-34.6
		c0.3,0,0.8,0,0.9,0.3C265.8,261.9,268.3,267.5,269.3,273.6z"/>
	<path class="st136" d="M202.2,292.6c4.1-5.9,8.2-11.7,12.3-17.6c0.3-0.2,0.6-0.2,0.9,0c0.5,0.3,1,0.7,1.2,1.1
		c1.8,3.3,4.8,3.8,8.2,3.7c0,3-1.9,5.2-3,7.7c-1.7,3.9-3.2,7.9-6,11.2c-0.9,1.6-1.9,3.2-2.8,4.7c-3.6-1.4-6.6-4-10.4-5.1
		c-1.7-0.5-0.8-2.6-1.2-3.9C201.6,293.8,201.9,293.2,202.2,292.6z"/>
	<path class="st137" d="M238,296.7c0,3.1,0,6.2,0,9.4c-0.9-1.4,0-3.1-0.9-5.1c-0.9,4.5-1.7,8.6-2.4,12.7c-0.3,2.1-1.2,2.8-3.4,2.7
		c-3.7-0.1-7.4,0.3-10.9,1.3c-4,0-3.9,0-2.6-3.7c1.6-4.4,3.1-8.9,4.6-13.3c0-1.7,0.1-3.3,1.8-4.3c1.9,0.8,4.1,0.7,5.5,2.8
		c0.7,1,2.1,0.3,3-0.3C234.4,297.8,236.2,297.2,238,296.7z"/>
	<path class="st138" d="M224.5,296.6c-0.7,1.4-1.4,2.8-2,4.1c-2.3-0.6-3.9-3.3-6.7-2c2.9-6.4,5.8-12.7,8.7-19.1
		c-0.1-2,0.6-3.7,2.2-4.9c2.4,0.2,3.6,1.8,4.5,3.8C229.7,284.9,227.4,290.9,224.5,296.6z"/>
	<path class="st139" d="M226.7,275.1c-0.8,1.5-1.5,3.1-2.3,4.6c-2.7,1.7-5.5,1.1-7.4-1.8c-0.6-1-2.2-1.4-2-2.9
		c-0.6-1.5,0.5-2.6,1.2-3.6c3.3-4.8,6.6-9.6,9.8-14.4c2.9-3.6,5.4-7.4,7.9-11.3c1-1.5,2-3,3.5-4c0.6,0.3,0.6,0.9,0.6,1.5
		c0,17.4-0.1,34.7-0.1,52.1c-1.7-0.4-1.4-1.9-1.5-3c-0.2-2.1-0.1-4.3,0-6.4c0.1-2.5,0.2-4.9-3.1-5.9c-1.4-0.4-1.4-2.1-1.1-3.5
		c0.4-1.9,1-3.7,0.9-5.7c0.2-1.9,0.8-3.8,1.6-5.5c1.6-3.6,1.7-7.6,2.3-10.5c-2.3,5.8-5.7,12.1-8.7,18.6
		C228,274.1,227.4,274.7,226.7,275.1z"/>
	<path class="st140" d="M276.7,278.4c-1.4-2.7-2.7-5.4-4.1-8c-0.8-0.5-1.4-1.2-1.7-2c-2.6-6.2-6.2-11.9-8.2-18.4
		c0-2.2,0-4.4-0.1-6.6c-0.1-2.1,1-2.5,2.7-1.8c2,4.7,5.2,8.6,8.1,12.7c2.7,3.8,5.4,7.7,8,11.6c0.8,2,3.4,3.1,2.9,5.8
		c0.1,2.3,0,4.4-2.8,5.3c-1.3,0.4-1.2,2-1.7,3.3C278.7,279.5,277.7,278.9,276.7,278.4z"/>
	<path class="st141" d="M292.4,258.7c0.3,0.8,0.6,1.7,0.9,2.5c0.4,1.2,2,2.3,0.2,3.8c-1.5,1.3-2.9,2.5-5,1c-0.6-0.4-1.5-0.3-2.2-0.5
		c-1.5,0.4-1.8-1-2.6-1.7c-5.4-6.4-10.8-12.7-16.2-19.1c-0.7-0.8-1.6-1.7-0.9-3c2.3,0,4.6-0.1,6.9-0.1c6.5,4.8,12.5,10.2,18.5,15.6
		C292.3,257.6,292.7,258,292.4,258.7z"/>
	<path class="st142" d="M234,270.2c0.3,2.3-0.3,4.5-1,6.6c-0.6,1.9,0,3,1.9,2.9c2.3-0.1,2.4,1.2,2.5,3c0.2,4.2-0.7,8.5,0.5,12.7
		c0,0.5,0,1,0,1.4c-2.2,2.3-5.2,3.2-8,4.2c-0.5,0.2-1-0.1-1.1-0.5c-0.1-2.4-1.8-2.4-3.5-2.5c-0.6,0-0.8-0.7-0.9-1.3
		c1.4-6.3,4.4-12.1,6.1-18.3C230.7,275.2,231.3,272.2,234,270.2z"/>
	<path class="st143" d="M216.3,264.1c-4.9,1.8-7.1-0.2-6.7-6c-0.4-1,0.4-1.4,1-1.9c5.3-4.7,10.7-9.1,16-13.7
		c-0.6-0.2-1.7,0.1-2.2-0.8c3.7-1,7.3,0.2,10.9,0c0.6,1.4-0.6,2-1.3,2.8c-3.7,4.4-7.4,8.8-11.1,13.1
		C221,259.9,219.5,262.9,216.3,264.1z"/>
	<path class="st144" d="M292.4,258.7c-5.6-4.8-11.3-9.7-16.9-14.6c-0.8-0.7-1.5-1.7-2.2-2.5c1.4-0.2,2.7-0.3,4.1,0.1
		c1.6,2.4,4.4,3.4,6.7,5c4.9,3.7,10,7.1,15.1,10.7c-1.9,0.2-3.2,1.4-4.6,2.6C293.9,259.5,293.1,259.1,292.4,258.7z"/>
	<path class="st145" d="M224.4,241.6c1.2,0.1,2.4,0.1,4.1,0.3c-6.6,5.6-12.7,10.9-18.9,16.2c-0.7,0.4-1.4,0.9-2,1.3
		c-2.2-0.1-2.6-1.8-3.3-3.3c6.1-4.3,12.2-8.6,18.3-12.9c0.5-0.4,0.9-0.9,1.4-1.4C224.1,241.6,224.3,241.6,224.4,241.6z"/>
	<path class="st146" d="M266.5,241.7c2.4,4.5,6.4,7.7,9.4,11.7c2.7,3.4,5.5,6.7,8.3,10.1c-0.7,1.5-2.2,1.9-3.4,2.7
		c-5.3-7.7-10.6-15.3-15.9-23c-0.5-0.7-0.9-1.3,0.3-1.6C265.7,241.6,266.1,241.6,266.5,241.7z"/>
	<path class="st147" d="M297.7,240.3c4.4,2.3,9.4,2.9,13.7,5.4c-1.7,1.1-2.3,2.9-2.7,4.7c-5.7-2.6-11.4-5.3-17.6-8.2
		c2.2-1.1,4.1,0,5.7-0.9C297.2,241,297.5,240.7,297.7,240.3z"/>
	<path class="st148" d="M262.7,249.9c3.9,6.5,6.8,13.5,9.9,20.4c-0.7,1.5-1.6,2.8-3.3,3.3c-2.9-5.6-4.1-11.9-6.7-17.6
		C262.7,254,262.7,252,262.7,249.9z"/>
	<path class="st149" d="M222.5,257.3c4.3-5.2,8.6-10.4,12.9-15.7c0.7-0.2,1.4-0.3,2.1,0.1c-3.4,5.4-6.7,10.8-10.8,15.6
		C225.3,258,223.9,258.6,222.5,257.3z"/>
	<path class="st150" d="M280.9,266.2c0.3-1.9,2.2-1.9,3.4-2.7c0.7,0.7,1.4,1.3,2,2c5.2,6.3,10.4,12.7,15.6,19
		c-2.5,0.4-4.3,1.9-5.4,4.1c-4.1-5.7-8.1-11.3-12.2-17C283.1,269.8,282,268,280.9,266.2z"/>
	<path class="st151" d="M204.3,256c1.8,0.5,1.6,2.8,3.3,3.3c-6.4,5.4-12.4,11.2-19.1,16.1c-2.2-1.1-4.7-1.8-6.1-4.1
		c4.5-4.1,10-6.8,14.7-10.5c0.6-0.5,1.2-1,1.8-1.5C200.7,258.3,202.5,257.2,204.3,256z"/>
	<path class="st152" d="M222.5,257.3c1.4,0,2.8,0,4.2,0c-3.9,5.9-7.8,11.8-11.7,17.6c-0.2,0-0.4,0-0.6,0c-1.9-0.5-3.7-1-5.6-1.4
		c2.5-3.2,5-6.3,7.4-9.5C218.4,261.8,220.4,259.6,222.5,257.3z"/>
	<path class="st113" d="M234,270.2c-1.1,2.7-2.3,5.4-3.4,8.2c-1.4-1-2.3-2.6-3.9-3.3c3.4-7.3,6.8-14.6,10.4-22.3
		c1.2,5.3-0.5,9.6-2,13.9C234.7,267.8,234.4,269,234,270.2z"/>
</g>
</svg>
