<?xml version="1.0" encoding="UTF-8"?>
<svg id="Capa_1" data-name="Capa 1" xmlns="http://www.w3.org/2000/svg" viewBox="0 0 471.83 469.09">
  <defs>
    <style>
      .cls-1 {
        fill: #fff;
      }

      .cls-1, .cls-2, .cls-3 {
        stroke-width: 0px;
      }

      .cls-2 {
        fill: #20411f;
      }

      .cls-3 {
        fill: #1f411e;
      }
    </style>
  </defs>
  <path class="cls-3" d="M439.52,228.07c1.07.97,2.37.51,3.56.51,8.47.04,16.94.15,25.41-.05,2.81-.07,3.44.94,3.33,3.47-.18,4.39-.1,8.8-.12,13.19-1.39,25.55-6.66,50.25-15.88,74.13-.93,2.42-1.91,2.66-4.16,1.81-8.43-3.17-16.96-6.08-25.41-9.22-1.88-.7-2.71-.43-3.53,1.49-6.85,15.94-15.55,30.8-26.31,44.42-1.36,1.72-.88,2.56.6,3.78,7.07,5.82,14.01,11.79,21.1,17.59,1.59,1.3,1.72,2,.35,3.65-19.47,23.52-42.55,42.65-69.26,57.44-2.2,1.22-3.12,1.02-4.35-1.19-4.32-7.79-8.92-15.43-13.29-23.2-1.06-1.89-1.81-2.47-4.03-1.34-14.62,7.45-29.92,13.09-45.98,16.57-2.38.51-2.98,1.43-2.49,3.89,1.77,8.96,3.23,17.99,4.95,26.97.34,1.8-.11,2.27-1.83,2.61-20.07,3.91-40.29,5.35-60.71,4.04-10.27-.66-20.45-2-30.57-3.81-2.11-.38-3.24-.62-2.62-3.52,1.89-8.82,3.2-17.77,4.88-26.64.41-2.17-.31-3.01-2.31-3.44-16.5-3.6-32.21-9.42-47.22-17.12-1.82-.93-2.46-.37-3.33,1.16-4.58,8.03-9.34,15.97-13.88,24.03-1.02,1.8-1.71,2-3.54.99-26.92-14.9-50.09-34.25-69.7-57.95-1.57-1.9-.97-2.67.56-3.93,7.05-5.84,13.98-11.83,21.04-17.65,1.44-1.19,1.65-1.92.45-3.47-10.44-13.43-19-27.99-25.73-43.61-.82-1.9-1.56-2.19-3.48-1.44-8.4,3.25-16.9,6.25-25.3,9.47-2.14.82-3.11.84-4.11-1.7C5.46,291.81.27,262.57,0,232.35c-.03-3.32.89-4.17,4.14-4.08,8.7.23,17.42.03,26.13.13,1.98.02,2.77-.43,2.83-2.59.46-16.55,3.09-32.79,7.67-48.69.73-2.53.05-3.26-2.2-4.03-8.63-2.96-17.17-6.19-25.79-9.16-1.69-.58-2.04-1.1-1.48-2.82,9.95-30.41,25.25-57.79,46.18-82.02.29-.33.65-.61,1.04-.96,7.59,6.36,15.16,12.63,22.63,19.03,1.71,1.47,2.7,1.55,4.31-.24,11.41-12.65,24.18-23.74,38.45-33.06,2.05-1.34,2.35-2.29,1.03-4.47-4.68-7.71-9.08-15.6-13.66-23.38-.96-1.63-1.06-2.47.85-3.64C139.01,15.88,168.03,5.26,199.1.09c2.17-.36,2.69.46,3.01,2.37,1.51,9.01,3.23,17.99,4.7,27.01.33,2.03.94,2.61,3.03,2.32,17.46-2.44,34.94-2.52,52.39.03,2.33.34,2.62-.79,2.91-2.47,1.58-9,3.3-17.98,4.7-27.01.34-2.21,1.12-2.56,3.04-2.24,21.69,3.6,42.58,9.81,62.53,19.11,8.19,3.82,16.09,8.15,23.87,12.74,2.06,1.22,2.59,2.03,1.2,4.3-4.59,7.51-8.8,15.24-13.36,22.77-1.32,2.17-1.33,3.28.93,4.75,13.81,8.97,26.23,19.63,37.34,31.77,1.43,1.57,2.31,1.77,4.04.26,6.81-5.95,13.85-11.64,20.67-17.57,1.79-1.56,2.68-1.37,4.18.37,20.07,23.26,35.09,49.39,45.16,78.4.74,2.13-.2,2.46-1.68,3-8.67,3.18-17.31,6.43-25.99,9.59-1.54.56-2.45.87-1.79,3,5.52,17.77,8.6,35.96,9.12,54.58,0,.3.26.59.4.88Z"/>
  <path class="cls-1" d="M442.06,240.97c4.07,0,8.16.2,12.21-.07,2.96-.2,3.8.57,3.58,3.64-1.27,18.2-4.27,36.06-9.77,53.48-1.74,5.51-1.7,5.51-7.2,3.54-7-2.51-14.1-4.75-20.95-7.61-3.44-1.44-4.42-.49-5.63,2.62-5.53,14.21-12.19,27.88-20.75,40.57-4.94,7.32-10.28,14.33-15.95,21.07-1.72,2.04-1.35,2.94.52,4.45,6.85,5.55,13.51,11.33,20.36,16.89,1.78,1.45,1.67,2.24.16,3.85-13.51,14.28-28.51,26.7-45.11,37.23-1.93,1.22-2.52.78-3.48-.91-4.4-7.75-9-15.39-13.31-23.18-1.16-2.1-2.06-2.33-4.1-1.22-14.48,7.89-29.39,14.82-45.38,19.08-7.08,1.88-14.21,3.62-21.4,4.99-2.84.54-3.12,1.69-2.69,4.05,1.6,8.66,3.04,17.34,4.7,25.99.4,2.09-.06,2.63-2.18,2.9-19.62,2.52-39.21,2.61-58.85.09-2.94-.38-3.21-1.4-2.75-3.8,1.56-8.2,2.94-16.44,4.53-24.63.53-2.73.32-4.14-3.03-4.72-23.78-4.12-46.08-12.43-67.03-24.35-1.99-1.13-2.76-.73-3.81,1.13-4.44,7.86-9.08,15.6-13.53,23.45-.93,1.65-1.56,1.96-3.27.88-16.79-10.67-31.94-23.26-45.51-37.81-1.55-1.66-1.19-2.33.31-3.57,6.89-5.68,13.65-11.51,20.57-17.17,1.8-1.47,1.89-2.38.35-4.2-15.64-18.53-27.92-39.07-36.46-61.78-.96-2.56-1.89-2.99-4.54-1.92-8.04,3.24-16.27,6.01-24.37,9.1-1.98.76-2.82.7-3.55-1.58-5.99-18.69-9.53-37.81-10.78-57.39-.17-2.64.57-3.18,3.07-3.13,8.71.16,17.42-.02,26.13.12,2.4.04,3.04-.75,3.09-3.04.21-10.62.52-21.24,1.96-31.8,1.77-13.01,4.99-25.66,9.12-38.08,1-3,.28-4-2.57-4.94-8.23-2.73-16.33-5.84-24.52-8.68-1.77-.61-2.23-1.09-1.46-3.05,7.52-19.12,17.51-36.83,29.77-53.31,1.48-2,2.27-1.33,3.62-.18,6.82,5.77,13.74,11.42,20.49,17.25,1.69,1.46,2.53,1.39,3.94-.32,15.83-19.17,34.36-35.23,55.73-47.96,2.12-1.27,2.08-2.25.94-4.16-4.56-7.66-8.9-15.44-13.47-23.09-1.08-1.8-.89-2.47.97-3.45,18.03-9.53,36.94-16.61,56.84-21.14,2.59-.59,2.99.24,3.34,2.29,1.4,8.35,2.93,16.67,4.29,25.03.42,2.58.88,4.05,4.29,3.47,8.68-1.47,17.42-2.52,26.24-3.04,14.88-.88,29.59.34,44.25,2.67,5.77.92,5.69.97,6.63-4.73,1.33-8.01,2.8-16,4.15-24.01.31-1.84.9-2.17,2.88-1.74,20.05,4.43,39.06,11.56,57.21,21.13,1.97,1.04,1.94,1.74.94,3.43-4.5,7.57-8.81,15.24-13.32,22.79-1.23,2.06-1.46,3.14.99,4.61,20.67,12.3,38.76,27.67,54.22,46.1,1.56,1.86,2.52,2.16,4.49.43,6.54-5.74,13.35-11.17,19.88-16.92,2.1-1.85,2.92-1.42,4.46.63,11.61,15.4,21.21,31.91,28.66,49.71.93,2.23,1.12,3.12-1.53,4.02-8.1,2.76-16.04,5.99-24.15,8.74-2.76.94-3.38,1.93-2.38,4.74,4.12,11.59,7.38,23.42,9.51,35.56,2.2,12.51,2.7,25.16,2.92,37.81.05,2.85,1.08,3.34,3.56,3.23,4.29-.17,8.6-.05,12.89-.05Z"/>
  <path class="cls-2" d="M236.05,377.99c-78.67.24-143.35-64.31-143.5-143.23-.15-78.86,64.13-143.4,143.07-143.65,78.75-.25,143.35,64.08,143.65,143.05.3,78.95-64.06,143.59-143.22,143.83Z"/>
</svg>