<?xml version="1.0" encoding="utf-8"?>
<!-- Generator: Adobe Illustrator 28.1.0, SVG Export Plug-In . SVG Version: 6.00 Build 0)  -->
<svg version="1.1" id="Capa_1" xmlns="http://www.w3.org/2000/svg" xmlns:xlink="http://www.w3.org/1999/xlink" x="0px" y="0px"
	 viewBox="0 0 500 500" style="enable-background:new 0 0 500 500;" xml:space="preserve">
<style type="text/css">
	.st0{fill:#FFFFFF;}
	.st1{fill:#15410C;}
	.st2{clip-path:url(#SVGID_00000179618353563313403500000013734207923201185183_);}
	.st3{fill:url(#SVGID_00000068643756271742043920000017037931345780401053_);}
	.st4{clip-path:url(#SVGID_00000142878542171353203290000009806545850306936983_);}
	.st5{fill:url(#SVGID_00000178909504365377927210000011052993392371865223_);}
	
		.st6{clip-path:url(#SVGID_00000154392960982597790880000002605036509017812882_);fill:url(#SVGID_00000049196492088597016240000016595522277164793517_);}
	
		.st7{clip-path:url(#SVGID_00000080913135342920296400000000184791869714953906_);fill:url(#SVGID_00000092446307432400399900000016532905836834428323_);}
	
		.st8{clip-path:url(#SVGID_00000120551060174992947380000001574264182507376057_);fill:url(#SVGID_00000158732521981006292450000005998149247559471275_);}
	
		.st9{clip-path:url(#SVGID_00000062176085738038364180000001620402047058714289_);fill:url(#SVGID_00000162339493378230229930000016243166136269882243_);}
	
		.st10{clip-path:url(#SVGID_00000040560876401172379320000001169335070081628323_);fill:url(#SVGID_00000123413841979775502240000004334163662512324494_);}
	
		.st11{clip-path:url(#SVGID_00000133501662522467800190000000805772425234001812_);fill:url(#SVGID_00000170980867987734304810000011856769732646415261_);}
	
		.st12{clip-path:url(#SVGID_00000116950608601473120130000008839962587435082906_);fill:url(#SVGID_00000062892714515845993260000001475889600885465229_);}
	
		.st13{clip-path:url(#SVGID_00000176008399456485802530000003974222497670562945_);fill:url(#SVGID_00000021081906312762194780000008409467069477922958_);}
	
		.st14{clip-path:url(#SVGID_00000021800561681432435180000016940188386667376058_);fill:url(#SVGID_00000066477481974672656620000008888430904734695075_);}
	
		.st15{clip-path:url(#SVGID_00000076568025746770994050000015831349351700258227_);fill:url(#SVGID_00000092436373738224705000000009795359671747243683_);}
	
		.st16{clip-path:url(#SVGID_00000154417157156380326050000018443165134756900541_);fill:url(#SVGID_00000088115326811226646960000012826715353755960714_);}
	
		.st17{clip-path:url(#SVGID_00000076572750512533654200000018049539531540155313_);fill:url(#SVGID_00000034072716255617143410000017999704979377862296_);}
	.st18{fill:#DCDCDC;}
	.st19{fill:#D4D4D4;}
	
		.st20{clip-path:url(#SVGID_00000088099408189913047320000007692474117349533826_);fill:url(#SVGID_00000083085255007954517130000012133535078220527533_);}
	.st21{fill:#1D1D1B;}
	.st22{fill:#959495;}
	
		.st23{clip-path:url(#SVGID_00000067215224884510965880000003465880327809699476_);fill:url(#SVGID_00000146464534511190551220000011711174004234938530_);}
	
		.st24{clip-path:url(#SVGID_00000031179611178209616140000004240322203271967907_);fill:url(#SVGID_00000134964835339351166710000008212078430849921201_);}
	.st25{fill:#979797;}
	.st26{fill:#CBCACA;}
	.st27{fill:#808080;}
	.st28{fill:#BACA23;}
	.st29{fill:#231F20;}
</style>
<g>
	<path class="st0" d="M484.9,248.8h-32.6c-0.5-20.1-3.9-39.5-9.8-57.7l30.6-11.3c-10.2-30.7-26.5-58.7-47.5-82.3l-24.9,21
		C388.4,104.8,374.4,92.9,359,83l16.4-28.2c-27.1-17.1-58-28.9-91.2-33.7l-5.7,32.1c-9.3-1.3-18.8-2-28.5-2c-9.7,0-19.3,0.7-28.6,2
		l-5.7-32.1c-33.1,4.9-64,16.6-91.1,33.8l16.3,28.2c-15.9,10.2-30.4,22.7-42.8,36.8L73,99c-21.3,24.4-37.6,53.1-47.5,84.8l30.7,11
		c-5.2,17.2-8.2,35.3-8.6,54H15.1c0,1.6-0.1,3.2-0.1,4.8c0,31.5,6.2,61.6,17.5,89.1l30.6-11.3c7.2,17.2,16.7,33.2,28.1,47.7
		l-24.9,21c19.9,25,44.8,45.8,73.2,60.9l16.4-28.2c16.1,8.5,33.5,14.9,51.8,18.7l-5.7,32.1c15.5,3.2,31.6,4.9,48,4.9
		c16.5,0,32.5-1.7,48.1-4.9l-5.7-32.1c18.1-3.9,35.3-10.1,51.3-18.5l16.4,28.2c28.4-15.1,53.3-35.7,73.2-60.6l-25-20.9
		c11.7-14.7,21.4-31,28.7-48.6l30.7,11c11.1-27.3,17.3-57.2,17.3-88.6C485,251.9,484.9,250.3,484.9,248.8"/>
	<path class="st1" d="M295.2,36.8c21.6,4.5,42.3,12.1,61.6,22.8l-9.6,16.5l-6.5,11.3l11,7c14.4,9.2,27.5,20.3,38.9,33.1l8.8,9.8
		l10.1-8.5l14.5-12.2c13.3,16.8,23.9,35.2,31.8,55.1l-17.9,6.6l-12.3,4.5l4,12.4c5.6,17.4,8.7,35.5,9.1,53.8l0.3,13.3h13.3h18.9
		c-0.8,21.4-4.7,42.3-11.5,62.4l-18.1-6.5l-12.2-4.4l-5,12c-6.8,16.3-15.8,31.5-26.8,45.3l-8.3,10.4l10.2,8.5l14.5,12.1
		c-14.3,15.8-30.7,29.4-49,40.5l-9.6-16.5l-6.5-11.3l-11.5,6c-15.1,7.9-31.2,13.7-47.8,17.2l-12.9,2.7l2.3,13l3.3,18.7
		c-10.7,1.6-21.5,2.3-32.3,2.3s-21.6-0.8-32.3-2.3l3.3-18.7l2.3-13l-12.9-2.7c-16.8-3.6-33.1-9.5-48.3-17.5l-11.6-6.1l-6.6,11.3
		l-9.6,16.5c-18.3-11.2-34.7-24.8-49-40.8l14.5-12.2l10.1-8.5l-8.2-10.4c-10.6-13.3-19.4-28.3-26-44.2l-5-12.1l-12.3,4.5l-17.9,6.6
		c-6.9-20.2-10.9-41.3-11.7-62.8h18.9H61l0.3-13.3c0.4-17.1,3.1-34.1,8-50.4l3.8-12.4l-12.2-4.4l-18.1-6.5
		c7.7-20.6,18.5-39.8,32-57.3l14.5,12.1l10.2,8.5l8.8-10c11.7-13.3,25.1-24.8,40-34.4l10.9-7l-6.5-11.3L143,59.7
		c19.3-10.7,40-18.4,61.6-22.9l3.3,18.7l2.3,12.9l13-1.8c8.9-1.3,17.9-1.9,26.7-1.9s17.8,0.6,26.6,1.9l13,1.8l2.3-12.9L295.2,36.8z
		 M284.2,21l-5.7,32.1c-9.3-1.3-18.8-2-28.5-2c-9.7,0-19.3,0.7-28.6,2L215.7,21c-33.1,4.9-64,16.6-91.1,33.8L140.9,83
		c-15.9,10.2-30.4,22.7-42.8,36.8L73,99c-21.3,24.4-37.6,53.1-47.5,84.8l30.7,11c-5.2,17.2-8.2,35.3-8.6,54H15.1
		c0,1.6-0.1,3.2-0.1,4.8c0,31.5,6.2,61.6,17.5,89.1l30.6-11.3c7.2,17.2,16.7,33.2,28.1,47.7l-24.9,21c19.9,25,44.8,45.8,73.2,60.9
		l16.4-28.2c16.1,8.5,33.5,14.9,51.8,18.7l-5.7,32.1c15.5,3.2,31.6,4.9,48,4.9c16.5,0,32.5-1.7,48.1-4.9l-5.7-32.1
		c18.1-3.9,35.3-10.1,51.3-18.5l16.4,28.2c28.4-15.1,53.3-35.7,73.2-60.6l-25-20.9c11.7-14.7,21.4-31,28.7-48.6l30.7,11
		c11.1-27.3,17.3-57.2,17.3-88.6c0-1.6,0-3.2-0.1-4.8h-32.6c-0.5-20.1-3.9-39.5-9.8-57.7l30.6-11.3c-10.2-30.7-26.5-58.7-47.5-82.3
		l-24.9,21C388.4,104.8,374.4,92.9,359,83l16.4-28.2C348.2,37.6,317.3,25.9,284.2,21z"/>
	<g>
		<g>
			<defs>
				<path id="SVGID_1_" d="M109.3,254.8c0,77.8,63,140.8,140.8,140.8s140.8-63,140.8-140.8S327.9,114,250.1,114
					S109.3,177,109.3,254.8"/>
			</defs>
			<clipPath id="SVGID_00000183936708393832772090000005991281270365197696_">
				<use xlink:href="#SVGID_1_"  style="overflow:visible;"/>
			</clipPath>
			<g style="clip-path:url(#SVGID_00000183936708393832772090000005991281270365197696_);">
				
					<radialGradient id="SVGID_00000142168869407663422320000004234611521942976689_" cx="250.6" cy="250.3301" r="207.18" gradientUnits="userSpaceOnUse">
					<stop  offset="0" style="stop-color:#B7CD00"/>
					<stop  offset="4.575885e-02" style="stop-color:#ADC502"/>
					<stop  offset="0.6036" style="stop-color:#316417"/>
					<stop  offset="0.8492" style="stop-color:#003D1F"/>
				</radialGradient>
				<circle style="fill:url(#SVGID_00000142168869407663422320000004234611521942976689_);" cx="250.6" cy="250.3" r="207.2"/>
			</g>
		</g>
	</g>
	<g>
		<g>
			<defs>
				<path id="SVGID_00000038395628685891467460000011988682332485061820_" d="M116.3,212.5c-2.4,7.6-4.2,15.5-5.2,23.6l139.4-12
					L116.3,212.5z M130.9,180.8c-4,6.4-7.5,13.2-10.4,20.3l130,23.1L130.9,180.8z M151.4,155c-5.1,5.1-9.8,10.5-14.1,16.3
					l113.1,52.9L151.4,155z M175.9,135.5c-5.8,3.6-11.3,7.7-16.5,12.1l91,76.5L175.9,135.5z M202.8,122.4
					c-6.2,2.2-12.2,4.9-17.9,7.9l65.5,93.8L202.8,122.4z M231.1,115.5c-6.4,0.9-12.6,2.2-18.7,3.9l38,104.8L231.1,115.5z
					 M259.9,114.4c-3.1-0.2-6.2-0.3-9.3-0.3c-3.2,0-6.4,0.1-9.6,0.3l9.5,109.7L259.9,114.4z M288.4,119.3c-6.1-1.7-12.3-3-18.7-3.9
					l-19.3,108.7L288.4,119.3z M316,130.2c-5.8-3-11.8-5.7-18-7.9l-47.6,101.8L316,130.2z M341.5,147.5c-5.2-4.4-10.7-8.4-16.5-12.1
					l-74.6,88.7L341.5,147.5z M363.7,171.1c-4.3-5.8-9-11.2-14.1-16.3l-99.2,69.3L363.7,171.1z M380.7,201
					c-2.9-7.1-6.4-13.9-10.4-20.3l-119.8,43.4L380.7,201z M390.1,236.2c-1.1-8.1-2.9-16-5.3-23.7l-134.4,11.6L390.1,236.2z
					 M378.5,313.6c3.7-8.1,6.7-16.6,8.8-25.4l-137-64.1L378.5,313.6z M355.4,348.9c6.2-6.9,11.8-14.5,16.5-22.6L250.4,224.1
					L355.4,348.9z M280.3,392.5c9.7-2.1,19-5.2,27.9-9.1l-57.8-159.3L280.3,392.5z M192.7,383.3c8.8,4,18.1,7.1,27.8,9.2l29.9-168.3
					L192.7,383.3z M156,359.2c7.1,6.4,14.9,12.2,23.2,17.1l71.2-152.2L156,359.2z M129.1,326.2c4.8,8.1,10.3,15.6,16.5,22.6
					l104.8-124.6L129.1,326.2z M113.7,288.1c2.1,8.8,5.1,17.3,8.8,25.4l127.9-89.3L113.7,288.1z M109.8,254.9
					c0,6.7,0.5,13.3,1.4,19.7l139.3-50.5L110,249C109.8,251,109.8,252.9,109.8,254.9z M391.3,254.9L391.3,254.9v-0.2
					c0-1.9-0.1-3.7-0.1-5.6l-140.8-25l139.5,50.6C390.9,268.2,391.3,261.6,391.3,254.9z M250.6,395.7h0.2c4.9,0,9.6-0.3,14.4-0.8
					l-14.7-170.8l-14.7,170.8C240.6,395.4,245.5,395.7,250.6,395.7z M344.9,359.4l-94.5-135.3l71.2,152.3
					C330,371.5,337.8,365.8,344.9,359.4z"/>
			</defs>
			<clipPath id="SVGID_00000060001081901954548630000016782190509739009180_">
				<use xlink:href="#SVGID_00000038395628685891467460000011988682332485061820_"  style="overflow:visible;"/>
			</clipPath>
			<g style="clip-path:url(#SVGID_00000060001081901954548630000016782190509739009180_);">
				<g>
					
						<radialGradient id="SVGID_00000124135927425228251630000012403664533234542516_" cx="248.7782" cy="256.7218" r="236.2218" fx="247.8453" fy="221.5351" gradientUnits="userSpaceOnUse">
						<stop  offset="0" style="stop-color:#F2E902"/>
						<stop  offset="0.2252" style="stop-color:#B0CF11"/>
						<stop  offset="0.6581" style="stop-color:#349E2C"/>
						<stop  offset="0.8492" style="stop-color:#038A37"/>
					</radialGradient>
					<circle style="fill:url(#SVGID_00000124135927425228251630000012403664533234542516_);" cx="248.8" cy="256.7" r="236.2"/>
				</g>
			</g>
		</g>
	</g>
	<polygon class="st0" points="237.6,328.3 262.2,328.3 262.2,242 296.9,242 296.9,219.5 262.2,219.5 262.2,184 237.6,184 
		237.6,219.5 200.5,219.5 200.5,242 237.6,242 	"/>
	<g>
		<g>
			<g>
				<defs>
					<path id="SVGID_00000140702336561946435460000009395446118577026236_" d="M263.9,323.3l-12.7,11.8l-13.5-11.8h-63.1
						c-1.9,0-4.6,0.7-6.1,1.5c-5.1,2.9-16.8,9.5-29.4,16.6c5.4,6.9,11.4,13.3,18,19c21.5-2.2,43.3-4.3,51.8-4.2
						c17.6,0.2,22.2,6.5,25.7,7.8c3.6,1.2,8.3,0,15.9,0c7.6,0,12.3,1.2,15.9,0s8.1-7.5,25.7-7.8c8.4-0.1,29.8,1.9,51,4.1
						c6.6-5.9,12.7-12.3,18.1-19.3c-12.4-7-23.8-13.5-28.8-16.3c-1.5-0.8-4.2-1.5-6.1-1.5L263.9,323.3L263.9,323.3z"/>
				</defs>
				<clipPath id="SVGID_00000174594888830684078120000016355452889867985845_">
					<use xlink:href="#SVGID_00000140702336561946435460000009395446118577026236_"  style="overflow:visible;"/>
				</clipPath>
				
					<linearGradient id="SVGID_00000145772529982427386440000003555939874092939141_" gradientUnits="userSpaceOnUse" x1="99.441" y1="155.59" x2="401.6136" y2="155.59" gradientTransform="matrix(1 0 0 -1 0 499.89)">
					<stop  offset="0" style="stop-color:#4D2F17"/>
					<stop  offset="0.51" style="stop-color:#0A0607"/>
					<stop  offset="1" style="stop-color:#4D2F17"/>
				</linearGradient>
				
					<rect x="139.1" y="323.3" style="clip-path:url(#SVGID_00000174594888830684078120000016355452889867985845_);fill:url(#SVGID_00000145772529982427386440000003555939874092939141_);" width="222.2" height="42"/>
			</g>
		</g>
		<g>
			<g>
				<defs>
					<path id="SVGID_00000053544437295428017150000012686216408044198577_" d="M326.5,323.4L326.5,323.4L326.5,323.4L326.5,323.4
						L326.5,323.4L326.5,323.4h-61.1l-1.5,0.1l-11.2,10.3l-0.8,0.7l0,0l-0.8,0.6l-13.5-11.7h-63l0,0l0,0l0,0l0,0l0,0
						c-0.2,0-0.4,0-0.6,0c-1.8,0.1-4,0.7-5.3,1.5c-5.1,2.9-16.8,9.5-29.4,16.6c5.3,6.8,11.3,13.2,17.8,18.9
						c21.4-2.2,43.3-4.3,51.8-4.2c0.3,0,0.5,0,0.8,0c15,0.4,20.3,5.1,23.7,7.1c0.4,0.2,0.8,0.4,1.2,0.6c0.5,0.2,1,0.3,1.5,0.4
						c1,0.2,2.2,0.2,3.5,0.2s2.8-0.2,4.4-0.3c1.9-0.1,4.1-0.3,6.5-0.3c0.4,0,0.8,0,1.2,0c3,0,5.5,0.3,7.7,0.4c1.6,0.1,3,0.2,4.3,0.1
						c1-0.1,1.9-0.2,2.7-0.5c0.2-0.1,0.4-0.2,0.6-0.3c0.7-0.3,1.5-0.9,2.5-1.5c3.6-2.3,9.5-5.8,22.5-6c0.5,0,1,0,1.6,0
						c0.3,0,0.5,0,0.8,0c9.6,0.2,29.3,2.1,48.9,4.1c6.6-5.8,12.6-12.2,18-19.1c-12.4-7-23.8-13.4-28.8-16.3
						c-1.3-0.7-3.5-1.3-5.3-1.5C326.9,323.4,326.7,323.4,326.5,323.4"/>
				</defs>
				<clipPath id="SVGID_00000051360767927814043750000011177907633240607629_">
					<use xlink:href="#SVGID_00000053544437295428017150000012686216408044198577_"  style="overflow:visible;"/>
				</clipPath>
				
					<linearGradient id="SVGID_00000172409832131696833310000015645076294649324199_" gradientUnits="userSpaceOnUse" x1="99.6586" y1="155.89" x2="401.3959" y2="155.89" gradientTransform="matrix(1 0 0 -1 0 499.89)">
					<stop  offset="0" style="stop-color:#50311A"/>
					<stop  offset="0.51" style="stop-color:#0E0809"/>
					<stop  offset="1" style="stop-color:#50321A"/>
				</linearGradient>
				
					<rect x="139.2" y="323.4" style="clip-path:url(#SVGID_00000051360767927814043750000011177907633240607629_);fill:url(#SVGID_00000172409832131696833310000015645076294649324199_);" width="222.1" height="41.2"/>
			</g>
		</g>
		<g>
			<g>
				<defs>
					<path id="SVGID_00000168102190431577881230000005634853638628337583_" d="M326.4,323.5L326.4,323.5L326.4,323.5L326.4,323.5
						L326.4,323.5L326.4,323.5h-61.1l-1.4,0.2L252.6,334l-0.8,0.7l0,0c-0.1,0-0.8,0.6-0.8,0.5l-13.4-11.7h-62.9l0,0l0,0l0,0l0,0l0,0
						l0,0c-0.2,0-0.5,0-0.6,0c-1.8,0.1-4,0.7-5.3,1.5c-5.2,2.9-16.8,9.5-29.4,16.6c5.3,6.8,11.2,13,17.7,18.7
						c21.4-2.2,43.2-4.3,51.9-4.2c0.3,0,0.5,0,0.8,0c14.9,0.3,20.3,5,23.7,7c0.4,0.2,0.8,0.5,1.2,0.6c0.5,0.2,1,0.3,1.5,0.4
						c1,0.2,2.2,0.2,3.5,0.2s2.7-0.1,4.4-0.3c1.9-0.1,4.1-0.3,6.5-0.3c0.4,0,0.8,0,1.2,0c3,0,5.5,0.3,7.6,0.4c1.6,0.1,3,0.2,4.3,0.1
						c1-0.1,1.9-0.2,2.8-0.5c0.2-0.1,0.4-0.1,0.6-0.2c0.7-0.3,1.5-0.9,2.5-1.5c3.6-2.3,9.5-5.8,22.5-6.1c0.5,0,1,0,1.6,0
						c0.3,0,0.5,0,0.8,0c9.5,0.2,29.5,2.1,49.1,4.1c6.5-5.8,12.5-12.1,17.8-19c-12.3-7-23.7-13.4-28.8-16.3
						c-1.3-0.7-3.5-1.3-5.3-1.4C326.9,323.5,326.6,323.5,326.4,323.5"/>
				</defs>
				<clipPath id="SVGID_00000110445248462133646900000012206207278447927689_">
					<use xlink:href="#SVGID_00000168102190431577881230000005634853638628337583_"  style="overflow:visible;"/>
				</clipPath>
				
					<linearGradient id="SVGID_00000059293338293069909700000003054807835001253020_" gradientUnits="userSpaceOnUse" x1="99.8694" y1="155.89" x2="401.1784" y2="155.89" gradientTransform="matrix(1 0 0 -1 0 499.89)">
					<stop  offset="0" style="stop-color:#52341E"/>
					<stop  offset="0.51" style="stop-color:#120A0A"/>
					<stop  offset="1" style="stop-color:#53351D"/>
				</linearGradient>
				
					<rect x="139.3" y="323.5" style="clip-path:url(#SVGID_00000110445248462133646900000012206207278447927689_);fill:url(#SVGID_00000059293338293069909700000003054807835001253020_);" width="221.9" height="41"/>
			</g>
		</g>
		<g>
			<g>
				<defs>
					<path id="SVGID_00000116213166775213506310000006088110440878262659_" d="M326.3,323.6h-61.1l-1.4,0.3l-11.2,10.3
						c-0.1,0.1-0.8,0.6-0.9,0.6l0,0c-0.1,0-0.8,0.5-0.8,0.4l-13.4-11.7h-62.8c-0.2,0-0.5,0-0.6,0c-1.7,0.1-4,0.7-5.3,1.4
						c-5.2,3-16.9,9.6-29.4,16.7c5.3,6.7,11.1,12.9,17.5,18.6c21.3-2.2,43.2-4.3,51.9-4.2c0.3,0,0.5,0,0.8,0
						c14.8,0.3,20.2,4.9,23.7,7c0.4,0.2,0.8,0.5,1.2,0.6c0.5,0.2,1,0.4,1.5,0.5c1,0.2,2.1,0.3,3.5,0.2c1.3,0,2.7-0.1,4.4-0.3
						c1.9-0.1,4-0.3,6.5-0.3c0.4,0,0.8,0,1.2,0c3,0,5.5,0.2,7.6,0.4c1.6,0.1,3,0.2,4.3,0.1c1,0,1.9-0.2,2.8-0.4
						c0.2-0.1,0.4-0.1,0.6-0.2c0.7-0.3,1.5-0.9,2.5-1.5c3.6-2.3,9.5-5.9,22.5-6.1c0.5,0,1,0,1.6,0c0.3,0,0.5,0,0.8,0
						c9.5,0.2,29.6,2.1,49.4,4.1c6.5-5.7,12.4-12,17.7-18.8c-12.3-7-23.7-13.4-28.8-16.3c-1.3-0.7-3.6-1.3-5.3-1.4
						C326.9,323.6,326.5,323.6,326.3,323.6"/>
				</defs>
				<clipPath id="SVGID_00000178186572056304287590000015944053692495613871_">
					<use xlink:href="#SVGID_00000116213166775213506310000006088110440878262659_"  style="overflow:visible;"/>
				</clipPath>
				
					<linearGradient id="SVGID_00000067956083412161573190000004157717501073338278_" gradientUnits="userSpaceOnUse" x1="100.0734" y1="155.89" x2="400.9811" y2="155.89" gradientTransform="matrix(1 0 0 -1 0 499.89)">
					<stop  offset="0" style="stop-color:#553621"/>
					<stop  offset="0.51" style="stop-color:#160B0C"/>
					<stop  offset="1" style="stop-color:#563820"/>
				</linearGradient>
				
					<rect x="139.3" y="323.6" style="clip-path:url(#SVGID_00000178186572056304287590000015944053692495613871_);fill:url(#SVGID_00000067956083412161573190000004157717501073338278_);" width="221.8" height="40.8"/>
			</g>
		</g>
		<g>
			<g>
				<defs>
					<path id="SVGID_00000042705042079861310860000005866741174895110814_" d="M265.1,323.6l-1.4,0.4l-11.2,10.3
						c-0.1,0.1-0.7,0.6-0.9,0.6l0,0c-0.1,0-0.8,0.4-0.9,0.3l-13.3-11.6h-62.6c-0.1,0-0.5,0-0.7,0c-1.7,0.1-4,0.7-5.3,1.4
						c-5.3,3-16.9,9.6-29.4,16.7c5.2,6.6,11,12.8,17.4,18.4c21.3-2.2,43.2-4.3,51.9-4.2c0.3,0,0.5,0,0.8,0
						c14.7,0.3,20.2,4.8,23.7,6.9c0.4,0.3,0.8,0.5,1.2,0.6c0.5,0.2,1,0.4,1.4,0.5c1,0.2,2.1,0.3,3.5,0.3c1.3,0,2.7-0.1,4.4-0.3
						c1.9-0.1,4-0.3,6.5-0.3c0.4,0,0.8,0,1.2,0c3,0,5.5,0.2,7.6,0.4c1.6,0.1,3,0.2,4.3,0.1c1,0,2-0.2,2.8-0.4
						c0.2-0.1,0.4-0.1,0.6-0.2c0.7-0.3,1.5-0.8,2.5-1.5c3.6-2.3,9.4-5.9,22.4-6.2c0.5,0,1,0,1.6,0c0.3,0,0.5,0,0.8,0
						c9.4,0.1,29.7,2.1,49.6,4.1c6.4-5.7,12.3-11.9,17.5-18.7c-12.3-6.9-23.7-13.4-28.8-16.3c-1.3-0.7-3.6-1.3-5.3-1.4
						c-0.2,0-0.6,0-0.8,0h-61.1V323.6z"/>
				</defs>
				<clipPath id="SVGID_00000026130159557468420570000013626982841661008267_">
					<use xlink:href="#SVGID_00000042705042079861310860000005866741174895110814_"  style="overflow:visible;"/>
				</clipPath>
				
					<linearGradient id="SVGID_00000024692217534006352550000001127738140172209851_" gradientUnits="userSpaceOnUse" x1="100.2638" y1="155.94" x2="400.7907" y2="155.94" gradientTransform="matrix(1 0 0 -1 0 499.89)">
					<stop  offset="0" style="stop-color:#583824"/>
					<stop  offset="0.51" style="stop-color:#1A0D0E"/>
					<stop  offset="1" style="stop-color:#593B23"/>
				</linearGradient>
				
					<rect x="139.4" y="323.6" style="clip-path:url(#SVGID_00000026130159557468420570000013626982841661008267_);fill:url(#SVGID_00000024692217534006352550000001127738140172209851_);" width="221.7" height="40.7"/>
			</g>
		</g>
		<g>
			<g>
				<defs>
					<path id="SVGID_00000096048781268743119500000014672296094493782188_" d="M326.2,323.7H265l-1.3,0.5l-11.2,10.3
						c-0.1,0.1-0.7,0.6-0.9,0.6l0,0c-0.2,0-0.8,0.3-0.9,0.2l-13.3-11.6h-62.6c-0.2,0-0.5,0-0.6,0c-1.7,0.1-4,0.7-5.3,1.4
						c-5.3,3-16.9,9.6-29.5,16.7c5.2,6.6,10.9,12.7,17.2,18.2c21.3-2.2,43.1-4.3,51.9-4.2c0.3,0,0.5,0,0.8,0
						c14.6,0.3,20.2,4.7,23.7,6.8c0.4,0.3,0.8,0.5,1.2,0.6c0.5,0.2,1,0.4,1.4,0.5c1,0.2,2.1,0.3,3.5,0.3c1.3,0,2.7-0.1,4.4-0.2
						c1.9-0.1,4-0.3,6.5-0.3c0.4,0,0.8,0,1.2,0c3,0,5.5,0.2,7.6,0.4c1.6,0.1,3,0.2,4.3,0.1c1.1,0,2-0.2,2.8-0.4
						c0.2-0.1,0.4-0.1,0.6-0.2c0.7-0.3,1.5-0.8,2.5-1.5c3.6-2.3,9.4-5.9,22.4-6.2c0.5,0,1,0,1.6,0c0.3,0,0.5,0,0.8,0
						c9.4,0.1,29.8,2.1,49.9,4.1c6.3-5.6,12.1-11.8,17.4-18.5c-12.3-6.9-23.6-13.4-28.9-16.3c-1.3-0.7-3.6-1.3-5.3-1.4
						C326.8,323.7,326.3,323.7,326.2,323.7"/>
				</defs>
				<clipPath id="SVGID_00000004548482910511320710000018370769428240929468_">
					<use xlink:href="#SVGID_00000096048781268743119500000014672296094493782188_"  style="overflow:visible;"/>
				</clipPath>
				
					<linearGradient id="SVGID_00000161632274575858751600000016267176784524002219_" gradientUnits="userSpaceOnUse" x1="100.4406" y1="155.94" x2="400.6139" y2="155.94" gradientTransform="matrix(1 0 0 -1 0 499.89)">
					<stop  offset="0" style="stop-color:#5B3A27"/>
					<stop  offset="0.51" style="stop-color:#1E0F0F"/>
					<stop  offset="1" style="stop-color:#5C3E26"/>
				</linearGradient>
				
					<rect x="139.4" y="323.7" style="clip-path:url(#SVGID_00000004548482910511320710000018370769428240929468_);fill:url(#SVGID_00000161632274575858751600000016267176784524002219_);" width="221.6" height="40.5"/>
			</g>
		</g>
		<g>
			<g>
				<defs>
					<path id="SVGID_00000077325402825768249130000009263915161383822232_" d="M264.9,323.8l-1.3,0.6l-11.2,10.3
						c-0.1,0.1-0.7,0.5-0.9,0.5l0,0c-0.2,0-0.8,0.3-0.9,0.1l-13.3-11.6h-62.4c-0.1,0-0.5,0-0.7,0c-1.7,0.1-4,0.7-5.3,1.4
						c-5.4,3-17,9.6-29.5,16.7c5.1,6.5,10.9,12.6,17,18.1c21.2-2.2,43.1-4.3,52-4.2c0.3,0,0.5,0,0.8,0c14.5,0.3,20.2,4.6,23.7,6.8
						c0.4,0.3,0.8,0.5,1.2,0.7c0.5,0.2,1,0.4,1.4,0.5c1,0.2,2.1,0.3,3.5,0.3c1.3,0,2.7-0.1,4.3-0.2c1.9-0.1,4-0.3,6.5-0.3
						c0.4,0,0.8,0,1.2,0c3,0,5.4,0.2,7.6,0.4c1.6,0.1,3,0.2,4.3,0.2c1.1,0,2-0.1,2.8-0.4c0.2-0.1,0.4-0.1,0.6-0.2
						c0.7-0.3,1.5-0.8,2.5-1.5c3.6-2.3,9.4-5.9,22.4-6.2c0.5,0,1,0,1.6,0c0.3,0,0.5,0,0.8,0c9.3,0.1,29.9,2.1,50.1,4.1
						c6.3-5.6,12-11.7,17.2-18.3c-12.3-6.9-23.6-13.4-28.9-16.3c-1.3-0.7-3.6-1.3-5.3-1.4c-0.1,0-0.7,0-0.8,0h-61V323.8z"/>
				</defs>
				<clipPath id="SVGID_00000107589122999461185920000002337227994156620431_">
					<use xlink:href="#SVGID_00000077325402825768249130000009263915161383822232_"  style="overflow:visible;"/>
				</clipPath>
				
					<linearGradient id="SVGID_00000078736345214602751780000009775507419767621536_" gradientUnits="userSpaceOnUse" x1="100.5971" y1="155.94" x2="400.4576" y2="155.94" gradientTransform="matrix(1 0 0 -1 0 499.89)">
					<stop  offset="0" style="stop-color:#5D3D2B"/>
					<stop  offset="0.51" style="stop-color:#221111"/>
					<stop  offset="1" style="stop-color:#5E4028"/>
				</linearGradient>
				
					<rect x="139.5" y="323.8" style="clip-path:url(#SVGID_00000107589122999461185920000002337227994156620431_);fill:url(#SVGID_00000078736345214602751780000009775507419767621536_);" width="221.4" height="40.3"/>
			</g>
		</g>
		<g>
			<g>
				<defs>
					<path id="SVGID_00000098221996443549659770000010015278147234440064_" d="M326,323.9h-61.2l-1.3,0.7l-11.2,10.3
						c-0.2,0.1-0.7,0.5-1,0.5l0,0c-0.3,0-0.8,0.2-0.9,0l-13.2-11.5h-62.3c-0.1,0-0.5,0-0.6,0c-1.6,0-4,0.7-5.3,1.4
						c-5.4,3.1-17,9.7-29.5,16.7c5.1,6.5,10.8,12.5,16.9,17.9c21.2-2.2,43.1-4.3,52-4.2c0.3,0,0.5,0,0.8,0
						c14.4,0.3,20.2,4.5,23.7,6.7c0.4,0.3,0.8,0.5,1.2,0.7c0.5,0.3,1,0.4,1.4,0.6c1,0.3,2.1,0.4,3.5,0.3c1.3,0,2.7-0.1,4.3-0.2
						c1.9-0.1,4-0.3,6.5-0.3c0.4,0,0.8,0,1.2,0c2.9,0,5.4,0.2,7.6,0.4c1.6,0.1,3,0.2,4.3,0.2c1.1,0,2-0.1,2.8-0.4
						c0.2-0.1,0.4-0.1,0.6-0.2c0.7-0.3,1.5-0.8,2.5-1.4c3.6-2.3,9.4-5.9,22.3-6.3c0.5,0,1,0,1.6,0c0.3,0,0.5,0,0.8,0
						c9.3,0.1,30.1,2.1,50.3,4.1c6.2-5.5,11.9-11.6,17.1-18.2c-12.2-6.9-23.6-13.3-28.9-16.4c-1.2-0.7-3.6-1.3-5.2-1.4
						C326.7,323.9,326.2,323.9,326,323.9"/>
				</defs>
				<clipPath id="SVGID_00000026881779160492256320000005829135304526946982_">
					<use xlink:href="#SVGID_00000098221996443549659770000010015278147234440064_"  style="overflow:visible;"/>
				</clipPath>
				
					<linearGradient id="SVGID_00000094616138552311626670000015933479596668968890_" gradientUnits="userSpaceOnUse" x1="100.7331" y1="155.94" x2="400.3215" y2="155.94" gradientTransform="matrix(1 0 0 -1 0 499.89)">
					<stop  offset="0" style="stop-color:#603F2E"/>
					<stop  offset="0.51" style="stop-color:#261312"/>
					<stop  offset="1" style="stop-color:#61432B"/>
				</linearGradient>
				
					<rect x="139.6" y="323.9" style="clip-path:url(#SVGID_00000026881779160492256320000005829135304526946982_);fill:url(#SVGID_00000094616138552311626670000015933479596668968890_);" width="221.3" height="40.1"/>
			</g>
		</g>
		<g>
			<g>
				<defs>
					<path id="SVGID_00000096060769836666691470000005857898810096104103_" d="M325.9,324h-61.2l-1.2,0.8l-11.2,10.3
						c-0.2,0.2-0.7,0.5-1,0.5l0,0c-0.3,0-0.8,0.1-1-0.1L237.2,324H175c-0.1,0-0.5,0-0.6,0c-1.6,0-4,0.6-5.3,1.4
						c-5.5,3.1-17.1,9.7-29.5,16.7c5.1,6.4,10.7,12.3,16.7,17.8c21.1-2.2,43-4.3,52-4.2c0.3,0,0.5,0,0.8,0
						c14.3,0.2,20.1,4.4,23.7,6.6c0.4,0.3,0.8,0.5,1.2,0.7c0.5,0.3,1,0.5,1.4,0.6c0.9,0.3,2,0.4,3.4,0.4c1.3,0,2.7-0.1,4.3-0.2
						c1.9-0.1,4-0.3,6.4-0.3c0.4,0,0.8,0,1.2,0c2.9,0,5.4,0.2,7.6,0.4c1.6,0.1,3,0.2,4.3,0.2c1.1,0,2-0.1,2.8-0.3
						c0.2-0.1,0.4-0.1,0.6-0.2c0.7-0.3,1.5-0.8,2.5-1.4c3.6-2.3,9.4-5.9,22.3-6.3c0.5,0,1,0,1.6,0c0.2,0,0.5,0,0.8,0
						c9.2,0.1,30.2,2.1,50.6,4.1c6.1-5.5,11.8-11.5,16.9-18c-12.2-6.9-23.5-13.3-28.9-16.4c-1.2-0.7-3.6-1.3-5.2-1.4
						C326.6,324,326.1,324,325.9,324"/>
				</defs>
				<clipPath id="SVGID_00000183229487398329053980000018227298937909861265_">
					<use xlink:href="#SVGID_00000096060769836666691470000005857898810096104103_"  style="overflow:visible;"/>
				</clipPath>
				
					<linearGradient id="SVGID_00000181054053693560271830000009885517364067237050_" gradientUnits="userSpaceOnUse" x1="100.8623" y1="155.94" x2="400.1923" y2="155.94" gradientTransform="matrix(1 0 0 -1 0 499.89)">
					<stop  offset="0" style="stop-color:#634131"/>
					<stop  offset="0.51" style="stop-color:#2A1514"/>
					<stop  offset="1" style="stop-color:#64462E"/>
				</linearGradient>
				
					<rect x="139.6" y="324" style="clip-path:url(#SVGID_00000183229487398329053980000018227298937909861265_);fill:url(#SVGID_00000181054053693560271830000009885517364067237050_);" width="221.2" height="39.9"/>
			</g>
		</g>
		<g>
			<g>
				<defs>
					<path id="SVGID_00000135649489108739635920000011281756486645814413_" d="M325.9,324.1L325.9,324.1L325.9,324.1L325.9,324.1
						L325.9,324.1L325.9,324.1L325.9,324.1L325.9,324.1L325.9,324.1L325.9,324.1L325.9,324.1L325.9,324.1h-0.1l0,0l0,0h-61.1
						l-1.2,0.9l-11.2,10.3c-0.2,0.2-0.7,0.4-1,0.4l0,0c-0.3,0-0.8,0-1-0.2L237.1,324H175l0,0l0,0l0,0l0,0l0,0l0,0l0,0l0,0l0,0l0,0
						l0,0l0,0l0,0l0,0c-0.2,0-0.5,0-0.6,0c-1.6,0-4,0.6-5.2,1.3c-5.5,3.1-17.1,9.7-29.5,16.7c5,6.3,10.6,12.2,16.6,17.6
						c21.1-2.2,43-4.3,52-4.2c0.3,0,0.5,0,0.8,0c14.2,0.2,20.1,4.3,23.7,6.6c0.4,0.3,0.8,0.5,1.2,0.7c0.5,0.3,1,0.5,1.4,0.6
						c0.9,0.3,2,0.4,3.4,0.4c1.3,0,2.7-0.1,4.3-0.2c1.9-0.1,4-0.3,6.4-0.3c0.4,0,0.8,0,1.2,0c2.9,0,5.4,0.2,7.6,0.3
						c1.6,0.1,3,0.2,4.3,0.2c1.1,0,2-0.1,2.8-0.3c0.2-0.1,0.4-0.1,0.6-0.2c0.7-0.3,1.5-0.8,2.5-1.4c3.5-2.3,9.4-5.9,22.3-6.3
						c0.5,0,1,0,1.6,0c0.2,0,0.5,0,0.8,0c9.2,0,30.3,2.1,50.8,4.2c6.1-5.5,11.7-11.4,16.8-17.9c-12.2-6.9-23.5-13.3-28.9-16.4
						c-1.2-0.7-3.6-1.3-5.2-1.3C326.6,324.1,326.1,324.1,325.9,324.1"/>
				</defs>
				<clipPath id="SVGID_00000052084513891381158540000016191304274119727246_">
					<use xlink:href="#SVGID_00000135649489108739635920000011281756486645814413_"  style="overflow:visible;"/>
				</clipPath>
				
					<linearGradient id="SVGID_00000183948863398221926390000010614690664869088393_" gradientUnits="userSpaceOnUse" x1="100.9915" y1="155.94" x2="400.0563" y2="155.94" gradientTransform="matrix(1 0 0 -1 0 499.89)">
					<stop  offset="0" style="stop-color:#664334"/>
					<stop  offset="0.51" style="stop-color:#2E1616"/>
					<stop  offset="1" style="stop-color:#674931"/>
				</linearGradient>
				
					<rect x="139.7" y="324.1" style="clip-path:url(#SVGID_00000052084513891381158540000016191304274119727246_);fill:url(#SVGID_00000183948863398221926390000010614690664869088393_);" width="221.1" height="39.7"/>
			</g>
		</g>
		<g>
			<g>
				<defs>
					<path id="SVGID_00000067194182934809649650000001087915818779573160_" d="M264.6,324.2l-1.2,1l-11.2,10.3
						c-0.2,0.2-0.7,0.4-1,0.4l0,0c-0.4,0-0.8-0.1-1-0.3l-13.1-11.4h-61.9h-0.6c-1.6,0-4,0.6-5.2,1.3c-5.5,3.1-17.1,9.7-29.5,16.7
						c5,6.3,10.5,12.1,16.4,17.4c21-2.2,43-4.3,52.1-4.2c0.3,0,0.5,0,0.8,0c14.1,0.2,20.1,4.2,23.7,6.5c0.4,0.3,0.8,0.5,1.2,0.7
						c0.5,0.3,1,0.5,1.4,0.7c0.9,0.3,2,0.4,3.4,0.4c1.3,0,2.7-0.1,4.3-0.2c1.9-0.1,4-0.3,6.4-0.3c0.4,0,0.8,0,1.2,0
						c2.9,0,5.4,0.2,7.6,0.3c1.6,0.1,3,0.2,4.3,0.2c1.1,0,2-0.1,2.8-0.3c0.2-0.1,0.4-0.1,0.6-0.2c0.7-0.2,1.5-0.8,2.5-1.4
						c3.5-2.3,9.3-5.9,22.2-6.4c0.5,0,1,0,1.6,0c0.2,0,0.5,0,0.8,0c9.1,0,30.4,2.1,51.1,4.2c6-5.4,11.6-11.3,16.6-17.7
						c-12.2-6.9-23.5-13.3-28.9-16.4c-1.2-0.7-3.7-1.3-5.2-1.3H326L264.6,324.2L264.6,324.2z"/>
				</defs>
				<clipPath id="SVGID_00000141438946992779002320000013140873312534605209_">
					<use xlink:href="#SVGID_00000067194182934809649650000001087915818779573160_"  style="overflow:visible;"/>
				</clipPath>
				
					<linearGradient id="SVGID_00000002354322749786702230000011299083069835555001_" gradientUnits="userSpaceOnUse" x1="101.1275" y1="155.89" x2="399.9271" y2="155.89" gradientTransform="matrix(1 0 0 -1 0 499.89)">
					<stop  offset="0" style="stop-color:#684638"/>
					<stop  offset="0.51" style="stop-color:#321817"/>
					<stop  offset="1" style="stop-color:#6A4C34"/>
				</linearGradient>
				
					<rect x="139.8" y="324.2" style="clip-path:url(#SVGID_00000141438946992779002320000013140873312534605209_);fill:url(#SVGID_00000002354322749786702230000011299083069835555001_);" width="220.9" height="39.6"/>
			</g>
		</g>
		<g>
			<g>
				<defs>
					<path id="SVGID_00000049180043711739268930000002840132777459006621_" d="M238.6,363.6L238.6,363.6h0.1c1.2,0,2.6-0.1,4.2-0.2
						c2.2-0.2,4.7-0.3,7.6-0.3c2.9,0,5.4,0.2,7.6,0.3c1.6,0.1,3,0.2,4.2,0.2h0.1h0.1c1.4,0,2.5-0.1,3.4-0.5c0.7-0.2,1.5-0.8,2.5-1.4
						c3.7-2.3,9.8-6.3,23.8-6.4c0.2,0,0.5,0,0.8,0c9.1,0,30.5,2.1,51.3,4.2c6-5.4,11.5-11.2,16.5-17.5
						c-12.1-6.9-23.4-13.3-28.9-16.4c-1.2-0.7-3.7-1.3-5.2-1.3h-61.9l-12.3,11.4c-0.3,0.2-0.6,0.4-1,0.4l0,0c-0.4,0-0.8-0.1-1-0.4
						L237,324.3h-62.5c-1.6,0-4,0.6-5.2,1.3c-5.6,3.2-17.2,9.7-29.5,16.7c4.9,6.2,10.4,12,16.3,17.3c21-2.2,42.9-4.3,52.1-4.3
						c0.3,0,0.5,0,0.8,0c14,0.2,20.1,4.1,23.8,6.4c1,0.6,1.9,1.2,2.5,1.4C236.1,363.5,237.1,363.6,238.6,363.6"/>
				</defs>
				<clipPath id="SVGID_00000104702898463147105300000000209182834155953842_">
					<use xlink:href="#SVGID_00000049180043711739268930000002840132777459006621_"  style="overflow:visible;"/>
				</clipPath>
				
					<linearGradient id="SVGID_00000110447421998022225880000006459302856968459158_" gradientUnits="userSpaceOnUse" x1="101.2567" y1="155.89" x2="399.7979" y2="155.89" gradientTransform="matrix(1 0 0 -1 0 499.89)">
					<stop  offset="0" style="stop-color:#6B483B"/>
					<stop  offset="0.51" style="stop-color:#361A19"/>
					<stop  offset="1" style="stop-color:#6D4F37"/>
				</linearGradient>
				
					<rect x="139.8" y="324.3" style="clip-path:url(#SVGID_00000104702898463147105300000000209182834155953842_);fill:url(#SVGID_00000110447421998022225880000006459302856968459158_);" width="220.8" height="39.4"/>
			</g>
		</g>
		<rect x="249" y="355.8" class="st18" width="3.2" height="4.6"/>
		<path class="st19" d="M358.9,344.2c-35-10.5-72.1-18.3-108.3-2.4v18.4l13.7,1c12.2-10.6,48.9-7.1,81.4-2.9
			C350.4,353.8,354.8,349.1,358.9,344.2"/>
		<path class="st19" d="M141.5,344.4c35.2-10.6,72.5-18.6,109-2.7v18.4l-13.7,1c-12.3-10.7-49.4-7-82.1-2.8
			C150,353.9,145.6,349.3,141.5,344.4"/>
		<g>
			<g>
				<defs>
					<path id="SVGID_00000132791230857537065750000002891196116062099388_" d="M250.5,328.1v29.6c7.9-31,72.6-15.1,106.7-11.6
						c1-1.2,2-2.4,3-3.6l-36.7-21.3c-11.2,0.4-21.6-0.9-30.9-2.2c-8.1-1.2-15.4-2.3-21.7-2.3C261.6,316.7,254.6,319.2,250.5,328.1"
						/>
				</defs>
				<clipPath id="SVGID_00000041278725124172868020000010352565015089324172_">
					<use xlink:href="#SVGID_00000132791230857537065750000002891196116062099388_"  style="overflow:visible;"/>
				</clipPath>
				
					<linearGradient id="SVGID_00000155122077994197719390000007964590738410131627_" gradientUnits="userSpaceOnUse" x1="248.6467" y1="152.6996" x2="363.9096" y2="173.0253" gradientTransform="matrix(1 0 0 -1 0 499.89)">
					<stop  offset="0" style="stop-color:#929292"/>
					<stop  offset="6.456326e-02" style="stop-color:#B7B7B7"/>
					<stop  offset="0.1401" style="stop-color:#DCDCDC"/>
					<stop  offset="0.2013" style="stop-color:#F3F3F3"/>
					<stop  offset="0.24" style="stop-color:#FBFBFB"/>
					<stop  offset="0.57" style="stop-color:#D7D7D7"/>
					<stop  offset="0.7069" style="stop-color:#E4E4E4"/>
					<stop  offset="1" style="stop-color:#FBFBFB"/>
				</linearGradient>
				
					<rect x="250.5" y="316.7" style="clip-path:url(#SVGID_00000041278725124172868020000010352565015089324172_);fill:url(#SVGID_00000155122077994197719390000007964590738410131627_);" width="109.6" height="41"/>
			</g>
		</g>
		<path class="st21" d="M250.7,328.2v28.2c3.4-10.6,14.1-16.3,32.7-17.4c16.6-1,36.6,1.9,54.2,4.4c7.3,1,13.9,2,19.7,2.6
			c-0.1,0.1-0.2,0.2-0.3,0.4c-5.7-0.6-12.3-1.5-19.5-2.6c-17.6-2.5-37.5-5.4-54.1-4.4c-19.2,1.1-29.9,7.1-32.8,18.4h-0.4v-29.7
			c6.5-14.4,20.4-12.4,39.6-9.6c9.9,1.4,21.2,3.1,33.4,2.6h0.1l0,0l36.7,21.3l-0.2,0.3l-36.6-21.3c-12.2,0.5-23.5-1.2-33.5-2.6
			C270.9,316.1,257.1,314.1,250.7,328.2"/>
		<path class="st22" d="M264.1,360.8c1.8-1.6,4.1-2.8,6.6-3.7c2.5-0.9,5.2-1.6,7.9-2c5.4-0.9,11-1.2,16.6-1.2s11.1,0.2,16.7,0.6
			c5.5,0.4,11.1,0.9,16.6,1.5c5.8,0.6,11.6,1.3,17.4,2.1l-0.1,0.1c-5.8-0.8-11.5-1.5-17.3-2.1c-11-1.2-22.1-2.1-33.2-2.1
			c-5.6,0.1-11.1,0.3-16.6,1.2c-2.7,0.5-5.4,1.1-7.9,2C268.2,358.1,265.9,359.3,264.1,360.8L264.1,360.8z"/>
		<path class="st22" d="M263.4,360.7c1.7-1.6,3.9-2.9,6.3-3.9s5.1-1.7,7.8-2.2c5.4-1,11-1.4,16.5-1.4c5.6-0.1,11.1,0.2,16.7,0.5
			c5.5,0.4,11.1,0.9,16.6,1.4c6.4,0.7,12.8,1.5,19.1,2.3l-0.1,0.1c-6.3-0.8-12.7-1.6-19-2.3c-11-1.2-22.1-2.1-33.2-2
			c-5.5,0.1-11.1,0.4-16.5,1.4c-2.7,0.5-5.3,1.2-7.7,2.2C267.4,357.9,265.2,359.1,263.4,360.7L263.4,360.7z"/>
		<path class="st22" d="M262.8,360.7c1.6-1.7,3.7-3,6.1-4.1s5-1.8,7.6-2.4c5.3-1.1,10.9-1.5,16.5-1.7c5.5-0.1,11.1,0.1,16.6,0.4
			c5.5,0.4,11,0.8,16.5,1.4c7,0.7,13.9,1.6,20.9,2.5l-0.1,0.1c-6.9-0.9-13.8-1.8-20.8-2.5c-11-1.2-22-2-33.1-1.8
			c-5.5,0.1-11.1,0.5-16.4,1.6c-2.7,0.6-5.3,1.3-7.6,2.4C266.6,357.7,264.4,359,262.8,360.7L262.8,360.7z"/>
		<path class="st22" d="M262.1,360.6c1.5-1.7,3.5-3.1,5.8-4.3c2.3-1.1,4.9-1.9,7.5-2.6c5.3-1.2,10.8-1.7,16.4-1.9
			c5.5-0.2,11.1,0,16.6,0.3s11,0.8,16.5,1.4c7.6,0.8,15.1,1.7,22.6,2.7l-0.1,0.1c-7.5-1-15-2-22.5-2.8c-10.9-1.2-22-2-33.1-1.7
			c-5.5,0.2-11.1,0.6-16.3,1.9c-2.6,0.6-5.2,1.4-7.5,2.5C265.7,357.5,263.7,358.9,262.1,360.6L262.1,360.6z"/>
		<path class="st22" d="M261.5,360.5c1.4-1.7,3.3-3.2,5.6-4.4c2.2-1.2,4.8-2.1,7.4-2.7c5.2-1.3,10.8-1.9,16.3-2.1s11.1-0.1,16.6,0.2
			c5.5,0.3,11,0.7,16.5,1.3c8.2,0.8,16.3,1.9,24.4,2.9l-0.1,0.1c-8.1-1.1-16.1-2.1-24.3-3c-10.9-1.1-22-1.9-33-1.5
			c-5.5,0.2-11,0.8-16.3,2.1c-2.6,0.7-5.1,1.5-7.4,2.7C264.9,357.3,263,358.8,261.5,360.5L261.5,360.5z"/>
		<path class="st22" d="M260.9,360.4c1.3-1.8,3.2-3.3,5.3-4.6c2.2-1.2,4.7-2.2,7.2-2.9c5.2-1.4,10.7-2.1,16.2-2.3
			c5.5-0.3,11-0.1,16.5,0.1c5.5,0.3,11,0.7,16.5,1.3c8.7,0.9,17.4,2,26.1,3.2l-0.1,0.1c-8.6-1.2-17.3-2.3-26-3.2
			c-10.9-1.1-22-1.9-33-1.4c-2.8,0.1-5.5,0.4-8.2,0.7c-2.7,0.4-5.4,0.9-8,1.6s-5,1.6-7.2,2.9C264.1,357.2,262.2,358.7,260.9,360.4
			L260.9,360.4z"/>
		<path class="st22" d="M260.2,360.4c1.2-1.8,3-3.4,5.1-4.7c2.1-1.3,4.5-2.3,7.1-3.1c5.1-1.6,10.6-2.2,16.1-2.6
			c5.5-0.3,11-0.2,16.5,0c5.5,0.3,11,0.7,16.4,1.2c9.3,0.9,18.6,2.1,27.9,3.4l-0.1,0.1c-9.2-1.3-18.5-2.5-27.8-3.4
			c-10.9-1.1-21.9-1.8-32.9-1.2c-2.7,0.2-5.5,0.4-8.2,0.8s-5.4,0.9-7.9,1.7c-2.5,0.8-5,1.8-7.1,3.1
			C263.3,357,261.5,358.6,260.2,360.4L260.2,360.4z"/>
		<path class="st22" d="M259.6,360.3c1.2-1.8,2.8-3.5,4.8-4.8c2-1.4,4.4-2.4,6.9-3.3c5-1.7,10.5-2.4,16-2.8s11-0.3,16.5-0.1
			c5.5,0.2,11,0.6,16.4,1.2c9.9,0.9,19.8,2.3,29.6,3.6l-0.1,0.1c-9.8-1.3-19.6-2.7-29.5-3.6c-10.9-1.1-21.9-1.8-32.9-1
			c-5.5,0.4-10.9,1.1-16,2.8c-2.5,0.8-4.9,1.9-6.9,3.2C262.4,356.9,260.8,358.5,259.6,360.3L259.6,360.3z"/>
		<path class="st22" d="M258.9,360.2c1.1-1.8,2.6-3.5,4.6-5c2-1.4,4.3-2.6,6.7-3.4c5-1.8,10.4-2.6,15.9-3s11-0.4,16.5-0.2
			c5.5,0.2,11,0.6,16.4,1.1c10.5,1,21,2.4,31.4,3.8l-0.1,0.1c-10.4-1.4-20.8-2.8-31.3-3.9c-10.9-1-21.9-1.7-32.9-0.9
			c-5.4,0.4-10.9,1.3-15.9,3c-2.5,0.9-4.8,2-6.7,3.4C261.6,356.7,260,358.4,258.9,360.2L258.9,360.2z"/>
		<path class="st22" d="M258.3,360.2c1-1.9,2.5-3.6,4.4-5.1s4.1-2.7,6.5-3.6c4.9-1.9,10.3-2.8,15.8-3.3s11-0.5,16.5-0.3
			s11,0.6,16.4,1.1c10.9,1,21.7,2.5,32.5,4l0.7,0.1l-0.1,0.1l-0.6-0.1c-10.8-1.5-21.6-3-32.5-4c-5.4-0.5-10.9-0.9-16.4-1.1
			s-11-0.1-16.4,0.4s-10.9,1.4-15.7,3.3c-2.4,0.9-4.7,2.1-6.5,3.6C260.8,356.6,259.3,358.3,258.3,360.2L258.3,360.2z"/>
		<path class="st22" d="M257.6,360.1c0.9-1.9,2.3-3.7,4.1-5.2c1.8-1.5,4-2.8,6.3-3.8c4.8-2,10.2-3,15.6-3.6c5.5-0.5,11-0.6,16.4-0.4
			c5.5,0.2,11,0.5,16.4,1c10.9,1,21.7,2.4,32.5,3.9l2.5,0.3l-0.1,0.1l-2.4-0.3c-10.8-1.5-21.6-3-32.5-4c-5.4-0.5-10.9-0.9-16.4-1
			s-11,0-16.4,0.5c-2.7,0.3-5.4,0.7-8,1.2c-2.6,0.6-5.2,1.3-7.6,2.3s-4.6,2.2-6.3,3.8C260,356.5,258.6,358.2,257.6,360.1
			L257.6,360.1z"/>
		<path class="st22" d="M257,360c0.9-1.9,2.2-3.7,3.9-5.3c1.7-1.6,3.8-2.9,6.1-4c4.7-2.1,10.1-3.2,15.5-3.8
			c5.4-0.6,10.9-0.7,16.4-0.6s11,0.5,16.4,0.9c10.9,1,21.7,2.4,32.5,3.9c1.4,0.2,2.8,0.4,4.3,0.6l-0.1,0.1c-1.4-0.2-2.8-0.4-4.2-0.6
			c-10.8-1.5-21.6-3-32.5-4c-5.4-0.5-10.9-0.9-16.4-1s-11,0-16.4,0.6c-2.7,0.3-5.4,0.7-8,1.4c-2.6,0.6-5.1,1.4-7.5,2.5
			c-2.3,1.1-4.4,2.4-6.1,3.9C259.2,356.3,257.9,358.1,257,360L257,360z"/>
		<path class="st22" d="M256.3,359.9c0.8-1.9,2-3.7,3.6-5.4c1.6-1.6,3.7-3,5.9-4.1c4.6-2.3,10-3.5,15.4-4.1
			c5.4-0.7,10.9-0.8,16.4-0.7c5.5,0.1,11,0.4,16.4,0.9c10.9,0.9,21.7,2.4,32.5,3.9c2,0.3,4,0.6,6,0.8l-0.1,0.1c-2-0.3-4-0.5-6-0.8
			c-10.8-1.5-21.6-3-32.5-3.9c-5.4-0.5-10.9-0.8-16.4-0.9s-11,0.1-16.4,0.8c-5.4,0.7-10.7,1.9-15.3,4.1c-2.3,1.1-4.3,2.5-5.9,4.1
			C258.4,356.2,257.2,358,256.3,359.9L256.3,359.9z"/>
		<path class="st22" d="M255.7,359.9c0.7-1.9,1.9-3.8,3.4-5.4c1.6-1.7,3.5-3.1,5.7-4.3c4.5-2.4,9.8-3.7,15.2-4.4
			c5.4-0.7,10.9-0.9,16.4-0.8s11,0.4,16.4,0.8c10.9,0.9,21.7,2.4,32.5,3.9c2.6,0.4,5.2,0.7,7.8,1.1l-0.1,0.1
			c-2.6-0.3-5.2-0.7-7.7-1.1c-10.8-1.5-21.6-3-32.5-3.9c-5.4-0.5-10.9-0.8-16.4-0.9c-5.5,0-11,0.2-16.4,0.9
			c-5.4,0.7-10.7,2-15.1,4.4c-2.2,1.2-4.2,2.6-5.7,4.2C257.6,356.1,256.5,357.9,255.7,359.9L255.7,359.9z"/>
		<path class="st22" d="M255,359.8c0.7-1.9,1.7-3.8,3.2-5.5s3.3-3.2,5.5-4.4c4.3-2.5,9.7-3.9,15-4.7c5.4-0.8,10.9-1,16.4-1
			s11,0.3,16.4,0.8c10.9,0.9,21.7,2.4,32.5,3.9c3.2,0.4,6.4,0.9,9.6,1.3l-0.1,0.1c-3.2-0.4-6.4-0.9-9.5-1.3
			c-10.8-1.5-21.6-3-32.5-3.9c-5.4-0.5-10.9-0.8-16.4-0.8s-11,0.2-16.4,1c-2.7,0.4-5.3,1-7.9,1.7c-2.5,0.8-5,1.7-7.1,3
			c-2.2,1.2-4,2.7-5.5,4.4C256.9,356,255.8,357.9,255,359.8L255,359.8z"/>
		<path class="st22" d="M254.4,359.7c0.6-1.9,1.6-3.8,3-5.6c1.4-1.7,3.2-3.3,5.3-4.6c4.2-2.6,9.5-4.1,14.8-5
			c5.4-0.9,10.9-1.1,16.4-1.1s11,0.3,16.4,0.7c10.9,0.9,21.7,2.3,32.5,3.8c3.8,0.5,7.6,1.1,11.4,1.6l-0.1,0.1
			c-3.8-0.5-7.6-1-11.3-1.6c-10.8-1.5-21.6-3-32.5-3.9c-5.4-0.4-10.9-0.8-16.4-0.7c-5.5,0-11,0.3-16.3,1.2c-5.3,0.9-10.6,2.4-14.8,5
			c-2.1,1.3-3.9,2.8-5.3,4.5C256.1,355.9,255.1,357.8,254.4,359.7L254.4,359.7z"/>
		<path class="st22" d="M253.7,359.6c0.6-2,1.5-3.9,2.8-5.6c1.3-1.8,3-3.4,5-4.7c4.1-2.7,9.3-4.4,14.6-5.3
			c5.3-0.9,10.9-1.3,16.3-1.3c5.5,0,11,0.2,16.4,0.7c10.9,0.8,21.7,2.3,32.5,3.8c4.4,0.6,8.8,1.2,13.2,1.8l-0.1,0.1
			c-4.4-0.6-8.8-1.2-13.1-1.8c-10.8-1.5-21.6-3-32.5-3.9c-5.5-0.4-10.9-0.7-16.4-0.7s-11,0.4-16.3,1.3c-5.3,1-10.5,2.6-14.6,5.3
			c-2,1.3-3.7,2.9-5.1,4.7C255.3,355.8,254.4,357.7,253.7,359.6L253.7,359.6z"/>
		<path class="st22" d="M253.1,359.6c0.5-2,1.4-3.9,2.6-5.7c1.2-1.8,2.9-3.4,4.8-4.8c2-1.4,4.2-2.6,6.7-3.5c2.4-0.9,5.1-1.6,7.7-2.1
			c5.3-1,10.8-1.4,16.3-1.4s11,0.2,16.4,0.6c10.9,0.8,21.7,2.3,32.5,3.8c5,0.7,10,1.4,15,2.1l-0.1,0.1c-5-0.6-10-1.3-14.9-2
			c-10.8-1.5-21.6-3-32.5-3.8c-5.5-0.4-10.9-0.7-16.4-0.6s-11,0.5-16.3,1.5s-10.4,2.8-14.3,5.6c-2,1.4-3.6,3-4.8,4.8
			C254.5,355.7,253.7,357.6,253.1,359.6L253.1,359.6z"/>
		<path class="st22" d="M252.5,359.5c0.5-2,1.2-3.9,2.4-5.7c1.2-1.8,2.7-3.5,4.6-5s4.1-2.7,6.5-3.7s5-1.7,7.6-2.3
			c5.3-1.1,10.8-1.5,16.3-1.6s11,0.1,16.5,0.5c10.9,0.8,21.8,2.3,32.5,3.8c5.4,0.7,10.8,1.5,16.2,2.2l0.6,0.1l-0.1,0.1l-0.5-0.1
			c-5.4-0.7-10.8-1.4-16.2-2.2c-10.8-1.5-21.6-3-32.5-3.8c-5.5-0.4-11-0.7-16.4-0.6c-5.5,0.1-11,0.5-16.3,1.7
			c-5.2,1.1-10.3,3-14.1,5.9C255.7,351.8,253.5,355.6,252.5,359.5L252.5,359.5z"/>
		<path class="st22" d="M251.8,359.4c0.4-2,1.1-3.9,2.2-5.8c1.1-1.8,2.5-3.6,4.4-5.1c1.8-1.5,4-2.8,6.3-3.8c2.4-1,4.9-1.8,7.6-2.4
			c5.3-1.2,10.8-1.7,16.3-1.8c5.5-0.1,11,0.1,16.5,0.5c11,0.8,21.8,2.2,32.6,3.8c5.4,0.8,10.8,1.6,16.2,2.3c0.8,0.1,1.6,0.2,2.4,0.3
			l-0.1,0.1c-0.8-0.1-1.6-0.2-2.4-0.3c-5.4-0.7-10.8-1.4-16.2-2.2c-10.8-1.5-21.6-3-32.6-3.8c-5.5-0.4-11-0.6-16.5-0.5
			s-11,0.6-16.2,1.8c-5.2,1.2-10.2,3.2-13.8,6.2C254.8,351.6,252.7,355.5,251.8,359.4L251.8,359.4z"/>
		<path class="st22" d="M251.2,359.3c0.4-2,1-4,2-5.8c1-1.9,2.4-3.6,4.1-5.2c1.7-1.6,3.8-2.9,6.2-4c2.3-1.1,4.9-1.9,7.5-2.6
			c5.2-1.3,10.8-1.8,16.3-2s11,0,16.5,0.4c11,0.7,21.8,2.2,32.6,3.7c5.4,0.8,10.8,1.6,16.2,2.3c1.4,0.2,2.8,0.4,4.2,0.5l-0.1,0.1
			c-1.4-0.2-2.8-0.3-4.2-0.5c-5.4-0.7-10.8-1.4-16.2-2.2c-10.8-1.5-21.6-3-32.6-3.8c-5.5-0.4-11-0.6-16.5-0.4s-11,0.7-16.2,2
			s-10.1,3.4-13.6,6.5C253.9,351.5,252,355.4,251.2,359.3L251.2,359.3z"/>
		<path class="st22" d="M250.5,359.3c0.3-2,0.9-4,1.9-5.9c0.9-1.9,2.2-3.7,3.9-5.3c1.7-1.6,3.7-3,6-4.2s4.8-2,7.4-2.7
			c5.2-1.4,10.7-1.9,16.2-2.2c5.5-0.2,11,0,16.5,0.3c11,0.7,21.8,2.2,32.7,3.7c5.4,0.8,10.8,1.6,16.2,2.3c2,0.3,4,0.5,6,0.7
			l-0.1,0.1c-2-0.2-4-0.4-6-0.7c-5.4-0.7-10.8-1.5-16.2-2.2c-10.8-1.5-21.7-3-32.6-3.8c-5.5-0.4-11-0.6-16.5-0.3
			c-5.5,0.2-11,0.8-16.2,2.2c-5.1,1.4-9.9,3.6-13.3,6.8C253.1,351.4,251.3,355.3,250.5,359.3L250.5,359.3z"/>
		<g>
			<g>
				<defs>
					<path id="SVGID_00000084516268689503074990000012071095882687395725_" d="M211.2,319.4c-10,1.5-21.4,2.9-33.6,1.8l-37.3,21.7
						c0.9,1.1,1.8,2.2,2.8,3.3c33.8-3.4,99.5-19.7,107.4,11.5v-29.6c-3.9-8.5-10.4-10.9-19.1-10.9
						C225.6,317.2,218.8,318.3,211.2,319.4"/>
				</defs>
				<clipPath id="SVGID_00000151520158273909380720000013722327024731083199_">
					<use xlink:href="#SVGID_00000084516268689503074990000012071095882687395725_"  style="overflow:visible;"/>
				</clipPath>
				
					<linearGradient id="SVGID_00000042722049689864445960000013551369058401948336_" gradientUnits="userSpaceOnUse" x1="252.3015" y1="152.4041" x2="137.0589" y2="172.7298" gradientTransform="matrix(1 0 0 -1 0 499.89)">
					<stop  offset="0" style="stop-color:#929292"/>
					<stop  offset="2.350340e-02" style="stop-color:#A3A3A3"/>
					<stop  offset="8.520796e-02" style="stop-color:#C9C9C9"/>
					<stop  offset="0.1422" style="stop-color:#E4E4E4"/>
					<stop  offset="0.1923" style="stop-color:#F5F5F5"/>
					<stop  offset="0.23" style="stop-color:#FBFBFB"/>
					<stop  offset="0.57" style="stop-color:#D7D7D7"/>
					<stop  offset="0.6303" style="stop-color:#DCDCDC"/>
					<stop  offset="1" style="stop-color:#FBFBFB"/>
				</linearGradient>
				
					<rect x="140.3" y="317.2" style="clip-path:url(#SVGID_00000151520158273909380720000013722327024731083199_);fill:url(#SVGID_00000042722049689864445960000013551369058401948336_);" width="110.2" height="40.5"/>
			</g>
		</g>
		<path class="st21" d="M210.7,338.8c2.3,0,4.6,0.1,6.9,0.2c18.6,1.1,29.3,6.8,32.7,17.4v-28.2c-6.1-13.4-19-11.5-36.7-8.9
			c-10.7,1.6-22.7,3.4-36,2.2l-37.2,21.6l-0.2-0.3l37.4-21.7h0.1c13.2,1.2,25.3-0.6,35.9-2.2c17.9-2.6,30.9-4.6,37.1,9.2v0.1v29.6
			h-0.4c-2.9-11.3-13.6-17.3-32.8-18.4c-16.6-0.9-36.5,1.9-54.1,4.4c-7.5,1.1-14.3,2.1-20.2,2.6c-0.1-0.1-0.2-0.2-0.3-0.4
			c5.9-0.6,12.9-1.6,20.5-2.7C178.6,341.2,195.6,338.8,210.7,338.8"/>
		<path class="st22" d="M236.9,360.8c-1.8-1.6-4.1-2.8-6.6-3.7c-2.5-0.9-5.2-1.6-7.9-2c-5.4-0.9-11-1.2-16.6-1.2s-11.1,0.2-16.7,0.6
			c-5.5,0.4-11.1,0.9-16.6,1.5c-6.1,0.6-12.1,1.4-18.1,2.2l0.1,0.1c6-0.8,12-1.5,18-2.2c11-1.2,22.1-2.1,33.2-2.1
			c5.6,0.1,11.1,0.3,16.6,1.2c2.7,0.5,5.4,1.1,7.9,2C232.8,358.1,235.1,359.3,236.9,360.8L236.9,360.8z"/>
		<path class="st22" d="M237.6,360.7c-1.7-1.6-3.9-2.9-6.3-3.9c-2.4-1-5.1-1.7-7.8-2.2c-5.4-1-11-1.4-16.5-1.4
			c-5.6-0.1-11.1,0.2-16.7,0.5c-5.5,0.4-11.1,0.9-16.6,1.4c-6.6,0.7-13.3,1.5-19.9,2.4l0.1,0.1c6.6-0.9,13.2-1.7,19.8-2.4
			c11-1.2,22.1-2.1,33.2-2c5.5,0.1,11.1,0.4,16.5,1.4c2.7,0.5,5.3,1.2,7.7,2.2C233.6,357.9,235.9,359.1,237.6,360.7L237.6,360.7z"/>
		<path class="st22" d="M238.2,360.7c-1.6-1.7-3.7-3-6.1-4.1c-2.4-1.1-5-1.8-7.6-2.4c-5.3-1.1-10.9-1.5-16.5-1.7
			c-5.5-0.1-11.1,0.1-16.6,0.4c-5.5,0.4-11,0.8-16.5,1.4c-7.2,0.7-14.4,1.7-21.6,2.6l0.1,0.1c7.2-1,14.3-1.9,21.5-2.6
			c11-1.2,22-2,33.1-1.8c5.5,0.1,11.1,0.5,16.4,1.6c2.7,0.6,5.3,1.3,7.6,2.4C234.5,357.7,236.6,359,238.2,360.7L238.2,360.7z"/>
		<path class="st22" d="M238.9,360.6c-1.5-1.7-3.5-3.1-5.8-4.3c-2.3-1.1-4.9-1.9-7.5-2.6c-5.3-1.2-10.8-1.7-16.4-1.9
			c-5.5-0.2-11.1,0-16.6,0.3s-11,0.8-16.5,1.4c-7.8,0.8-15.6,1.8-23.4,2.8l0.1,0.1c7.7-1,15.5-2,23.3-2.9c10.9-1.2,22-2,33.1-1.7
			c5.5,0.2,11.1,0.6,16.3,1.9c2.6,0.6,5.2,1.4,7.5,2.5C235.3,357.5,237.3,358.9,238.9,360.6L238.9,360.6z"/>
		<path class="st22" d="M239.5,360.5c-1.4-1.7-3.3-3.2-5.6-4.4c-2.2-1.2-4.8-2.1-7.4-2.7c-5.2-1.3-10.8-1.9-16.3-2.1
			s-11.1-0.1-16.6,0.2c-5.5,0.3-11,0.7-16.5,1.3c-8.4,0.8-16.8,1.9-25.1,3l0.1,0.1c8.3-1.1,16.6-2.2,25-3.1c10.9-1.1,22-1.9,33-1.5
			c5.5,0.2,11,0.8,16.3,2.1c2.6,0.7,5.1,1.5,7.4,2.7C236.1,357.3,238.1,358.8,239.5,360.5L239.5,360.5z"/>
		<path class="st22" d="M240.2,360.4c-1.3-1.8-3.2-3.3-5.3-4.6c-2.2-1.2-4.7-2.2-7.2-2.9c-5.2-1.4-10.7-2.1-16.2-2.3
			c-5.5-0.3-11-0.1-16.5,0.1c-5.5,0.3-11,0.7-16.5,1.3c-9,0.9-17.9,2-26.9,3.3l0.1,0.1c8.9-1.2,17.8-2.4,26.7-3.3
			c10.9-1.1,22-1.9,33-1.4c2.8,0.1,5.5,0.4,8.2,0.7c2.7,0.4,5.4,0.9,8,1.6s5,1.6,7.2,2.9S238.8,358.7,240.2,360.4L240.2,360.4z"/>
		<path class="st22" d="M240.8,360.4c-1.2-1.8-3-3.4-5.1-4.7c-2.1-1.3-4.5-2.3-7.1-3.1c-5.1-1.6-10.6-2.2-16.1-2.6
			c-5.5-0.3-11-0.2-16.5,0c-5.5,0.3-11,0.7-16.4,1.2c-9.6,0.9-19.1,2.2-28.6,3.5l0.1,0.1c9.5-1.3,19-2.6,28.5-3.5
			c10.9-1.1,21.9-1.8,32.9-1.2c2.7,0.2,5.5,0.4,8.2,0.8s5.4,0.9,7.9,1.7c2.5,0.8,5,1.8,7.1,3.1S239.5,358.6,240.8,360.4L240.8,360.4
			z"/>
		<path class="st22" d="M241.5,360.3c-1.2-1.8-2.8-3.5-4.8-4.8c-2-1.4-4.4-2.4-6.9-3.3c-5-1.7-10.5-2.4-16-2.8s-11-0.3-16.5-0.1
			c-5.5,0.2-11,0.6-16.4,1.2c-10.2,1-20.3,2.3-30.4,3.7l0.1,0.1c10.1-1.4,20.1-2.7,30.3-3.7c10.9-1.1,21.9-1.8,32.9-1
			c5.5,0.4,10.9,1.1,16,2.8c2.5,0.8,4.9,1.9,6.9,3.2C238.6,356.9,240.3,358.5,241.5,360.3L241.5,360.3z"/>
		<path class="st22" d="M242.1,360.2c-1.1-1.8-2.6-3.5-4.6-5c-2-1.4-4.3-2.6-6.7-3.4c-5-1.8-10.4-2.6-15.9-3s-11-0.4-16.5-0.2
			c-5.5,0.2-11,0.6-16.4,1.1c-10.8,1-21.5,2.5-32.1,3.9l0.1,0.1c10.6-1.5,21.3-2.9,32-4c10.9-1,21.9-1.7,32.9-0.9
			c5.4,0.4,10.9,1.3,15.9,3c2.5,0.9,4.8,2,6.7,3.4C239.4,356.7,241,358.4,242.1,360.2L242.1,360.2z"/>
		<path class="st22" d="M242.8,360.2c-1-1.9-2.5-3.6-4.4-5.1s-4.1-2.7-6.5-3.6c-4.9-1.9-10.3-2.8-15.8-3.3s-11-0.5-16.5-0.3
			s-11,0.6-16.4,1.1c-10.9,1-21.7,2.5-32.5,4l-1.4,0.2l0.1,0.1l1.3-0.2c10.8-1.5,21.6-3,32.5-4c5.4-0.5,10.9-0.9,16.4-1.1
			s11-0.1,16.4,0.4s10.9,1.4,15.7,3.3c2.4,0.9,4.7,2.1,6.5,3.6C240.2,356.6,241.7,358.3,242.8,360.2L242.8,360.2z"/>
		<path class="st22" d="M243.4,360.1c-0.9-1.9-2.3-3.7-4.1-5.2s-4-2.8-6.3-3.8c-4.8-2-10.2-3-15.6-3.6c-5.5-0.5-11-0.6-16.4-0.4
			c-5.5,0.2-11,0.5-16.4,1c-10.9,1-21.7,2.4-32.5,3.9l-3.2,0.4l0.1,0.1l3.1-0.4c10.8-1.5,21.6-3,32.5-4c5.4-0.5,10.9-0.9,16.4-1
			s11,0,16.4,0.5c2.7,0.3,5.4,0.7,8,1.2c2.6,0.6,5.2,1.3,7.6,2.3c2.4,1,4.6,2.2,6.3,3.8C241,356.5,242.4,358.2,243.4,360.1
			L243.4,360.1z"/>
		<path class="st22" d="M244.1,360c-0.9-1.9-2.2-3.7-3.9-5.3c-1.7-1.6-3.8-2.9-6.1-4c-4.7-2.1-10.1-3.2-15.5-3.8
			c-5.4-0.6-10.9-0.7-16.4-0.6s-11,0.5-16.4,0.9c-10.9,1-21.7,2.4-32.5,3.9c-1.7,0.2-3.3,0.5-5,0.7l0.1,0.1c1.6-0.2,3.3-0.5,4.9-0.7
			c10.8-1.5,21.6-3,32.5-4c5.4-0.5,10.9-0.9,16.4-1s11,0,16.4,0.6c2.7,0.3,5.4,0.7,8,1.4c2.6,0.6,5.1,1.4,7.5,2.5
			c2.3,1.1,4.4,2.4,6.1,3.9C241.8,356.3,243.1,358.1,244.1,360L244.1,360z"/>
		<path class="st22" d="M244.7,359.9c-0.8-1.9-2-3.7-3.6-5.4c-1.6-1.6-3.7-3-5.9-4.1c-4.6-2.3-10-3.5-15.4-4.1
			c-5.4-0.7-10.9-0.8-16.4-0.7c-5.5,0.1-11,0.4-16.4,0.9c-10.9,0.9-21.7,2.4-32.5,3.9c-2.3,0.3-4.5,0.6-6.8,0.9l0.1,0.1
			c2.2-0.3,4.5-0.6,6.7-0.9c10.8-1.5,21.6-3,32.5-3.9c5.4-0.5,10.9-0.8,16.4-0.9s11,0.1,16.4,0.8c5.4,0.7,10.7,1.9,15.3,4.1
			c2.3,1.1,4.3,2.5,5.9,4.1C242.6,356.2,243.8,358,244.7,359.9L244.7,359.9z"/>
		<path class="st22" d="M245.3,359.9c-0.7-1.9-1.9-3.8-3.4-5.4c-1.6-1.7-3.5-3.1-5.7-4.3c-4.5-2.4-9.8-3.7-15.2-4.4
			c-5.4-0.7-10.9-0.9-16.4-0.8s-11,0.4-16.4,0.8c-10.9,0.9-21.7,2.4-32.5,3.9c-2.9,0.4-5.7,0.8-8.6,1.2l0.1,0.1
			c2.8-0.4,5.7-0.8,8.5-1.2c10.8-1.5,21.6-3,32.5-3.9c5.4-0.5,10.9-0.8,16.4-0.9c5.5,0,11,0.2,16.4,0.9c5.4,0.7,10.7,2,15.1,4.4
			c2.2,1.2,4.2,2.6,5.7,4.2C243.4,356.1,244.6,357.9,245.3,359.9L245.3,359.9z"/>
		<path class="st22" d="M246,359.8c-0.7-1.9-1.7-3.8-3.2-5.5s-3.3-3.2-5.5-4.4c-4.3-2.5-9.7-3.9-15-4.7c-5.4-0.8-10.9-1-16.4-1
			s-11,0.3-16.4,0.8c-10.9,0.9-21.7,2.4-32.5,3.9c-3.5,0.5-6.9,1-10.4,1.4l0.1,0.1c3.4-0.5,6.9-0.9,10.3-1.4
			c10.8-1.5,21.6-3,32.5-3.9c5.4-0.5,10.9-0.8,16.4-0.8s11,0.2,16.4,1c2.7,0.4,5.3,1,7.9,1.7c2.5,0.8,5,1.7,7.1,3
			c2.2,1.2,4,2.7,5.5,4.4C244.2,356,245.3,357.9,246,359.8L246,359.8z"/>
		<path class="st22" d="M246.6,359.7c-0.6-1.9-1.6-3.8-3-5.6c-1.4-1.7-3.2-3.3-5.3-4.6c-4.2-2.6-9.5-4.1-14.8-5
			c-5.4-0.9-10.9-1.1-16.4-1.1s-11,0.3-16.4,0.7c-10.9,0.9-21.7,2.3-32.5,3.8c-4.1,0.6-8.1,1.1-12.2,1.7l0.1,0.1
			c4-0.5,8.1-1.1,12.1-1.7c10.8-1.5,21.6-3,32.5-3.9c5.4-0.4,10.9-0.8,16.4-0.7c5.5,0,11,0.3,16.3,1.2c5.3,0.9,10.6,2.4,14.8,5
			c2.1,1.3,3.9,2.8,5.3,4.5C245,355.9,246,357.8,246.6,359.7L246.6,359.7z"/>
		<path class="st22" d="M247.3,359.6c-0.6-2-1.5-3.9-2.8-5.6c-1.3-1.8-3-3.4-5-4.7c-4.1-2.7-9.3-4.4-14.6-5.3s-10.9-1.3-16.3-1.3
			c-5.5,0-11,0.2-16.4,0.7c-10.9,0.8-21.7,2.3-32.5,3.8c-4.7,0.6-9.3,1.3-14,1.9l0.1,0.1c4.6-0.6,9.3-1.2,13.9-1.9
			c10.8-1.5,21.6-3,32.5-3.9c5.5-0.4,10.9-0.7,16.4-0.7s11,0.4,16.3,1.3c5.3,1,10.5,2.6,14.6,5.3c2,1.3,3.7,2.9,5.1,4.7
			C245.7,355.8,246.7,357.7,247.3,359.6L247.3,359.6z"/>
		<path class="st22" d="M247.9,359.6c-0.5-2-1.4-3.9-2.6-5.7c-1.2-1.8-2.9-3.4-4.8-4.8c-2-1.4-4.2-2.6-6.7-3.5
			c-2.4-0.9-5.1-1.6-7.7-2.1c-5.3-1-10.8-1.4-16.3-1.4s-11,0.2-16.4,0.6c-10.9,0.8-21.7,2.3-32.5,3.8c-5.2,0.7-10.5,1.5-15.7,2.2
			l0.1,0.1c5.2-0.6,10.5-1.4,15.7-2.1c10.8-1.5,21.6-3,32.5-3.8c5.5-0.4,10.9-0.7,16.4-0.6s11,0.5,16.3,1.5s10.4,2.8,14.3,5.6
			c2,1.4,3.6,3,4.8,4.8C246.5,355.7,247.4,357.6,247.9,359.6L247.9,359.6z"/>
		<path class="st22" d="M248.6,359.5c-0.5-2-1.2-3.9-2.4-5.7c-1.2-1.8-2.7-3.5-4.6-5c-1.9-1.5-4.1-2.7-6.5-3.7s-5-1.7-7.6-2.3
			c-5.3-1.1-10.8-1.5-16.3-1.6s-11,0.1-16.5,0.5c-10.9,0.8-21.8,2.3-32.5,3.8c-5.4,0.7-10.8,1.5-16.2,2.2l-1.4,0.2l0.1,0.1l1.3-0.2
			c5.4-0.7,10.8-1.4,16.2-2.2c10.8-1.5,21.6-3,32.5-3.8c5.5-0.4,11-0.7,16.4-0.6c5.5,0.1,11,0.5,16.3,1.7c5.2,1.1,10.3,3,14.1,5.9
			C245.3,351.8,247.6,355.6,248.6,359.5L248.6,359.5z"/>
		<path class="st22" d="M249.2,359.4c-0.4-2-1.1-3.9-2.2-5.8c-1.1-1.8-2.5-3.6-4.4-5.1c-1.8-1.5-4-2.8-6.3-3.8
			c-2.4-1-4.9-1.8-7.6-2.4c-5.3-1.2-10.8-1.7-16.3-1.8c-5.5-0.1-11,0.1-16.5,0.5c-11,0.8-21.8,2.2-32.6,3.8
			c-5.4,0.8-10.8,1.6-16.2,2.3c-1.1,0.1-2.1,0.3-3.2,0.4l0.1,0.1c1-0.1,2.1-0.2,3.1-0.4c5.4-0.7,10.8-1.4,16.2-2.2
			c10.8-1.5,21.6-3,32.6-3.8c5.5-0.4,11-0.6,16.5-0.5s11,0.6,16.2,1.8c5.2,1.2,10.2,3.2,13.8,6.2
			C246.2,351.6,248.3,355.5,249.2,359.4L249.2,359.4z"/>
		<path class="st22" d="M249.9,359.3c-0.4-2-1-4-2-5.8c-1-1.9-2.4-3.6-4.1-5.2c-1.7-1.6-3.8-2.9-6.2-4c-2.3-1.1-4.9-1.9-7.5-2.6
			c-5.2-1.3-10.8-1.8-16.2-2c-5.5-0.2-11,0-16.5,0.4c-11,0.7-21.8,2.2-32.6,3.7c-5.4,0.8-10.8,1.6-16.2,2.3c-1.7,0.2-3.3,0.4-5,0.6
			l0.1,0.1c1.6-0.2,3.3-0.4,4.9-0.6c5.4-0.7,10.8-1.4,16.2-2.2c10.8-1.5,21.6-3,32.6-3.8c5.5-0.4,11-0.6,16.5-0.4s11,0.7,16.2,2
			s10.1,3.4,13.6,6.5C247.1,351.5,249,355.4,249.9,359.3L249.9,359.3z"/>
		<path class="st22" d="M250.5,359.3c-0.3-2-0.9-4-1.9-5.9c-0.9-1.9-2.2-3.7-3.9-5.3c-1.7-1.6-3.7-3-6-4.2s-4.8-2-7.4-2.7
			c-5.2-1.4-10.7-1.9-16.2-2.2c-5.5-0.2-11,0-16.5,0.3c-11,0.7-21.8,2.2-32.7,3.7c-5.4,0.8-10.8,1.6-16.2,2.3
			c-2.2,0.3-4.5,0.6-6.8,0.8l0.1,0.1c2.3-0.2,4.5-0.5,6.7-0.8c5.4-0.7,10.8-1.5,16.2-2.2c10.8-1.5,21.7-3,32.6-3.8
			c5.5-0.4,11-0.6,16.5-0.3c5.5,0.2,11,0.8,16.2,2.2c5.1,1.4,9.9,3.6,13.3,6.8C248,351.4,249.8,355.3,250.5,359.3L250.5,359.3z"/>
		<g>
			<g>
				<defs>
					<path id="SVGID_00000071536045727957455140000016350408253889107364_" d="M250.6,357.4v-29.5c0,0.1-0.1,0.1-0.1,0.2
						c0-0.1-0.1-0.1-0.1-0.2v29.5c0,0.1,0.1,0.2,0.1,0.3C250.5,357.6,250.6,357.5,250.6,357.4"/>
				</defs>
				<clipPath id="SVGID_00000020359455588115339710000017200535514812165506_">
					<use xlink:href="#SVGID_00000071536045727957455140000016350408253889107364_"  style="overflow:visible;"/>
				</clipPath>
				
					<linearGradient id="SVGID_00000096025781084862164590000005244272571208981685_" gradientUnits="userSpaceOnUse" x1="250.5" y1="142.1565" x2="250.5" y2="171.9565" gradientTransform="matrix(1 0 0 -1 0 499.89)">
					<stop  offset="0" style="stop-color:#6E6E6E"/>
					<stop  offset="1" style="stop-color:#A4A3A4"/>
				</linearGradient>
				
					<rect x="250.4" y="327.9" style="clip-path:url(#SVGID_00000020359455588115339710000017200535514812165506_);fill:url(#SVGID_00000096025781084862164590000005244272571208981685_);" width="0.2" height="29.8"/>
			</g>
		</g>
		<path class="st25" d="M238,361.8c-0.6,0-1.1-0.3-1.2-0.5c0,0,0-0.1-0.1-0.2c0-0.2,0.2-0.2,0.5-0.3c9.8-1.7,17.2-1.9,26.4,0
			c0.4,0.1,0.6,0.2,0.6,0.3c0,0-0.1,0.1-0.1,0.2c-0.1,0.2-0.7,0.4-1.1,0.4c-0.1,0-0.1-0.1-0.2-0.1c-0.4-0.1-1.1,0.2-1.5,0.1
			c-0.5-0.1-1-0.5-1.4-0.5c-0.5-0.1-0.9,0.3-1.4,0.2c-0.5-0.1-1-0.5-1.5-0.5c-0.5-0.1-1,0.3-1.4,0.3c-0.5,0-1-0.4-1.5-0.4
			s-1,0.3-1.5,0.3s-0.9-0.4-1.4-0.4c-0.3,0-1,0.4-1.5,0.4c-0.6,0-1-0.4-1.5-0.4s-1,0.3-1.5,0.4c-0.5,0-1-0.3-1.5-0.2
			c-0.5,0-1,0.4-1.5,0.4s-0.9-0.2-1.4-0.2s-1,0.4-1.5,0.4c-0.2,0-0.9-0.2-1.5-0.1C238.8,361.4,238.4,361.8,238,361.8"/>
		<path class="st26" d="M238.9,360.6c-0.1,0.1-0.3,0.2-0.5,0.3c-0.3,0.1-0.6,0.1-0.9,0h-0.1l0,0h0.1c0.3,0.1,0.6,0.1,0.9,0
			c0.1-0.1,0.2-0.1,0.3-0.2L238.9,360.6z M242,360.1c-0.1,0-0.1,0.1-0.2,0.1c-0.2,0.1-0.5,0.3-0.8,0.3s-0.6-0.1-0.9-0.1h0.2
			c0.2,0.1,0.5,0.1,0.7,0.1c0.3,0,0.5-0.2,0.7-0.3L242,360.1z M245.2,359.8c-0.3,0-0.5,0.2-0.8,0.3c-0.1,0.1-0.3,0.1-0.4,0.2
			c-0.2,0-0.3,0-0.5,0c-0.3-0.1-0.5-0.1-0.7-0.2h0.3c0.2,0,0.3,0.1,0.5,0.1c0.3,0.1,0.6,0,0.8-0.1c0.1-0.1,0.3-0.1,0.4-0.2
			L245.2,359.8z M259.8,360.2c-0.2,0-0.4,0.1-0.5,0.1c-0.3,0.1-0.7,0.2-1,0c-0.3-0.1-0.5-0.3-0.8-0.4s-0.6-0.1-0.8,0
			c-0.3,0.1-0.6,0.2-0.9,0.2c-0.7,0-1.1-0.5-1.7-0.5c-0.3,0-0.6,0.2-0.9,0.3c-0.2,0-0.3,0.1-0.5,0.1s-0.3-0.1-0.5-0.1
			c-0.3-0.1-0.5-0.2-0.8-0.3c-0.3,0-0.5,0.1-0.8,0.2s-0.6,0.2-0.9,0.2c-0.4-0.1-0.6-0.2-0.9-0.3c-0.3-0.1-0.6-0.1-0.8,0
			c-0.3,0.1-0.5,0.2-0.8,0.3c-0.7,0.1-1.2-0.3-1.7-0.3h0.5c0.4,0.1,0.8,0.3,1.2,0.2c0.3-0.1,0.5-0.2,0.8-0.3l0,0c0.3,0,0.5,0,0.8,0
			h0.1c0.3,0.1,0.6,0.2,0.8,0.3c0.3,0,0.5-0.1,0.8-0.2c0.1-0.1,0.3-0.1,0.4-0.2l0,0l0,0h0.6c0.3,0.1,0.5,0.2,0.7,0.3
			c0.5,0.3,1-0.1,1.6-0.2h0.6c0.2,0,0.3,0.1,0.4,0.2c0.3,0.1,0.5,0.3,0.8,0.3s0.6-0.1,0.9-0.2c0.1,0,0.1,0,0.2,0
			c0.3,0,0.5,0.1,0.8,0.1c0.3,0.1,0.5,0.3,0.8,0.4s0.6,0,0.9,0c0.1,0,0.2-0.1,0.3-0.1L259.8,360.2z M262.4,360.6
			c-0.2,0-0.4,0.1-0.6,0.1c-0.3,0.1-0.7,0-0.9-0.2c-0.2-0.1-0.3-0.2-0.5-0.3h0.3c0.1,0.1,0.2,0.1,0.3,0.2c0.2,0.1,0.5,0.2,0.8,0.2
			c0.2,0,0.3-0.1,0.5-0.1L262.4,360.6z M264.3,361.2c-0.2-0.1-0.4-0.2-0.6-0.3l0,0C263.9,361,264,361.1,264.3,361.2L264.3,361.2z"/>
		<path class="st27" d="M238.7,360.6c-0.1,0.1-0.2,0.1-0.3,0.2c-0.3,0.1-0.6,0.1-0.9,0l0,0c0.3,0.1,0.6,0.1,0.8-0.1
			c0.1,0,0.1-0.1,0.2-0.1H238.7z M241.8,360.2L241.8,360.2c-0.2,0.1-0.5,0.3-0.8,0.3s-0.5-0.1-0.8-0.1h0.2c0.2,0,0.4,0.1,0.5,0.1
			c0.2,0,0.4-0.1,0.6-0.2L241.8,360.2z M245,359.8c-0.2,0.1-0.3,0.2-0.5,0.2c-0.1,0.1-0.3,0.1-0.4,0.2c-0.2,0-0.3,0-0.5,0
			s-0.4-0.1-0.6-0.2h0.3c0.1,0,0.2,0.1,0.3,0.1c0.3,0.1,0.6,0,0.8-0.1c0.1,0,0.2-0.1,0.2-0.1L245,359.8z M256.9,359.8
			c-0.1,0-0.2,0-0.3,0.1c-0.3,0.1-0.6,0.2-0.9,0.2c-0.7,0-1.1-0.5-1.7-0.5c-0.3,0-0.6,0.2-0.9,0.3c-0.2,0-0.3,0.1-0.5,0.1
			s-0.3-0.1-0.5-0.1c-0.3-0.1-0.5-0.2-0.8-0.3c-0.3,0-0.5,0.1-0.8,0.2s-0.6,0.2-0.9,0.2c-0.4-0.1-0.6-0.2-0.9-0.3
			c-0.3-0.1-0.6-0.1-0.8,0c-0.3,0.1-0.5,0.2-0.8,0.3c-0.6,0.1-1-0.1-1.4-0.2h0.3c0.3,0.1,0.7,0.2,1,0.2c0.2-0.1,0.4-0.2,0.7-0.3
			c0.4,0,0.8,0,1.2-0.1c0.3,0.1,0.5,0.2,0.8,0.2s0.5-0.1,0.8-0.2c0.1,0,0.2-0.1,0.2-0.1h0.3c0.3,0,0.5,0,0.8,0
			c0.2,0.1,0.4,0.2,0.5,0.2c0.5,0.2,0.9,0,1.4-0.2c0.3,0,0.7,0,1,0.1c0.1,0,0.2,0.1,0.2,0.1c0.3,0.1,0.5,0.3,0.8,0.3
			s0.6-0.1,0.9-0.2L256.9,359.8z M259.6,360.2c-0.1,0-0.2,0.1-0.3,0.1c-0.3,0.1-0.7,0.2-1,0c-0.3-0.1-0.5-0.3-0.8-0.4h-0.1h0.3
			c0.2,0.1,0.4,0.2,0.6,0.3c0.3,0.1,0.6,0,0.9,0h0.2H259.6z M262.2,360.6c-0.1,0-0.3,0.1-0.4,0.1c-0.3,0.1-0.7,0-0.9-0.2
			c-0.1-0.1-0.2-0.1-0.3-0.2h0.2l0.1,0.1c0.2,0.1,0.5,0.2,0.8,0.2c0.1,0,0.2,0,0.3-0.1L262.2,360.6z M264.3,361.1
			c-0.2,0-0.3-0.1-0.5-0.2l0,0C264,361,264.1,361,264.3,361.1L264.3,361.1z"/>
		<path class="st26" d="M264.1,361.4c-0.2-0.1-0.4-0.2-0.5-0.3c-0.2-0.1-0.5-0.3-0.8-0.2c-0.3,0-0.6,0.1-0.9,0.2s-0.7,0-0.9-0.2
			c-0.3-0.1-0.5-0.3-0.8-0.4s-0.6,0-0.9,0.1s-0.7,0.2-1,0c-0.3-0.1-0.5-0.3-0.8-0.4s-0.6-0.1-0.8,0c-0.3,0.1-0.6,0.2-0.9,0.2
			c-0.7,0-1.1-0.5-1.7-0.5c-0.3,0-0.6,0.2-0.9,0.3c-0.2,0-0.3,0.1-0.5,0.1s-0.3-0.1-0.5-0.1c-0.3-0.1-0.5-0.2-0.8-0.3
			c-0.3,0-0.5,0.1-0.8,0.2s-0.6,0.2-0.9,0.2c-0.4-0.1-0.6-0.2-0.9-0.3c-0.3-0.1-0.6-0.1-0.8,0c-0.3,0.1-0.5,0.2-0.8,0.3
			c-0.7,0.2-1.2-0.4-1.8-0.3c-0.3,0-0.5,0.2-0.8,0.3c-0.1,0.1-0.3,0.1-0.4,0.2c-0.2,0-0.3,0-0.5,0c-0.3-0.1-0.6-0.2-0.9-0.2
			c-0.3,0-0.6,0.1-0.8,0.2s-0.5,0.3-0.8,0.3s-0.6-0.1-0.9-0.2c-0.3-0.1-0.6-0.1-0.9,0c-0.3,0.1-0.5,0.3-0.7,0.4
			c-0.3,0.1-0.6,0.1-0.9,0c-0.2,0-0.5-0.1-0.7-0.1l0,0c0.2,0,0.5,0.1,0.7,0.1c0.3,0.1,0.6,0.1,0.9,0c0.3-0.1,0.5-0.3,0.7-0.4
			c0.3-0.2,0.6-0.1,0.9-0.1c0.3,0.1,0.6,0.2,0.9,0.1c0.3,0,0.5-0.2,0.8-0.3c0.2-0.1,0.6-0.3,0.9-0.2c0.3,0,0.6,0.2,0.9,0.2
			c0.3,0.1,0.6,0,0.8-0.1c0.3-0.1,0.5-0.3,0.8-0.3c0.7-0.1,1.2,0.4,1.8,0.3c0.3-0.1,0.5-0.2,0.8-0.3c0.1-0.1,0.3-0.1,0.5-0.1
			s0.3,0,0.5,0.1c0.3,0.1,0.6,0.2,0.8,0.3c0.3,0,0.5-0.1,0.8-0.2c0.1-0.1,0.3-0.1,0.4-0.2c0.2,0,0.4-0.1,0.5,0
			c0.3,0.1,0.6,0.2,0.9,0.3c0.6,0.3,1.1-0.1,1.7-0.2c0.4-0.1,0.7,0.1,0.9,0.2c0.3,0.1,0.5,0.3,0.8,0.3c0.3,0,0.6-0.1,0.9-0.2
			c0.2,0,0.3-0.1,0.5-0.1s0.3,0.1,0.5,0.1c0.3,0.1,0.5,0.3,0.8,0.4s0.6,0,0.9,0c0.3-0.1,0.6-0.2,1-0.1c0.3,0.1,0.6,0.2,0.8,0.4
			c0.2,0.1,0.5,0.2,0.8,0.2s0.6-0.1,0.9-0.2c0.3,0,0.6,0.1,0.9,0.3C263.7,361.2,263.9,361.3,264.1,361.4L264.1,361.4z"/>
		<path class="st27" d="M264.1,361.4c-0.2-0.1-0.4-0.2-0.6-0.3c-0.2-0.1-0.5-0.3-0.8-0.2c-0.3,0-0.6,0.1-0.9,0.2s-0.7,0-0.9-0.2
			c-0.3-0.1-0.5-0.3-0.8-0.4s-0.6,0-0.9,0.1s-0.7,0.2-1,0c-0.3-0.1-0.5-0.3-0.8-0.4s-0.6-0.1-0.8,0c-0.3,0.1-0.6,0.2-0.9,0.2
			c-0.7,0-1.1-0.5-1.7-0.5c-0.3,0-0.6,0.2-0.9,0.3c-0.2,0-0.3,0.1-0.5,0.1s-0.3-0.1-0.5-0.1c-0.3-0.1-0.5-0.2-0.8-0.3
			c-0.3,0-0.5,0.1-0.8,0.2s-0.6,0.2-0.9,0.2c-0.4-0.1-0.6-0.2-0.9-0.3c-0.3-0.1-0.6-0.1-0.8,0c-0.3,0.1-0.5,0.2-0.8,0.3
			c-0.7,0.2-1.2-0.4-1.8-0.3c-0.3,0-0.5,0.2-0.8,0.3c-0.1,0.1-0.3,0.1-0.4,0.2c-0.2,0-0.3,0-0.5,0c-0.3-0.1-0.6-0.2-0.9-0.2
			c-0.3,0-0.6,0.1-0.8,0.2s-0.5,0.3-0.8,0.3s-0.6-0.1-0.9-0.2c-0.3-0.1-0.6-0.1-0.9,0c-0.3,0.1-0.5,0.3-0.7,0.4
			c-0.3,0.1-0.6,0.1-0.9,0c-0.2,0-0.5-0.1-0.7-0.1l0,0c0.2,0,0.5,0.1,0.7,0.1c0.3,0.1,0.6,0.1,0.9,0c0.3-0.1,0.5-0.3,0.7-0.4
			c0.3-0.2,0.6-0.1,0.9-0.1c0.3,0.1,0.6,0.2,0.9,0.1c0.3,0,0.5-0.2,0.8-0.3c0.2-0.1,0.6-0.3,0.9-0.2c0.3,0,0.6,0.2,0.9,0.2
			c0.3,0.1,0.6,0,0.8-0.1c0.3-0.1,0.5-0.3,0.8-0.3c0.7-0.1,1.2,0.4,1.8,0.3c0.3-0.1,0.5-0.2,0.8-0.3c0.1-0.1,0.3-0.1,0.5-0.1
			s0.3,0,0.5,0.1c0.3,0.1,0.6,0.2,0.8,0.3c0.3,0,0.5-0.1,0.8-0.2c0.1-0.1,0.3-0.1,0.4-0.2c0.2,0,0.4-0.1,0.5,0
			c0.3,0.1,0.6,0.2,0.9,0.3c0.6,0.3,1.1-0.1,1.7-0.2c0.4-0.1,0.7,0.1,0.9,0.2c0.3,0.1,0.5,0.3,0.8,0.3c0.3,0,0.6-0.1,0.9-0.2
			c0.2,0,0.3-0.1,0.5-0.1s0.3,0.1,0.5,0.1c0.3,0.1,0.5,0.3,0.8,0.4s0.6,0,0.9,0c0.3-0.1,0.6-0.2,1-0.1c0.3,0.1,0.6,0.2,0.8,0.4
			c0.2,0.1,0.5,0.2,0.8,0.2s0.6-0.1,0.9-0.2c0.3,0,0.6,0.1,0.9,0.3C263.7,361.1,263.9,361.3,264.1,361.4L264.1,361.4z"/>
		<path class="st26" d="M263.8,361.6c-0.1-0.1-0.2-0.1-0.2-0.2c-0.2-0.1-0.5-0.3-0.8-0.2c-0.3,0-0.6,0.1-0.9,0.2s-0.7,0-0.9-0.2
			c-0.3-0.1-0.5-0.3-0.8-0.4s-0.6,0.1-0.9,0.1c-0.3,0.1-0.7,0.2-1,0c-0.3-0.1-0.5-0.3-0.8-0.4s-0.6-0.1-0.8,0
			c-0.3,0.1-0.6,0.2-0.9,0.2c-0.7,0-1.1-0.5-1.7-0.5c-0.3,0-0.6,0.2-0.9,0.3c-0.2,0-0.3,0.1-0.5,0.1s-0.3-0.1-0.5-0.1
			c-0.3-0.1-0.5-0.2-0.8-0.3c-0.3,0-0.5,0.1-0.8,0.2s-0.6,0.2-0.9,0.2c-0.4-0.1-0.6-0.2-0.9-0.3c-0.3-0.1-0.6-0.1-0.8,0
			c-0.3,0.1-0.5,0.2-0.8,0.3c-0.7,0.2-1.2-0.4-1.8-0.3c-0.3,0-0.5,0.2-0.8,0.3c-0.1,0.1-0.3,0.1-0.4,0.2c-0.2,0-0.3,0-0.5,0
			c-0.3-0.1-0.6-0.2-0.9-0.2c-0.3,0-0.6,0.1-0.8,0.2s-0.5,0.3-0.8,0.3s-0.6-0.1-0.9-0.2c-0.3-0.1-0.6-0.1-0.9,0
			c-0.3,0.1-0.5,0.3-0.7,0.4c-0.3,0.1-0.6,0.1-0.9,0c-0.2,0-0.4-0.1-0.6-0.1l0,0c0.2,0,0.4,0.1,0.6,0.1c0.3,0.1,0.6,0.1,0.9,0
			c0.3-0.1,0.5-0.3,0.7-0.4c0.3-0.2,0.6-0.1,0.9-0.1c0.3,0.1,0.6,0.2,0.9,0.1c0.3,0,0.5-0.2,0.8-0.3c0.2-0.1,0.6-0.3,0.9-0.2
			c0.3,0,0.6,0.2,0.9,0.2c0.3,0.1,0.6,0,0.8-0.1c0.3-0.1,0.5-0.3,0.8-0.3c0.7-0.1,1.2,0.4,1.8,0.3c0.3-0.1,0.5-0.2,0.8-0.3
			c0.1-0.1,0.3-0.1,0.5-0.1s0.3,0,0.5,0.1c0.3,0.1,0.6,0.2,0.8,0.3c0.3,0,0.5-0.1,0.8-0.2c0.1-0.1,0.3-0.1,0.4-0.2
			c0.2,0,0.4-0.1,0.5,0c0.3,0.1,0.6,0.2,0.9,0.3c0.6,0.3,1.1-0.1,1.7-0.2c0.4-0.1,0.7,0.1,0.9,0.2c0.3,0.1,0.5,0.3,0.8,0.3
			c0.3,0,0.6-0.1,0.9-0.2c0.2,0,0.3-0.1,0.5-0.1s0.3,0.1,0.5,0.1c0.3,0.1,0.5,0.3,0.8,0.4s0.6,0,0.9,0c0.3-0.1,0.6-0.2,1-0.1
			c0.3,0.1,0.6,0.2,0.8,0.4c0.2,0.1,0.5,0.2,0.8,0.2s0.6-0.1,0.9-0.2c0.3,0,0.6,0.1,0.9,0.3C263.6,361.5,263.7,361.5,263.8,361.6
			L263.8,361.6z"/>
		<path class="st27" d="M263.8,361.5c-0.1-0.1-0.2-0.1-0.3-0.2c-0.2-0.1-0.5-0.3-0.8-0.2c-0.3,0-0.6,0.1-0.9,0.2s-0.7,0-0.9-0.2
			c-0.3-0.1-0.5-0.3-0.8-0.4s-0.6,0-0.9,0.1s-0.7,0.2-1,0c-0.3-0.1-0.5-0.3-0.8-0.4s-0.6-0.1-0.8,0c-0.3,0.1-0.6,0.2-0.9,0.2
			c-0.7,0-1.1-0.5-1.7-0.5c-0.3,0-0.6,0.2-0.9,0.3c-0.2,0-0.3,0.1-0.5,0.1s-0.3-0.1-0.5-0.1c-0.3-0.1-0.5-0.2-0.8-0.3
			c-0.3,0-0.5,0.1-0.8,0.2s-0.6,0.2-0.9,0.2c-0.4-0.1-0.6-0.2-0.9-0.3c-0.3-0.1-0.6-0.1-0.8,0c-0.3,0.1-0.5,0.2-0.8,0.3
			c-0.7,0.2-1.2-0.4-1.8-0.3c-0.3,0-0.5,0.2-0.8,0.3c-0.1,0.1-0.3,0.1-0.4,0.2c-0.2,0-0.3,0-0.5,0c-0.3-0.1-0.6-0.2-0.9-0.2
			c-0.3,0-0.6,0.1-0.8,0.2s-0.5,0.3-0.8,0.3s-0.6-0.1-0.9-0.2c-0.3-0.1-0.6-0.1-0.9,0c-0.3,0.1-0.5,0.3-0.7,0.4
			c-0.3,0.1-0.6,0.1-0.9,0c-0.2,0-0.4-0.1-0.7-0.1l0,0c0.2,0,0.4,0.1,0.7,0.1c0.3,0.1,0.6,0.1,0.9,0c0.3-0.1,0.5-0.3,0.7-0.4
			c0.3-0.2,0.6-0.1,0.9-0.1c0.3,0.1,0.6,0.2,0.9,0.1c0.3,0,0.5-0.2,0.8-0.3c0.2-0.1,0.6-0.3,0.9-0.2c0.3,0,0.6,0.2,0.9,0.2
			c0.3,0.1,0.6,0,0.8-0.1c0.3-0.1,0.5-0.3,0.8-0.3c0.7-0.1,1.2,0.4,1.8,0.3c0.3-0.1,0.5-0.2,0.8-0.3c0.1-0.1,0.3-0.1,0.5-0.1
			s0.3,0,0.5,0.1c0.3,0.1,0.6,0.2,0.8,0.3c0.3,0,0.5-0.1,0.8-0.2c0.1-0.1,0.3-0.1,0.4-0.2c0.2,0,0.4-0.1,0.5,0
			c0.3,0.1,0.6,0.2,0.9,0.3c0.6,0.3,1.1-0.1,1.7-0.2c0.4-0.1,0.7,0.1,0.9,0.2c0.3,0.1,0.5,0.3,0.8,0.3c0.3,0,0.6-0.1,0.9-0.2
			c0.2,0,0.3-0.1,0.5-0.1s0.3,0.1,0.5,0.1c0.3,0.1,0.5,0.3,0.8,0.4s0.6,0,0.9,0c0.3-0.1,0.6-0.2,1-0.1c0.3,0.1,0.6,0.2,0.8,0.4
			c0.2,0.1,0.5,0.2,0.8,0.2s0.6-0.1,0.9-0.2c0.3,0,0.6,0.1,0.9,0.3C263.7,361.4,263.7,361.5,263.8,361.5L263.8,361.5z"/>
		<path class="st26" d="M263.4,361.7c-0.2-0.1-0.5-0.2-0.7-0.2c-0.3,0-0.6,0.1-0.9,0.2s-0.7,0-0.9-0.2c-0.3-0.1-0.5-0.3-0.8-0.4
			c-0.2,0-0.4,0-0.5,0l0,0l0,0l0,0l0,0c-0.1,0-0.2,0.1-0.3,0.1h-0.1l0,0l0,0l0,0l0,0l0,0l0,0l0,0l0,0c-0.2,0-0.4,0.1-0.6,0.1l0,0
			c-0.2,0-0.4-0.1-0.7-0.2l0,0l0,0c-0.1-0.1-0.2-0.1-0.4-0.2c-0.1-0.1-0.3-0.1-0.4-0.1c-0.2,0-0.5,0.1-0.7,0.1
			c-0.1,0-0.3,0.1-0.4,0.1l0,0l0,0l0,0l0,0c-0.1,0-0.1,0-0.2,0l0,0l0,0l0,0l0,0h-0.1c-0.2,0-0.4-0.1-0.6-0.2c-0.3-0.2-0.6-0.4-1-0.3
			c-0.3,0-0.5,0.1-0.8,0.2l0,0l0,0l0,0c-0.1,0-0.3,0.1-0.4,0.1l0,0l0,0l0,0l0,0l0,0l0,0l0,0l0,0h-0.1c-0.2,0-0.3-0.1-0.5-0.1
			c-0.3-0.1-0.5-0.2-0.8-0.3c-0.3,0-0.5,0-0.8,0.1c-0.4,0.1-0.8,0.2-1,0.2l0,0l0,0c-0.4-0.1-0.6-0.2-0.9-0.3c-0.3-0.1-0.6-0.1-0.8,0
			s-0.5,0.2-0.8,0.3l0,0c-0.1,0-0.2,0-0.3,0l0,0l0,0l0,0l0,0l0,0l0,0l0,0l0,0c-0.6,0-1-0.4-1.5-0.3c-0.3,0-0.5,0.2-0.8,0.3
			c0,0-0.1,0-0.1,0.1l0,0c-0.1,0.1-0.3,0.1-0.4,0.1l0,0l0,0l0,0c-0.1,0-0.2,0-0.3,0c-0.3-0.1-0.6-0.2-0.9-0.2
			c-0.3,0-0.6,0.1-0.8,0.2s-0.4,0.2-0.6,0.3l0,0l0,0l0,0c-0.1,0-0.1,0-0.2,0l0,0l0,0l0,0l0,0l0,0l0,0l0,0l0,0l0,0
			c-0.1,0-0.3,0-0.5-0.1c-0.1,0-0.2,0-0.2,0h-0.2c-0.3-0.1-0.6-0.1-0.9,0c-0.1,0-0.1,0.1-0.2,0.1c-0.1,0-0.2,0.1-0.3,0.1
			c0.2-0.1,0.3-0.2,0.5-0.3c0.3-0.2,0.6-0.1,0.9-0.1c0.3,0.1,0.6,0.2,0.9,0.1c0.3,0,0.5-0.2,0.8-0.3c0.2-0.1,0.6-0.3,0.9-0.2
			c0.3,0,0.6,0.2,0.9,0.2c0.3,0.1,0.6,0,0.8-0.1c0.3-0.1,0.5-0.3,0.8-0.3c0.7-0.1,1.2,0.4,1.8,0.3c0.3-0.1,0.5-0.2,0.8-0.3
			c0.1-0.1,0.3-0.1,0.5-0.1s0.3,0,0.5,0.1c0.3,0.1,0.6,0.2,0.8,0.3c0.3,0,0.5-0.1,0.8-0.2c0.1-0.1,0.3-0.1,0.4-0.2
			c0.2,0,0.4-0.1,0.5,0c0.3,0.1,0.6,0.2,0.9,0.3c0.6,0.3,1.1-0.1,1.7-0.2c0.4-0.1,0.7,0.1,0.9,0.2c0.3,0.1,0.5,0.3,0.8,0.3
			c0.3,0,0.6-0.1,0.9-0.2c0.2,0,0.3-0.1,0.5-0.1s0.3,0.1,0.5,0.1c0.3,0.1,0.5,0.3,0.8,0.4s0.6,0,0.9,0c0.3-0.1,0.6-0.2,1-0.1
			c0.3,0.1,0.6,0.2,0.8,0.4c0.2,0.1,0.5,0.2,0.8,0.2s0.6-0.1,0.9-0.2C263,361.4,263.3,361.5,263.4,361.7L263.4,361.7z"/>
		<path class="st27" d="M263.5,361.7c-0.2-0.1-0.5-0.3-0.8-0.2c-0.3,0-0.6,0.1-0.9,0.2s-0.7,0-0.9-0.2c-0.3-0.1-0.5-0.3-0.8-0.4
			s-0.6,0.1-0.9,0.1c-0.3,0.1-0.7,0.2-1,0c-0.3-0.1-0.5-0.3-0.8-0.4s-0.6-0.1-0.8,0c-0.3,0.1-0.6,0.2-0.9,0.2
			c-0.7,0-1.1-0.6-1.7-0.5c-0.3,0-0.6,0.2-0.9,0.3c-0.2,0-0.3,0.1-0.5,0.1s-0.3-0.1-0.5-0.1c-0.3-0.1-0.5-0.2-0.8-0.3
			c-0.3,0-0.5,0.1-0.8,0.2s-0.6,0.2-0.9,0.2c-0.4-0.1-0.6-0.2-0.9-0.3c-0.3-0.1-0.6-0.1-0.8,0c-0.3,0.1-0.5,0.2-0.8,0.3
			c-0.7,0.2-1.2-0.4-1.8-0.3c-0.3,0-0.5,0.2-0.8,0.3c-0.1,0.1-0.3,0.1-0.4,0.2c-0.2,0-0.3,0-0.5,0c-0.3-0.1-0.6-0.2-0.9-0.2
			c-0.3,0-0.6,0.1-0.8,0.2s-0.5,0.3-0.8,0.3s-0.6-0.1-0.9-0.2c-0.3-0.1-0.6-0.1-0.9,0c-0.2,0.1-0.4,0.2-0.6,0.3
			c-0.2,0.1-0.3,0.1-0.5,0.2l0,0l0,0h-0.1l0,0c-0.1,0-0.2,0-0.4,0c0.3,0,0.5,0,0.7-0.1c0.3-0.1,0.5-0.3,0.7-0.4
			c0.3-0.2,0.6-0.1,0.9-0.1c0.3,0.1,0.6,0.2,0.9,0.1c0.3,0,0.5-0.2,0.8-0.3c0.2-0.1,0.6-0.3,0.9-0.2c0.3,0,0.6,0.2,0.9,0.2
			c0.3,0.1,0.6,0,0.8-0.1c0.3-0.1,0.5-0.3,0.8-0.3c0.7-0.1,1.2,0.4,1.8,0.3c0.3-0.1,0.5-0.2,0.8-0.3c0.1-0.1,0.3-0.1,0.5-0.1
			s0.3,0,0.5,0.1c0.3,0.1,0.6,0.2,0.8,0.3c0.3,0,0.5-0.1,0.8-0.2c0.1-0.1,0.3-0.1,0.4-0.2c0.2,0,0.4-0.1,0.5,0
			c0.3,0.1,0.6,0.2,0.9,0.3c0.6,0.3,1.1-0.1,1.7-0.2c0.4-0.1,0.7,0.1,0.9,0.2c0.3,0.1,0.5,0.3,0.8,0.3s0.6-0.1,0.9-0.2
			c0.2,0,0.3-0.1,0.5-0.1s0.3,0.1,0.5,0.1c0.3,0.1,0.5,0.3,0.8,0.4s0.6,0,0.9,0c0.3-0.1,0.6-0.2,1-0.1c0.3,0.1,0.6,0.2,0.8,0.4
			c0.2,0.1,0.5,0.2,0.8,0.2s0.6-0.1,0.9-0.2C263,361.4,263.3,361.5,263.5,361.7L263.5,361.7z"/>
	</g>
	<path class="st28" d="M250,114c-77.8,0-140.8,63-140.8,140.8s63,140.8,140.8,140.8s140.8-63,140.8-140.8S327.8,114,250,114
		 M250,377.9c-68,0-123.2-55.2-123.2-123.2S182,131.5,250,131.5s123.2,55.2,123.2,123.2C373.2,322.8,318,377.9,250,377.9z"/>
	<path class="st1" d="M250,397.6c-78.8,0-142.8-64.1-142.8-142.8C107.2,176,171.3,112,250,112s142.8,64,142.8,142.8
		C392.8,333.5,328.8,397.6,250,397.6 M250,116c-76.5,0-138.7,62.2-138.7,138.7S173.5,393.4,250,393.4s138.7-62.2,138.7-138.7
		C388.7,178.3,326.5,116,250,116z M250,380c-69,0-125.2-56.2-125.2-125.2S181,129.6,250,129.6s125.2,56.2,125.2,125.2
		S319,380,250,380z M250,133.6c-66.8,0-121.1,54.3-121.1,121.1S183.2,375.8,250,375.8s121.1-54.3,121.1-121.1
		C371.1,188,316.8,133.6,250,133.6z"/>
	<path class="st29" d="M409.1,277.4c-0.2-0.5-0.4-1.3-0.7-2.3c-0.2-1.1-0.5-1.8-0.8-2.1c-0.5-0.5-1.2-0.9-2.1-1s-1.6,0-2.3,0.3
		c-0.7,0.3-1.1,0.8-1.1,1.3c-0.1,0.7,0.2,1.3,0.9,2c0.5,0.5,1.2,0.9,1.9,1.1c0.5,0.2,1.5,0.3,3,0.5L409.1,277.4z M414.7,273.1
		l1.4-3.2c2.2,0.7,3.9,1.5,4.8,2.6c1,1,1.4,2.5,1.1,4.3c-0.2,1.6-0.7,2.8-1.4,3.5c-0.8,0.7-1.7,1.2-2.7,1.4c-1,0.2-2.9,0.1-5.6-0.2
		l-7.2-0.9c-2.1-0.3-3.6-0.4-4.6-0.4s-2.1,0.1-3.2,0.3l0.5-3.6c0.4,0,1-0.1,1.9-0.1c0.4,0,0.6,0,0.7,0c-1-0.8-1.7-1.5-2.1-2.3
		s-0.6-1.6-0.5-2.4c0.2-1.4,1-2.5,2.4-3.1c1.4-0.7,3.1-0.9,5.1-0.6c1.3,0.2,2.5,0.5,3.5,1s1.7,1.1,2.2,1.9c0.5,0.7,0.8,1.8,1.1,3.1
		c0.3,1.8,0.7,3,1.1,3.7l0.6,0.1c1.2,0.1,2.1,0.1,2.6-0.2c0.6-0.3,0.9-0.9,1-1.9c0.1-0.7-0.1-1.2-0.5-1.6
		C416.5,273.8,415.8,273.4,414.7,273.1z M399.4,260.9l23.6,1.8l-0.3,3.7l-23.6-1.8L399.4,260.9z M426.1,262.9l5.8,0.4l-0.3,3.7
		l-5.8-0.4L426.1,262.9z M423.1,259l-5-0.1l0.1-2.5l-9.6-0.3c-1.9-0.1-3.1-0.1-3.4,0c-0.3,0-0.6,0.1-0.8,0.3
		c-0.2,0.2-0.3,0.4-0.3,0.6c0,0.3,0.2,0.8,0.6,1.5l-4.9,0.2c-0.6-0.9-0.9-1.9-0.8-2.9c0-0.7,0.2-1.3,0.6-1.8s0.9-0.9,1.5-1.1
		c0.6-0.2,1.4-0.4,2.5-0.4c0.7-0.1,2.2-0.1,4.4,0l10.3,0.3v-1.7l5,0.1v1.7l4.7,0.1l3.6,3.8l-8.4-0.2L423.1,259z M405.3,235.1
		l1.2,3.6c-1.2,0.2-2.1,0.6-2.7,1.2c-0.6,0.5-0.9,1.2-0.8,2.1c0.1,1,0.4,1.6,1.1,2.1c0.4,0.3,1,0.4,1.7,0.4c0.5,0,0.9-0.2,1.2-0.4
		c0.3-0.2,0.5-0.6,0.7-1.3c0.9-3.1,1.8-5,2.6-5.9c1.2-1.2,2.9-1.9,5.2-2.1c2.1-0.2,3.8,0.2,5.3,1s2.3,2.3,2.4,4.3
		c0.1,1.9-0.3,3.4-1.3,4.4s-2.5,1.8-4.5,2.3l-1.4-3.4c0.9-0.2,1.6-0.6,2.1-1c0.5-0.5,0.7-1.1,0.6-1.8c-0.1-1-0.4-1.7-0.8-2
		c-0.3-0.3-0.8-0.4-1.3-0.3c-0.4,0-0.8,0.2-1.1,0.5c-0.4,0.4-0.9,1.6-1.5,3.6s-1.4,3.5-2.5,4.3c-1,0.9-2.6,1.4-4.6,1.5
		c-2.2,0.2-4.1-0.2-5.7-1.2c-1.6-0.9-2.5-2.5-2.7-4.6c-0.1-1.9,0.4-3.5,1.6-4.7C401.4,236.5,403.1,235.6,405.3,235.1z M397.8,229.5
		l23.5-2.9l0.5,3.7l-23.5,2.9L397.8,229.5z M424.4,226.2l5.7-0.7l0.5,3.7l-5.7,0.7L424.4,226.2z M396.5,222.7l-0.8-3.6l23-5.4
		l0.8,3.3l-3.3,0.8c1.7,0.2,2.8,0.5,3.4,0.8s0.9,0.8,1.1,1.4c0.2,0.8,0,1.7-0.6,2.6l-5.6,0.1c0.5-0.8,0.7-1.4,0.6-1.9
		s-0.5-0.9-1-1.1c-0.6-0.2-1.5-0.3-2.7-0.2c-1.3,0.1-3.9,0.6-7.8,1.5L396.5,222.7z M405.6,208.5l-0.7,4.2c-3.6,0.6-6.4,0.5-8.5-0.2
		s-3.4-2.1-4.1-4c-0.8-2.4-0.1-4.9,2.2-7.4c2.3-2.5,5.9-4.6,10.7-6.2c5.1-1.7,9.4-2.3,12.8-1.7s5.5,2.2,6.4,4.8
		c0.8,2.2,0.2,4.4-1.5,6.6c-1,1.3-2.7,2.5-5.1,3.8l-2.7-3.2c1.5-0.8,2.6-1.6,3.3-2.6c0.7-1,0.9-2,0.5-3c-0.5-1.4-1.6-2.2-3.6-2.5
		c-1.9-0.3-4.7,0.2-8.4,1.4c-3.9,1.3-6.5,2.7-7.9,4.1c-1.4,1.4-1.8,2.8-1.4,4.1c0.3,1,1.1,1.7,2.4,2
		C401.4,209,403.2,209,405.6,208.5z M394.4,182c-0.5-0.3-1.1-0.8-1.9-1.6c-0.8-0.7-1.4-1.2-1.9-1.3c-0.7-0.2-1.5,0-2.3,0.4
		s-1.4,0.9-1.8,1.5s-0.5,1.2-0.2,1.7c0.3,0.6,0.9,1,1.9,1.2c0.7,0.1,1.5,0.1,2.2-0.2c0.5-0.2,1.4-0.6,2.8-1.3L394.4,182z
		 M396.6,175.3l-0.6-3.4c2.2-0.7,4-0.9,5.5-0.6c1.4,0.3,2.5,1.3,3.3,2.9c0.7,1.5,1,2.7,0.8,3.7s-0.7,1.9-1.5,2.7s-2.3,1.7-4.8,3
		l-6.5,3.3c-1.8,0.9-3.2,1.7-4,2.2c-0.8,0.6-1.7,1.2-2.5,2l-1.7-3.3c0.3-0.3,0.8-0.7,1.5-1.1c0.3-0.2,0.5-0.4,0.6-0.4
		c-1.2-0.1-2.2-0.3-3-0.7s-1.4-1-1.7-1.7c-0.6-1.3-0.6-2.6,0.2-3.9c0.8-1.3,2.1-2.5,3.9-3.4c1.2-0.6,2.3-1,3.4-1.1s2.1,0,2.9,0.3
		c0.8,0.4,1.7,1,2.6,2c1.3,1.3,2.3,2.1,3,2.5l0.6-0.3c1.1-0.6,1.8-1.1,2.1-1.6c0.3-0.6,0.2-1.3-0.2-2.1c-0.3-0.6-0.7-0.9-1.3-1.1
		C398.6,174.9,397.7,175,396.6,175.3z M393.4,168.9l-2.9-2.5c1-0.8,1.6-1.5,1.9-2.2s0.2-1.3-0.1-1.9c-0.5-0.8-1.3-1.1-2.5-1
		s-2.9,0.9-5,2.2c-2.4,1.5-3.9,2.8-4.6,3.9c-0.7,1.1-0.8,2-0.3,2.8c0.4,0.6,1,0.9,1.8,0.9s2-0.3,3.5-1.1l1.1,3.6
		c-2.6,1.2-4.8,1.7-6.6,1.6c-1.8-0.1-3.2-0.9-4.1-2.5c-1.1-1.7-1.1-3.7,0.1-5.9s3.4-4.3,6.7-6.4c3.3-2.1,6.2-3.2,8.7-3.4
		c2.5-0.1,4.3,0.7,5.4,2.4c0.9,1.4,1.1,2.9,0.6,4.4C396.5,165.5,395.3,167.1,393.4,168.9z M368.3,161.6l18.6-14.6l2.3,2.9
		l-18.6,14.6L368.3,161.6z M389.4,145l4.5-3.6l2.3,2.9l-4.5,3.6L389.4,145z M366,158.6l-2.4-2.8l9.1-7.9c1.9-1.7,3.1-2.8,3.6-3.4
		c0.5-0.6,0.7-1.2,0.8-1.7c0.1-0.5,0-1-0.4-1.4c-0.4-0.5-1-0.7-1.8-0.7s-1.6,0.2-2.5,0.7s-2.3,1.6-4.3,3.3l-8.1,7l-2.4-2.8
		l17.9-15.4l2.2,2.6l-2.6,2.3c2.8-0.8,4.8-0.5,6,0.9c0.5,0.6,0.8,1.4,0.9,2.2s-0.1,1.6-0.4,2.4c-0.4,0.8-0.9,1.5-1.5,2.3
		c-0.7,0.7-1.7,1.7-3,2.9L366,158.6z M367.1,135.1l-3.4-1.7c0.8-1,1.2-1.8,1.3-2.6c0.1-0.7-0.1-1.4-0.6-1.8
		c-0.7-0.6-1.6-0.7-2.7-0.3s-2.6,1.5-4.3,3.4c-1.9,2-3.1,3.7-3.5,4.9s-0.3,2.2,0.4,2.8c0.5,0.5,1.2,0.6,1.9,0.4
		c0.8-0.2,1.8-0.8,3.1-1.9l1.9,3.3c-2.2,1.8-4.2,2.8-6,3.2c-1.8,0.3-3.3-0.2-4.6-1.4c-1.5-1.4-1.9-3.3-1.3-5.7s2.3-5,4.9-7.8
		c2.7-2.8,5.2-4.6,7.6-5.4c2.4-0.7,4.3-0.4,5.8,1c1.2,1.2,1.8,2.5,1.7,4.1C369.3,131.1,368.5,132.9,367.1,135.1z M353.1,110.1
		l5.3-4.4l3.4,2.4l-6.8,3.3L353.1,110.1z M349.5,123.4c1-1.5,1.6-2.8,1.7-3.9s-0.1-1.8-0.7-2.3c-0.7-0.5-1.5-0.4-2.5,0.1
		s-2,1.5-3,2.9L349.5,123.4z M345.7,128.4l2.4,3c-1.7,1.6-3.3,2.6-4.8,3s-2.9,0.1-4.2-0.8c-2-1.4-2.7-3.5-2.1-6.4
		c0.5-2.3,1.7-4.8,3.6-7.5c2.3-3.2,4.5-5.4,6.8-6.5s4.2-1.1,5.7-0.1c1.7,1.2,2.4,3.1,2,5.7s-2,5.8-4.8,9.7l-7.5-5.3
		c-1,1.5-1.6,2.9-1.8,4c-0.1,1.2,0.1,2,0.8,2.5c0.5,0.3,1,0.4,1.6,0.2C344.1,129.8,344.8,129.3,345.7,128.4z M324.5,123.4l13.6-23.4
		l-4.9-2.9l2.8-4.8l13.2,7.7l-2.8,4.8l-4.9-2.9l-13.6,23.4L324.5,123.4z M307.7,115.1l-3.4-1.3l8.6-22L316,93l-1.2,3.1
		c1.1-1.3,2-2,2.6-2.3s1.2-0.3,1.8-0.1c0.8,0.3,1.4,1,1.8,2l-3,4.7c-0.3-0.9-0.7-1.4-1.2-1.6s-1-0.1-1.5,0.2c-0.5,0.3-1.1,1-1.7,2.1
		c-0.7,1.1-1.7,3.5-3.2,7.3L307.7,115.1z M301.3,100.6c-0.5,0.1-1.3,0.2-2.4,0.2s-1.8,0.1-2.3,0.4c-0.6,0.4-1.1,1-1.4,1.8
		s-0.4,1.6-0.2,2.3c0.2,0.7,0.5,1.2,1.1,1.4c0.6,0.2,1.4,0.1,2.2-0.4c0.6-0.4,1.1-0.9,1.5-1.7c0.3-0.5,0.6-1.4,1.1-2.8L301.3,100.6z
		 M298.2,94.2l-2.8-2c1.1-2.1,2.3-3.5,3.5-4.2s2.7-0.8,4.4-0.2c1.6,0.5,2.6,1.3,3.2,2.1c0.5,0.9,0.8,1.9,0.8,2.9
		c0,1.1-0.5,2.9-1.4,5.4l-2.4,6.9c-0.7,2-1.1,3.4-1.3,4.4c-0.2,1-0.4,2-0.4,3.2l-3.5-1.2c0-0.4,0.1-1,0.3-1.8
		c0.1-0.4,0.1-0.6,0.1-0.7c-0.9,0.8-1.8,1.3-2.7,1.6c-0.9,0.3-1.7,0.3-2.4,0c-1.4-0.5-2.2-1.5-2.6-3s-0.2-3.2,0.5-5.1
		c0.4-1.3,1-2.3,1.7-3.2c0.7-0.9,1.5-1.4,2.3-1.7c0.8-0.3,1.9-0.4,3.3-0.4c1.8,0,3.1,0,3.9-0.3l0.2-0.6c0.4-1.1,0.5-2,0.4-2.6
		c-0.2-0.6-0.7-1.1-1.6-1.4c-0.6-0.2-1.2-0.2-1.7,0.1C299.4,92.6,298.8,93.3,298.2,94.2z M283,107.2l7.4-31.8l3.6,0.8l-7.4,31.8
		L283,107.2z M275.9,105.7l0.4-3.5c-0.7,1.2-1.4,2.1-2.4,2.7c-0.9,0.6-1.8,0.9-2.7,0.8c-0.9-0.1-1.7-0.6-2.4-1.4
		c-0.7-0.8-1.1-1.8-1.2-3.1c-0.2-1.3-0.1-3.1,0.1-5.3l1.8-14.9l3.7,0.5l-1.3,10.8c-0.4,3.3-0.6,5.3-0.5,6.1c0,0.8,0.2,1.4,0.5,1.9
		s0.7,0.8,1.3,0.8c0.6,0.1,1.2-0.1,1.8-0.7c0.6-0.5,1-1.2,1.3-2s0.6-2.9,1.1-6.3l1.2-9.9l3.7,0.5l-2.9,23.5L275.9,105.7z
		 M264.4,87.4l-3.7,1c-0.1-1.2-0.3-2.2-0.8-2.8c-0.4-0.6-1-1-1.7-1c-0.9,0-1.7,0.5-2.2,1.6c-0.6,1.1-0.9,2.9-1,5.4
		c-0.1,2.8,0.1,4.8,0.7,6c0.5,1.2,1.3,1.8,2.2,1.8c0.7,0,1.3-0.3,1.7-1c0.5-0.7,0.8-1.8,1-3.5l3.6,1.2c-0.5,2.8-1.2,4.9-2.4,6.3
		c-1.1,1.4-2.6,2.1-4.4,2c-2-0.1-3.6-1.2-4.8-3.4c-1.2-2.2-1.7-5.3-1.6-9.1c0.1-3.9,0.8-6.9,2.1-9.1c1.3-2.1,3-3.2,5-3.1
		c1.7,0,3,0.7,4,2C263.4,82.9,264.1,84.8,264.4,87.4z M244.3,103.8l-0.7-23.6l3.7-0.1l0.7,23.6L244.3,103.8z M243.5,76.9l-0.2-5.8
		L247,71l0.2,5.8L243.5,76.9z M239.9,80.3l0.4,5l-2.5,0.2l0.7,9.5c0.1,1.9,0.3,3.1,0.3,3.4c0.1,0.3,0.2,0.6,0.4,0.8
		c0.2,0.2,0.4,0.3,0.6,0.3c0.3,0,0.8-0.3,1.4-0.7l0.7,4.8c-0.8,0.7-1.8,1.1-2.8,1.2c-0.7,0.1-1.3-0.1-1.8-0.4
		c-0.6-0.3-1-0.8-1.3-1.4s-0.5-1.4-0.7-2.4c-0.1-0.7-0.3-2.2-0.5-4.4L234,85.9l-1.7,0.1l-0.4-5l1.7-0.1l-0.4-4.7l3.4-4l0.6,8.4
		L239.9,80.3z M228.5,105.2l-3.7,0.5l-2.9-23.5l3.4-0.4l0.4,3.3c0.4-1.6,0.8-2.7,1.2-3.3c0.4-0.5,0.9-0.9,1.5-0.9
		c0.8-0.1,1.7,0.2,2.6,0.9l-0.5,5.6c-0.7-0.6-1.3-0.9-1.8-0.8s-0.9,0.4-1.2,0.9s-0.5,1.4-0.5,2.7c0,1.3,0.2,3.9,0.7,7.9L228.5,105.2
		z M215.3,96.2c-0.4,0.4-1.1,0.8-2,1.4s-1.5,1.1-1.7,1.5c-0.3,0.7-0.4,1.4-0.2,2.3s0.6,1.5,1.1,2.1c0.5,0.5,1.1,0.7,1.7,0.6
		c0.6-0.2,1.2-0.7,1.6-1.5c0.3-0.7,0.4-1.4,0.4-2.2c0-0.5-0.2-1.5-0.5-3L215.3,96.2z M209.3,92.4l-3.5-0.2c-0.2-2.3,0.1-4.1,0.7-5.4
		c0.6-1.3,1.9-2.1,3.6-2.5c1.6-0.4,2.9-0.3,3.8,0.1c0.9,0.5,1.7,1.1,2.2,2.1c0.5,0.9,1.1,2.7,1.7,5.3l1.6,7.1c0.5,2,0.9,3.5,1.2,4.4
		s0.8,1.9,1.4,2.9l-3.6,0.8c-0.2-0.4-0.4-0.9-0.8-1.7c-0.1-0.3-0.2-0.6-0.3-0.7c-0.4,1.2-0.9,2.1-1.4,2.7c-0.6,0.7-1.3,1.1-2.1,1.3
		c-1.4,0.3-2.6-0.1-3.7-1.2c-1.1-1.1-1.9-2.6-2.3-4.6c-0.3-1.3-0.4-2.5-0.3-3.6c0.1-1.1,0.5-2,1-2.7s1.4-1.4,2.5-2.1
		c1.6-0.9,2.6-1.7,3.1-2.3l-0.1-0.6c-0.3-1.2-0.6-2-1.1-2.4s-1.2-0.5-2.1-0.3c-0.6,0.1-1.1,0.5-1.3,1
		C209.4,90.4,209.3,91.3,209.3,92.4z M188.4,87.7l3,8.8l2-0.7c1.5-0.5,2.4-1,2.7-1.5c0.4-0.5,0.6-1.1,0.6-1.9s-0.1-1.6-0.4-2.6
		c-0.4-1.1-0.9-2-1.5-2.6s-1.3-0.9-1.9-0.9c-0.5,0-1.4,0.2-2.7,0.7L188.4,87.7z M193.3,114.6l-10.4-30.9l5.9-2
		c2.2-0.8,3.8-1.1,4.5-1c1.2,0.1,2.4,0.8,3.6,2.1c1.2,1.3,2.3,3.2,3.1,5.7c0.6,1.9,1,3.6,1,5s-0.1,2.6-0.5,3.6
		c-0.4,0.9-0.9,1.6-1.4,2.1c-0.8,0.6-2,1.2-3.7,1.7l-2.4,0.8l3.9,11.7L193.3,114.6z M174.4,111.4c-0.3,0.5-0.8,1.1-1.5,2
		c-0.7,0.8-1.1,1.5-1.2,2c-0.1,0.7,0,1.5,0.5,2.3c0.4,0.8,1,1.3,1.6,1.7c0.7,0.4,1.2,0.4,1.8,0.1s0.9-1,1.1-1.9
		c0.1-0.7,0-1.5-0.3-2.2c-0.2-0.5-0.7-1.4-1.4-2.7L174.4,111.4z M167.5,109.5l-3.4,0.8c-0.8-2.2-1.1-4-0.9-5.4
		c0.2-1.4,1.1-2.6,2.7-3.5c1.4-0.8,2.6-1.2,3.7-1c1,0.2,1.9,0.6,2.7,1.3c0.8,0.7,1.9,2.2,3.2,4.6l3.6,6.3c1,1.8,1.9,3.1,2.5,3.9
		s1.3,1.6,2.2,2.4l-3.2,1.8c-0.3-0.3-0.7-0.8-1.2-1.4c-0.2-0.3-0.4-0.5-0.5-0.6c0,1.2-0.2,2.2-0.6,3.1c-0.4,0.8-0.9,1.4-1.6,1.8
		c-1.2,0.7-2.5,0.7-3.9,0s-2.6-2-3.6-3.7c-0.7-1.1-1.1-2.3-1.3-3.4s-0.2-2,0.2-2.9c0.3-0.8,0.9-1.7,1.8-2.7c1.2-1.3,2-2.4,2.3-3.1
		l-0.3-0.5c-0.6-1-1.2-1.7-1.8-2s-1.3-0.2-2.1,0.3c-0.6,0.3-0.9,0.8-1,1.4C167,107.6,167.2,108.5,167.5,109.5z M164.1,131.2
		l-18.3-16l3.2-2.3l9.1,8.3l3,2.8c-0.4-1-0.7-1.6-0.9-1.9c-0.3-0.6-0.6-1.2-0.8-1.9l-4.8-11.4l3.1-2.2l9.2,22.5L164.1,131.2z
		 M155.1,138l-14.6-18.6l2.9-2.3l14.6,18.6L155.1,138z M138.5,117l-3.6-4.5l2.9-2.3l3.6,4.5L138.5,117z M137.7,121.8l3.2,3.8
		l-1.9,1.7l6.2,7.3c1.3,1.5,2,2.3,2.3,2.5c0.2,0.2,0.5,0.3,0.8,0.4c0.3,0,0.5,0,0.7-0.2c0.3-0.2,0.5-0.7,0.7-1.4l3.4,3.5
		c-0.2,1-0.8,1.9-1.6,2.6c-0.5,0.4-1.1,0.7-1.7,0.7c-0.7,0.1-1.3-0.1-1.8-0.4c-0.6-0.3-1.2-0.8-2-1.5c-0.5-0.5-1.5-1.6-3-3.3
		l-6.7-7.8l-1.3,1.1l-3.2-3.8l1.3-1.1l-3.1-3.6l0.4-5.2l5.5,6.4L137.7,121.8z M135,141.3c-0.1,0.5-0.4,1.3-0.9,2.3
		c-0.4,1-0.6,1.7-0.6,2.2c0.1,0.8,0.5,1.4,1.1,2s1.3,1,2,1.1c0.7,0.2,1.3,0,1.7-0.4c0.5-0.5,0.6-1.2,0.5-2.1
		c-0.1-0.7-0.4-1.4-0.9-2.1c-0.3-0.4-1-1.2-2.1-2.2L135,141.3z M128,141.4l-3,1.7c-1.4-1.9-2.2-3.5-2.4-4.9
		c-0.2-1.4,0.4-2.8,1.6-4.1c1.1-1.2,2.2-1.9,3.3-2c1-0.1,2,0,3,0.5s2.4,1.6,4.4,3.5l5.2,5.1c1.5,1.4,2.7,2.4,3.5,3s1.7,1.2,2.8,1.7
		l-2.5,2.7c-0.4-0.2-0.9-0.5-1.6-1c-0.3-0.2-0.5-0.3-0.6-0.4c0.3,1.2,0.4,2.2,0.3,3.1c-0.1,0.9-0.4,1.6-1,2.2c-1,1-2.2,1.4-3.8,1.1
		c-1.5-0.3-3-1.2-4.5-2.5c-1-0.9-1.7-1.9-2.2-2.9s-0.7-1.9-0.6-2.8c0.1-0.9,0.4-1.9,1-3.1c0.8-1.6,1.2-2.9,1.4-3.7l-0.5-0.4
		c-0.9-0.8-1.6-1.3-2.3-1.4c-0.6-0.1-1.3,0.2-1.9,0.9c-0.5,0.5-0.6,1-0.6,1.6C126.9,139.8,127.3,140.5,128,141.4z M123.1,146.6
		l-1.4,3.5c-1-0.7-1.9-1-2.7-1.1c-0.8,0-1.3,0.2-1.8,0.8c-0.6,0.7-0.6,1.6-0.1,2.7c0.5,1.1,1.8,2.4,3.7,4c2.2,1.7,3.9,2.7,5.2,3
		c1.3,0.3,2.2,0.1,2.7-0.7c0.4-0.6,0.5-1.2,0.3-2c-0.3-0.8-1-1.7-2.2-2.9l3.1-2.2c2,2,3.2,3.9,3.7,5.7c0.5,1.7,0.2,3.3-1,4.7
		c-1.3,1.6-3.1,2.2-5.6,1.8c-2.5-0.4-5.2-1.8-8.3-4.2c-3.1-2.4-5.1-4.8-6-7.1c-1-2.3-0.8-4.3,0.5-5.9c1-1.3,2.4-2,4-2
		C118.9,144.7,120.8,145.3,123.1,146.6z M124.7,172.5l-3-1.9c0.8,1.1,1.3,2.2,1.4,3.3c0.2,1.1,0,2-0.5,2.8s-1.3,1.3-2.3,1.6
		s-2.1,0.2-3.4-0.2c-1.2-0.4-2.8-1.2-4.7-2.4l-12.6-8.1l2-3.1l9.1,5.9c2.8,1.8,4.5,2.9,5.3,3.1c0.7,0.3,1.3,0.4,1.9,0.3
		c0.6-0.1,1-0.3,1.3-0.8s0.4-1.2,0.2-1.9c-0.2-0.7-0.6-1.4-1.3-2c-0.6-0.6-2.4-1.9-5.2-3.7l-8.4-5.4l2-3.1l19.9,12.8L124.7,172.5z
		 M102.7,187.4c2.3,1,4.1,1.6,5.3,1.7c1.7,0.1,2.8-0.3,3.3-1.3c0.3-0.8,0.1-1.7-0.8-2.7s-2.4-2.1-4.7-3.1c-2.5-1.1-4.4-1.7-5.7-1.6
		c-1.3,0-2.2,0.5-2.6,1.3s-0.1,1.7,0.7,2.7C99.1,185.5,100.6,186.5,102.7,187.4z M118,183.5l-1.4,3.1l-3.2-1.4
		c1,1.1,1.6,2.1,1.9,3.1s0.3,1.8,0,2.6c-0.7,1.5-2.2,2.3-4.7,2.4c-2.5,0.1-5.5-0.6-9.1-2.2c-3.7-1.6-6.2-3.4-7.7-5.3
		c-1.4-1.9-1.8-3.6-1.1-5.1c0.6-1.4,2.2-2.2,4.7-2.3l-10.7-4.8l1.5-3.4L118,183.5z M106.6,212l-30.8-10.7l4.7-13.5l5.2,1.8l-3.4,9.8
		l6.8,2.4l3.2-9.1l5.2,1.8l-3.2,9.1l8.3,2.9l3.5-10.2l5.2,1.8L106.6,212z M90.3,230.4c2.5,0.5,4.3,0.6,5.5,0.4c1.7-0.3,2.7-1,2.9-2
		c0.2-0.8-0.3-1.7-1.4-2.5s-2.8-1.4-5.3-1.9c-2.7-0.5-4.7-0.6-5.9-0.2c-1.3,0.4-2,1-2.2,1.9s0.3,1.7,1.4,2.5
		C86.3,229.4,88,230,90.3,230.4z M104.2,222.9l-0.6,3.4l-3.4-0.6c1.2,0.8,2.1,1.7,2.6,2.5c0.5,0.9,0.7,1.7,0.6,2.5
		c-0.3,1.6-1.6,2.7-4,3.5c-2.4,0.7-5.5,0.7-9.3,0c-3.9-0.7-6.8-1.8-8.7-3.3c-1.9-1.5-2.6-3-2.3-4.7c0.3-1.5,1.6-2.7,4-3.4l-11.6-2.1
		l0.7-3.6L104.2,222.9z M90.3,242c0.2,0.5,0.5,1.3,0.8,2.3s0.6,1.7,0.9,2.1c0.5,0.5,1.3,0.8,2.1,0.9c0.9,0.1,1.6-0.1,2.3-0.4
		c0.7-0.3,1-0.8,1.1-1.4c0.1-0.7-0.3-1.3-1-2c-0.5-0.5-1.2-0.8-2-1c-0.5-0.1-1.5-0.3-3-0.4L90.3,242z M84.8,246.5l-1.3,3.3
		c-2.3-0.6-3.9-1.3-5-2.3c-1-1-1.5-2.4-1.3-4.2c0.1-1.6,0.5-2.8,1.3-3.6c0.7-0.8,1.6-1.3,2.6-1.5s2.9-0.3,5.6-0.1l7.3,0.6
		c2.1,0.2,3.6,0.2,4.6,0.2s2.1-0.2,3.2-0.4l-0.3,3.7c-0.4,0.1-1,0.1-1.8,0.2c-0.4,0-0.6,0.1-0.7,0.1c1,0.7,1.7,1.4,2.2,2.2
		s0.7,1.5,0.6,2.3c-0.1,1.4-0.9,2.5-2.2,3.2c-1.4,0.7-3.1,1-5.1,0.9c-1.3-0.1-2.5-0.4-3.5-0.8c-1-0.5-1.8-1-2.3-1.8
		c-0.5-0.7-0.9-1.7-1.2-3c-0.4-1.8-0.8-3-1.3-3.7h-0.6c-1.2-0.1-2.1,0-2.6,0.3s-0.8,1-0.9,1.9c-0.1,0.7,0.1,1.2,0.5,1.6
		C83,245.8,83.7,246.2,84.8,246.5z M89.4,264.9c2.5-0.2,4.3-0.5,5.4-1c1.6-0.7,2.3-1.6,2.3-2.7c-0.1-0.8-0.7-1.5-2-2
		s-3.1-0.7-5.6-0.5c-2.7,0.2-4.6,0.6-5.8,1.3c-1.2,0.7-1.7,1.4-1.6,2.3s0.7,1.6,1.9,2.1C85.2,264.9,87,265.1,89.4,264.9z
		 M100.9,254.2l0.3,3.4l-3.5,0.3c1.4,0.5,2.4,1.1,3.2,1.8c0.7,0.7,1.1,1.5,1.2,2.3c0.1,1.6-0.9,3.1-3,4.4s-5.1,2.1-9,2.4
		c-4,0.3-7.1,0-9.2-1c-2.2-1-3.3-2.3-3.4-4c-0.1-1.6,0.9-3,3-4.3l-11.7,0.9l-0.3-3.7L100.9,254.2z M102.7,274.4l-23.5,2.9l-0.5-3.7
		l23.5-2.9L102.7,274.4z M76.1,277.7l-5.7,0.7l-0.5-3.7l5.7-0.7L76.1,277.7z M103.1,278.1l0.8,3.6l-11.7,2.7c-2.5,0.6-4.1,1-4.8,1.4
		c-0.7,0.3-1.2,0.7-1.5,1.2c-0.3,0.4-0.4,0.9-0.3,1.4c0.1,0.6,0.6,1.1,1.3,1.5c0.7,0.4,1.5,0.5,2.5,0.5s2.8-0.4,5.4-1l10.4-2.4
		l0.8,3.6L83,296l-0.8-3.3l3.4-0.8c-2.9-0.6-4.5-1.8-4.9-3.6c-0.2-0.8-0.1-1.6,0.2-2.4c0.3-0.8,0.8-1.4,1.5-1.9s1.5-1,2.4-1.3
		c0.9-0.4,2.3-0.7,4-1.2L103.1,278.1z M80.9,319.4l-1.2-3.7l16.7-5.6c2.7-0.9,4.4-1.5,5.1-1.9c1.2-0.6,2.1-1.3,2.7-2.1
		c0.6-0.9,0.7-1.8,0.3-2.8c-0.3-1-1-1.7-1.9-2s-1.9-0.3-3-0.1c-1.1,0.2-2.9,0.8-5.3,1.6l-17.1,5.8l-1.2-3.7l16.3-5.5
		c3.7-1.2,6.4-2,8-2.4c1.6-0.3,3-0.4,4.3-0.2c1.2,0.2,2.3,0.6,3.2,1.3c0.9,0.7,1.6,1.7,2.1,3.2c0.6,1.7,0.7,3.2,0.3,4.3
		c-0.4,1.1-1,2.1-1.9,3s-1.9,1.6-3.1,2.2c-1.7,0.8-4.3,1.8-7.7,3L80.9,319.4z"/>
	<path class="st29" d="M400.2,310.4c-0.1-0.5-0.1-1.3-0.1-2.4s-0.1-1.8-0.3-2.3c-0.4-0.7-1-1.2-1.8-1.5s-1.6-0.4-2.3-0.3
		c-0.7,0.1-1.2,0.5-1.4,1c-0.2,0.6-0.1,1.3,0.3,2.2c0.4,0.6,0.9,1.1,1.6,1.6c0.5,0.3,1.4,0.7,2.8,1.2L400.2,310.4z M406.7,307.6
		l2.1-2.7c2,1.2,3.4,2.4,4.1,3.7c0.7,1.3,0.7,2.7,0.1,4.4c-0.6,1.5-1.4,2.6-2.3,3.1s-1.9,0.7-3,0.7c-1.1-0.1-2.9-0.6-5.4-1.6
		l-6.8-2.7c-1.9-0.8-3.4-1.3-4.3-1.5c-1-0.3-2-0.4-3.2-0.5l1.3-3.4c0.4,0.1,1,0.2,1.8,0.3c0.4,0.1,0.6,0.1,0.7,0.1
		c-0.7-1-1.2-1.9-1.5-2.7c-0.2-0.9-0.2-1.7,0.1-2.4c0.5-1.3,1.5-2.1,3.1-2.4c1.5-0.3,3.2-0.1,5.1,0.7c1.2,0.5,2.3,1.1,3.1,1.8
		c0.8,0.7,1.4,1.5,1.7,2.3c0.3,0.8,0.4,1.9,0.3,3.3c-0.1,1.8-0.1,3.1,0.1,3.9l0.6,0.2c1.1,0.4,2,0.6,2.6,0.5s1.1-0.7,1.4-1.6
		c0.2-0.6,0.2-1.2-0.1-1.7C408.3,308.8,407.6,308.2,406.7,307.6z M393.6,295.5l0.8-3.6l11.7,2.7c2.5,0.6,4.1,0.9,4.9,0.9
		s1.4-0.1,1.9-0.4s0.8-0.6,0.9-1.1c0.1-0.6,0-1.3-0.5-1.9s-1.2-1.2-2.1-1.6s-2.6-0.9-5.2-1.5l-10.4-2.4l0.8-3.6l23,5.3l-0.8,3.3
		l-3.4-0.8c2.3,1.8,3.2,3.6,2.8,5.4c-0.2,0.8-0.6,1.5-1.2,2c-0.6,0.6-1.4,0.9-2.2,1.1c-0.8,0.2-1.7,0.2-2.7,0.1s-2.4-0.3-4.1-0.7
		L393.6,295.5z"/>
	<path class="st29" d="M372.3,338.3l4.5-6.4l6,4.2c2.2,1.5,3.7,3.1,4.4,4.8c0.7,1.7,1,3.7,0.6,6.3l-4.2-0.8c0.2-1.6,0.1-2.8-0.3-3.7
		c-0.3-0.9-0.9-1.6-1.8-2.3l-2.2,3.1L372.3,338.3z M367,345.8l4.5-6.4l6,4.2c2.2,1.5,3.7,3.1,4.4,4.8c0.7,1.7,1,3.7,0.6,6.3
		l-4.2-0.8c0.2-1.6,0.1-2.8-0.3-3.7c-0.3-0.9-0.9-1.6-1.8-2.3L374,351L367,345.8z M373.6,368.4l-10.4-5.8l6.4,10L373.6,368.4z
		 M379.9,371.9l-6.4,6.8l2.9,4.6l-5.7,6.1l-16.5-29.2l6.1-6.6l30.2,14.6l-5.9,6.3L379.9,371.9z M324.9,382.7l7-5l18.3,15.2
		l-8.6-22.2l6.8-4.8l10.6,31.8l-7.2,5.2L324.9,382.7z M302.5,392.9l20-9.1l2.8,6.2l-12.5,5.7l2.1,4.6l11.6-5.3l2.7,5.9l-11.6,5.3
		l2.6,5.7l12.9-5.8l3,6.6l-20.4,9.2L302.5,392.9z M289.1,396.9l8-1.9l4.4,18.6c0.4,1.8,0.6,3.6,0.5,5.4s-0.5,3.4-1.2,4.8
		c-0.7,1.5-1.6,2.6-2.6,3.3c-1.4,1.1-3.2,1.8-5.3,2.4c-1.3,0.3-2.7,0.5-4.2,0.7c-1.5,0.1-2.9,0-4-0.4s-2.3-1.1-3.4-2
		c-1.1-1-2-2-2.5-3.2c-1-1.9-1.6-3.6-2-5.1l-4.4-18.6l8-1.9l4.5,19c0.4,1.7,1.1,2.9,2.1,3.7c1,0.8,2.2,1,3.6,0.7s2.3-1,2.9-2.2
		c0.6-1.1,0.6-2.5,0.2-4.3L289.1,396.9z M241.2,402.8l7.7-0.3l10.6,17.3l-0.7-17.7l7.7-0.3l1.2,32l-7.7,0.3l-10.6-17.2l0.7,17.6
		l-7.7,0.3L241.2,402.8z M200.7,415.5l0.3-11.9l-5.9,10.3L200.7,415.5z M200.5,422.6l-9-2.5l-2.7,4.7l-8.1-2.2l18.2-28.2l8.7,2.4
		l1.1,33.5l-8.3-2.3L200.5,422.6z M171.3,390.1l-7.8,15.6l1.8,0.9c1.5,0.8,2.7,1.1,3.6,1c0.9-0.1,1.7-0.6,2.6-1.4
		c0.9-0.8,1.9-2.4,3-4.7c1.5-3,2.1-5.3,1.9-6.8c-0.3-1.5-1.4-2.8-3.3-3.7L171.3,390.1z M167.2,379.9l10.9,5.4
		c2.1,1.1,3.7,2.3,4.7,3.7c1,1.4,1.6,2.9,1.8,4.7c0.2,1.8,0.1,3.6-0.4,5.5s-1.2,3.9-2.2,5.8c-1.5,3.1-3,5.3-4.4,6.7
		c-1.4,1.4-2.9,2.4-4.5,3s-3.1,0.8-4.4,0.6c-1.9-0.3-3.5-0.8-4.8-1.4l-10.9-5.4L167.2,379.9z M154.4,370.2l6.7,4.7l-18.4,26.2
		l-6.7-4.7L154.4,370.2z M129.4,347.4l6.3,5.9l-11.4,20.9l20.1-12.8l6.1,5.7l-29.1,16.6l-6.5-6.1L129.4,347.4z M115.5,356l-4.6-6.4
		l5.9-4.2c2.2-1.6,4.2-2.4,6-2.6c1.8-0.1,3.8,0.3,6.1,1.5l-2.2,3.6c-1.4-0.7-2.6-1-3.6-1c-0.9,0-1.9,0.3-2.8,0.9l2.2,3L115.5,356z
		 M110.1,348.6l-4.6-6.4l5.9-4.2c2.2-1.6,4.2-2.4,6-2.6c1.8-0.1,3.8,0.3,6.1,1.5l-2.2,3.6c-1.4-0.7-2.6-1-3.6-1
		c-0.9,0-1.9,0.3-2.8,0.9l2.2,3L110.1,348.6z"/>
</g>
</svg>
