<?xml version="1.0" encoding="utf-8"?>
<!-- Generator: Adobe Illustrator 28.1.0, SVG Export Plug-In . SVG Version: 6.00 Build 0)  -->
<svg version="1.1" id="Capa_1" xmlns="http://www.w3.org/2000/svg" xmlns:xlink="http://www.w3.org/1999/xlink" x="0px" y="0px"
	 viewBox="0 0 321 63" style="enable-background:new 0 0 321 63;" xml:space="preserve">
<style type="text/css">
	.st0{fill:#AAC8A3;}
	.st1{fill:#1F411F;}
	.st2{fill:#FFFFFF;}
	.st3{fill:#21421F;}
	.st4{fill:#373536;}
	.st5{fill:#373636;}
	.st6{fill:#383637;}
	.st7{fill:#3B3B3B;}
	.st8{fill:#D8D5D5;}
	.st9{fill:#BCCB26;}
	.st10{fill:#FDFDFD;}
	.st11{fill:#F9F7F8;}
	.st12{fill:#FCFCFC;}
	.st13{fill:#FFFEFF;}
	.st14{fill:#20421F;}
	.st15{fill:#CFCFCF;}
	.st16{fill:#DBDBDB;}
	.st17{fill:#8ABD27;}
	.st18{fill:#77B62C;}
	.st19{fill:#8FBE26;}
	.st20{fill:#71B42D;}
	.st21{fill:#A6C720;}
	.st22{fill:#7AB72B;}
	.st23{fill:#A1C522;}
	.st24{fill:#76B62C;}
	.st25{fill:#89BC27;}
	.st26{fill:#91BF25;}
	.st27{fill:#A2C521;}
	.st28{fill:#90BF25;}
	.st29{fill:#A0C522;}
	.st30{fill:#392320;}
	.st31{fill:#7EB82A;}
	.st32{fill:#A3C521;}
	.st33{fill:#92BF25;}
	.st34{fill:#5DAC32;}
	.st35{fill:#5CAC32;}
	.st36{fill:#15602E;}
	.st37{fill:#1A642E;}
	.st38{fill:#538B32;}
	.st39{fill:#A4C621;}
	.st40{fill:#377831;}
	.st41{fill:#236A2F;}
	.st42{fill:#04512B;}
	.st43{fill:#05512C;}
	.st44{fill:#629531;}
	.st45{fill:#83AB2A;}
	.st46{fill:#629530;}
	.st47{fill:#236A30;}
	.st48{fill:#367831;}
	.st49{fill:#4A8532;}
	.st50{fill:#6A9A2F;}
	.st51{fill:#77A32D;}
	.st52{fill:#689A30;}
	.st53{fill:#7AA52C;}
	.st54{fill:#719F2E;}
	.st55{fill:#8E8E8E;}
	.st56{fill:#8C8D8C;}
	.st57{fill:#3E3A2A;}
	.st58{fill:#3F3A2A;}
	.st59{fill:#F7F5F5;}
	.st60{fill:#F7F6F6;}
	.st61{fill:#DADADA;}
	.st62{fill:#E0DFDF;}
	.st63{fill:#A9A9A9;}
	.st64{fill:#646464;}
	.st65{fill:#909090;}
	.st66{fill:#115C2E;}
	.st67{fill:#296F30;}
	.st68{fill:#759248;}
	.st69{fill:#0B592E;}
	.st70{fill:#6D824C;}
	.st71{fill:#ADC91F;}
	.st72{fill:#407E32;}
	.st73{fill:#337631;}
	.st74{fill:#17622E;}
	.st75{fill:#B4CC1F;}
	.st76{fill:#5F9331;}
	.st77{fill:#91BF24;}
	.st78{fill:#14602E;}
	.st79{fill:#BCCF1D;}
	.st80{fill:#93B624;}
	.st81{fill:#90B325;}
	.st82{fill:#95C024;}
	.st83{fill:#2D7130;}
	.st84{fill:#BCCE1D;}
	.st85{fill:#87AC29;}
	.st86{fill:#639630;}
	.st87{fill:#86AC29;}
	.st88{fill:#92C025;}
	.st89{fill:#3C7C32;}
	.st90{fill:#4C8632;}
	.st91{fill:#ACC91F;}
	.st92{fill:#81AA2A;}
	.st93{fill:#AEC91F;}
	.st94{fill:#88AD28;}
	.st95{fill:#7BA52C;}
	.st96{fill:#95C124;}
	.st97{fill:#367731;}
	.st98{fill:#8CB027;}
	.st99{fill:#78A42D;}
	.st100{fill:#A2C522;}
	.st101{fill:#367532;}
	.st102{fill:#697451;}
	.st103{fill:#256B30;}
	.st104{fill:#487A39;}
	.st105{fill:#FEFDFE;}
	.st106{fill:#BCBCBC;}
	.st107{fill:#2A6F30;}
	.st108{fill:#ACC920;}
	.st109{fill:#4D8632;}
	.st110{fill:#C4D21D;}
	.st111{fill:#679830;}
	.st112{fill:#4D8732;}
	.st113{fill:#689930;}
	.st114{fill:#ABC820;}
	.st115{fill:#ABC920;}
	.st116{fill:#4E8732;}
	.st117{fill:#7DA62B;}
	.st118{fill:#B1CA1F;}
	.st119{fill:#2D7231;}
	.st120{fill:#458132;}
	.st121{fill:#DADB1C;}
	.st122{fill:#D2D71B;}
	.st123{fill:#9FBB1F;}
	.st124{fill:#C0D01E;}
	.st125{fill:#518A32;}
	.st126{fill:#D7D91D;}
	.st127{fill:#A3BD1D;}
	.st128{fill:#CAD41C;}
	.st129{fill:#77A22D;}
	.st130{fill:#C0D11D;}
	.st131{fill:#C8D41C;}
	.st132{fill:#C7D31D;}
	.st133{fill:#B0CA1F;}
	.st134{fill:#9BB921;}
	.st135{fill:#BFD01F;}
	.st136{fill:#A9C81F;}
	.st137{fill:#9CC223;}
	.st138{fill:#478232;}
	.st139{fill:#CAD41E;}
	.st140{fill:#C8D41D;}
	.st141{fill:#CDD51D;}
	.st142{fill:#B5CC20;}
	.st143{fill:#D1D71E;}
	.st144{fill:#74A02D;}
	.st145{fill:#75A12D;}
	.st146{fill:#77A12D;}
	.st147{fill:#6C9A2F;}
	.st148{fill:#6F9C2E;}
	.st149{fill:#81A82A;}
	.st150{fill:#538A31;}
	.st151{fill:#4E8731;}
	.st152{fill:#619430;}
	.st153{fill:#FFC800;}
</style>
<g>
	<path class="st0" d="M55.4,30.8c1.3,0,2.7,0,4.1,0c0,0.7,0,1.4,0,2.1l0,0l0,0c-0.3-0.3-0.1-0.6-0.1-0.9c0-1,0.1-1-1-1
		c-0.7,0-1.7,0-2.4,0C55.7,31.1,55.6,31.1,55.4,30.8z"/>
	<path class="st1" d="M55.4,30.8c0.1,0.1,0.3,0,0.4,0c1,0,2.1,0,3.3,0c0.3,0,0.4,0.1,0.4,0.4c0,0.6,0,1,0,1.7
		c-0.1,3.3-0.9,6.4-2,9.4c-0.1,0.3-0.3,0.3-0.6,0.3c-1-0.4-2.1-0.7-3.3-1.1c-0.3-0.1-0.3,0-0.4,0.1c-0.9,2-2,3.8-3.3,5.7
		c-0.1,0.1-0.1,0.3,0.1,0.4c0.9,0.7,1.8,1.4,2.7,2.3c0.1,0.1,0.1,0.3,0,0.4c-2.6,3-5.4,5.4-8.8,7.2c-0.3,0.1-0.4,0.1-0.6-0.1
		c-0.6-1-1.1-2-1.7-3c-0.1-0.3-0.3-0.3-0.4-0.1c-1.8,0.9-3.7,1.7-5.8,2.1c-0.3,0-0.4,0.1-0.3,0.4c0.3,1.1,0.4,2.3,0.6,3.4
		c0,0.3,0,0.3-0.3,0.3C33,61,30.5,61.3,28.1,61c-1.3-0.1-2.6-0.3-3.8-0.4c-0.3,0-0.4-0.1-0.3-0.4c0.3-1,0.4-2.3,0.6-3.4
		c0-0.3,0-0.4-0.3-0.4c-2.1-0.4-4-1.1-6-2.1c-0.3-0.1-0.3,0-0.4,0.1c-0.6,1-1.1,2.1-1.8,3c-0.1,0.3-0.1,0.3-0.4,0.1
		c-3.4-2-6.2-4.3-8.8-7.2C6.8,50,6.8,50,7,49.9c1-1,1.8-1.7,2.8-2.4c0.1-0.1,0.1-0.3,0-0.4c-1.3-1.7-2.4-3.5-3.3-5.5
		c-0.1-0.3-0.1-0.3-0.4-0.1c-1,0.4-2.1,0.7-3.1,1.1c-0.3,0.1-0.4,0.1-0.4-0.1C1.3,38.7,0.4,35,0.4,31.3c0-0.4,0.1-0.6,0.4-0.4
		c1,0,2.3,0,3.3,0c0.3,0,0.3,0,0.3-0.3c0-2.1,0.4-4.1,1-6.1c0.1-0.3,0-0.4-0.3-0.4c-1-0.4-2.3-0.9-3.3-1.3c-0.1-0.1-0.3-0.1-0.1-0.3
		c1.1-3.8,3.1-7.2,5.8-10.2l0.1-0.1c0.9,0.6,1.8,1.3,2.8,2.1c0.1,0.1,0.3,0.1,0.6,0c1.4-1.7,3-3,5-4.1c0-0.1,0.1-0.3,0-0.6
		c-0.6-1-1.1-2-1.8-3C14,6.4,14,6.4,14.3,6.2c3.4-2.1,6.9-3.4,10.9-4c0.3,0,0.3,0,0.4,0.3c0.1,1.1,0.4,2.3,0.6,3.4
		c0.1,0.3,0.3,0.3,0.6,0.3c2.3-0.3,4.4-0.3,6.5,0c0.3,0,0.3-0.1,0.3-0.3c0.1-1.3,0.3-2.4,0.4-3.5c0-0.3,0.1-0.3,0.4-0.3
		c2.7,0.4,5.4,1.1,7.8,2.4c1,0.4,2.1,1,3,1.7c0.3,0.1,0.3,0.3,0.1,0.6c-0.6,0.9-1,2-1.7,2.8c-0.1,0.3-0.1,0.4,0.1,0.6
		c1.7,1.1,3.3,2.6,4.5,4c0.1,0.1,0.3,0.3,0.4,0c0.9-0.7,1.8-1.4,2.7-2.3c0.3-0.1,0.3-0.1,0.6,0c2.6,3,4.4,6.2,5.7,9.8
		c0.1,0.3,0,0.3-0.1,0.4c-1,0.4-2.3,0.7-3.3,1.1c-0.1,0.1-0.3,0.1-0.3,0.4C54.9,25.9,55.3,28.4,55.4,30.8L55.4,30.8z"/>
	<path class="st2" d="M55.7,32.5c0.4,0,1,0,1.4,0s0.4,0.1,0.4,0.4c-0.1,2.3-0.6,4.5-1.1,6.7c-0.1,0.7-0.1,0.7-0.9,0.4
		c-0.9-0.3-1.8-0.6-2.7-0.9c-0.4-0.1-0.6,0-0.7,0.3c-0.7,1.8-1.4,3.5-2.7,5.1c-0.6,0.9-1.3,1.8-2,2.7c-0.1,0.3-0.1,0.3,0,0.6
		c0.9,0.7,1.7,1.4,2.6,2.1c0.3,0.1,0.1,0.3,0,0.4c-1.7,1.8-3.5,3.4-5.7,4.5c-0.3,0.1-0.3,0.1-0.4-0.1c-0.6-1-1.1-2-1.7-3
		c-0.1-0.3-0.3-0.3-0.4-0.1c-1.8,1-3.7,2-5.7,2.4c-0.9,0.3-1.8,0.4-2.7,0.6c-0.3,0-0.4,0.1-0.3,0.4c0.1,1,0.4,2.3,0.6,3.3
		c0,0.3,0,0.3-0.3,0.3c-2.6,0.3-5,0.3-7.4,0c-0.3,0-0.4-0.1-0.3-0.4c0.1-1,0.3-2.1,0.6-3.1c0-0.3,0-0.4-0.4-0.6
		c-3-0.4-5.8-1.4-8.5-3.1c-0.3-0.1-0.3-0.1-0.4,0.1c-0.6,1-1.1,2-1.7,3c-0.1,0.1-0.1,0.3-0.4,0.1c-2.1-1.3-4-3-5.8-4.7
		c-0.1-0.1-0.1-0.3,0-0.4c0.9-0.7,1.8-1.4,2.6-2.3c0.3-0.1,0.3-0.3,0-0.6c-1.8-1.8-3.3-4.3-4.4-7.1c-0.1-0.3-0.3-0.4-0.6-0.3
		c-1,0.4-2.1,0.7-3.1,1.1c-0.3,0.1-0.3,0.1-0.4-0.1c-0.6-2.6-1-5-1.1-7.2c0-0.3,0.1-0.4,0.4-0.4c1,0,2.3,0,3.3,0
		c0.3,0,0.4-0.1,0.4-0.4c0-1.3,0-2.7,0.3-4c0.3-1.7,0.6-3.3,1.1-4.7c0.1-0.4,0-0.4-0.3-0.6c-1-0.3-2.1-0.7-3.1-1
		c-0.3-0.1-0.3-0.1-0.1-0.4C5,19.1,6.4,17,7.8,14.8c0.1-0.3,0.3-0.1,0.4,0c0.9,0.7,1.8,1.4,2.6,2.3c0.1,0.1,0.3,0.1,0.4,0
		c2-2.4,4.3-4.4,6.9-6.1c0.4-0.6,0.4-0.7,0.3-1c-0.6-1-1.1-2-1.7-3c-0.1-0.3-0.1-0.3,0.1-0.4c2.2-1.1,4.4-2.1,7-2.6
		c0.3-0.1,0.4,0,0.4,0.3c0.1,1,0.3,2.1,0.6,3.1C24.5,7.8,24.7,8,25.1,8c1-0.1,2.3-0.3,3.3-0.4c2-0.1,3.7,0,5.5,0.3
		C34.6,8,34.6,8,34.8,7.5c0.1-1,0.3-2.1,0.6-3c0-0.3,0.1-0.3,0.3-0.1c2.6,0.6,5,1.4,7.1,2.7c0.2,0,0.2,0,0,0.3c-0.6,0.9-1,2-1.7,2.8
		c-0.1,0.3-0.1,0.4,0.1,0.6c2.7,1.4,5,3.4,6.8,5.8c0.1,0.3,0.3,0.3,0.6,0c0.9-0.7,1.7-1.3,2.6-2.1c0.3-0.3,0.3-0.1,0.6,0.1
		c1.4,2,2.7,4,3.5,6.2c0.1,0.3,0.1,0.4-0.1,0.4c-1,0.3-2.1,0.7-3,1c-0.3,0.1-0.4,0.3-0.3,0.6c0.4,1.4,0.9,3,1.1,4.4
		c0.3,1.7,0.3,3.1,0.3,4.7c0,0.3,0.1,0.4,0.4,0.4C54.7,32.5,55.3,32.5,55.7,32.5z"/>
	<path class="st3" d="M29.9,49.6c-9.9,0-18-8.1-18.2-18c0-9.9,8.1-18,18-18.2c9.9,0,18,8.1,18.2,18C47.8,41.4,39.8,49.6,29.9,49.6z"
		/>
	<path class="st4" d="M31.6,52.2c0-0.6,0-1.3,0-2c0-0.1,0-0.3,0.3-0.3c0.9-0.1,0.9-0.1,0.9,0.7c0,1,0.1,2,0.1,3c0,0.1,0,0.3-0.3,0.3
		l0,0c-0.6,0.1-1,0-1.3-0.6c-0.3-0.4-0.6-0.9-1-1.3c0,0.6,0,1.1,0,1.8c0,0.3,0,0.4-0.4,0.4c-0.7,0-0.7,0-0.7-0.7c0-1-0.1-2-0.1-3
		c0-0.3,0-0.3,0.3-0.3c0.6-0.1,1,0,1.3,0.6C30.8,51.3,31.2,51.8,31.6,52.2z"/>
	<path class="st4" d="M20.7,48.4c0,1-0.7,2.1-1.4,2.4c-0.6,0.1-1,0-1.7-0.3c-0.4-0.3-0.9-0.6-1.3-1c-0.1-0.1-0.1-0.3,0-0.4
		c0.6-0.9,1.3-2,2-2.8c0.1-0.1,0.1-0.3,0.4-0.1c0.4,0.4,1,0.7,1.4,1C20.4,47.6,20.7,48.1,20.7,48.4z"/>
	<path class="st4" d="M38.1,51.6c0,0.7-0.3,1.1-0.9,1.4c-0.4,0.1-0.9,0.3-1.3,0.3c-0.7,0-1.3-0.4-1.4-1.1c-0.1-0.7-0.4-1.4-0.6-2.1
		c0-0.1,0-0.3,0.1-0.3c0.9-0.3,0.9-0.3,1.1,0.6c0.1,0.4,0.3,1,0.4,1.4c0.1,0.4,0.4,0.6,0.9,0.4c0.4-0.1,0.6-0.4,0.4-0.9
		c-0.1-0.6-0.3-1.3-0.6-2c0-0.3-0.1-0.3,0.3-0.4c0.9-0.1,0.9-0.3,1.1,0.6C37.8,50.3,38,51.1,38.1,51.6z"/>
	<path class="st4" d="M40.8,46.8c0.1,0.1,0.3,0.3,0.4,0.6c0.1,0.1,0,0.1-0.1,0.3c-0.4,0.3-0.9,0.6-1.3,0.7c-0.3,0.1-0.1,0.3,0,0.4
		c0.1,0.1,0.1,0.3,0.4,0.1c0.3-0.3,0.7-0.4,1-0.7c0.3-0.1,0.4-0.1,0.6,0.1c0.1,0.3,0.1,0.4-0.1,0.6c-0.4,0.1-0.7,0.4-1,0.6
		c-0.4,0.1,0,0.4,0,0.6c0,0.1,0.1,0.3,0.4,0.1c0.4-0.3,0.9-0.4,1.3-0.7c0.3-0.1,0.3-0.1,0.4,0.1c0.3,0.4,0.3,0.4-0.1,0.7
		c-0.7,0.4-1.4,0.9-2.3,1.3c-0.1,0.1-0.3,0.1-0.4-0.1c-0.6-1-1.1-2.1-1.8-3c-0.1-0.1-0.1-0.3,0-0.3C39.1,47.8,40,47.4,40.8,46.8
		C40.8,46.9,40.8,46.8,40.8,46.8z"/>
	<path class="st4" d="M50.2,42.3c-0.1,0.3-0.3,0.4-0.4,0.6c-0.1,0.3-0.3,0.4-0.9,0.3c-0.4-0.1-0.4,0.4-0.7,0.7
		c-0.1,0.1-0.3,0.3-0.1,0.4c0.1,0.1,0.3,0.3,0.3,0.4c-0.1,0.3-0.4,0.6-0.6,0.9c-0.1,0.1-0.1,0-0.1-0.1c-0.7-1-1.4-2.1-2.3-3.3
		c-0.1-0.1-0.1-0.1,0-0.3c0.1-0.3,0.4-0.6,0.6-0.7c0.1-0.1,0.1-0.1,0.3-0.1C47.5,41.7,48.9,42,50.2,42.3z"/>
	<path class="st4" d="M23.9,51.3c0,0.6,0,1.1,0,1.8c0,0.3-0.1,0.4-0.4,0.3c-0.1-0.1-0.3-0.1-0.4-0.1c-0.3,0-0.4-0.3-0.4-0.6
		c0-0.1,0-0.3-0.3-0.4c-0.1,0-0.4-0.1-0.6-0.3c-0.3-0.1-0.6-0.1-0.7,0.1c-0.1,0.1-0.3,0.1-0.4,0c-0.9-0.3-0.9-0.3-0.3-1
		c0.7-0.7,1.3-1.4,2-2.3c0.1-0.1,0.3-0.3,0.6-0.1c0.9,0.4,0.9,0.4,0.9,1.3C23.9,50.6,23.9,51.1,23.9,51.3L23.9,51.3z"/>
	<path class="st4" d="M44.5,43.7c0.6,1.1,1,2.6,1.7,3.7c0.1,0.1,0,0.3-0.1,0.4c-0.7,0.7-0.7,0.7-1.7,0.3s-2-0.9-3-1.3v-0.1
		c0.3-0.3,0.6-0.7,0.9-0.7c0.3,0,0.6,0.3,1,0.4c0.6,0.3,1,0.6,1.8,0.9c-0.3-0.7-0.6-1.1-0.9-1.8c-0.4-0.9-0.4-0.9,0.3-1.6
		C44.4,43.7,44.4,43.7,44.5,43.7z"/>
	<path class="st4" d="M15.7,43.8c-1.3,0.4-2.7,0.7-3.8,1.1l0,0c-0.4-0.1-0.4-0.6-0.7-0.9c-0.1-0.1-0.1-0.3,0-0.4
		c0.7-1,1.3-2.1,2.1-3.3c0.1-0.1,0.1-0.1,0.3,0l0,0c0.6,0.7,0.6,0.7,0,1.4c-0.4,0.6-0.7,1-1.1,1.7c0.9-0.3,1.8-0.6,2.6-0.9
		c0.3-0.1,0.4-0.1,0.6,0.1C15.3,43.4,15.6,43.5,15.7,43.8z"/>
	<path class="st4" d="M44.4,14.3c0.6,0.3,0.6,0.7,0.4,1.1c-0.1,0.7-0.3,1.4-0.4,2.1c0.4-0.4,1-0.9,1.4-1.3c0.3-0.3,0.3-0.1,0.6,0
		c0.1,0.1,0.3,0.3,0,0.6c-0.7,0.7-1.4,1.4-2.3,2.4c-0.1,0.1-0.1,0.4-0.4,0.3c-0.3-0.1-0.6-0.3-0.4-0.7c0.1-0.7,0.3-1.4,0.4-2.3
		c0-0.1,0-0.3,0.1-0.4c-0.6,0.6-1,1-1.4,1.7c-0.1,0.1-0.3,0.3-0.6,0c-0.1-0.1-0.3-0.3,0-0.6C42.7,16,43.5,15.2,44.4,14.3z"/>
	<path class="st4" d="M18.6,13c0-0.9,0.4-1.3,1-1.8c0.6-0.3,1.1-0.4,1.8,0c0.1,0.1,0.4,0.1,0.3,0.3c-0.1,0.1-0.3,0.6-0.7,0.3
		c-0.4-0.3-0.7-0.1-1.1,0.1c-0.3,0.3-0.4,0.6-0.4,1c0,0.3,0.1,0.6,0.3,0.9c0.6,0.9,1.4,0.7,2.1,0c0.1-0.3,0-0.4-0.1-0.6
		c-0.1-0.1-0.3,0-0.3,0.1c-0.1,0-0.3,0.4-0.6,0c-0.1-0.3-0.1-0.4,0.1-0.6s0.6-0.3,0.9-0.4c0.3-0.1,0.4-0.1,0.4,0.1
		c0.1,0.1,0.1,0.4,0.3,0.6c0.3,0.4,0.1,0.7-0.1,1.1c-0.7,0.9-2,1.1-2.8,0.7C18.8,14.6,18.6,13.7,18.6,13z"/>
	<path class="st4" d="M11.7,24.1c-1.1,0-2.3-1-2.3-2.1s0.9-2.1,2-2.1s2.4,1,2.4,2.1C13.7,23.1,12.7,24.2,11.7,24.1z"/>
	<path class="st4" d="M28.9,11.3c0,1.1-0.7,2-1.8,2.1c-1,0.1-2-0.6-2.1-1.7c-0.1-0.4-0.1-0.9,0-1.3c0.3-0.7,1-1.1,2-1.1
		c0.7,0,1.4,0.6,1.7,1.3C28.9,10.6,28.9,11.1,28.9,11.3z"/>
	<path class="st4" d="M49.3,28.2c-1,0-2-0.9-2-2.1c0-1.1,1-2,2.4-2c1,0,1.8,0.9,1.8,2.1C51.7,27.5,50.6,28.2,49.3,28.2z"/>
	<path class="st4" d="M37.7,14.2c0,0.3-0.1,0.4-0.6,0.4c-0.7-0.3-1.4-0.4-2.3-0.7c-0.1,0-0.3-0.1-0.1-0.3c0.4-1,0.7-2.3,1.1-3.3
		c0-0.1,0.1-0.3,0.3-0.1c0.7,0.3,1.4,0.6,2.4,0.7c0.3,0.1,0.1,0.3,0.1,0.4s0,0.3-0.3,0.3c-0.4-0.1-1-0.3-1.4-0.6
		c-0.1-0.1-0.3,0-0.4,0.1c0,0.1,0,0.1-0.1,0.3c-0.1,0.1-0.1,0.3,0.1,0.4c0.4,0.1,0.9,0.3,1.3,0.4c0.3-0.1,0.3,0,0.1,0.3
		c-0.1,0.3-0.1,0.3-0.4,0.1c-0.4-0.1-0.9-0.3-1.3-0.4c-0.1-0.1-0.3,0-0.3,0.1c-0.3,0.7-0.3,0.7,0.4,1c0.4,0.1,0.7,0.3,1.1,0.4
		C37.6,14,37.7,14,37.7,14.2z"/>
	<path class="st5" d="M16.6,16.2c0.6,0.9,0.6,0.9,1.4,0.3c0.3-0.1,0.4-0.3,0.7-0.6c0.1-0.1,0.3-0.1,0.4,0s0.3,0.3,0,0.4
		c-0.6,0.4-1.3,1-2,1.4c-0.1,0.1-0.3,0.1-0.3,0c-0.7-0.9-1.4-2-2.3-2.8c-0.1-0.1-0.1-0.3,0-0.3c0.6-0.4,1.3-1,2-1.4
		c0.3-0.1,0.3,0,0.4,0.1s0.3,0.3,0,0.4c-0.4,0.3-0.9,0.7-1.3,1c-0.3,0.1-0.1,0.3,0,0.4c0.3,0.4,0.3,0.4,0.7,0.1
		c0.4-0.1,0.7-0.3,1-0.6c0.3-0.1,0.3,0,0.4,0.1s0.3,0.3,0,0.4C17.4,15.5,17,15.9,16.6,16.2z"/>
	<path class="st5" d="M10.2,28.4c-1.1,0-2.1-0.6-2.3-1.4c-0.3-0.9,0.3-2,1.1-2.1c0.1,0,0.3-0.1,0.4,0.1c0,0.3,0.1,0.6-0.1,0.7
		c-0.6,0-0.9,0.1-0.9,0.7c0,0.4,0.3,0.7,0.7,0.9c0.6,0.3,0.9,0.3,1.3,0.3s0.7-0.3,0.7-0.6c0.1-0.4,0-0.7-0.3-1c-0.4-0.3,0-0.4,0-0.7
		c0.1-0.3,0.3,0,0.4,0c0.6,0.4,0.7,1.1,0.4,2C11.6,27.9,11,28.4,10.2,28.4z"/>
	<path class="st5" d="M38.8,14.5c0-1.3,1.3-2.6,2.6-2.3c0.9,0.3,1.4,1,1.3,1.8c0,0.1,0,0.4-0.1,0.3c-0.3-0.1-0.6,0-0.6-0.4
		s-0.1-0.7-0.6-0.9c-0.4-0.1-0.7,0-1,0.3s-0.6,0.6-0.6,1c-0.1,0.4,0,0.7,0.3,1s0.7,0.3,1,0c0.4-0.3,0.4,0.1,0.6,0.3
		c0.3,0.3-0.1,0.3-0.1,0.3c-0.6,0.3-1,0.3-1.7,0C39.1,15.6,38.8,15.2,38.8,14.5z"/>
	<path class="st4" d="M48.2,20c0.7,0,1.3,0.3,1.7,1c0.3,0.6,0.3,1.1,0,1.7c0,0.1-0.1,0.4-0.3,0.1c-0.1-0.1-0.6-0.3-0.3-0.6
		c0.3-0.3,0.1-0.6,0-0.9s-0.4-0.4-0.9-0.4c-0.6,0-1.1,0.3-1.4,0.7c-0.3,0.3-0.3,0.6-0.1,0.9c0.1,0.3,0.4,0.4,0.9,0.4
		c0.1,0,0.3-0.1,0.3,0s0.1,0.4,0.1,0.6c0,0.1-0.1,0-0.3,0.1c-0.7,0.1-1.1-0.3-1.7-0.9c-0.4-0.7-0.3-1.4,0.1-2
		C46.8,20.6,47.3,20.1,48.2,20z"/>
	<path class="st4" d="M34.3,10.1c-0.3,0-0.6-0.3-0.9,0c-0.1,0.1-0.1,0.4-0.1,0.7c-0.1,0.7-0.1,1.4-0.3,2.3c0,0.1,0,0.3-0.3,0.3
		c-0.1-0.1-0.6,0.1-0.4-0.3c0.1-0.9,0.1-1.6,0.3-2.6c0.1-0.6,0.1-0.6-0.4-0.6c-0.1,0-0.1,0-0.3,0c-0.3,0-0.3-0.1-0.3-0.4
		c0-0.4,0.3-0.3,0.4-0.3c0.7,0.1,1.7,0.1,2.4,0.3c0.1,0,0.4,0,0.3,0.3C34.6,9.9,34.6,10.1,34.3,10.1z"/>
	<path class="st4" d="M14.6,48.1c-0.1,0-0.1-0.1-0.3-0.3c-0.6-0.6-0.6-0.6,0-1.1c0.6-0.6,1.3-1.3,2-2c0.1-0.3,0.3-0.1,0.6,0
		c0.6,0.6,0.6,0.6,0,1.1c-0.6,0.6-1.3,1.3-2,2.1C14.6,47.9,14.6,47.9,14.6,48.1z"/>
	<path class="st5" d="M12,17.7c0.1,0.1,0.1,0.1,0.3,0.1c0.6,0.6,1.3,1,2,1.7c0.3,0.1,0.4,0.3,0.6,0c0.3-0.4,0.6-0.7,0.9-1
		c0.1-0.3,0.3,0,0.4,0c0.1,0.1,0.3,0.1,0.1,0.4c-0.4,0.6-1,1.1-1.4,1.8c-0.1,0.1-0.3,0.1-0.4,0c-0.9-0.7-1.8-1.4-2.7-2.1
		c0,0-0.3-0.1-0.1-0.3C11.7,18,11.9,17.9,12,17.7z"/>
	<path class="st6" d="M24.5,13.6c-0.1,0.1-0.4,0.1-0.6,0.3c-0.1,0.1-0.1,0-0.3-0.1c-0.4-1.1-0.7-2.3-1.1-3.4c-0.1-0.1,0-0.3,0.1-0.3
		s0.4-0.3,0.6,0C23.8,11.3,24.2,12.5,24.5,13.6L24.5,13.6z"/>
	<path class="st5" d="M44.9,20.8c-0.1-0.1-0.3-0.3-0.4-0.6c-0.1-0.1,0-0.1,0.1-0.3c0.9-0.7,2-1.3,2.8-2.1c0.3-0.3,0.3,0,0.4,0.1
		s0.3,0.3,0,0.4c-1,0.6-2,1.3-2.8,2.1C45.1,20.8,45.1,20.8,44.9,20.8z"/>
	<path class="st6" d="M11.6,38.6c0,0.1,0,0.1,0.1,0.3c0.1,0.1,0,0.3-0.1,0.3l0,0c-0.3,0.1-0.6,0.4-0.7,0.3c-0.3-0.1-0.3-0.6-0.4-0.9
		c0-0.1,0-0.1,0.1-0.1c0.4-0.1,0.7-0.4,1.1-0.4c0.3,0,0.6,0,0.9,0.3c0.1,0.1,0.3,0.1,0.1,0.3c-0.1,0.1-0.1,0.3-0.4,0.1
		C12,38.4,11.7,38.4,11.6,38.6z"/>
	<path class="st6" d="M12,39.8c0,0.1,0.3,0.4,0.1,0.4c-0.1,0.1-0.4,0.3-0.7,0.4c-0.1,0-0.1,0-0.1-0.1c-0.4-0.7-0.4-0.9,0.3-1.1
		c0.4-0.3,1-0.3,1.4,0.1c0.1,0.1,0.1,0.1,0,0.3c-0.1,0-0.1,0.3-0.3,0.1C12.6,39.7,12.3,39.7,12,39.8z"/>
	<path class="st6" d="M47.5,38.7c0-0.1,0.3-1,0.3-1s0,0,0.1,0c0.6,0,1.4,0.7,1.4,1.3c0,0.1,0,0.3-0.3,0.3s-0.3,0-0.3-0.3l0,0
		c0-0.1-0.1-0.4-0.3-0.4c-0.1,0-0.1,0.3-0.3,0.3C47.9,39.3,47.6,39,47.5,38.7z"/>
	<path class="st6" d="M48.3,39.3c0.4,0.3,0.6,0.6,0.7,1c0,0.3-0.1,0.3-0.3,0.3c-0.1,0-0.3,0-0.3-0.1s0-0.1-0.1-0.3
		c0-0.1-0.1-0.3-0.3-0.3c-0.1,0-0.1,0.1-0.1,0.1c-0.1,0.3-0.1,0.3-0.4,0.1c-0.7-0.3-0.7-0.3-0.4-1c0-0.1,0-0.3,0.3-0.3
		C47.6,39,47.9,39,48.3,39.3z"/>
	<path class="st7" d="M37.1,9.8c0.6-0.7,0.6-0.7,1.4-0.4C38.1,9.8,37.6,9.9,37.1,9.8z"/>
	<path class="st8" d="M48.3,39.3c-0.3-0.1-0.6-0.3-0.9-0.4c0,0,0,0,0.1-0.1c0.3,0,0.6,0.3,0.9,0.3C48.5,39.1,48.3,39.1,48.3,39.3z"
		/>
	<path class="st9" d="M29.8,49.1c-9.9-0.1-17.9-8.5-17.3-18.4c0.4-9.2,8.2-16.9,18.2-16.6c9.5,0.3,17.3,8.4,16.7,18.4
		C46.8,41.7,39.3,49.1,29.8,49.1z"/>
	<path class="st10" d="M19.5,48.4c0,0.4-0.6,1.1-0.9,1.3c-0.3,0.1-0.7-0.1-0.9-0.3c-0.1-0.1,0-0.1,0.1-0.3c0.3-0.4,0.6-0.9,0.9-1.3
		c0.1-0.1,0.3-0.1,0.4,0C19.1,47.8,19.5,48.1,19.5,48.4z"/>
	<path class="st11" d="M46.5,42.4c0.6,0.1,1,0.3,1.4,0.4v0.3c-0.4,0.6-0.4,0.6-0.9,0C46.9,43,46.8,42.8,46.5,42.4z"/>
	<path class="st12" d="M23,50.1c0,0.6,0,1-0.1,1.4c-0.3,0-0.4-0.1-0.7-0.3C22.2,50.8,22.7,50.5,23,50.1z"/>
	<path class="st2" d="M11.3,21c0.9,0,1.7,0.7,1.7,1.3c0,0.6-0.4,1-1,1c-0.9,0-1.7-0.7-1.7-1.3C10.3,21.4,10.8,20.8,11.3,21z"/>
	<path class="st2" d="M25.8,11.2c0-0.7,0.4-1.1,1-1.3c0.6,0,1,0.3,1.1,0.9c0.1,0.3,0.1,0.6,0,0.9c-0.1,0.4-0.4,0.9-0.9,0.9
		c-0.4,0-0.9-0.1-1-0.6C25.9,11.8,25.8,11.3,25.8,11.2z"/>
	<path class="st13" d="M50.9,26.2c0,0.6-0.6,1.1-1.7,1.1c-0.6,0-1-0.4-1.1-1c0-0.7,0.6-1.3,1.7-1.3C50.5,25.1,50.9,25.5,50.9,26.2z"
		/>
	<path class="st14" d="M45.6,31.6c0,8.8-6.9,15.7-15.9,15.7S14,40.3,14,31.6s7-15.7,15.8-15.9C38.7,15.7,45.6,22.8,45.6,31.6z"/>
	<path class="st15" d="M21.2,44.2c-0.6-0.4-1.1-0.9-1.8-1.4c0-0.1,0.1-0.1,0.3-0.1c0.9-0.1,1.7-0.3,2.6-0.3c1-0.1,2-0.1,3-0.1
		c0.6,0,1,0,1.7,0.1c0.1,0,0.3,0,0.4,0s0.3,0,0.4,0.1c0.4,0.1,0.4,0.1,0.6-0.3c0.1-0.6,0.1-1,0.3-1.7c0-0.1,0-0.4,0.1-0.6
		c0.1-0.1,0.3,0,0.4,0.1s0.3,0.3,0.4,0.4c0,0.1,0.1,0.1,0.1,0.3V41c-0.1,0.6-0.3,1.1-0.3,1.8c0,0.3-0.3,0.4-0.1,0.7
		c0.1,0.1,0.3,0.4,0.4,0.6c0,0,0,0.1,0.1,0.1c0,0.1,0,0.1,0.1,0.3v-0.1c0.3-0.6,0.6-1,1.1-1.3c0.3-0.3,0.7-0.3,1.1-0.6
		c0.1,0,0.4,0,0.6-0.1c1.1-0.1,2.4-0.1,3.5-0.1s2.3,0.1,3.3,0.3c0.1,0,0.4,0,0.4,0.3c-0.6,0.6-1.1,1-1.8,1.4c-0.6,0.1-1.3,0-2,0
		c-1.1-0.1-2.4,0-3.5,0.3c-0.1,0-0.3,0.1-0.4,0.1c-0.9,0.4-1.7,0.4-2.4,0.4c-1.1,0-2.3,0-3.4-0.6c-1.1-0.4-2.4-0.4-3.7-0.3
		C22.7,44.2,22,44.4,21.2,44.2z"/>
	<path class="st16" d="M41.4,41.4c-0.4,0.4-0.7,0.9-1.3,1.1c-0.6,0-1-0.1-1.4-0.1c-1.1-0.1-2.3-0.3-3.4-0.3c-0.4,0-0.7,0-1.1,0
		c-0.1-0.3,0-0.1,0.1-0.1c0.3,0,0.6,0,0.9,0c0.6,0,0.6,0,0.4-0.6c-0.1-0.6-0.1-1.1-0.1-1.8h0.1c0.7,0.1,1.3,0.1,2.1,0.1
		c0.3,0,0.6,0,1,0c0.3,0,0.6,0.1,0.9,0.3c0.4,0.3,1,0.6,1.4,0.9C41.2,41.1,41.4,41.3,41.4,41.4z"/>
	<path class="st16" d="M19.4,42.5c-0.4-0.3-0.7-0.7-1.1-1.1c0-0.1,0.1-0.3,0.3-0.3c0.6-0.3,1.1-0.6,1.7-1c0.3-0.3,0.7-0.3,1.1-0.3
		c0.7,0.1,1.4,0,2.3-0.1c0.1,0,0.4,0,0.6,0c0.4,0.1,0.4,0.3,0.3,0.7c-0.1,0.3-0.1,0.6-0.1,0.7c-0.1,0.3-0.1,0.6,0.1,0.9
		c-0.1,0.1-0.3,0-0.3,0c-1.1,0-2.4,0.1-3.7,0.3C20.1,42.5,19.8,42.8,19.4,42.5z"/>
	<path class="st17" d="M14.6,33c0-0.9-0.1-1.8,0-2.7c0.1-0.1,0.1-0.1,0.3-0.1c0.7-0.1,1.7-0.3,2.4-0.4c0.6,0,1.1-0.3,1.8-0.3
		c0.1,0,0.1,0.1,0.1,0.1c-0.1,0.3,0,0.6-0.1,0.9c0,0.1,0.1,0.3,0.3,0.4c0.1,0.1,0.3,0.1,0.3,0.3c-0.1,0.3-0.4,0.4-0.7,0.4
		c-0.4,0.1-0.9,0.3-1.3,0.4c-0.7,0.3-1.7,0.6-2.4,0.9C15,33.3,14.9,33.3,14.6,33z"/>
	<path class="st18" d="M43.1,38.7c0.1,0.1,0,0.1,0,0.3c-0.4,0.6-0.7,1.1-1.1,1.8C41.8,41,41.8,41,41.7,41c-0.4,0-0.7-0.3-1-0.6
		c-0.4-0.6-1-1.3-1.7-2c-0.1-0.1-0.3-0.3-0.1-0.4l0,0c0.4,0.1,0.7-0.1,0.9-0.4c0.1-0.3,0.4-0.6,0.7-1c0.4,0,0.6,0.4,0.9,0.6
		c0.6,0.4,1,0.9,1.7,1.3C43,38.6,43.1,38.7,43.1,38.7z"/>
	<path class="st19" d="M14.9,28.9c0-0.9,0.3-1.7,0.6-2.6c0.3-0.1,0.4-0.1,0.7-0.1c0.7,0.1,1.7,0.1,2.4,0.1c0.4,0.1,1,0.1,1.4,0.1
		c0.1,0,0.4,0,0.4,0.1c0,0.3-0.3,0.1-0.3,0.1c-0.1,0-0.3,0-0.4,0s-0.3,0.1-0.1,0.3c0.1,0.3-0.1,0.7,0.1,1c0,0,0,0.1,0,0.3
		c-0.6,0.3-1.1,0.3-1.7,0.3c-0.6,0.1-1.1,0-1.8,0.1c-0.3,0-0.7,0-1,0.1C15.2,29.1,15,29.1,14.9,28.9z"/>
	<path class="st20" d="M18,41.3c-0.6-0.6-1-1.3-1.4-2.1c-0.1-0.1-0.1-0.3,0-0.3c0.4-0.6,1.1-1,1.8-1.7c0.3-0.1,0.4-0.4,0.7-0.4
		c0.3,0.6,0.7,1,1.3,1.4c0.1,0.1,0.3,0.1,0.3,0.3s-0.1,0.3-0.1,0.4c-0.4,0.4-0.9,1-1.1,1.4C18.8,40.8,18.6,41.1,18,41.3z"/>
	<path class="st21" d="M28.9,16.3c0.6-0.1,1.3-0.1,2,0c0.1,0.1,0.1,0.3,0.1,0.6c-0.1,0.7-0.1,1.4-0.1,2.3c0,0.1,0,0.3,0.1,0.4
		c0.1,0,0.3-0.1,0.3-0.3c0.1-0.3,0-0.6,0.3-0.9c0.4-0.3,0.7-0.3,1.1,0c0.3,0.1,0.4,0.3,0.3,0.6c0,0.4-0.3,0.7-0.4,1.1
		c0,0.1-0.1,0.1-0.3,0.1s-0.1-0.1-0.1-0.3c0.1-0.1,0-0.1-0.3-0.1s-0.4,0.1-0.4,0.4c-0.1,0.4-0.1,0.9-0.3,1.3c0,0.3-0.1,0.6-0.4,0.4
		c-0.3,0-0.3-0.3-0.3-0.6c0-0.3,0-0.7,0.1-1c0-0.1,0-0.3,0-0.4c-0.1-0.4-0.4-0.6-0.9-0.4c-0.1,0-0.1,0.1-0.4,0.1
		c-0.3-0.4-0.1-1-0.3-1.4c0-0.1,0-0.4,0-0.6C28.9,17.3,28.6,16.7,28.9,16.3z"/>
	<path class="st22" d="M44.7,34.6c0.1,0.1,0,0.3,0,0.4c-0.1,0.9-0.4,1.7-0.7,2.4c-0.1,0.1-0.3,0-0.4-0.1c-0.4-0.3-0.7-0.6-1.1-0.9
		c-0.6-0.4-1.1-0.7-1.7-1.3V35c0.6,0.1,0.6-0.3,0.9-0.6s0.3-0.7,0.3-1.1c0.4,0,0.7,0.3,1,0.4C43.5,34,44.1,34.2,44.7,34.6z"/>
	<path class="st23" d="M40.3,20.6c0.6,0.4,1,1,1.4,1.7c0,0.1-0.1,0.3-0.3,0.3c-0.3,0.1-0.7,0.4-1.1,0.6c-0.9,0.4-1.7,0.7-2.6,1.1
		c-0.1,0-0.3,0.1-0.4,0c0,0,0,0,0-0.1c0-0.6-0.3-0.7-0.9-0.9c-0.1-0.1,0-0.1,0.1-0.3c0.3-0.3,0.6-0.4,1-0.7c0.7-0.6,1.7-1,2.4-1.7
		C40.1,20.6,40.1,20.6,40.3,20.6z"/>
	<path class="st24" d="M15.7,37.6c-0.3-0.9-0.6-1.7-0.7-2.6c0-0.1-0.1-0.3,0-0.4c0.7-0.4,1.7-0.7,2.4-1.1h0.1c0,0,0.1,0.1,0,0.1
		c-0.3,0.3-0.1,0.6,0.1,0.9c0.3,0.4,0.4,0.9,0.9,1c0,0.3-0.1,0.3-0.3,0.4c-0.3,0.1-0.6,0.3-0.9,0.6c-0.4,0.3-0.9,0.6-1.3,0.9
		C16.1,37.4,15.9,37.6,15.7,37.6z"/>
	<path class="st25" d="M44.2,26.5c0.3,0.7,0.6,1.7,0.6,2.6c-0.1,0.1-0.3,0.1-0.4,0.1c-0.3,0-0.7,0-1-0.1c-0.6-0.1-1.1,0-1.7-0.1
		c-0.1,0-0.4,0-0.4-0.1l0,0c0.3-0.6,0-1.3-0.1-2l0,0c0.3-0.1,0.6-0.1,0.7-0.1s0.3,0,0.4,0c0.4,0,0.9,0,1.1-0.1
		C43.8,26.4,43.9,26.2,44.2,26.5z"/>
	<path class="st26" d="M42.7,23.1c0.3,0.6,0.7,1.1,1,2c0,0.3-0.3,0.3-0.4,0.3c-0.3,0.1-0.7,0.1-1.1,0.1c-0.6,0-1.1,0.1-1.7,0.3
		c-0.1,0-0.3,0.1-0.6,0c-0.1-0.1-0.1-0.1,0-0.3c0.1-0.4,0-0.9-0.3-1.1l-0.1-0.1c0-0.1,0.3-0.3,0.4-0.3c0.3-0.1,0.6-0.1,0.9-0.3
		c0.4-0.1,1-0.3,1.4-0.6C42.4,23.1,42.5,23,42.7,23.1z"/>
	<path class="st27" d="M37.7,18.6c0.6,0.3,1,0.7,1.7,1c0.1,0.3-0.1,0.3-0.1,0.4c-0.6,0.6-1.1,1-1.8,1.4c-0.3,0.1-0.6,0.6-0.9,0.7
		c-0.1,0.1-0.1,0.3-0.3,0.1v-0.1c-0.1-0.6-0.1-0.7-0.7-0.7h-0.1c-0.1-0.1,0-0.3,0.1-0.4c0.4-0.4,0.9-0.9,1.1-1.4
		c0.3-0.4,0.7-0.7,1-1.1C37.4,18.6,37.6,18.4,37.7,18.6z"/>
	<path class="st28" d="M15.9,25.1c0.3-0.7,0.7-1.3,1.1-2.1c0.1-0.1,0.1,0,0.3,0c0.9,0.3,1.7,0.6,2.6,0.9c0.1,0,0.1,0.1,0.3,0.1v0.1
		c-0.4,0.1-0.4,0.6-0.6,1c0,0.1,0,0.3,0.1,0.4c0,0.1,0.1,0.1,0,0.3c-0.4,0.1-0.7-0.1-1-0.1c-0.7-0.1-1.4-0.3-2.3-0.4
		C16.3,25.4,16.1,25.4,15.9,25.1z"/>
	<path class="st29" d="M20.4,19.6c0.4-0.4,1-0.9,1.7-1.1c0.3-0.1,0.3,0.1,0.4,0.3c0.4,0.4,0.7,0.9,1,1.3c0.3,0.3,0.4,0.6,0.7,0.9
		c0.1,0.1,0.3,0.3,0.1,0.4c-0.1,0.1-0.4,0-0.6,0c-0.4,0.1-0.4,0.4-0.4,0.9c-0.1,0.1-0.3,0-0.4-0.1c-0.3-0.3-0.6-0.6-1-0.7
		c-0.4-0.4-1-0.9-1.4-1.3C20.5,19.8,20.4,19.8,20.4,19.6z"/>
	<path class="st30" d="M21.2,44.2c1.7-0.1,3.3-0.3,5,0c0.6,0.1,1,0.1,1.7,0.4c0.3,0.3,0.7,0.3,1,0.3c0.7-0.1,1.4,0,2.4,0
		c0.1,0,0.3,0,0.4-0.1c0.7-0.6,1.7-0.7,2.6-0.7c1.3-0.1,2.8,0,4.1,0.1c-0.6,0.4-1.1,0.3-1.7,0.3c-0.3,0-0.4,0-0.7,0
		c-0.6,0.1-1.3,0-2,0.1c-0.4,0.1-0.7,0.3-1.1,0.3c-0.4,0.3-1,0.6-1.4,0.6c-0.3,0.1-0.4,0.1-0.7,0.1c-0.4-0.1-1-0.1-1.4,0
		c-0.3,0-0.4,0.1-0.7-0.1c-0.6,0-0.9-0.3-1.3-0.6h-0.1c-0.3,0-0.6-0.1-0.9-0.1c-0.6-0.1-1.1-0.1-1.7-0.1c-0.1,0-0.3,0-0.4,0
		c-0.4,0-0.9,0-1.3,0C22,44.5,21.5,44.5,21.2,44.2z"/>
	<path class="st31" d="M45.1,30.5c0.1,0.9,0.1,2,0,2.8c-0.1,0.1-0.3,0-0.4,0c-0.7-0.3-1.4-0.4-2.3-0.9c-0.1-0.1-0.3-0.1-0.3-0.3
		c0.4-0.6,0.9-1.1,0.6-2V30h0.1c0.6,0,1.3,0.1,2,0.3C44.9,30.3,45.1,30.3,45.1,30.5z"/>
	<path class="st27" d="M34.9,17.3c0.6,0.1,1.1,0.4,1.7,0.7c0.1,0.1,0,0.3,0,0.4c-0.3,0.3-0.4,0.7-0.7,1c-0.3,0.6-0.7,1-1,1.4
		c-0.1,0.1-0.1,0.3-0.4,0.3c-0.1-0.6-0.1-0.6-0.7-0.7c-0.1,0-0.3,0-0.3-0.1c-0.1-0.3,0.1-0.4,0.1-0.6c0-0.1,0.1-0.3,0.1-0.4
		c0.3-0.6,0.6-1.1,0.9-1.7C34.6,17.4,34.7,17,34.9,17.3z"/>
	<path class="st23" d="M23.1,17.9c0.6-0.3,1.1-0.6,2-0.7c0.4,0.4,0.4,1,0.7,1.4c0.1,0.3,0.4,0.7,0.6,1c0.1,0.1,0.1,0.3,0.1,0.6
		c-0.6-0.1-0.9,0.3-1,0.9l0,0c-0.1,0-0.3-0.1-0.3-0.3c-0.3-0.4-0.6-0.9-0.9-1.1c-0.3-0.4-0.6-0.7-0.9-1.1
		C23.2,18.3,23.1,18.1,23.1,17.9z"/>
	<path class="st32" d="M26.1,16.7c0.6-0.1,1.1-0.3,2-0.3c0.1,0.1,0.1,0.3,0.3,0.4c0.1,0.4,0.1,0.9,0.3,1.3c0,0.3,0.1,0.6,0.1,1
		c0,0.1,0.1,0.3,0,0.4s-0.1,0.1-0.3,0c-0.7-0.1-0.7,0-1,0.4c-0.3,0-0.3-0.3-0.3-0.3c-0.1-0.6-0.4-1-0.6-1.7c-0.1-0.3-0.3-0.7-0.3-1
		C26.1,17,25.9,16.9,26.1,16.7z"/>
	<path class="st33" d="M18,22c0.4-0.6,0.9-1,1.4-1.4c0.1-0.1,0.3,0,0.3,0c0.6,0.4,1.1,0.9,2,1.3c0.1,0,0.3,0.1,0.1,0.3
		c0,0-0.1,0.1-0.1,0c-0.6-0.1-0.7,0.4-1,0.7c-0.1,0.1,0.1,0.3,0,0.4s-0.3,0-0.3,0c-0.7-0.3-1.3-0.6-2.1-1C18.1,22.3,17.8,22.3,18,22
		z"/>
	<path class="st34" d="M23.8,44.5c1-0.1,2.1-0.1,3.1,0.3c-0.1,0.4-0.1,0.9-0.3,1.3c0,0.1-0.1,0.3-0.3,0.1c-0.9-0.1-1.8-0.6-2.7-0.9
		c-0.1-0.1-0.1-0.1-0.1-0.3C23.7,45,23.7,44.7,23.8,44.5z"/>
	<path class="st35" d="M33,44.8c1-0.4,2.1-0.4,3.1-0.3c0.3,0.9,0.3,0.9-0.6,1.3c-0.6,0.1-1,0.4-1.7,0.6c-0.3,0.1-0.6,0.1-0.6-0.3
		C33.2,45.5,33,45.2,33,44.8z"/>
	<path class="st35" d="M28.3,45.4c1-0.1,2-0.1,3,0c0.1,0.3,0,0.7,0.1,1c0,0.1-0.1,0.3-0.3,0.3c-0.9,0-1.8,0-2.7,0
		c-0.1,0-0.3-0.1-0.3-0.3C28.2,46.2,28.2,45.8,28.3,45.4z"/>
	<path class="st36" d="M17.6,33.6c-0.7,0.3-1.4,0.6-2.3,1c-0.1,0-0.3,0.1-0.4,0.1c-0.1-0.3-0.1-0.6-0.3-0.9
		c-0.1-0.1-0.1-0.3-0.1-0.4c0.9-0.1,1.7-0.6,2.6-0.9c0.1,0,0.3-0.1,0.4-0.1c0,0.3,0.1,0.6,0.4,0.7c0.1,0,0.1,0.1,0.1,0.3
		C18,33.5,17.7,33.6,17.6,33.6z"/>
	<path class="st37" d="M42.4,32.2c0.9,0.3,1.8,0.6,2.7,0.9C45,33.4,45,33.7,45,34c0,0.1-0.1,0.3-0.1,0.4c-0.9-0.4-1.8-0.9-2.7-1.1
		C42,33.2,42,33,41.8,33h-0.1C41.8,32.8,42.1,32.5,42.4,32.2z"/>
	<path class="st38" d="M18,22c0.1,0.3,0.4,0.3,0.7,0.4c0.6,0.3,1.3,0.6,2,0.9c0.1,0,0.1,0,0.1,0.1c0.1,0.3,0,0.4,0,0.7
		c0,0.1-0.1,0.3-0.3,0.3c-0.1,0-0.3,0-0.4-0.1c-1-0.4-2.1-0.7-3.1-1C17.4,22.7,17.7,22.4,18,22z"/>
	<path class="st39" d="M33,19.1c0-0.4-0.6-0.9-1-0.7c-0.1,0-0.3,0.1-0.4,0.1c-0.1-0.1-0.1-0.3-0.1-0.4c0-0.4,0.1-0.9,0.3-1.1
		c0-0.3,0.1-0.4,0.6-0.3c0.4,0,1,0.1,1.4,0.3c0.3,0.1,0.1,0.3,0.1,0.4c-0.1,0.4-0.3,0.9-0.4,1.4C33.2,18.9,33.2,19.1,33,19.1z"/>
	<path class="st40" d="M15.9,25.1c0.4,0.3,0.9,0.1,1.3,0.3c0.4,0.1,0.9,0.1,1.3,0.3c0.1,0.3,0,0.4,0.1,0.7c0,0.1,0,0.3-0.1,0.3
		c-1,0-2.1-0.3-3.1-0.1C15.6,25.9,15.7,25.5,15.9,25.1z"/>
	<path class="st41" d="M14.9,28.9c0.4,0,1,0,1.4-0.1c0.6-0.1,1,0.3,1.1,0.7c0,0.1,0,0.1-0.1,0.3c-0.9,0.1-1.8,0.3-2.7,0.4
		C14.6,30.1,14.7,29.4,14.9,28.9z"/>
	<path class="st42" d="M15.7,37.6c0.6-0.3,1.1-0.7,1.8-1c0.4,0.1,0.7,0.4,0.9,0.9c-0.6,0.4-1.1,1-1.8,1.4
		C16.4,38.3,16.1,37.9,15.7,37.6z"/>
	<path class="st43" d="M42.4,36.4c0.4,0.3,0.7,0.6,1.1,0.9c0.1,0.1,0.3,0.3,0.4,0.1c-0.3,0.4-0.7,0.9-0.9,1.3c-0.6-0.4-1.1-1-2-1.4
		C41.5,37,42,36.6,42.4,36.4z"/>
	<path class="st44" d="M37.3,21.5c0.6-0.6,1.1-1,1.8-1.7c0.1-0.1,0.3-0.1,0.3-0.4c0.3,0.3,0.6,0.6,0.9,0.9c-0.9,0.6-1.8,1.1-2.6,1.8
		C37.3,22.3,37.3,22.1,37.3,21.5z"/>
	<path class="st45" d="M32.3,16.4c-0.1,0-0.3,0-0.4,0.3c-0.1,0.6-0.1,1.1-0.3,1.7c-0.1,0.3-0.1,0.6-0.1,0.9s-0.1,0.4-0.4,0.4
		s-0.3-0.3-0.3-0.6c0.1-0.9,0.1-2,0.3-2.8C31.3,16.3,31.7,16.3,32.3,16.4z"/>
	<path class="st46" d="M21.8,22.1c-0.7-0.6-1.4-1.1-2.4-1.7c0.3-0.3,0.6-0.6,0.9-0.9c0.4,0.6,1.1,1,1.8,1.4l0.1,0.1
		C22.1,21.5,22.2,22,21.8,22.1L21.8,22.1z"/>
	<path class="st47" d="M45.1,30.5c-0.7-0.1-1.4-0.3-2.3-0.4c0,0,0,0-0.1,0c-0.1-0.3,0.3-1,0.6-1c0.4,0,1,0,1.4,0.1
		C45.1,29.4,45.1,29.8,45.1,30.5z"/>
	<path class="st48" d="M42.2,25.5c0.4-0.1,0.7-0.1,1.1-0.3c0.1,0,0.3,0,0.3-0.1c0.3,0.4,0.3,0.9,0.6,1.3c-0.6-0.1-1.3,0.1-2,0.1
		C42,26.7,42,26.4,42,26.2C42,25.9,42,25.8,42.2,25.5z"/>
	<path class="st49" d="M42.7,23.1c-0.4,0-0.9,0.3-1.3,0.3c-0.3,0-0.4,0.1-0.7,0.3c-0.3,0.1-0.3-0.1-0.3-0.3c0-0.3-0.1-0.4,0.1-0.7
		c0.4-0.3,1-0.4,1.4-0.7C42.1,22.4,42.4,22.8,42.7,23.1z"/>
	<path class="st50" d="M23.1,17.9c0.3,0.6,0.7,1,1,1.7c0.1,0.4-0.1,0.7-0.6,0.6c-0.3-0.4-0.7-0.7-1-1.1c-0.1-0.1-0.3-0.4-0.4-0.4
		C22.2,18.3,22.8,18,23.1,17.9z"/>
	<path class="st51" d="M33.2,18.7c0.1-0.4,0.3-1,0.4-1.4c0-0.1,0.1-0.3,0-0.4c0.4,0.1,0.9,0.1,1.3,0.4c-0.1,0-0.1,0.1-0.3,0.3
		c-0.3,0.6-0.6,1.1-0.9,1.7C33.4,19.3,33.3,19,33.2,18.7z"/>
	<path class="st52" d="M35.9,19.3c0.3-0.4,0.6-0.9,0.9-1.3c0.3,0.1,0.7,0.3,1,0.6c-0.4,0.4-0.7,0.9-1.1,1.3
		C36.1,19.8,35.9,19.7,35.9,19.3z"/>
	<path class="st53" d="M28.2,18.3c-0.1-0.6-0.3-1.1-0.3-1.8c0.3-0.1,0.7-0.1,1-0.1c0.1,0.4,0.1,0.9,0.1,1.3c0,0.3,0.1,0.6-0.1,0.7
		C28.5,18.4,28.3,18.4,28.2,18.3z"/>
	<path class="st54" d="M26.1,16.7c0,0.4,0.3,0.9,0.4,1.4c-0.1,0.4-0.4,0.6-0.7,0.3c-0.3-0.4-0.4-0.9-0.7-1.4
		C25.2,16.9,25.8,16.9,26.1,16.7z"/>
	<path class="st55" d="M19.4,42.5c0.7-0.1,1.7-0.1,2.4-0.3c0.7-0.1,1.7-0.1,2.4-0.1c0.1,0,0.3,0,0.3-0.1l0.1-0.1
		c0.7-0.1,1.4,0,2.3,0.1c0.1,0,0.1,0.1,0.1,0.1C25.9,42,24.7,42,23.5,42c-1.3,0.1-2.7,0.1-4,0.4C19.5,42.8,19.4,42.8,19.4,42.5z"/>
	<path class="st56" d="M34,42.1c0.6,0,1,0,1.7,0c1.4,0,3.1,0.1,4.5,0.4c0,0,0,0.1-0.1,0.1c-0.6-0.3-1.1-0.3-1.8-0.3
		c-1.4-0.1-3-0.1-4.5-0.1c-0.3,0-0.6,0.1-1,0.1C33,42,33.6,42,34,42.1z"/>
	<path class="st57" d="M18,41.3c0.4-0.3,0.9-0.4,1.1-0.9c0.3-0.1,0.6-0.4,1-0.1c-0.6,0.4-1.3,0.7-2,1.1C18.1,41.4,18,41.4,18,41.3z"
		/>
	<path class="st58" d="M40.5,40.4c0.3,0.3,0.6,0.4,0.9,0.7c-0.1,0.1,0.1,0.1,0,0.3c-0.6-0.4-1.3-0.7-2-1.1
		C40,40,40.3,40.3,40.5,40.4z"/>
	<path class="st59" d="M34,42.1c-0.4,0-0.9,0-1.3,0.1c-0.1,0.1-0.3,0-0.4,0.1c-0.1-0.1-0.1-0.4-0.3-0.7c-0.1-0.6-0.1-1.1-0.3-2
		c0-0.3,0.1-0.4,0.3-0.4h0.1c0.1-0.1,0.4-0.1,0.6,0c0.4,0.1,0.7,0,1.1,0.1c0.6,0,1,0,1.7,0.3c0,0.1,0.3,0.1,0,0.4
		c-0.1,0.3,0,0.7,0.1,1c0.3,1,0.3,1-0.6,1C34.6,42.1,34.3,42,34,42.1z"/>
	<path class="st60" d="M27.1,42.4c-0.1-0.3-0.4-0.3-0.7-0.3c-0.6,0-1.1-0.1-2-0.1c-0.3,0-0.4-0.1-0.3-0.4c0.1-0.4,0.1-1,0.3-1.4
		c0.1-0.3-0.3-0.1-0.3-0.3c0-0.1,0.1-0.1,0.1-0.1c0.6-0.1,1.1-0.1,1.7-0.3c0.4,0,0.9-0.1,1.3-0.1c0.1,0,0.3,0,0.4,0.1
		c0.1,0.3,0.4,0.4,0.1,0.7c0,0,0,0.1,0,0.3c0,0.6-0.1,1-0.3,1.4C27.4,42,27.3,42.3,27.1,42.4C27.3,42.4,27.2,42.4,27.1,42.4z"/>
	<path class="st61" d="M32.2,39.4c-0.3,0.1-0.3,0.3-0.3,0.6c0.1,0.7,0.3,1.7,0.4,2.4c-0.3,0.3-0.9,0.1-1,0.4l0,0
		c-0.1-0.3-0.3-0.6-0.3-1c-0.1-0.4-0.1-1-0.3-1.4c0-0.1,0-0.4,0.1-0.6c0.1-0.1,0.4-0.4,0.7-0.4C31.5,39.4,31.7,39.1,32.2,39.4z"/>
	<path class="st62" d="M27.5,42.4c0.3-0.4,0.3-1,0.4-1.7c0-0.1,0.1-0.4,0-0.7l0,0c0.6-0.1,0.1-0.3,0.1-0.6c0.1-0.1,0.1-0.1,0.3-0.1
		s0.4,0.1,0.6,0.1c0.1,0,0.1,0.1,0.1,0.3c-0.3,0.7-0.3,1.4-0.4,2.3c0,0.1-0.1,0.3-0.1,0.3c0,0.3-0.1,0.3-0.4,0.3
		C27.8,42.5,27.6,42.4,27.5,42.4z"/>
	<path class="st63" d="M29.8,44.2c-0.1-0.3-0.3-0.6-0.6-0.7l-0.1-0.1c0.4-0.6,0.3-1.3,0.6-2.1c0-0.1,0.1-0.3,0.1-0.4
		c0.1,0.1,0.1,0.3,0.1,0.4c0,0.7,0,1.7,0,2.4C29.9,44,30,44.1,29.8,44.2z"/>
	<path class="st63" d="M29.9,40.7C29.8,40.7,29.8,40.7,29.9,40.7C29.9,40.6,29.9,40.6,29.9,40.7c0.1-0.1,0.3-0.2,0.3-0.4
		c0.1,0,0.1-0.1,0.1,0c-0.3,0.6-0.3,1.1,0,1.8c0.1,0.3,0.1,0.6,0.1,1c0.3,0,0.3-0.3,0.6-0.1l0,0c-0.4,0.3-0.9,0.7-1.1,1.1
		c-0.3,0-0.1-0.1-0.1-0.3c0-0.9,0-2,0-2.8C29.9,41,30,40.8,29.9,40.7z"/>
	<path class="st64" d="M29.9,40.7C30,40.7,30,41,30,41c0,0.9,0,1.8,0,2.7c0,0.1,0,0.3,0.1,0.4c0,0.1,0,0.3-0.1,0.3
		c-0.1-0.1-0.1-0.3-0.1-0.4l0.1-0.1C29.9,43,29.9,41.8,29.9,40.7C29.9,40.8,29.9,40.8,29.9,40.7z"/>
	<path class="st65" d="M29.1,40c0,0-0.1,0-0.1-0.1c0.4-0.1,0.9,0.3,1,0.9l0,0C29.6,40.4,29.3,40.1,29.1,40z"/>
	<path class="st66" d="M40.5,40.4c-0.3,0-0.6-0.3-1-0.1c-0.6-0.4-1.3-0.1-2-0.3v-0.1c0.1-0.1,0.3,0,0.4-0.1
		c-0.3-0.6-0.7-0.9-0.9-1.4c0.1-0.6,0.4-0.7,1-0.6c0.1,0.1,0.4,0.3,0.4,0.4c0.4,0.7,1.1,1.3,1.7,2.1C40.4,40.3,40.5,40.4,40.5,40.4z
		"/>
	<path class="st67" d="M35.6,39.8c-0.6-0.1-1-0.1-1.7-0.1v-0.1c0.1-0.1,0-0.3,0-0.4c-0.1-0.6-0.4-1-0.6-1.7c0-0.1-0.1-0.3,0-0.4
		c0.3-0.1,0.6,0,0.9,0c0.1,0.1,0.1,0.3,0.3,0.3C34.9,38.1,35.1,39.1,35.6,39.8L35.6,39.8L35.6,39.8z"/>
	<path class="st68" d="M37.7,40L37.7,40c-0.7,0-1.3,0-2.1-0.1l0,0c0.3-0.1,0.4-0.1,0.7-0.1C36.9,39.7,37.3,39.7,37.7,40z"/>
	<path class="st69" d="M20.3,40.3c-0.3-0.1-0.6,0.3-1,0.1c0.4-0.6,0.9-1,1.3-1.4c0.1-0.1,0.1-0.1,0.3-0.3c0-0.3,0.3-0.4,0.4-0.6
		c0.4,0.1,0.7,0.4,0.9,0.9c-0.1,0.4-0.4,0.6-0.6,1c0,0.1-0.1,0.1-0.3,0.1C21,40,20.5,40.1,20.3,40.3z"/>
	<path class="st70" d="M21.2,40l0.1-0.1c0.6,0,1.3-0.1,2,0c0,0,0.1,0,0.1,0.1C22.8,40,22,40.3,21.2,40z"/>
	<path class="st70" d="M24.4,39.8c0,0-0.1,0-0.1,0.1c-0.3,0-0.4,0-0.6,0l0,0c0.1-0.3,0.4-0.1,0.7-0.3V39.8z"/>
	<path class="st71" d="M19.7,31.3c-0.6-0.1-0.6-0.4-0.6-1c0-0.3-0.1-0.6,0.1-0.7c0.3-0.3,0.7-0.3,1-0.3c0.6,0,1.1-0.3,1.8-0.3
		c0.1,0,0.1,0.1,0.1,0.3c0,0.4,0,0.7,0.4,0.9c0,0,0,0,0,0.1c-0.1,0.3-0.3,0.3-0.6,0.3c-0.7,0.3-1.4,0.6-2.4,0.9
		C19.8,31.5,19.8,31.5,19.7,31.3z"/>
	<path class="st72" d="M20.4,29.4c-0.3,0-0.7,0.1-1,0.1c-0.6,0.1-1.1,0.1-2,0.3c0.1-0.4-0.4-1-1-1c0.6-0.1,1.1-0.1,1.8-0.1
		c0.6-0.1,1,0,1.7-0.1c0.1-0.1,0.3-0.1,0.4,0C20.4,28.8,20.5,29.1,20.4,29.4z"/>
	<path class="st73" d="M19.7,31.3c0.1,0,0.1,0,0.3,0c0.1,0.3,0.1,0.6,0.3,0.9c0,0.1-0.1,0.1-0.1,0.3c-0.4,0.1-1,0.4-1.4,0.6
		c-0.1,0-0.3,0.1-0.4,0.1c0-0.1-0.1-0.1-0.1-0.1C18,33,17.9,32.7,18,32.4c0.6-0.3,1.1-0.4,1.8-0.6C19.5,31.5,19.7,31.5,19.7,31.3z"
		/>
	<path class="st26" d="M38.7,38.1c-0.1-0.1-0.3-0.3-0.4-0.4c-0.3-0.1-0.4-0.4-0.7-0.7s-0.4-0.6-0.7-0.9c-0.1-0.1-0.1-0.1-0.1-0.4
		c0.1-0.1,0.4,0,0.6-0.3c0.3-0.3,0.6-0.6,0.4-1c0.1-0.1,0.1,0,0.3,0c0.6,0.4,1.1,1,1.8,1.4c0.1,0.3,0.4,0.4,0.6,0.7
		c0,0.1,0,0.1,0,0.3c-0.4,0.3-0.6,0.9-0.9,1.1c-0.1,0.1-0.3,0.3-0.4,0.1C39,38.1,38.8,38.1,38.7,38.1z"/>
	<path class="st74" d="M40.4,36.6c-0.3-0.1-0.4-0.4-0.6-0.6c0.1-0.3,0.6-0.7,0.9-0.7c0.6,0.3,1.1,0.7,1.8,1.1
		c-0.3,0.3-0.6,0.7-1,0.9C41,37.2,40.7,36.9,40.4,36.6z"/>
	<path class="st75" d="M20.3,28.5c-0.1,0-0.3,0-0.4,0c-0.4-0.3-0.1-0.9-0.3-1.3c-0.1-0.1,0.1-0.1,0.1-0.3c0.3-0.1,0.7-0.1,1-0.1
		c0.3-0.1,0.6-0.1,0.9-0.1c0.6,0.1,1,0.1,1.7,0.1c0.1,0,0.4,0,0.6,0.1c0.1,0.4,0.1,0.7,0,1.1c-0.4,0.3-0.9,0.1-1.1,0.1
		c-0.6,0.1-1.3,0.1-2,0.1C20.4,28.6,20.3,28.6,20.3,28.5z"/>
	<path class="st76" d="M21.4,26.9c-0.3,0-0.6,0-0.9,0c-0.4-0.1-1-0.1-1.4-0.1c-0.1,0-0.3,0-0.6-0.1c0.1-0.1,0-0.3,0-0.4s0-0.3,0-0.6
		c0.4,0,0.7,0.1,1,0.1c0,0,0.1-0.1,0.1,0c0.6,0.1,1.3,0.1,2,0.4c0,0.1,0.1,0.1,0.1,0.3C22,26.9,21.8,27.1,21.4,26.9z"/>
	<path class="st77" d="M21.2,38c-0.1,0.1-0.4,0.3-0.4,0.6c-0.7-0.1-1-0.9-1.7-1.3c-0.1-0.1,0-0.3-0.1-0.4c0-0.3,0.3-0.3,0.4-0.6
		c0.1-0.1,0.3-0.3,0.4-0.3c0.4-0.4,1-0.9,1.7-1.3c0.1-0.1,0.1-0.1,0.4-0.1c0,0.3,0.1,0.6,0.4,0.6c0.1,0.6,0.6,0.4,0.9,0.3
		c0.1,0.3-0.1,0.3-0.3,0.4c-0.4,0.6-1,1.1-1.4,1.8C21.5,37.9,21.4,38,21.2,38z"/>
	<path class="st78" d="M20.1,35.9c-0.3,0.3-0.6,0.6-0.9,0.9c-0.3,0.1-0.4,0.3-0.7,0.4c-0.3-0.3-0.6-0.6-0.9-0.9
		c0.3-0.3,0.7-0.4,1.1-0.9c0.1-0.1,0.3-0.3,0.4-0.3c0.3,0.1,0.4,0.3,0.7,0.4C20,35.7,20.1,35.7,20.1,35.9z"/>
	<path class="st79" d="M27.2,20.1c0-0.6,0.6-0.9,1-0.6c0.1,0,0.1,0,0.3,0.1c0.1,0.1,0.1,0.4,0.3,0.7c0,0.1,0,0.1,0.1,0.3
		c0,0.1,0.1,0.3,0.3,0.3s0.1-0.1,0.1-0.3c0-0.3-0.1-0.6,0.1-0.9c0.1,0,0.1-0.3,0.4-0.3c0.6-0.1,0.9,0.1,0.9,0.7
		c0,0.4-0.1,0.9-0.1,1.3c0,0.1,0,0.1,0,0.3s0.1,0.3,0.3,0.3c0.1,0,0.1-0.1,0.3-0.3c0.1-0.4,0.3-1,0.3-1.4c0-0.3,0.3-0.4,0.6-0.4
		s0.6,0.1,0.6,0.4c0,0.1,0,0.1,0.1,0.3c0.1,0.1,0,0.3,0,0.4s-0.1,0.1-0.1,0.3s0,0.3,0.1,0.3s0.1-0.1,0.3-0.3c0.1-0.3,0.3-0.7,0.6-1
		c0.3,0,0.4,0,0.7,0.1c0.4,0.1,0.6,0.3,0.4,0.7c0,0.1-0.1,0.3-0.1,0.4c-0.4,0.7-1,1.4-1.4,2.3c0.1,0.1,0.1,0,0.3,0
		c0,0.1,0,0.3,0,0.3c-0.4,0.4-0.9,1-1.3,1.4c-0.1,0.1-0.1,0.3-0.4,0.1c0-0.1,0-0.1,0-0.3c0.3-0.6,0.9-1.1,1.1-2
		c0.1-0.1,0.1-0.3,0.1-0.4s0-0.1,0-0.3c-0.1,0-0.1,0-0.3,0c-0.1,0.1-0.3,0.3-0.4,0.6c-0.1,0.1-0.3,0.4-0.4,0.6
		c-0.1,0.1-0.3,0.3-0.3,0c-0.1-0.3,0-0.6,0-0.9s-0.1-0.4-0.4-0.4c-0.7,0-1.4,0-2.4,0c-0.3,0.1-0.1,0.3-0.1,0.4
		c0,0.3,0.1,0.6-0.1,0.6c-0.3,0.1-0.3-0.3-0.4-0.4s-0.3-0.4-0.4-0.3s0,0.3,0,0.6c0.1,0.3,0.3,0.6,0.4,0.9c0.1,0.1,0.1,0.3,0.3,0.4
		s0.3,0.4,0,0.6c-0.1,0.1-0.3-0.1-0.4-0.3c-0.3-0.3-0.4-0.6-0.7-0.9c-0.1-0.1-0.3-0.3-0.4-0.4s-0.3-0.3-0.4-0.1
		c-0.1,0.1,0,0.3,0,0.4v0.1c-0.3,0.1-0.4-0.1-0.6-0.3c-0.4-0.3-0.7-0.7-1.3-1c-0.3-0.3-0.6-0.4-0.7-0.9c-0.1-0.4,0-0.6,0.3-0.9
		c0.3-0.1,0.4,0,0.7,0c0.1,0,0.3,0.1,0.4,0.3c0.3,0.3,0.6,0.7,0.9,1c0,0,0.1,0.1,0.3,0s0-0.1,0-0.3c-0.1-0.3-0.4-0.6-0.6-0.9
		c-0.1-0.1-0.3-0.3-0.3-0.6c0-0.1,0-0.4,0.1-0.6c0.1-0.3,0.4-0.4,1-0.3C27.2,19.6,27.2,19.9,27.2,20.1c0.1,0.2,0.1,0.3,0.3,0.6
		c0,0.1,0.1,0.1,0.3,0.1s0.1-0.1,0.1-0.3c0-0.3-0.1-0.4-0.3-0.7C27.1,20.4,27.1,20.4,27.2,20.1z"/>
	<path class="st80" d="M29.3,19.7c0,0.3,0,0.7,0,1c0,0.1,0,0.3-0.1,0.3s-0.3,0-0.4-0.3c-0.1-0.4-0.3-0.9-0.3-1.3s-0.3-0.9-0.3-1.4
		c0.6,0.1,0.7,0.1,0.7-0.6c0.1,0.6,0.1,1,0.1,1.7C29.2,19.4,29.2,19.6,29.3,19.7z"/>
	<path class="st81" d="M33.3,20.4c-0.1,0.4-0.4,0.9-0.6,1.1c0,0.1-0.1,0.3-0.3,0.3c-0.1-0.1-0.1-0.3-0.1-0.4c0-0.3,0.1-0.6,0.3-0.9
		c0.3-0.4,0.3-0.9,0.4-1.3c0-0.1,0.1-0.3,0.1-0.3c0.3,0.1,0.3,0.4,0.7,0.4C33.7,19.6,33.4,19.8,33.3,20.4z"/>
	<path class="st82" d="M41.8,33.3L41.8,33.3c0.3,0.6,0.1,1.1-0.4,1.7l0,0c0,0.7-0.4,0.3-0.7,0.3c-0.1,0.1-0.1,0-0.3,0
		c-0.6-0.4-1.1-0.7-1.7-1.1c-0.4-0.3-0.7-0.6-1.1-0.9c-0.1-0.1-0.3-0.1-0.3-0.3l0,0c0.4,0.1,0.6-0.4,0.9-0.6c0.1-0.1-0.1-0.3,0-0.4
		c0.3,0,0.6,0.3,0.9,0.3s0.4,0.1,0.6,0.3c0.6,0.3,1.1,0.6,1.7,0.7C41.4,32.9,41.5,33,41.8,33.3z"/>
	<path class="st83" d="M38.7,33.9c0.6,0.4,1.3,0.9,2,1.3c0,0,0,0,0,0.1c-0.3,0.3-0.6,0.4-0.9,0.7c-0.6-0.4-1.1-1-1.8-1.4
		C37.8,34,38.3,34,38.7,33.9z"/>
	<path class="st84" d="M35,21.5c0.7-0.1,1.1,0.1,1,0.9c-0.3,0.6-0.9,0.9-1.3,1.3c-0.1,0.1-0.4,0.3-0.6,0.6c0.1,0.1,0.3,0,0.3-0.1
		c0.4-0.3,0.9-0.6,1.3-0.9c0.1-0.1,0.3-0.3,0.6-0.3c0.7,0,0.9,0.1,0.9,1c0,0.3-0.1,0.3-0.3,0.3c-0.7,0.3-1.4,0.7-2.3,1
		c-0.1,0-0.3,0.1-0.3,0v-0.1c0-0.1,0.1-0.3,0-0.4s-0.3-0.1-0.4,0c-0.3,0.3-0.7,0.4-1,0.7c-0.4,0.3-0.7,0.6-1.1,0.9
		c-0.1,0.1-0.3,0.1-0.4,0.1v-0.1c0.4-0.4,0.9-0.9,1.3-1.3c0.3-0.3,0.6-0.6,0.9-0.7c0.1-0.1,0.1-0.1,0.3-0.3c0.1-0.1,0.1-0.3,0-0.3
		c-0.1-0.1-0.1-0.1-0.3,0c-0.1,0-0.1,0.1-0.4,0.1c-0.1-0.1,0-0.3,0.1-0.4c0.4-0.4,0.7-0.9,1.1-1.3C34.6,22,34.7,21.7,35,21.5z"/>
	<path class="st85" d="M36.6,23.1c-0.7,0.4-1.3,0.9-2.1,1.3c-0.1,0.3-0.3,0.3-0.4,0.3c-0.1-0.1,0-0.3,0.1-0.4c0.6-0.6,1.1-1,2-1.7
		c0.4-0.3,0.7-0.7,1.1-0.9c0.1,0.1,0,0.6,0.4,0.7C37.3,22.5,36.9,22.8,36.6,23.1z"/>
	<path class="st86" d="M40.3,22.8c0.1,0.3-0.1,0.7,0.3,0.9c-0.3,0.1-0.6,0.1-0.7,0.3c-0.1,0-0.3,0.1-0.4,0.1
		c-0.4,0.3-0.9,0.4-1.4,0.4c-0.3-0.1-0.3-0.4-0.1-0.7C38.7,23.7,39.5,23.1,40.3,22.8z"/>
	<path class="st87" d="M37.8,24.1c0,0.3-0.1,0.4,0.1,0.7c0,0.1-0.1,0.1-0.3,0.3c-0.6,0.1-1,0.4-1.7,0.6c-0.4,0.1-0.7,0.4-1.1,0.3
		c-0.1-0.1-0.1-0.3,0-0.4c0.7-0.3,1.3-0.7,2.1-1c0.1-0.1,0.3-0.1,0.4-0.3C37.6,24.1,37.7,24.1,37.8,24.1z"/>
	<path class="st88" d="M19,35.3c-0.1,0-0.3,0.3-0.4,0.3c-0.4,0-0.6-0.4-0.7-0.6c-0.1-0.3-0.3-0.6-0.6-0.7c-0.1-0.1-0.1-0.3,0-0.3
		c0.1-0.1,0.1-0.1,0.3-0.3c0.1-0.1,0.3-0.1,0.4-0.3c0.6-0.3,1.1-0.6,2-0.9c0.4,0.4,0.7,1,1.1,1.4V34C20.4,34.5,19.8,35,19,35.3z"/>
	<path class="st21" d="M41,26.7c0.1,0.3,0.3,0.4,0.3,0.9c0,0.1,0,0.1,0,0.3c0.3,0.3,0.1,0.6-0.1,0.7c-0.3,0.1-0.4,0.1-0.7,0.1
		c-0.6,0-1-0.1-1.7-0.1c-0.3,0-0.4,0-0.6-0.1c-0.1-0.3,0-0.6,0-0.9s-0.1-0.4-0.3-0.4c-0.1,0-0.4,0.1-0.6-0.1c0.4-0.3,1-0.1,1.4-0.1
		c0.3,0,0.4,0,0.7,0s0.7-0.1,1-0.1C40.7,26.5,40.8,26.5,41,26.7z"/>
	<path class="st89" d="M40.3,28.6c0.3,0,0.4,0,0.7,0c0.6,0.1,1,0.1,1.7,0.1c0.1,0,0.4,0,0.6,0.1c-0.3,0.3-0.6,0.6-0.4,1h-0.1
		c-0.3,0.1-0.4,0-0.7,0c-0.6-0.1-1.3-0.1-2.1-0.4C39.8,29.1,40,28.6,40.3,28.6z"/>
	<path class="st90" d="M41,26.7c-0.6,0-1,0.1-1.7,0.1c-0.3,0-0.1-0.3-0.1-0.4s0.1-0.3,0.3-0.4c0-0.1,0.1-0.1,0.3-0.1
		c0.6,0,1.1-0.1,1.8-0.3c0.1,0,0.4,0,0.6,0c0,0.1,0,0.4,0,0.6c0,0.1,0,0.4,0.3,0.4C42,26.7,41.4,26.5,41,26.7z"/>
	<path class="st91" d="M39.8,25.8c-0.1,0-0.1,0-0.3,0.1c-0.1,0.1-0.4,0.1-0.7,0.3c-0.7,0.1-1.4,0.3-2.3,0.3c-0.1-0.1-0.1-0.3,0-0.3
		c0.1-0.1,0.3-0.1,0.3-0.3c-0.1-0.3-0.6-0.3-0.9-0.4c0.6-0.1,1-0.4,1.7-0.6c0.1,0,0.3,0,0.3-0.1c0.4-0.1,0.9-0.3,1.3-0.4
		c0.3,0,0.6,0.1,0.6,0.6v0.1c0.3,0.3,0.1,0.4-0.1,0.7C39.8,25.7,39.8,25.8,39.8,25.8z"/>
	<path class="st92" d="M35,21.5c-0.1,0.1-0.3,0.4-0.4,0.6c-0.4,0-0.4-0.1-0.3-0.6c0.1-0.1,0.1-0.3,0.3-0.4c0.4-0.4,0.7-1,1-1.4
		c0.1-0.1,0.1-0.3,0.3-0.4c0.1,0.3,0.3,0.6,0.7,0.6C36,20.4,35.6,21,35,21.5z"/>
	<path class="st93" d="M21.8,26.2c-0.7-0.1-1.3-0.3-2.1-0.3c-0.3-0.1-0.4-0.4-0.1-0.7c0,0,0.1-0.1,0-0.1c0-0.4,0.3-0.6,0.6-0.7
		c0.1,0,0.3,0,0.4,0.1c0.9,0.1,1.7,0.4,2.4,0.9c0,0.3-0.3,0.4-0.3,0.9c0,0.1,0.3,0.3,0,0.4C22.2,26.5,22,26.4,21.8,26.2z"/>
	<path class="st94" d="M25.2,21.1c0.3,0.4,0.6,1,1,1.4c0.1,0.1,0.1,0.3,0,0.4s-0.3,0-0.4-0.1c-0.4-0.4-0.9-1-1.3-1.4
		c-0.3-0.4-0.7-0.9-1-1.3c0.4,0,0.6-0.3,0.6-0.6C24.5,20,24.8,20.6,25.2,21.1z"/>
	<path class="st95" d="M23.5,22.3c0.3,0.3,0.6,0.4,0.9,0.7c0,0.3,0,0.4-0.3,0.6H24c-0.6-0.4-1.1-0.9-1.8-1.1
		c-0.1-0.1-0.3-0.1-0.3-0.3c0.1,0,0.1-0.1,0.1-0.3c0-0.1,0.1-0.3,0.1-0.4C22.7,21.7,23.1,22,23.5,22.3z"/>
	<path class="st96" d="M40,29.5c0.9,0.1,1.8,0.3,2.7,0.6c0.3,0.3,0.3,0.6,0.1,0.9c-0.1,0.3-0.1,0.6-0.3,0.9c0,0.1-0.3,0.3-0.4,0.3
		c-0.1,0.1-0.3,0-0.4,0c-0.6-0.1-1-0.4-1.7-0.6c-0.3-0.1-0.6-0.1-0.7-0.4c0.1-0.3,0.4-0.3,0.4-0.6s0.3-0.6-0.1-0.7
		c-0.1,0-0.1-0.1,0-0.3C39.7,29.2,39.8,29.4,40,29.5z"/>
	<path class="st97" d="M40,31.3c0.7,0.3,1.4,0.4,2.1,0.7c0.1,0,0.3,0.1,0.3,0.1c-0.3,0.3-0.4,0.6-0.7,1c-0.7-0.3-1.4-0.7-2.1-1
		C39.3,31.8,39.4,31.5,40,31.3z"/>
	<path class="st98" d="M27.2,20.1c0,0.3,0.1,0.6,0.3,0.9c0,0.1,0.1,0.4-0.1,0.6c-0.1,0.1-0.3-0.1-0.4-0.3c-0.1-0.3-0.3-0.7-0.6-1.1
		c-0.1-0.6-0.6-1-0.7-1.7c0.4,0.3,0.6-0.1,0.7-0.3c0.1,0.4,0.4,1,0.6,1.4C27.1,19.8,27.1,20,27.2,20.1z"/>
	<path class="st93" d="M21.8,22.1c0.6,0.4,1.1,0.9,1.8,1.1c0.1,0.1,0.3,0.1,0.3,0.3c-0.3,0.3-0.6,0.6-0.9,0.9c-0.1,0-0.3,0-0.4-0.1
		c-0.6-0.3-1-0.6-1.7-0.7c-0.1,0-0.3-0.1-0.3-0.3c0,0-0.1,0-0.1-0.1s0-0.3-0.1-0.3c0,0-0.1-0.1,0-0.1l0.1-0.1
		c0.3-0.1,0.3-0.9,0.9-0.6C21.5,22.1,21.7,22.1,21.8,22.1L21.8,22.1z"/>
	<path class="st99" d="M20.8,23.4c0.7,0.3,1.4,0.7,2.4,1c0.3,0,0.6,0.1,0.9,0.3c0.1,0.3,0.4,0.4,0,0.7c-0.3,0-0.7-0.1-0.9-0.3
		c-0.6-0.3-1.3-0.4-2-0.7c-0.1,0-0.3,0-0.4-0.1c0.1,0,0.3-0.1,0.1-0.1C20.5,24,20.8,23.7,20.8,23.4z"/>
	<path class="st100" d="M33.3,36.9c0.3,0.7,0.4,1.4,0.7,2.3c0.1,0.3,0,0.3-0.1,0.4c-0.3-0.1-0.7,0-1.1-0.1c-0.1,0-0.3,0-0.6,0
		s-0.3-0.3-0.3-0.4c-0.1-0.9-0.3-1.7-0.4-2.6c0-0.1,0-0.1,0-0.3c0.1-0.1,0.3,0.1,0.4,0.1c0.1,0,0.3,0,0.6-0.1c0.1-0.1,0.4-0.1,0.6,0
		C33.2,36.2,33.3,36.6,33.3,36.9z"/>
	<path class="st101" d="M31.3,36.4c0.3,0.9,0.3,1.7,0.4,2.6c0,0.1,0,0.4,0.3,0.6c0,0,0,0-0.1,0c-0.3-0.1-0.4,0.1-0.7,0
		c-0.1-0.4,0-0.7-0.1-1.1c0-0.4,0-0.9,0-1.3C31.2,36.7,31.2,36.6,31.3,36.4z"/>
	<path class="st102" d="M32.7,39.3c0.4,0,0.7-0.1,1.1,0.1l0,0C33.4,39.4,33,39.4,32.7,39.3z"/>
	<path class="st103" d="M24.4,39.8C24.4,39.8,24.2,39.8,24.4,39.8c-0.1-0.3-0.1-0.4,0-0.6c0.3-0.4,0.4-1,0.7-1.4
		c0.1-0.1,0.3-0.4,0.4-0.6c0.4-0.1,0.6,0,0.9,0.3c0.1,0.3-0.1,0.4-0.1,0.7c-0.1,0.3-0.1,0.7-0.3,1c-0.1,0.3,0,0.3,0.1,0.4l0,0
		C25.5,39.8,24.9,39.8,24.4,39.8z"/>
	<path class="st104" d="M28.2,39.4c-0.1,0-0.3,0-0.3,0c-0.6-0.1-1.1,0.1-2,0l0,0c0-0.1,0.1-0.1,0.3-0.1c0.3,0,0.6-0.1,0.9-0.1
		c0.4,0,0.6,0,0.6-0.6c0-0.3,0.1-0.6,0.1-0.9c0-0.1,0-0.3,0.1-0.4c0.3,0.1,0.1,0.4,0.3,0.7C28.3,38.6,28.5,39,28.2,39.4z"/>
	<path class="st105" d="M28.2,39.4c0-0.4,0-1,0-1.4s-0.1-0.7-0.1-1.1c0-0.1,0-0.1,0-0.3c0-2.1,0-4.3,0-6.5c0-0.1-0.1-0.1-0.3-0.1
		c-0.4,0-0.9-0.1-1.3,0h-0.1c-0.9,0.1-1.7-0.1-2.6-0.1c-0.3,0-0.4-0.1-0.4-0.4s0-0.6,0-0.7s0-0.4,0.1-0.6c0-0.4,0-0.7,0-1.1
		c0.1-0.1,0.3-0.1,0.6-0.1c0.6,0,1.1,0,2,0c0.6,0,1,0,1.7,0c0.3,0,0.4-0.1,0.4-0.4c0-0.6,0.1-1.1,0-1.8c0-0.7,0-1.4,0.1-2.1
		c0.9,0,1.8,0,2.8,0c0.3,0,0.3,0.1,0.3,0.3c0,0.4,0,0.9,0,1.1c0.1,0.4,0.1,0.9,0,1.3c0,0.1,0,0.3,0,0.3c0.1,0.1,0.1,0.4,0,0.6v0.1
		c0.1,0.1,0.1,0.1,0.1,0.3c0.1,0.1,0.1,0,0.3,0.1c0.6,0,1.3,0,2,0c0.4,0,1,0,1.4,0c0.1,0,0.3,0,0.4,0.1c0.3,0.3,0.3,0.7,0.1,1
		c0,0.1-0.1,0.4,0,0.6c0,0.3,0,0.7,0,1l-0.1,0.1c-0.7,0.1-1.7,0.1-2.4,0.1c-0.1,0-0.3,0-0.4,0c-0.3,0-0.6,0-0.9,0h-0.1
		c-0.1,0-0.1,0.1-0.3,0.3c0,0.3,0,0.4,0,0.7c0,0.3,0,0.4,0,0.7c0,1.1,0,2.6,0,3.7c0,0.1,0,0.4-0.1,0.6c0,0.1,0,0.1,0,0.3
		c0,0.9,0,1.8,0,2.7c0,0.1,0,0.3,0,0.4c-0.3,0-0.4,0.3-0.6,0.4s-0.3,0.3-0.4,0.3c-0.1,0.1-0.3,0.3-0.3,0.4S30,40,30,40
		c-0.3-0.4-0.4-0.7-1-0.9C28.6,39.7,28.3,39.7,28.2,39.4z"/>
	<path class="st106" d="M30.2,40.3c0.1-0.1,0.1-0.3,0.4-0.3c-0.3,0.3-0.1,0.6,0,0.9c0.1,0.7,0.3,1.4,0.4,2.3c-0.3,0-0.4,0.3-0.7,0.4
		C30.3,42.3,29.8,41.3,30.2,40.3z"/>
	<path class="st33" d="M37.7,40c-0.7,0-1.3-0.3-2.1-0.1c-0.3-0.3-0.4-0.7-0.6-1.1c-0.3-0.4-0.4-0.9-0.6-1.4l0.1-0.1
		c0.4,0.4,0.7-0.1,1.1-0.1c0.1,0,0.1-0.1,0.1-0.3c0-0.1,0-0.3,0-0.4c0.1,0,0.1,0,0.3,0.1c0.4,0.6,0.9,1.1,1.1,1.8v0.1
		c0.3,0.4,0.7,1,1,1.7C38.1,40,37.8,40,37.7,40z"/>
	<path class="st107" d="M37.3,38.3c-0.4-0.6-0.9-1.1-1.1-1.8c-0.1-0.1-0.1-0.3-0.3-0.3c-0.1,0-0.1-0.1-0.3-0.3
		c0.1-0.3,0.3-0.4,0.7-0.6c0.1,0,0.3,0.1,0.3,0.4c0.6,0.6,1,1.3,1.7,2c-0.1,0-0.1,0.1-0.3,0.1c-0.4-0.3-0.4,0-0.6,0.3
		C37.4,38.1,37.4,38.3,37.3,38.3z"/>
	<path class="st108" d="M35.7,35.9c0,0.1,0.1,0.1,0.1,0.3c0,0.1,0,0.3,0,0.4c0,0.3,0,0.4-0.3,0.4c-0.1,0-0.3,0-0.3,0.1
		c-0.1,0.3-0.3,0.4-0.4,0c0-0.1-0.1-0.1-0.3-0.1c0-0.1-0.1-0.3-0.1-0.3c-0.6-0.7-1-1.3-1.1-2.1c0.6,0,0.7-0.4,0.9-0.9
		c0.1,0,0.1,0,0.3,0.1c0.4,0.6,0.9,1.1,1.1,1.8C35.7,35.7,35.7,35.7,35.7,35.9z"/>
	<path class="st109" d="M33.2,34.6c0.3,0.7,0.7,1.4,1,2.3c-0.3,0-0.6-0.1-0.9,0c-0.1-0.3-0.1-0.4-0.3-0.7c-0.1,0-0.1-0.1-0.1-0.1
		c-0.3-0.6-0.4-1.1-0.6-2c0.1-0.1,0.3-0.4,0.4-0.4C32.9,33.9,33.2,34.2,33.2,34.6z"/>
	<path class="st33" d="M25.1,37.7c-0.1,0.7-0.6,1.3-0.9,2c-0.3,0.1-0.6,0-0.7,0.1c-0.6,0-1,0-1.7,0c-0.1,0-0.3,0-0.4-0.1
		c0.1-0.3,0.4-0.6,0.6-1c0.3-0.7,0.9-1.3,1.3-2.1c0-0.1,0.1-0.1,0.3-0.1c0.1,0.4,0.6,0.4,0.9,0.7C24.8,37.4,24.9,37.6,25.1,37.7z"/>
	<path class="st41" d="M23.7,36.7c-0.4,0.6-0.9,1.3-1.3,2c-0.1,0.1-0.1,0.1-0.3,0.3c-0.1-0.3-0.4-0.6-0.9-0.9
		c0.6-0.7,1.1-1.4,1.8-2.1c0.3,0,0.4,0.3,0.7,0.4C23.8,36.6,23.8,36.6,23.7,36.7z"/>
	<path class="st110" d="M23.7,28.8c0.1,0.3,0,0.4,0,0.7c0,0.3,0.1,0.3,0.4,0.3c0.9,0,1.7,0,2.6,0c0,0.1-0.1,0.3-0.3,0.3
		c-0.6,0.4-1.1,0.9-1.8,1.3c-0.1,0.1-0.3,0.1-0.4,0.3c-0.3,0.1-0.4,0.4-0.7,0.4c-0.3,0-0.6-0.3-0.7-0.4c-0.3-0.1,0-0.4,0.1-0.7
		c0.6-0.4,1.1-0.6,1.8-0.9c0,0,0.1,0,0.1-0.1c-0.1,0-0.1,0.1-0.3,0.1c-0.4,0-0.9,0-1.3,0.1c-0.1,0-0.1,0-0.3,0
		c-0.6-0.3-0.7-0.6-0.4-1.1C22.7,28.8,23.1,28.8,23.7,28.8z"/>
	<path class="st111" d="M23.7,28.8c-0.4,0.1-0.9,0.1-1.3,0.3c-0.6,0.1-1.1,0.1-2,0.3c0-0.3-0.3-0.6-0.1-0.9c0.6-0.1,1,0,1.7-0.1
		c0.6-0.1,1.1-0.1,1.8-0.1C23.7,28.5,23.7,28.6,23.7,28.8z"/>
	<path class="st112" d="M20.1,32.2c0-0.3-0.3-0.6-0.1-0.9c0.7-0.3,1.4-0.6,2.3-0.9c0.1,0.1,0.1,0.4,0.1,0.7c0,0.1-0.1,0.1-0.3,0.3
		c-0.4,0.1-1,0.4-1.4,0.7C20.4,32.2,20.3,32.3,20.1,32.2z"/>
	<path class="st113" d="M22.2,31.3c0-0.3,0-0.4,0-0.7c0.1-0.1,0.3-0.1,0.4-0.3c0.6-0.3,1.3-0.3,2.1-0.3c-0.7,0.4-1.4,0.7-2.3,1
		C22.7,31.2,22.5,31.3,22.2,31.3z"/>
	<path class="st114" d="M22.2,31.3c0.1,0,0.3-0.1,0.4-0.1c-0.1,0.6,0,1,0.7,1.1c0,0.1-0.1,0.3-0.3,0.3c-0.6,0.4-1.1,0.7-1.8,1.1
		c-0.1,0-0.1,0.1-0.3,0c-0.4-0.3-0.7-0.9-1-1.1c0,0,0-0.1,0-0.3l0.1-0.1C20.8,31.9,21.5,31.6,22.2,31.3z"/>
	<path class="st115" d="M36.7,35.7c-0.1-0.1-0.3-0.3-0.3-0.3c-0.4-0.3-0.7-0.9-1.1-1.3c-0.1-0.3-0.4-0.4-0.6-0.7
		c-0.1-0.1-0.3-0.3-0.1-0.4c0.1-0.1,0.3,0,0.4,0c0.3,0,0.6-0.1,0.4-0.4c0-0.1-0.1-0.3,0-0.3c0.1-0.1,0.3,0,0.3,0.1
		c0.7,0.6,1.4,1.1,2.1,1.8c0.1,0.1,0.3,0.1,0.1,0.3C38,35,37.6,35.7,36.7,35.7z"/>
	<path class="st116" d="M37.7,34.3C37,33.6,36,33,35.3,32.2c0.1-0.3,0.3-0.3,0.6-0.4c0.4,0.1,0.9,0.4,1.1,0.9c0.4,0.3,1,0.7,1.4,1
		C38.3,33.9,37.8,33.9,37.7,34.3C37.8,34.5,37.8,34.5,37.7,34.3z"/>
	<path class="st117" d="M26.1,27.1c-0.9,0-1.7,0-2.4,0c-0.6,0-1.1,0-2-0.1c-0.1,0-0.1,0-0.3-0.1c0.6,0,0.3-0.4,0.3-0.7
		c0.3,0,0.6,0.1,0.9,0.1c0.1-0.1,0.3,0,0.4,0c0.7,0.1,1.7,0.3,2.4,0.4C25.8,26.9,26.1,26.9,26.1,27.1z"/>
	<path class="st118" d="M23.4,35.4c-0.1,0-0.1,0-0.3,0.1c-0.3,0.1-0.6,0.1-0.6-0.3c0-0.1,0-0.1-0.1-0.1c-0.4,0-0.4-0.3-0.3-0.7
		c0-0.1,0-0.1,0.1-0.3c0.7-0.6,1.7-1.3,2.4-2.1c0.1,0,0.1-0.1,0.3-0.1V32c0.1,0.6,0.1,0.6,0.7,0.6c0,0.3-0.3,0.4-0.4,0.7
		c-0.1,0.1-0.3,0.3-0.4,0.6c-0.3,0.4-0.6,0.9-1,1.1C23.7,35.3,23.5,35.4,23.4,35.4z"/>
	<path class="st119" d="M22,34.3l-0.1,0.1c-0.4,0.3-0.7,0.7-1.1,1c-0.3,0.1-0.4,0.3-0.7,0.6c-0.3-0.3-0.7-0.3-0.9-0.7
		c0.6-0.4,1-0.7,1.7-1.1c0.1-0.1,0.3-0.1,0.3-0.3c0.1,0,0.1-0.1,0.3-0.1C21.5,33.9,21.8,34,22,34.3z"/>
	<path class="st120" d="M23.4,35.4c0.4-0.4,0.9-1,1.3-1.4c0.3-0.1,0.4,0,0.7,0.1c0.1,0.1,0,0.3,0,0.3c-0.4,0.6-0.9,1.1-1.3,1.8
		L24,36.3c-0.3-0.1-0.6-0.1-0.7-0.4C23.2,35.7,23.2,35.6,23.4,35.4z"/>
	<path class="st121" d="M26.1,27.1c-0.1-0.1-0.3,0-0.4-0.1s-0.3,0-0.3-0.1c-0.1-0.1-0.3-0.1-0.3-0.4s0.1-0.3,0.3-0.3
		c0.9,0.1,1.8,0.6,2.7,0.9c-0.6-0.3-1.3-0.6-2-0.9C26,26.1,26,26.1,26,25.9c-0.1-0.1-0.3-0.1-0.1-0.4c0.1-0.1,0.3-0.3,0.4-0.3
		c0.7,0.3,1.1,0.7,1.8,1.1c-0.6-0.4-1-0.9-1.7-1.3l-0.1-0.3c0-0.1-0.1-0.3-0.1-0.3c-0.1-0.1-0.1-0.3,0-0.3c0.1-0.1,0.3-0.1,0.4,0
		c0.6,0.3,1,0.9,1.4,1.4c0.1,0.1,0.1,0.3,0.3,0.3c0.1-0.3,0-0.4-0.1-0.6c-0.3-0.4-0.7-0.9-0.9-1.4c0-0.1-0.1-0.3,0.1-0.4
		c0.1-0.1,0.1,0.1,0.3,0.1c0.3,0.1,0.4,0.4,0.6,0.7c0.1-0.4-0.1-0.9,0.1-1.3c0,1.3,0,2.7,0,4.1c0,0.3-0.1,0.3-0.3,0.3
		C27.3,27.1,26.8,27.2,26.1,27.1z"/>
	<path class="st122" d="M31.3,26.4c0-0.1,0-0.4,0-0.6c0.6-0.6,1.1-1.1,1.7-2c0,0,0,0,0.1,0c0.3-0.1,0.6-0.6,0.9-0.1
		c0.3,0.4-0.1,0.6-0.3,0.7C32.9,25.2,32.2,25.8,31.3,26.4z"/>
	<path class="st123" d="M26.2,24.5c0.7,0.6,1.3,1.1,2.1,1.8c-0.7-0.3-1.4-0.9-2.1-1.1c-0.7-0.3-1.3-0.9-2-1.3v-0.1
		c0.3,0,0.1-0.3,0.3-0.4C24.9,23.4,25.5,24.1,26.2,24.5z"/>
	<path class="st122" d="M31.3,25.5c0-0.4,0-0.9,0-1.3c0.3-0.1,0.3-0.4,0.6-0.7c0.1-0.3,0.3-0.6,0.6-0.7c0.1,0,0.3-0.1,0.3,0.3
		s-0.3,0.7-0.4,1C32.2,24.5,31.6,25,31.3,25.5z"/>
	<path class="st27" d="M33.2,24L33.2,24C33,24,33,24,33,24c-0.1,0-0.1,0.3-0.3,0.1c-0.1-0.1,0-0.3,0-0.3c0.1-0.3,0.3-0.6,0.4-0.7
		c0.3-0.4,0.6-0.9,0.9-1.3c0,0.3,0,0.6,0.3,0.6c-0.3,0.4-0.7,0.9-1.1,1.3C33.3,23.7,33.2,23.8,33.2,24z"/>
	<path class="st124" d="M37.1,32.8c-0.4-0.1-0.7-0.6-1.1-0.7c-0.3-0.1-0.6-0.3-0.9-0.4c-0.6-0.4-1-0.7-1.7-1.1
		c-0.1-0.1-0.3-0.1-0.3-0.3c0.9,0,1.7-0.1,2.6,0c-0.1,0.3-0.4,0.1-0.6,0.1c0.7,0.3,1.3,0.6,2.1,0.9c0.3,0.1,0.6,0.1,0.7,0.6
		c0.3,0.4-0.1,0.6-0.1,0.9C37.7,33,37.4,32.6,37.1,32.8z"/>
	<path class="st125" d="M38,31.5c-0.3-0.1-0.6-0.3-0.9-0.4c-0.1-0.3,0.1-0.4,0.3-0.6c0.6,0.1,1.1,0.3,1.7,0.6
		c0.1,0.1,0.4,0.1,0.7,0.3c-0.4,0.1-0.6,0.4-0.3,0.9C39.1,31.9,38.6,31.8,38,31.5z"/>
	<path class="st126" d="M31.3,27.1c0-0.1,0-0.3,0-0.4c0.6-0.3,1-0.6,1.4-0.9s0.7-0.6,1.1-0.7c0.3-0.1,0.4-0.1,0.7,0.1
		c0.1,0.3,0,0.3-0.1,0.4c0,0.1-0.1,0.1-0.3,0.3c-0.9,0.4-1.7,0.9-2.6,1.1C31.6,27.1,31.5,27.1,31.3,27.1z"/>
	<path class="st127" d="M31.3,27.1c1-0.4,2.1-1,3.1-1.4c0.1,0,0.3,0,0.3-0.1c0,0.1,0,0.3,0.1,0.4c0,0.1-0.1,0.1-0.3,0.3
		c-1,0.3-2,0.7-3,1C31.5,27.1,31.3,27.2,31.3,27.1z"/>
	<path class="st128" d="M31.6,27.1c0.6-0.3,1.1-0.4,1.8-0.7c0.4-0.1,1-0.4,1.4-0.6c0.3-0.1,0.7-0.3,1-0.3c0.4,0,0.7,0.1,1,0.4
		c-0.1,0.3-0.6,0.1-0.6,0.4c-0.1,0.3-0.4,0.3-0.7,0.3c-0.7,0.1-1.3,0.3-2.1,0.3C33,27.1,32.5,27.1,31.6,27.1z"/>
	<path class="st46" d="M35.9,28.8c0-0.1,0-0.3,0-0.6c0.3-0.1,0.6,0,0.9,0c0.4,0,0.9,0,1.3,0.1c0.6,0.1,1.1,0.1,1.8,0.1
		c0.1,0,0.3,0,0.4,0.1c-0.3,0.1-0.4,0.4-0.4,0.9c-0.1,0-0.3,0-0.4,0c-0.1,0.1-0.3,0-0.4,0c-0.9-0.1-1.8-0.3-2.7-0.4
		C36.1,28.9,36,28.8,35.9,28.8z"/>
	<path class="st129" d="M33.7,27.1c0.6-0.3,1.3-0.3,2-0.4c0.3,0,0.6-0.1,0.9-0.1c0.9-0.1,1.8-0.3,2.7-0.4c0.1,0,0.3,0,0.3,0
		c0,0.3-0.4,0.4-0.1,0.9c-0.6,0.1-1.1,0-1.7,0.1c-0.1,0-0.3,0-0.6,0.1c-0.4,0.1-1,0.3-1.4,0C35,27.2,34.4,27.2,33.7,27.1z"/>
	<path class="st130" d="M35.7,27.2c0.4,0.1,1-0.1,1.4,0c0.3,0,0.6,0,0.9,0.1c0.1,0,0.3,0.1,0.1,0.1c-0.1,0.3,0,0.7-0.1,1
		c-0.7,0-1.4-0.1-2.3-0.1C35.9,27.9,35.9,27.5,35.7,27.2z"/>
	<path class="st131" d="M25.2,26.1c-0.3,0.3-0.3,0.4,0.1,0.6c0.1,0,0.1,0.1,0.3,0.1c-1-0.1-2-0.3-3-0.4c-0.3-0.4-0.3-0.7,0.1-1.1
		c0.3,0.1,0.6,0.1,0.9,0.3c0.4,0,0.7,0.1,1,0.3C25.1,25.8,25.2,25.8,25.2,26.1z"/>
	<path class="st132" d="M24.1,23.7c0.7,0.4,1.3,1,2.1,1.4c-0.1,0-0.3,0-0.4,0.1s0.1,0.3,0.3,0.3c0.1,0.1,0.1,0.1,0.1,0.3
		c0,0,0,0-0.1,0c-0.7-0.3-1.4-0.6-2.1-1c-0.3-0.1-0.4-0.3-0.7-0.3C23.2,24.2,23.7,23.7,24.1,23.7C23.9,23.7,23.9,23.7,24.1,23.7z"/>
	<path class="st133" d="M35.9,28.8c1.1,0.3,2.4,0.4,3.5,0.7v0.1c0.4,0.1,0.4,0.4,0.3,0.9c-0.1,0.3-0.3,0.4-0.6,0.6
		c-0.6-0.1-1.1-0.3-1.7-0.6c-0.6,0-1-0.3-1.4-0.4c-0.1,0-0.1-0.1-0.1-0.1C35.9,29.4,35.9,29.1,35.9,28.8z"/>
	<path class="st134" d="M23.8,25c0.7,0.3,1.4,0.7,2.1,1s1.4,0.6,2.3,1v0.1c-0.9-0.3-2-0.6-2.8-0.9c-0.4-0.3-1-0.3-1.4-0.6
		C24.2,25.2,23.8,25.1,23.8,25z"/>
	<path class="st135" d="M32.3,34c0.3,0.7,0.3,1.4,0.7,2.1c-0.3,0-0.4,0-0.6,0.1c-0.3,0.1-0.6,0.3-0.9-0.1c0-1.4,0-3,0-4.3h0.1
		C31.7,32.5,32.2,33.3,32.3,34z"/>
	<path class="st136" d="M23.8,36.4c0.4-0.7,1-1.4,1.4-2.3h0.1l0.1,0.1c0.3,0.4,0.6,0.4,1,0.4c0,0.4-0.3,0.6-0.4,1s-0.4,1-0.7,1.3
		C25.2,37,25,37.3,25,37.5c-0.4-0.1-0.9-0.4-1.3-0.6c-0.1,0-0.1-0.3-0.1-0.4C23.7,36.6,23.8,36.6,23.8,36.4z"/>
	<path class="st137" d="M28.2,37c0,0.4,0,0.7,0,1.1c-0.1-0.1,0-0.4-0.1-0.6c-0.1,0.6-0.1,1-0.3,1.7c0,0.3-0.1,0.3-0.4,0.3
		c-0.4,0-0.9,0-1.3,0.1c-0.4,0-0.4,0-0.3-0.4c0.1-0.6,0.4-1.1,0.6-1.7c0-0.1,0-0.4,0.3-0.6c0.3,0.1,0.4,0.1,0.7,0.3
		c0.1,0.1,0.3,0,0.4,0C27.8,37.2,28.1,37,28.2,37z"/>
	<path class="st138" d="M26.6,37c-0.1,0.1-0.1,0.3-0.3,0.4c-0.3-0.1-0.4-0.4-0.9-0.3c0.3-0.7,0.7-1.7,1-2.4c0-0.3,0.1-0.4,0.3-0.6
		c0.3,0,0.4,0.3,0.6,0.4C27.2,35.4,26.9,36.2,26.6,37z"/>
	<path class="st139" d="M26.9,34.2c-0.1,0.1-0.1,0.4-0.3,0.6c-0.3,0.1-0.7,0.1-0.9-0.3c-0.1-0.1-0.3-0.1-0.3-0.3
		c-0.1-0.1,0-0.3,0.1-0.4c0.4-0.6,0.9-1.1,1.1-1.8c0.3-0.4,0.7-0.9,1-1.4c0.1-0.1,0.3-0.4,0.4-0.4s0.1,0.1,0.1,0.1
		c0,2.3,0,4.3,0,6.5c-0.1,0-0.1-0.3-0.1-0.4c0-0.3,0-0.6,0-0.7c0-0.3,0-0.6-0.4-0.7c-0.1,0-0.1-0.3-0.1-0.4c0-0.3,0.1-0.4,0.1-0.7
		s0.1-0.4,0.1-0.7c0.1-0.4,0.1-0.9,0.3-1.3c-0.3,0.7-0.7,1.4-1,2.4C27.1,34.2,26.9,34.2,26.9,34.2z"/>
	<path class="st140" d="M33.2,34.6c-0.1-0.3-0.3-0.7-0.4-1c-0.1,0-0.1-0.1-0.1-0.3c-0.3-0.7-0.7-1.4-1-2.4c0-0.3,0-0.6,0-0.9
		s0.1-0.3,0.3-0.3c0.3,0.6,0.6,1,1,1.7c0.3,0.4,0.7,1,1,1.4c0.1,0.3,0.4,0.4,0.3,0.7c0,0.3,0,0.6-0.3,0.6c-0.1,0-0.1,0.3-0.1,0.4
		C33.4,34.7,33.3,34.7,33.2,34.6z"/>
	<path class="st141" d="M35,32c0,0.1,0.1,0.1,0.1,0.3s0.3,0.3,0,0.4c-0.1,0.1-0.3,0.3-0.6,0.1c-0.1,0-0.1,0-0.3,0
		c-0.1,0-0.3-0.1-0.3-0.1c-0.7-0.7-1.3-1.7-2.1-2.4c-0.1-0.1-0.1-0.1-0.1-0.4c0.3,0,0.6,0,0.9,0C33.5,30.5,34.3,31.2,35,32
		C35,32,35.1,32,35,32z"/>
	<path class="st142" d="M27.8,33.6c0,0.3,0,0.6-0.1,0.9s0,0.4,0.3,0.3c0.3,0,0.3,0.1,0.3,0.4c0,0.6-0.1,1,0,1.7V37
		c-0.3,0.3-0.6,0.4-1,0.6h-0.1c0-0.3-0.3-0.3-0.4-0.3s-0.1-0.1-0.1-0.1c0.1-0.7,0.6-1.4,0.7-2.3C27.3,34,27.5,33.9,27.8,33.6z"/>
	<path class="st143" d="M25.5,32.8c-0.6,0.3-0.9,0-0.9-0.7c0-0.1,0-0.1,0.1-0.3c0.6-0.6,1.3-1.1,2.1-1.8c-0.1,0-0.1,0-0.3-0.1
		c0.4-0.1,0.9,0,1.3,0c0.1,0.3-0.1,0.4-0.1,0.4c-0.4,0.6-0.9,1-1.3,1.7C26.2,32.2,26.1,32.6,25.5,32.8z"/>
	<path class="st144" d="M35,32c-0.7-0.6-1.4-1.1-2.1-1.8c-0.1-0.1-0.1-0.1-0.3-0.3c0.1,0,0.3,0,0.4,0c0.1,0.3,0.6,0.4,0.9,0.6
		c0.6,0.4,1.1,0.9,2,1.3c-0.3,0-0.4,0.1-0.6,0.3C35.4,32.2,35.1,32.2,35,32z"/>
	<path class="st145" d="M26.6,30.1c0.1,0,0.3,0,0.4,0c-0.9,0.7-1.7,1.3-2.4,2.1c-0.1,0-0.1,0.1-0.3,0.1c-0.3,0-0.3-0.3-0.4-0.4
		c0.7-0.6,1.4-1,2.3-1.7C26.5,30.2,26.5,30.2,26.6,30.1L26.6,30.1z"/>
	<path class="st146" d="M31.7,30.1c0.3,0.6,0.7,1,1.1,1.4c0.3,0.4,0.7,0.9,1,1.3c-0.1,0.1-0.3,0.3-0.4,0.3c-0.6-1-1.3-2-2-2.8
		c0-0.1-0.1-0.1,0-0.1C31.7,30.1,31.7,30.1,31.7,30.1z"/>
	<path class="st147" d="M35.9,29.8c0.6,0.3,1.1,0.3,1.8,0.7c-0.1,0.1-0.3,0.3-0.3,0.6c-0.7-0.3-1.4-0.6-2.3-1
		C35.1,30.1,35.6,30.2,35.9,29.8C35.7,29.8,35.9,29.8,35.9,29.8z"/>
	<path class="st148" d="M31.3,31.1c0.4,0.9,0.9,1.7,1.1,2.6c-0.1,0.1-0.1,0.3-0.4,0.4c-0.3-0.7-0.4-1.4-0.9-2.3
		C31.3,31.6,31.3,31.3,31.3,31.1z"/>
	<path class="st149" d="M26.4,31.9c0.6-0.6,1-1.3,1.7-2c0.1,0,0.1,0,0.3,0c-0.4,0.7-0.9,1.3-1.3,2C26.8,32,26.5,32,26.4,31.9z"/>
	<path class="st150" d="M33.7,33c0-0.3,0.3-0.3,0.4-0.3c0.1,0.1,0.1,0.1,0.3,0.3c0.6,0.7,1.3,1.7,2,2.4c-0.3,0-0.6,0.3-0.7,0.4
		c-0.4-0.7-1-1.4-1.4-2.1C33.9,33.6,33.9,33.3,33.7,33z"/>
	<path class="st151" d="M24.1,31.8c0.3,0,0.1,0.3,0.4,0.4c-0.7,0.7-1.4,1.3-2.4,2.1c-0.3-0.1-0.6-0.3-0.7-0.4
		c0.6-0.4,1.1-0.9,1.8-1.3c0.1,0,0.1-0.1,0.3-0.1C23.7,32,23.8,31.9,24.1,31.8z"/>
	<path class="st152" d="M26.4,31.9c0.1,0,0.3,0,0.6,0c-0.4,0.7-1,1.4-1.4,2.3c0,0,0,0-0.1,0c-0.3,0-0.4-0.1-0.7-0.1
		c0.3-0.4,0.6-0.7,0.9-1.1C25.9,32.5,26.1,32.2,26.4,31.9z"/>
	<path class="st113" d="M27.8,33.6c-0.1,0.3-0.3,0.7-0.4,1c-0.1-0.1-0.3-0.3-0.4-0.4c0.4-0.9,0.9-1.8,1.3-2.8c0.1,0.6,0,1.1-0.3,1.8
		C27.8,33.3,27.8,33.5,27.8,33.6z"/>
</g>
<g>
	<path class="st153" d="M96.4,15.4c0,0.2-0.3,0.6-0.8,1.4s-1.1,1.9-2.1,3.4s-2.1,3.4-3.4,5.6c-1.4,2.2-2.7,4.8-4.2,7.7
		c-1.6,3.2-2.7,5.8-3.5,7.5c-0.8,1.9-1.1,3.4-1.1,4.8c0,1,0.5,2.1,1.6,2.7c1.4-1,2.7-2.2,3.8-3.8c1.3-1.4,2.7-3,3.8-4.8
		c1.3-1.8,2.7-4,4.5-6.9c1.6-2.7,3.2-5.3,4.5-7.5c-0.2-0.2-0.2-0.3-0.3-0.5c-0.2-0.2-0.2-0.3-0.2-0.5c0-1,0.3-1.9,0.6-2.7
		c0.3-0.8,1-1.6,1.4-2.6c0.6-1,1.4-2.1,2.7-3.4c0.3-0.3,0.8-0.6,1.1-0.6c0.8,0,1.1,0.5,1.1,1.4s-0.3,2.6-1.1,4.5
		c-0.8,1.9-1.9,4.5-3.5,7.4c-1.4,2.7-3.4,5.9-5.6,9.3c-2.2,3.4-5,7-7.7,10.9c-2.9,3.8-5,5.6-6.2,5.6c-0.8,0-1.4-0.3-2.4-1.1
		s-1.6-1.9-2.2-3.2c-0.6-1.4-1-2.7-1-4.5c0-1,0.3-2.1,0.6-3.5c0.3-1.4,1-3.2,1.8-5.1c1-2.1,1.8-4,2.7-6.1c1.1-2.1,2.1-3.8,2.9-5.1
		s1.8-2.9,2.7-4.5c1-1.6,1.4-2.6,1.4-2.7c0-0.3-0.3-0.5-0.6-0.5c-1.3,0-2.9,0.6-5,1.9c-2.1,1.3-4.6,3.2-8,5.6
		c-1.3,1-2.1,1.6-2.4,1.9c-0.3,0.3-0.5,0.5-0.5,0.8s0.3,0.3,0.6,0.3c0.2,0,0.8-0.2,1.6-0.2c1-0.2,1.8-0.3,2.2-0.3
		c1,0,1.4,0.2,1.4,0.5c0,0.3-0.3,0.5-0.6,0.6c-0.3,0.2-1,0.3-1.6,0.5c-0.6,0.2-1.6,0.3-2.7,0.8c-1.3,0.3-2.7,0.8-4,1.4
		c-1.4,0.6-2.2,1-2.4,1c-0.3,0-0.6-0.2-0.8-0.3c-0.2-0.3-0.2-0.8-0.2-1.4c0-3,0.5-5.3,1.4-6.9c1-1.6,2.7-3.2,5.3-5
		c2.9-2.1,5.6-3.7,8.3-5c2.7-1.4,5-2.2,6.9-2.9c2.4-0.8,3.8-1,4.8-1s1.8,0.5,2.7,1.6C96,12.9,96.4,14.2,96.4,15.4z"/>
	<path class="st153" d="M115.9,41.1v2.2c-2.1,2.7-3.8,4.6-5.6,5.9c-1.8,1.4-3.2,2.1-4.5,2.1c-1.8,0-3-1-3.8-2.7
		c-1-1.8-1.3-3.8-1.3-5.9c0-0.8,0.2-1.6,0.3-2.4c0.2-0.8,0.3-1.4,0.6-1.9c0.3-0.5,0.6-1.3,1.3-2.2c3-4.6,5.6-6.9,8.2-6.9
		c1.3,0,1.9,0.5,1.9,1.4c0,0.6-0.3,1.8-1.3,3.2c-1,1.4-1.4,2.4-2.2,3c-1.8,1.8-3,3-3.5,3.7c-0.5,0.8-1,1.4-1,2.4
		c0,0.8,0.3,1.4,1,1.9c0.5,0.5,1.3,0.8,2.1,0.8c1,0,2.1-0.3,3.2-1.1C112.4,43.8,114,42.7,115.9,41.1z M113.7,27
		c-0.5,0-1-0.3-1.4-0.6c-0.5-0.3-0.8-1-0.8-1.4c0-1,0.3-1.9,1.3-3c1-1.1,1.8-1.6,2.7-1.6c0.6,0,1.1,0.3,1.4,0.6
		c0.3,0.3,0.6,1,0.6,1.6c0,1-0.3,1.9-1.3,3C115.7,26.5,114.6,27,113.7,27z"/>
	<path class="st153" d="M130,41.2c-1.9,2.1-3.5,3.8-5,5.3c-1.4,1.4-2.7,2.6-3.5,3.2c-1,0.8-1.4,1.1-1.9,1.1s-1.1-0.3-1.9-1.4
		c-0.6-1-1.3-2.1-1.8-3.4c-0.5-1.4-0.8-2.7-0.8-4.2c0-2.1,1-4,2.9-6.2c2.1-2.1,4.2-3.8,6.7-5.1c2.6-1.4,4.5-2.1,5.6-2.1
		c1,0,2.1,0.6,3,2.1c1.6-3.4,3.2-6.4,4.6-9c1.4-2.7,2.7-4.5,3.7-5.8c1-1.3,1.6-1.9,2.1-1.9c0.5,0,1,0.3,1.3,0.6
		c0.3,0.5,0.6,1,0.6,1.4c0,1.1-0.8,3-2.4,5.6s-3.2,5.3-4.6,7.8c-1.4,2.6-2.9,5-4,7.4c-1.1,2.4-1.6,4.6-1.6,6.9
		c0,1.9,0.6,2.7,1.8,2.7c0.8,0,1.6-0.3,2.7-1.3c1.1-1,2.7-2.2,4.8-4.2v2.2c-4.5,5.8-8,8.8-10.4,8.8c-1,0-1.6-0.3-2.1-1.1
		c-0.3-0.5-0.6-1.6-0.6-3C129.2,45.7,129.5,43.5,130,41.2z M132.4,33.5c-1.9,0.6-4,1.6-6.6,3c-2.6,1.4-4,2.4-4.5,2.9
		c-0.5,0.3-1,1.3-1.3,2.4s-0.5,2.1-0.5,2.7c0,0.3,0.2,0.6,0.3,1c0.3,0.3,0.5,0.3,0.8,0.3c0.3,0,0.6-0.2,1-0.3c0.3-0.3,1-0.8,1.8-1.4
		c1-0.8,1.4-1.3,1.6-1.4c0.3-0.3,1.1-1,2.4-2.1c1.3-1,2.1-1.9,2.7-2.4c0.5-0.6,1-1.3,1.4-2.1C131.9,35.1,132.2,34.3,132.4,33.5z"/>
	<path class="st153" d="M146.2,35.5c3.2-2.9,6.2-5,9.3-6.4c3-1.4,5.3-2.1,6.9-2.1c0.3,0,1,0.2,1.3,0.5c0.3,0.3,0.6,0.8,1,1.3
		c0.3,0.5,0.3,1,0.3,1.1c0,0.3-0.2,0.6-0.3,1c-0.3,0.2-0.8,0.3-1.4,0.6c0.2,0.3,0.3,0.8,0.5,1.3c0.3,0.5,0.3,1,0.5,1.3
		c0.2,0.3,0.3,0.6,0.3,1c0,0.5-0.5,1.4-1.4,2.7c-1,1.4-1.8,2.4-2.1,3c-0.3,0.6-0.6,1.4-0.6,2.4c0,1.4,0.8,2.2,2.1,2.2
		c1.4,0,3.8-1.4,6.9-4.2v1.9c-5.3,5.9-9.1,8.8-11.4,8.8c-0.8,0-1.4-0.3-1.8-0.8s-0.5-1.4-0.5-2.4c0-1.6,0.6-4,1.8-7.2
		c-3,3.4-5.3,5.8-6.9,7.4c-1.4,1.3-2.7,1.9-3.7,1.9c-0.5,0-1-0.3-1.8-1.1c-0.6-0.8-1.3-1.9-1.9-3.2c-0.5-1.3-0.8-2.7-0.8-3.8
		c0-1,0.2-1.8,0.3-2.6c0.3-0.6,0.5-1.4,1.1-2.1C144.1,37.5,144.9,36.6,146.2,35.5z M161.4,31.9c-5.4,2.6-9.3,4.6-11.7,6.2
		c-2.2,1.8-3.5,3.5-3.5,5.4c0,0.6,0.2,1.3,0.3,1.6c0.3,0.3,0.5,0.6,1,0.6c0.3,0,0.6-0.2,1.3-0.5c2.1-1.3,4.2-3,6.1-5
		C156.6,38.3,158.7,35.6,161.4,31.9z"/>
	<path class="st153" d="M190.4,38.8c3.8-6.2,6.6-10.9,8.5-14.6c1.9-3.5,2.7-5.8,2.7-6.9c0-0.3-0.2-0.6-0.3-1c-0.3-0.3-0.5-0.3-1-0.3
		c-0.6,0-2.6,0.6-5.6,1.9c-2.6,1-4.3,1.9-5.4,2.6s-2.7,1.4-4.8,2.7c-2.1,1.1-3.2,1.8-3.5,1.8c-0.6,0-1-0.3-1-1.3c0-1.4,1-3.7,3-6.2
		c2.1-2.7,4.8-5,8.2-6.9c0.3-0.3,0.6-0.3,0.6,0.2c0,0.2-0.3,0.3-0.8,0.8c-0.5,0.3-1,0.8-1.4,1.1c-0.5,0.3-1,1-1.3,1.8
		c4.5-2.1,7.7-3.8,9.8-4.6c2.1-0.8,3.8-1.4,5.3-1.4c1.3,0,2.2,0.3,3,0.8c0.8,0.5,1.1,1.3,1.1,2.2s-0.3,2.1-1,3.8
		c-0.8,1.6-1.8,3.8-3,6.2c-1.3,2.4-2.7,4.8-4.2,7.2c-1.4,2.4-3.8,6.6-7.5,12.8c4-5,7.8-9.6,11.2-13.3c3.4-3.8,6.4-6.9,9-9.3
		c2.6-2.4,4.6-4.2,6.4-5.4s3-1.8,3.8-1.8c0.3,0,0.6,0.3,1,1c0.3,0.5,0.8,1.3,1,2.1c0.3,0.8,0.5,1.4,0.5,2.1c0,1.4-0.3,2.7-1,4.2
		c-0.6,1.4-1.8,3-3.2,5c-3.8,5.3-6.9,9.6-8.6,12.7c-1.8,3-2.7,5.6-2.7,7.4c0,1.4,0.8,2.1,2.1,2.1c0.6,0,1.4-0.3,2.4-0.8
		s2.1-1.3,3.2-2.2c1.3-1,2.6-2.1,3.8-3.4l0.2,2.4c-1.8,1.9-3.4,3.4-4.8,4.8c-1.4,1.3-2.7,2.6-4,3.4c-1.3,1-2.4,1.8-3.4,2.2
		c-1,0.5-1.9,0.8-2.7,0.8c-1.1,0-2.1-0.3-2.7-1.1c-0.6-0.8-1-1.8-1-2.9c0-1.1,0.3-2.6,0.8-4.2s1.3-3.4,2.2-5.6
		c1-2.1,2.2-4.5,3.8-6.9s3.2-5,5-7.7c1.9-2.7,2.7-4.3,2.7-5c0-0.3-0.3-0.6-0.8-0.6c-1.9,0-6.2,3.8-12.8,11.2
		c-0.3,0.5-1.1,1.3-2.1,2.6c-1,1.3-2.1,2.6-3.2,4c-1.1,1.4-2.2,3-3.7,4.8c-1.4,1.8-2.7,3.5-4,5.3c-0.6,1-1.3,1.3-1.6,1.3
		c-0.5,0-1.1-0.3-2.1-1.3c-0.8-1-1.3-1.4-1.3-1.8s0.6-1.4,1.8-3.2C188.8,41.5,189.6,40.1,190.4,38.8z"/>
	<path class="st153" d="M235.9,38.8c-3,4-5.4,6.9-6.9,8.6c-1.6,1.6-2.9,2.6-3.8,2.6c-0.8,0-1.4-0.3-2.1-1c-0.6-0.6-1.1-1.4-1.4-2.7
		c-0.3-1.1-0.5-2.2-0.5-3.7c0-1,0.2-1.6,0.3-2.2c0.2-0.6,0.5-1.4,1-2.2c0.3-0.8,1-1.6,1.8-2.7c0.8-1,1.6-2.1,2.7-3.2
		c0.6-0.8,1.1-1.4,1.6-1.9c0.3-0.5,1-1,1.3-1c0.3-0.2,1.1-0.3,2.1-0.3c0.6,0,1.3,0.2,1.9,0.3c0.6,0.2,1,0.3,1,0.5c0,0.3-0.3,1-1,2.1
		c-0.6,1-1.6,2.1-3,3.7c-1.4,1.4-3,2.7-4.8,4.2c-0.3,1.3-0.6,2.1-0.6,2.7c0,1,0.3,1.4,1,1.4c0.3,0,0.6-0.3,1.3-0.6
		c0.6-0.3,1.6-1.3,3-2.6c1.4-1.3,2.7-2.2,3.8-3.2c0.8-0.8,1.8-1.8,2.9-3.2c1.1-1.4,2.1-2.6,2.7-3.2c1.4-1.6,2.7-2.7,3.2-3.2
		s1.1-0.8,1.6-0.8s1,0.2,1,0.5c0.2,0.3,0.3,1,0.3,1.9c0,0.5,0,0.8-0.2,1.1c-0.2,0.3-0.3,0.6-0.5,1c-0.3,0.3-0.8,1.3-1.6,2.4
		c-0.8,1.1-1.8,2.6-2.7,4c-0.6,1-1.1,1.8-1.4,2.7s-1,1.9-1,2.4c0,1.1,0.3,1.6,1.3,1.6c0.8,0,1.4-0.3,2.6-1c1-0.6,2.4-1.6,4.3-3.2
		v2.1c-2.4,2.2-4.3,3.8-5.4,5c-1.1,1.1-2.1,1.8-3,2.2c-1,0.5-1.6,0.8-2.4,0.8c-1.8,0-2.7-1-2.7-3.2c0-0.8,0.3-1.9,0.8-3.2
		C233.8,43.5,234.6,41.5,235.9,38.8z"/>
	<path class="st153" d="M250.9,42.2V43c0,1.3,0.3,2.1,1,2.9c0.6,0.8,1.4,1,2.4,1c1,0,2.1-0.3,3.2-0.8c1.1-0.5,2.1-1.1,3.2-1.9
		c1.1-0.8,2.4-1.9,4-3.2v1.9c-2.4,2.9-4.5,5-6.7,6.6c-2.1,1.4-4.2,2.2-6.2,2.2c-1.9,0-3.4-0.8-4.5-2.1c-1.1-1.4-1.6-3.4-1.6-5.9
		c0-2.1,0.5-4.2,1.4-6.1c1-1.8,2.7-3.7,5-5.6c1.6-1.4,3.2-2.4,4.8-3c1.6-0.6,3-1,4.2-1c1,0,1.8,0.3,2.4,0.6c0.6,0.5,1,1.1,1,2.1
		c0,1.3-0.5,2.7-1.4,3.8c-1,1.1-2.6,2.7-4.5,3.8C256.4,39.8,253.8,41.1,250.9,42.2z M251.1,40.1c1.9-0.8,3.5-1.6,4.8-2.7
		c1.4-1.1,2.4-2.1,3-3.2c0.6-1,1-1.8,1-2.1c0-0.5-0.3-0.8-0.6-0.8s-1,0.3-1.9,0.8c-1,0.5-1.8,1.1-2.7,1.9c-1,0.8-1.6,1.6-2.4,2.7
		C251.9,37.7,251.4,38.8,251.1,40.1z"/>
	<path class="st153" d="M267.9,41.2l-0.5,2.7c-0.2,0.3-0.2,0.8-0.2,1.1c0,1.1,0.5,1.6,1.4,1.6s3.2-1.8,6.6-5.3
		c0-1.4,0.5-2.9,1.4-4.6c1-1.8,2.1-3.4,3.2-4.6c1.3-1.4,2.1-2.1,2.7-2.1c1,0,1.4,0.6,1.4,1.8c0,0.8-0.2,1.6-0.5,2.7
		c-0.3,1-1,2.1-1.6,3.4c-0.6,1.3-1.4,2.6-2.6,3.8c0.5,1,1,1.4,1.6,1.4c0.5,0,1-0.2,1.4-0.5c0.5-0.3,1.3-1,2.1-1.4v2.1
		c-1.1,1-2.1,1.4-2.7,1.9c-0.6,0.3-1.4,0.5-2.7,0.5c-0.3,0-1.1-0.3-2.2-1c-2.1,2.2-3.8,3.8-5.3,5c-1.4,1.1-2.4,1.6-3.2,1.6
		c-1.4,0-2.7-1-3.7-2.7c-1-1.8-1.4-3.7-1.4-5.6c0-2.7,1.4-6.2,4.6-10.1c1-1.1,1.8-2.1,2.2-2.4c0.6-0.3,1.3-0.6,2.1-0.6
		c0.6,0,1.3,0.2,1.8,0.3c0.5,0.3,1,0.5,1,0.8c0,1-0.8,2.7-2.1,4.6C271.4,37.9,269.8,39.6,267.9,41.2z"/>
	<path class="st153" d="M288.4,35.5c3.2-2.9,6.2-5,9.3-6.4c3-1.4,5.3-2.1,6.9-2.1c0.3,0,1,0.2,1.3,0.5c0.3,0.3,0.6,0.8,1,1.3
		c0.3,0.5,0.3,1,0.3,1.1c0,0.3-0.2,0.6-0.3,1c-0.3,0.2-0.8,0.3-1.4,0.6c0.2,0.3,0.3,0.8,0.5,1.3c0.3,0.5,0.3,1,0.5,1.3
		s0.3,0.6,0.3,1c0,0.5-0.5,1.4-1.4,2.7c-1,1.3-1.8,2.4-2.1,3c-0.3,0.6-0.6,1.4-0.6,2.4c0,1.4,0.8,2.2,2.1,2.2c1.4,0,3.8-1.4,6.9-4.2
		v1.9c-5.3,5.9-9.1,8.8-11.4,8.8c-0.8,0-1.4-0.3-1.8-0.8s-0.5-1.4-0.5-2.4c0-1.6,0.6-4,1.8-7.2c-3,3.4-5.3,5.8-6.9,7.4
		c-1.4,1.4-2.7,2.1-3.7,2.1c-0.5,0-1-0.3-1.8-1.1s-1.3-1.9-1.9-3.2c-0.5-1.3-0.8-2.7-0.8-3.8c0-1,0.2-1.8,0.3-2.6
		c0.2-0.6,0.5-1.4,1.1-2.1C286.3,37.5,287.3,36.6,288.4,35.5z M303.5,31.9c-5.4,2.6-9.3,4.6-11.7,6.2c-2.2,1.8-3.5,3.5-3.5,5.4
		c0,0.6,0.2,1.3,0.3,1.6c0.3,0.3,0.5,0.6,1,0.6c0.3,0,0.6-0.2,1.3-0.5c2.1-1.3,4.2-3,6.1-5C298.7,38.3,300.9,35.6,303.5,31.9z"/>
</g>
</svg>
