<?xml version="1.0" encoding="utf-8"?>
<!-- Generator: Adobe Illustrator 28.1.0, SVG Export Plug-In . SVG Version: 6.00 Build 0)  -->
<svg version="1.1" id="Capa_1" xmlns="http://www.w3.org/2000/svg" xmlns:xlink="http://www.w3.org/1999/xlink" x="0px" y="0px"
	 viewBox="0 0 344.5 67.6" style="enable-background:new 0 0 344.5 67.6;" xml:space="preserve">
<style type="text/css">
	.st0{fill:#FFC800;}
	.st1{fill:#FFFFFF;}
	.st2{fill:#15410C;}
	.st3{clip-path:url(#SVGID_00000127014110433177106680000003586260812334568086_);}
	.st4{fill:url(#SVGID_00000128465326941851604960000004904477278594643341_);}
	.st5{clip-path:url(#SVGID_00000155827606943043813840000018396056752869228459_);}
	.st6{fill:url(#SVGID_00000078745673328963336210000010091495826544999821_);}
	
		.st7{clip-path:url(#SVGID_00000148626108826103721600000009959626888018609336_);fill:url(#SVGID_00000018923142532072379340000009917228620331460542_);}
	
		.st8{clip-path:url(#SVGID_00000085958333524058222550000005232733013935318922_);fill:url(#SVGID_00000148625777415266849350000015689148865091259065_);}
	
		.st9{clip-path:url(#SVGID_00000104672404092606203930000009411275698891540628_);fill:url(#SVGID_00000035495015079032279370000007948208220375523458_);}
	
		.st10{clip-path:url(#SVGID_00000152959210374272973800000004284882281564300180_);fill:url(#SVGID_00000128476662937399882440000001117508013549203887_);}
	
		.st11{clip-path:url(#SVGID_00000147194566289035971790000003143177279655431329_);fill:url(#SVGID_00000106867582598124028650000014586654665515438725_);}
	
		.st12{clip-path:url(#SVGID_00000099644691157088835010000005801374918349820863_);fill:url(#SVGID_00000027572956368684429890000008492136968720409238_);}
	
		.st13{clip-path:url(#SVGID_00000008844503444452077860000018316165460538363819_);fill:url(#SVGID_00000047029755018853533090000016838833791287582376_);}
	
		.st14{clip-path:url(#SVGID_00000118371155914467462140000006847032740160376721_);fill:url(#SVGID_00000163053780369205120510000013512179144966601092_);}
	
		.st15{clip-path:url(#SVGID_00000155847773338013346190000007719818324523280294_);fill:url(#SVGID_00000181798851139527338990000007567323026075416228_);}
	
		.st16{clip-path:url(#SVGID_00000114785848266515902370000014244775382481173901_);fill:url(#SVGID_00000016791022766832546970000006730763016717103232_);}
	
		.st17{clip-path:url(#SVGID_00000080888602391669742620000016472148682748973720_);fill:url(#SVGID_00000118387415477467155950000003393246490410009278_);}
	
		.st18{clip-path:url(#SVGID_00000144319000189248967160000008114292093443883452_);fill:url(#SVGID_00000160891184175918994980000015465497289844031403_);}
	.st19{fill:#DCDCDC;}
	.st20{fill:#D4D4D4;}
	
		.st21{clip-path:url(#SVGID_00000044158988012225111760000017324215940712242855_);fill:url(#SVGID_00000105400764457958847260000001833532186214754446_);}
	.st22{fill:#1D1D1B;}
	.st23{fill:#959495;}
	
		.st24{clip-path:url(#SVGID_00000147925642948738160510000012773707773455899025_);fill:url(#SVGID_00000014601419626559771960000008499010654984663473_);}
	
		.st25{clip-path:url(#SVGID_00000017477808093712969930000003009552294044784777_);fill:url(#SVGID_00000047760126543683273860000007616657050059421101_);}
	.st26{fill:#979797;}
	.st27{fill:#CBCACA;}
	.st28{fill:#808080;}
	.st29{fill:#BACA23;}
	.st30{fill:#231F20;}
</style>
<g>
	<path class="st0" d="M115.6,17.7c0,0.2-0.3,0.6-0.8,1.4s-1.1,1.9-2.1,3.4s-2.1,3.4-3.4,5.6c-1.4,2.2-2.7,4.8-4.2,7.7
		c-1.6,3.2-2.7,5.8-3.5,7.5c-0.8,1.9-1.1,3.4-1.1,4.8c0,1,0.5,2.1,1.6,2.7c1.4-1,2.7-2.2,3.8-3.8c1.3-1.4,2.7-3,3.8-4.8
		c1.3-1.8,2.7-4,4.5-6.9c1.6-2.7,3.2-5.3,4.5-7.5c-0.2-0.2-0.2-0.3-0.3-0.5c-0.2-0.2-0.2-0.3-0.2-0.5c0-1,0.3-1.9,0.6-2.7
		c0.3-0.8,1-1.6,1.4-2.6c0.6-1,1.4-2.1,2.7-3.4c0.3-0.3,0.8-0.6,1.1-0.6c0.8,0,1.1,0.5,1.1,1.4s-0.3,2.6-1.1,4.5
		c-0.8,1.9-1.9,4.5-3.5,7.4c-1.4,2.7-3.4,5.9-5.6,9.3s-5,7-7.7,10.9c-2.9,3.8-5,5.6-6.2,5.6c-0.8,0-1.4-0.3-2.4-1.1
		s-1.6-1.9-2.2-3.2c-0.6-1.4-1-2.7-1-4.5c0-1,0.3-2.1,0.6-3.5c0.3-1.4,1-3.2,1.8-5.1c1-2.1,1.8-4,2.7-6.1c1.1-2.1,2.1-3.8,2.9-5.1
		s1.8-2.9,2.7-4.5c1-1.6,1.4-2.6,1.4-2.7c0-0.3-0.3-0.5-0.6-0.5c-1.3,0-2.9,0.6-5,1.9s-4.6,3.2-8,5.6c-1.3,1-2.1,1.6-2.4,1.9
		S91,30.2,91,30.5s0.3,0.3,0.6,0.3c0.2,0,0.8-0.2,1.6-0.2c1-0.2,1.8-0.3,2.2-0.3c1,0,1.4,0.2,1.4,0.5s-0.3,0.5-0.6,0.6
		c-0.3,0.2-1,0.3-1.6,0.5c-0.6,0.2-1.6,0.3-2.7,0.8c-1.3,0.3-2.7,0.8-4,1.4c-1.4,0.6-2.2,1-2.4,1c-0.3,0-0.6-0.2-0.8-0.3
		c-0.2-0.3-0.2-0.8-0.2-1.4c0-3,0.5-5.3,1.4-6.9c1-1.6,2.7-3.2,5.3-5c2.9-2.1,5.6-3.7,8.3-5c2.7-1.4,5-2.2,6.9-2.9
		c2.4-0.8,3.8-1,4.8-1s1.8,0.5,2.7,1.6C115.2,15.2,115.6,16.5,115.6,17.7z"/>
	<path class="st0" d="M135.1,43.4v2.2c-2.1,2.7-3.8,4.6-5.6,5.9c-1.8,1.4-3.2,2.1-4.5,2.1c-1.8,0-3-1-3.8-2.7
		c-1-1.8-1.3-3.8-1.3-5.9c0-0.8,0.2-1.6,0.3-2.4c0.2-0.8,0.3-1.4,0.6-1.9c0.3-0.5,0.6-1.3,1.3-2.2c3-4.6,5.6-6.9,8.2-6.9
		c1.3,0,1.9,0.5,1.9,1.4c0,0.6-0.3,1.8-1.3,3.2s-1.4,2.4-2.2,3c-1.8,1.8-3,3-3.5,3.7c-0.5,0.8-1,1.4-1,2.4c0,0.8,0.3,1.4,1,1.9
		c0.5,0.5,1.3,0.8,2.1,0.8c1,0,2.1-0.3,3.2-1.1S133.2,45,135.1,43.4z M132.9,29.3c-0.5,0-1-0.3-1.4-0.6c-0.5-0.3-0.8-1-0.8-1.4
		c0-1,0.3-1.9,1.3-3s1.8-1.6,2.7-1.6c0.6,0,1.1,0.3,1.4,0.6c0.3,0.3,0.6,1,0.6,1.6c0,1-0.3,1.9-1.3,3
		C134.9,28.8,133.8,29.3,132.9,29.3z"/>
	<path class="st0" d="M149.2,43.5c-1.9,2.1-3.5,3.8-5,5.3c-1.4,1.4-2.7,2.6-3.5,3.2c-1,0.8-1.4,1.1-1.9,1.1s-1.1-0.3-1.9-1.4
		c-0.6-1-1.3-2.1-1.8-3.4c-0.5-1.4-0.8-2.7-0.8-4.2c0-2.1,1-4,2.9-6.2c2.1-2.1,4.2-3.8,6.7-5.1c2.6-1.4,4.5-2.1,5.6-2.1
		c1,0,2.1,0.6,3,2.1c1.6-3.4,3.2-6.4,4.6-9c1.4-2.7,2.7-4.5,3.7-5.8s1.6-1.9,2.1-1.9s1,0.3,1.3,0.6c0.3,0.5,0.6,1,0.6,1.4
		c0,1.1-0.8,3-2.4,5.6s-3.2,5.3-4.6,7.8c-1.4,2.6-2.9,5-4,7.4s-1.6,4.6-1.6,6.9c0,1.9,0.6,2.7,1.8,2.7c0.8,0,1.6-0.3,2.7-1.3
		c1.1-1,2.7-2.2,4.8-4.2v2.2c-4.5,5.8-8,8.8-10.4,8.8c-1,0-1.6-0.3-2.1-1.1c-0.3-0.5-0.6-1.6-0.6-3C148.4,48,148.7,45.8,149.2,43.5z
		 M151.6,35.8c-1.9,0.6-4,1.6-6.6,3s-4,2.4-4.5,2.9c-0.5,0.3-1,1.3-1.3,2.4s-0.5,2.1-0.5,2.7c0,0.3,0.2,0.6,0.3,1
		c0.3,0.3,0.5,0.3,0.8,0.3s0.6-0.2,1-0.3c0.3-0.3,1-0.8,1.8-1.4c1-0.8,1.4-1.3,1.6-1.4c0.3-0.3,1.1-1,2.4-2.1c1.3-1,2.1-1.9,2.7-2.4
		c0.5-0.6,1-1.3,1.4-2.1C151.1,37.4,151.4,36.6,151.6,35.8z"/>
	<path class="st0" d="M165.4,37.8c3.2-2.9,6.2-5,9.3-6.4c3-1.4,5.3-2.1,6.9-2.1c0.3,0,1,0.2,1.3,0.5s0.6,0.8,1,1.3
		c0.3,0.5,0.3,1,0.3,1.1c0,0.3-0.2,0.6-0.3,1c-0.3,0.2-0.8,0.3-1.4,0.6c0.2,0.3,0.3,0.8,0.5,1.3c0.3,0.5,0.3,1,0.5,1.3
		s0.3,0.6,0.3,1c0,0.5-0.5,1.4-1.4,2.7c-1,1.4-1.8,2.4-2.1,3s-0.6,1.4-0.6,2.4c0,1.4,0.8,2.2,2.1,2.2c1.4,0,3.8-1.4,6.9-4.2v1.9
		c-5.3,5.9-9.1,8.8-11.4,8.8c-0.8,0-1.4-0.3-1.8-0.8S175,52,175,51c0-1.6,0.6-4,1.8-7.2c-3,3.4-5.3,5.8-6.9,7.4
		c-1.4,1.3-2.7,1.9-3.7,1.9c-0.5,0-1-0.3-1.8-1.1c-0.6-0.8-1.3-1.9-1.9-3.2c-0.5-1.3-0.8-2.7-0.8-3.8c0-1,0.2-1.8,0.3-2.6
		c0.3-0.6,0.5-1.4,1.1-2.1C163.3,39.8,164.1,38.9,165.4,37.8z M180.6,34.2c-5.4,2.6-9.3,4.6-11.7,6.2c-2.2,1.8-3.5,3.5-3.5,5.4
		c0,0.6,0.2,1.3,0.3,1.6c0.3,0.3,0.5,0.6,1,0.6c0.3,0,0.6-0.2,1.3-0.5c2.1-1.3,4.2-3,6.1-5C175.8,40.6,177.9,37.9,180.6,34.2z"/>
	<path class="st0" d="M209.6,41.1c3.8-6.2,6.6-10.9,8.5-14.6c1.9-3.5,2.7-5.8,2.7-6.9c0-0.3-0.2-0.6-0.3-1c-0.3-0.3-0.5-0.3-1-0.3
		c-0.6,0-2.6,0.6-5.6,1.9c-2.6,1-4.3,1.9-5.4,2.6s-2.7,1.4-4.8,2.7c-2.1,1.1-3.2,1.8-3.5,1.8c-0.6,0-1-0.3-1-1.3c0-1.4,1-3.7,3-6.2
		c2.1-2.7,4.8-5,8.2-6.9c0.3-0.3,0.6-0.3,0.6,0.2c0,0.2-0.3,0.3-0.8,0.8c-0.5,0.3-1,0.8-1.4,1.1c-0.5,0.3-1,1-1.3,1.8
		c4.5-2.1,7.7-3.8,9.8-4.6s3.8-1.4,5.3-1.4c1.3,0,2.2,0.3,3,0.8s1.1,1.3,1.1,2.2s-0.3,2.1-1,3.8c-0.8,1.6-1.8,3.8-3,6.2
		c-1.3,2.4-2.7,4.8-4.2,7.2c-1.4,2.4-3.8,6.6-7.5,12.8c4-5,7.8-9.6,11.2-13.3c3.4-3.8,6.4-6.9,9-9.3s4.6-4.2,6.4-5.4s3-1.8,3.8-1.8
		c0.3,0,0.6,0.3,1,1c0.3,0.5,0.8,1.3,1,2.1c0.3,0.8,0.5,1.4,0.5,2.1c0,1.4-0.3,2.7-1,4.2c-0.6,1.4-1.8,3-3.2,5
		c-3.8,5.3-6.9,9.6-8.6,12.7c-1.8,3-2.7,5.6-2.7,7.4c0,1.4,0.8,2.1,2.1,2.1c0.6,0,1.4-0.3,2.4-0.8s2.1-1.3,3.2-2.2
		c1.3-1,2.6-2.1,3.8-3.4l0.2,2.4c-1.8,1.9-3.4,3.4-4.8,4.8c-1.4,1.3-2.7,2.6-4,3.4c-1.3,1-2.4,1.8-3.4,2.2c-1,0.5-1.9,0.8-2.7,0.8
		c-1.1,0-2.1-0.3-2.7-1.1c-0.6-0.8-1-1.8-1-2.9c0-1.1,0.3-2.6,0.8-4.2s1.3-3.4,2.2-5.6c1-2.1,2.2-4.5,3.8-6.9s3.2-5,5-7.7
		c1.9-2.7,2.7-4.3,2.7-5c0-0.3-0.3-0.6-0.8-0.6c-1.9,0-6.2,3.8-12.8,11.2c-0.3,0.5-1.1,1.3-2.1,2.6s-2.1,2.6-3.2,4
		c-1.1,1.4-2.2,3-3.7,4.8c-1.4,1.8-2.7,3.5-4,5.3c-0.6,1-1.3,1.3-1.6,1.3c-0.5,0-1.1-0.3-2.1-1.3c-0.8-1-1.3-1.4-1.3-1.8
		s0.6-1.4,1.8-3.2C208,43.8,208.8,42.4,209.6,41.1z"/>
	<path class="st0" d="M255.1,41.1c-3,4-5.4,6.9-6.9,8.6c-1.6,1.6-2.9,2.6-3.8,2.6c-0.8,0-1.4-0.3-2.1-1c-0.6-0.6-1.1-1.4-1.4-2.7
		c-0.3-1.1-0.5-2.2-0.5-3.7c0-1,0.2-1.6,0.3-2.2c0.2-0.6,0.5-1.4,1-2.2c0.3-0.8,1-1.6,1.8-2.7c0.8-1,1.6-2.1,2.7-3.2
		c0.6-0.8,1.1-1.4,1.6-1.9c0.3-0.5,1-1,1.3-1c0.3-0.2,1.1-0.3,2.1-0.3c0.6,0,1.3,0.2,1.9,0.3c0.6,0.2,1,0.3,1,0.5c0,0.3-0.3,1-1,2.1
		c-0.6,1-1.6,2.1-3,3.7c-1.4,1.4-3,2.7-4.8,4.2c-0.3,1.3-0.6,2.1-0.6,2.7c0,1,0.3,1.4,1,1.4c0.3,0,0.6-0.3,1.3-0.6
		c0.6-0.3,1.6-1.3,3-2.6s2.7-2.2,3.8-3.2c0.8-0.8,1.8-1.8,2.9-3.2c1.1-1.4,2.1-2.6,2.7-3.2c1.4-1.6,2.7-2.7,3.2-3.2s1.1-0.8,1.6-0.8
		s1,0.2,1,0.5c0.2,0.3,0.3,1,0.3,1.9c0,0.5,0,0.8-0.2,1.1s-0.3,0.6-0.5,1c-0.3,0.3-0.8,1.3-1.6,2.4c-0.8,1.1-1.8,2.6-2.7,4
		c-0.6,1-1.1,1.8-1.4,2.7s-1,1.9-1,2.4c0,1.1,0.3,1.6,1.3,1.6c0.8,0,1.4-0.3,2.6-1c1-0.6,2.4-1.6,4.3-3.2V45c-2.4,2.2-4.3,3.8-5.4,5
		c-1.1,1.1-2.1,1.8-3,2.2c-1,0.5-1.6,0.8-2.4,0.8c-1.8,0-2.7-1-2.7-3.2c0-0.8,0.3-1.9,0.8-3.2C253,45.8,253.8,43.8,255.1,41.1z"/>
	<path class="st0" d="M270.1,44.5v0.8c0,1.3,0.3,2.1,1,2.9c0.6,0.8,1.4,1,2.4,1s2.1-0.3,3.2-0.8s2.1-1.1,3.2-1.9
		c1.1-0.8,2.4-1.9,4-3.2v1.9c-2.4,2.9-4.5,5-6.7,6.6c-2.1,1.4-4.2,2.2-6.2,2.2c-1.9,0-3.4-0.8-4.5-2.1c-1.1-1.4-1.6-3.4-1.6-5.9
		c0-2.1,0.5-4.2,1.4-6.1c1-1.8,2.7-3.7,5-5.6c1.6-1.4,3.2-2.4,4.8-3s3-1,4.2-1c1,0,1.8,0.3,2.4,0.6c0.6,0.5,1,1.1,1,2.1
		c0,1.3-0.5,2.7-1.4,3.8c-1,1.1-2.6,2.7-4.5,3.8C275.6,42.1,273,43.4,270.1,44.5z M270.3,42.4c1.9-0.8,3.5-1.6,4.8-2.7
		c1.4-1.1,2.4-2.1,3-3.2c0.6-1,1-1.8,1-2.1c0-0.5-0.3-0.8-0.6-0.8s-1,0.3-1.9,0.8c-1,0.5-1.8,1.1-2.7,1.9c-1,0.8-1.6,1.6-2.4,2.7
		C271.1,40,270.6,41.1,270.3,42.4z"/>
	<path class="st0" d="M287.1,43.5l-0.5,2.7c-0.2,0.3-0.2,0.8-0.2,1.1c0,1.1,0.5,1.6,1.4,1.6s3.2-1.8,6.6-5.3c0-1.4,0.5-2.9,1.4-4.6
		c1-1.8,2.1-3.4,3.2-4.6c1.3-1.4,2.1-2.1,2.7-2.1c1,0,1.4,0.6,1.4,1.8c0,0.8-0.2,1.6-0.5,2.7c-0.3,1-1,2.1-1.6,3.4
		c-0.6,1.3-1.4,2.6-2.6,3.8c0.5,1,1,1.4,1.6,1.4c0.5,0,1-0.2,1.4-0.5c0.5-0.3,1.3-1,2.1-1.4v2.1c-1.1,1-2.1,1.4-2.7,1.9
		c-0.6,0.3-1.4,0.5-2.7,0.5c-0.3,0-1.1-0.3-2.2-1c-2.1,2.2-3.8,3.8-5.3,5c-1.4,1.1-2.4,1.6-3.2,1.6c-1.4,0-2.7-1-3.7-2.7
		c-1-1.8-1.4-3.7-1.4-5.6c0-2.7,1.4-6.2,4.6-10.1c1-1.1,1.8-2.1,2.2-2.4c0.6-0.3,1.3-0.6,2.1-0.6c0.6,0,1.3,0.2,1.8,0.3
		c0.5,0.3,1,0.5,1,0.8c0,1-0.8,2.7-2.1,4.6C290.6,40.2,289,41.9,287.1,43.5z"/>
	<path class="st0" d="M307.6,37.8c3.2-2.9,6.2-5,9.3-6.4c3-1.4,5.3-2.1,6.9-2.1c0.3,0,1,0.2,1.3,0.5s0.6,0.8,1,1.3
		c0.3,0.5,0.3,1,0.3,1.1c0,0.3-0.2,0.6-0.3,1c-0.3,0.2-0.8,0.3-1.4,0.6c0.2,0.3,0.3,0.8,0.5,1.3c0.3,0.5,0.3,1,0.5,1.3
		s0.3,0.6,0.3,1c0,0.5-0.5,1.4-1.4,2.7c-1,1.3-1.8,2.4-2.1,3c-0.3,0.6-0.6,1.4-0.6,2.4c0,1.4,0.8,2.2,2.1,2.2c1.4,0,3.8-1.4,6.9-4.2
		v1.9c-5.3,5.9-9.1,8.8-11.4,8.8c-0.8,0-1.4-0.3-1.8-0.8s-0.5-1.4-0.5-2.4c0-1.6,0.6-4,1.8-7.2c-3,3.4-5.3,5.8-6.9,7.4
		c-1.4,1.4-2.7,2.1-3.7,2.1c-0.5,0-1-0.3-1.8-1.1s-1.3-1.9-1.9-3.2c-0.5-1.3-0.8-2.7-0.8-3.8c0-1,0.2-1.8,0.3-2.6
		c0.2-0.6,0.5-1.4,1.1-2.1C305.5,39.8,306.5,38.9,307.6,37.8z M322.7,34.2c-5.4,2.6-9.3,4.6-11.7,6.2c-2.2,1.8-3.5,3.5-3.5,5.4
		c0,0.6,0.2,1.3,0.3,1.6c0.3,0.3,0.5,0.6,1,0.6c0.3,0,0.6-0.2,1.3-0.5c2.1-1.3,4.2-3,6.1-5C317.9,40.6,320.1,37.9,322.7,34.2z"/>
</g>
<g>
	<path class="st1" d="M68.7,32.9h-4.4c-0.1-2.7-0.5-5.3-1.3-7.8l4.1-1.5c-1.4-4.1-3.6-7.9-6.4-11.1l-3.4,2.8
		c-1.7-1.8-3.5-3.4-5.6-4.8l2.2-3.8c-3.7-2.3-7.8-3.9-12.3-4.5l-0.8,4.3c-1.3-0.2-2.5-0.3-3.8-0.3s-2.6,0.1-3.9,0.3l-0.8-4.3
		C28,2.9,23.8,4.5,20.1,6.8l2.2,3.8c-2.1,1.4-4.1,3.1-5.8,5l-3.4-2.8c-2.9,3.3-5.1,7.2-6.4,11.4l4.1,1.5c-0.7,2.3-1.1,4.8-1.2,7.3
		H5.4c0,0.2,0,0.4,0,0.6c0,4.2,0.8,8.3,2.4,12l4.1-1.5c1,2.3,2.3,4.5,3.8,6.4l-3.4,2.8c2.7,3.4,6,6.2,9.9,8.2l2.2-3.8
		c2.2,1.1,4.5,2,7,2.5l-0.8,4.3c2.1,0.4,4.3,0.7,6.5,0.7c2.2,0,4.4-0.2,6.5-0.7l-0.8-4.3c2.4-0.5,4.8-1.4,6.9-2.5l2.2,3.8
		c3.8-2,7.2-4.8,9.9-8.2l-3.4-2.8c1.6-2,2.9-4.2,3.9-6.5l4.1,1.5c1.5-3.7,2.3-7.7,2.3-11.9C68.7,33.3,68.7,33.1,68.7,32.9"/>
	<path class="st2" d="M43.1,4.3C46,4.9,48.8,6,51.4,7.4l-1.3,2.2l-0.9,1.5l1.5,0.9c1.9,1.2,3.7,2.7,5.2,4.5l1.2,1.3l1.4-1.1l2-1.6
		c1.8,2.3,3.2,4.7,4.3,7.4l-2.4,0.9L60.7,24l0.5,1.7c0.8,2.3,1.2,4.8,1.2,7.3l0,1.8h1.8h2.5c-0.1,2.9-0.6,5.7-1.5,8.4l-2.4-0.9
		l-1.6-0.6l-0.7,1.6c-0.9,2.2-2.1,4.2-3.6,6.1l-1.1,1.4l1.4,1.1l2,1.6c-1.9,2.1-4.1,4-6.6,5.5l-1.3-2.2l-0.9-1.5l-1.5,0.8
		c-2,1.1-4.2,1.8-6.4,2.3l-1.7,0.4l0.3,1.8l0.4,2.5c-1.4,0.2-2.9,0.3-4.4,0.3s-2.9-0.1-4.4-0.3l0.4-2.5l0.3-1.8l-1.7-0.4
		c-2.3-0.5-4.5-1.3-6.5-2.4l-1.6-0.8l-0.9,1.5L21.5,59c-2.5-1.5-4.7-3.3-6.6-5.5l2-1.6l1.4-1.1l-1.1-1.4c-1.4-1.8-2.6-3.8-3.5-6
		l-0.7-1.6l-1.7,0.6l-2.4,0.9c-0.9-2.7-1.5-5.6-1.6-8.5h2.5h1.8l0-1.8c0.1-2.3,0.4-4.6,1.1-6.8l0.5-1.7l-1.6-0.6L9.1,23
		c1-2.8,2.5-5.4,4.3-7.7l2,1.6l1.4,1.1l1.2-1.3c1.6-1.8,3.4-3.3,5.4-4.6l1.5-0.9l-0.9-1.5l-1.3-2.2C25.2,6,28,4.9,30.9,4.3l0.4,2.5
		l0.3,1.7l1.8-0.2c1.2-0.2,2.4-0.3,3.6-0.3s2.4,0.1,3.6,0.3l1.8,0.2l0.3-1.7L43.1,4.3z M41.7,2.2l-0.8,4.3c-1.3-0.2-2.5-0.3-3.8-0.3
		s-2.6,0.1-3.9,0.3l-0.8-4.3C28,2.9,23.8,4.4,20.1,6.8l2.2,3.8c-2.1,1.4-4.1,3.1-5.8,5l-3.4-2.8c-2.9,3.3-5.1,7.2-6.4,11.4l4.1,1.5
		c-0.7,2.3-1.1,4.8-1.2,7.3H5.4c0,0.2,0,0.4,0,0.6c0,4.2,0.8,8.3,2.4,12l4.1-1.5c1,2.3,2.3,4.5,3.8,6.4l-3.4,2.8
		c2.7,3.4,6,6.2,9.9,8.2l2.2-3.8c2.2,1.1,4.5,2,7,2.5l-0.8,4.3c2.1,0.4,4.3,0.7,6.5,0.7c2.2,0,4.4-0.2,6.5-0.7l-0.8-4.3
		c2.4-0.5,4.8-1.4,6.9-2.5l2.2,3.8c3.8-2,7.2-4.8,9.9-8.2l-3.4-2.8c1.6-2,2.9-4.2,3.9-6.5l4.1,1.5c1.5-3.7,2.3-7.7,2.3-11.9
		c0-0.2,0-0.4,0-0.6h-4.4c-0.1-2.7-0.5-5.3-1.3-7.8l4.1-1.5c-1.4-4.1-3.6-7.9-6.4-11.1l-3.4,2.8c-1.7-1.8-3.5-3.4-5.6-4.8l2.2-3.8
		C50.3,4.4,46.1,2.9,41.7,2.2z"/>
	<g>
		<g>
			<defs>
				<path id="SVGID_1_" d="M18.1,33.7c0,10.5,8.5,19,19,19s19-8.5,19-19s-8.5-19-19-19S18.1,23.2,18.1,33.7"/>
			</defs>
			<clipPath id="SVGID_00000053512419848997531800000001730747685060023451_">
				<use xlink:href="#SVGID_1_"  style="overflow:visible;"/>
			</clipPath>
			<g style="clip-path:url(#SVGID_00000053512419848997531800000001730747685060023451_);">
				
					<radialGradient id="SVGID_00000023975940557711951800000005820737705054816949_" cx="37.1234" cy="33.1044" r="27.9194" gradientUnits="userSpaceOnUse">
					<stop  offset="0" style="stop-color:#B7CD00"/>
					<stop  offset="4.575885e-02" style="stop-color:#ADC502"/>
					<stop  offset="0.6036" style="stop-color:#316417"/>
					<stop  offset="0.8492" style="stop-color:#003D1F"/>
				</radialGradient>
				<circle style="fill:url(#SVGID_00000023975940557711951800000005820737705054816949_);" cx="37.1" cy="33.1" r="27.9"/>
			</g>
		</g>
	</g>
	<g>
		<g>
			<defs>
				<path id="SVGID_00000005254399539951433220000010915553163549120414_" d="M19,28c-0.3,1-0.6,2.1-0.7,3.2l18.8-1.6L19,28z
					 M21,23.7c-0.5,0.9-1,1.8-1.4,2.7l17.5,3.1L21,23.7z M23.8,20.3c-0.7,0.7-1.3,1.4-1.9,2.2l15.2,7.1L23.8,20.3z M27.1,17.6
					c-0.8,0.5-1.5,1-2.2,1.6l12.3,10.3L27.1,17.6z M30.7,15.9c-0.8,0.3-1.6,0.7-2.4,1.1l8.8,12.6L30.7,15.9z M34.5,14.9
					c-0.9,0.1-1.7,0.3-2.5,0.5l5.1,14.1L34.5,14.9z M38.4,14.8c-0.4,0-0.8,0-1.3,0c-0.4,0-0.9,0-1.3,0l1.3,14.8L38.4,14.8z
					 M42.2,15.4c-0.8-0.2-1.7-0.4-2.5-0.5l-2.6,14.6L42.2,15.4z M45.9,16.9c-0.8-0.4-1.6-0.8-2.4-1.1l-6.4,13.7L45.9,16.9z
					 M49.4,19.2c-0.7-0.6-1.4-1.1-2.2-1.6l-10.1,12L49.4,19.2z M52.4,22.4c-0.6-0.8-1.2-1.5-1.9-2.2l-13.4,9.3L52.4,22.4z
					 M54.7,26.5c-0.4-1-0.9-1.9-1.4-2.7l-16.1,5.8L54.7,26.5z M55.9,31.2c-0.1-1.1-0.4-2.2-0.7-3.2l-18.1,1.6L55.9,31.2z M54.4,41.6
					c0.5-1.1,0.9-2.2,1.2-3.4l-18.5-8.6L54.4,41.6z M51.2,46.4c0.8-0.9,1.6-2,2.2-3L37.1,29.6L51.2,46.4z M41.1,52.3
					c1.3-0.3,2.6-0.7,3.8-1.2l-7.8-21.5L41.1,52.3z M29.3,51c1.2,0.5,2.4,1,3.7,1.2l4-22.7L29.3,51z M24.4,47.8c1,0.9,2,1.6,3.1,2.3
					l9.6-20.5L24.4,47.8z M20.8,43.3c0.6,1.1,1.4,2.1,2.2,3l14.1-16.8L20.8,43.3z M18.7,38.2c0.3,1.2,0.7,2.3,1.2,3.4l17.2-12
					L18.7,38.2z M18.1,33.7c0,0.9,0.1,1.8,0.2,2.7l18.8-6.8l-18.9,3.4C18.1,33.2,18.1,33.5,18.1,33.7z M56.1,33.7L56.1,33.7
					L56.1,33.7c0-0.3,0-0.5,0-0.8l-19-3.4l18.8,6.8C56,35.5,56.1,34.6,56.1,33.7z M37.1,52.7L37.1,52.7c0.7,0,1.3,0,2-0.1l-2-23
					l-2,23C35.8,52.7,36.4,52.7,37.1,52.7z M49.8,47.8L37.1,29.6l9.6,20.5C47.8,49.4,48.9,48.7,49.8,47.8z"/>
			</defs>
			<clipPath id="SVGID_00000156554113430769905740000003094211827934754239_">
				<use xlink:href="#SVGID_00000005254399539951433220000010915553163549120414_"  style="overflow:visible;"/>
			</clipPath>
			<g style="clip-path:url(#SVGID_00000156554113430769905740000003094211827934754239_);">
				<g>
					
						<radialGradient id="SVGID_00000151543459068552150330000004411559356299626892_" cx="36.8779" cy="33.9657" r="31.8331" fx="36.7522" fy="29.224" gradientUnits="userSpaceOnUse">
						<stop  offset="0" style="stop-color:#F2E902"/>
						<stop  offset="0.2252" style="stop-color:#B0CF11"/>
						<stop  offset="0.6581" style="stop-color:#349E2C"/>
						<stop  offset="0.8492" style="stop-color:#038A37"/>
					</radialGradient>
					<circle style="fill:url(#SVGID_00000151543459068552150330000004411559356299626892_);" cx="36.9" cy="34" r="31.8"/>
				</g>
			</g>
		</g>
	</g>
	<polygon class="st1" points="35.4,43.6 38.7,43.6 38.7,32 43.4,32 43.4,28.9 38.7,28.9 38.7,24.2 35.4,24.2 35.4,28.9 30.4,28.9 
		30.4,32 35.4,32 	"/>
	<g>
		<g>
			<g>
				<defs>
					<path id="SVGID_00000046307406938455107650000001250281641205839030_" d="M38.9,42.9l-1.7,1.6l-1.8-1.6h-8.5
						c-0.3,0-0.6,0.1-0.8,0.2c-0.7,0.4-2.3,1.3-4,2.2c0.7,0.9,1.5,1.8,2.4,2.6c2.9-0.3,5.8-0.6,7-0.6c2.4,0,3,0.9,3.5,1.1
						c0.5,0.2,1.1,0,2.1,0s1.7,0.2,2.1,0c0.5-0.2,1.1-1,3.5-1.1c1.1,0,4,0.3,6.9,0.6c0.9-0.8,1.7-1.7,2.4-2.6
						c-1.7-0.9-3.2-1.8-3.9-2.2c-0.2-0.1-0.6-0.2-0.8-0.2L38.9,42.9L38.9,42.9z"/>
				</defs>
				<clipPath id="SVGID_00000076587966007168053920000011653372873937619615_">
					<use xlink:href="#SVGID_00000046307406938455107650000001250281641205839030_"  style="overflow:visible;"/>
				</clipPath>
				
					<linearGradient id="SVGID_00000073685769607609792720000005082002610071920779_" gradientUnits="userSpaceOnUse" x1="16.7533" y1="22.1223" x2="57.4739" y2="22.1223" gradientTransform="matrix(1 0 0 -1 0 67.89)">
					<stop  offset="0" style="stop-color:#4D2F17"/>
					<stop  offset="0.51" style="stop-color:#0A0607"/>
					<stop  offset="1" style="stop-color:#4D2F17"/>
				</linearGradient>
				
					<rect x="22.1" y="42.9" style="clip-path:url(#SVGID_00000076587966007168053920000011653372873937619615_);fill:url(#SVGID_00000073685769607609792720000005082002610071920779_);" width="29.9" height="5.7"/>
			</g>
		</g>
		<g>
			<g>
				<defs>
					<path id="SVGID_00000120526024200533639940000011511711242500696499_" d="M47.4,43L47.4,43L47.4,43L47.4,43L47.4,43L47.4,43
						h-8.2l-0.2,0l-1.5,1.4l-0.1,0.1l0,0l-0.1,0.1L35.4,43h-8.5l0,0l0,0l0,0l0,0l0,0c0,0-0.1,0-0.1,0c-0.2,0-0.5,0.1-0.7,0.2
						c-0.7,0.4-2.3,1.3-4,2.2c0.7,0.9,1.5,1.8,2.4,2.5c2.9-0.3,5.8-0.6,7-0.6c0,0,0.1,0,0.1,0c2,0.1,2.7,0.7,3.2,1
						c0.1,0,0.1,0.1,0.2,0.1c0.1,0,0.1,0,0.2,0.1c0.1,0,0.3,0,0.5,0c0.2,0,0.4,0,0.6,0c0.3,0,0.6,0,0.9,0c0.1,0,0.1,0,0.2,0
						c0.4,0,0.7,0,1,0.1c0.2,0,0.4,0,0.6,0c0.1,0,0.3,0,0.4-0.1c0,0,0.1,0,0.1,0c0.1,0,0.2-0.1,0.3-0.2c0.5-0.3,1.3-0.8,3-0.8
						c0.1,0,0.1,0,0.2,0c0,0,0.1,0,0.1,0c1.3,0,3.9,0.3,6.6,0.6c0.9-0.8,1.7-1.6,2.4-2.6c-1.7-0.9-3.2-1.8-3.9-2.2
						C48,43,47.7,43,47.4,43C47.4,43,47.4,43,47.4,43"/>
				</defs>
				<clipPath id="SVGID_00000041260399238002822180000012156741033021972905_">
					<use xlink:href="#SVGID_00000120526024200533639940000011511711242500696499_"  style="overflow:visible;"/>
				</clipPath>
				
					<linearGradient id="SVGID_00000118389773222554591000000012935805849354231968_" gradientUnits="userSpaceOnUse" x1="16.7827" y1="22.1627" x2="57.4446" y2="22.1627" gradientTransform="matrix(1 0 0 -1 0 67.89)">
					<stop  offset="0" style="stop-color:#50311A"/>
					<stop  offset="0.51" style="stop-color:#0E0809"/>
					<stop  offset="1" style="stop-color:#50321A"/>
				</linearGradient>
				
					<rect x="22.1" y="43" style="clip-path:url(#SVGID_00000041260399238002822180000012156741033021972905_);fill:url(#SVGID_00000118389773222554591000000012935805849354231968_);" width="29.9" height="5.6"/>
			</g>
		</g>
		<g>
			<g>
				<defs>
					<path id="SVGID_00000045611753204543734420000000670864438208235400_" d="M47.3,43L47.3,43L47.3,43L47.3,43L47.3,43L47.3,43
						h-8.2l-0.2,0l-1.5,1.4l-0.1,0.1l0,0c0,0-0.1,0.1-0.1,0.1L35.4,43h-8.5l0,0l0,0l0,0l0,0l0,0l0,0c0,0-0.1,0-0.1,0
						c-0.2,0-0.5,0.1-0.7,0.2c-0.7,0.4-2.3,1.3-4,2.2c0.7,0.9,1.5,1.8,2.4,2.5c2.9-0.3,5.8-0.6,7-0.6c0,0,0.1,0,0.1,0
						c2,0,2.7,0.7,3.2,0.9c0.1,0,0.1,0.1,0.2,0.1c0.1,0,0.1,0,0.2,0.1c0.1,0,0.3,0,0.5,0s0.4,0,0.6,0c0.3,0,0.6,0,0.9,0
						c0.1,0,0.1,0,0.2,0c0.4,0,0.7,0,1,0.1c0.2,0,0.4,0,0.6,0c0.1,0,0.3,0,0.4-0.1c0,0,0.1,0,0.1,0c0.1,0,0.2-0.1,0.3-0.2
						c0.5-0.3,1.3-0.8,3-0.8c0.1,0,0.1,0,0.2,0c0,0,0.1,0,0.1,0c1.3,0,4,0.3,6.6,0.6c0.9-0.8,1.7-1.6,2.4-2.6
						c-1.7-0.9-3.2-1.8-3.9-2.2C48,43,47.7,43,47.5,42.9C47.4,43,47.4,43,47.3,43"/>
				</defs>
				<clipPath id="SVGID_00000128479640352380167790000002485443689729198725_">
					<use xlink:href="#SVGID_00000045611753204543734420000000670864438208235400_"  style="overflow:visible;"/>
				</clipPath>
				
					<linearGradient id="SVGID_00000020359785921516946020000012074077633254761392_" gradientUnits="userSpaceOnUse" x1="16.8111" y1="22.1627" x2="57.4153" y2="22.1627" gradientTransform="matrix(1 0 0 -1 0 67.89)">
					<stop  offset="0" style="stop-color:#52341E"/>
					<stop  offset="0.51" style="stop-color:#120A0A"/>
					<stop  offset="1" style="stop-color:#53351D"/>
				</linearGradient>
				
					<rect x="22.1" y="43" style="clip-path:url(#SVGID_00000128479640352380167790000002485443689729198725_);fill:url(#SVGID_00000020359785921516946020000012074077633254761392_);" width="29.9" height="5.5"/>
			</g>
		</g>
		<g>
			<g>
				<defs>
					<path id="SVGID_00000176010464486458959450000004741969804814785935_" d="M47.3,43h-8.2l-0.2,0l-1.5,1.4c0,0-0.1,0.1-0.1,0.1
						l0,0c0,0-0.1,0.1-0.1,0.1L35.4,43h-8.5c0,0-0.1,0-0.1,0c-0.2,0-0.5,0.1-0.7,0.2c-0.7,0.4-2.3,1.3-4,2.3
						c0.7,0.9,1.5,1.7,2.4,2.5c2.9-0.3,5.8-0.6,7-0.6c0,0,0.1,0,0.1,0c2,0,2.7,0.7,3.2,0.9c0.1,0,0.1,0.1,0.2,0.1
						c0.1,0,0.1,0.1,0.2,0.1c0.1,0,0.3,0,0.5,0c0.2,0,0.4,0,0.6,0c0.3,0,0.5,0,0.9,0c0.1,0,0.1,0,0.2,0c0.4,0,0.7,0,1,0.1
						c0.2,0,0.4,0,0.6,0c0.1,0,0.3,0,0.4-0.1c0,0,0.1,0,0.1,0c0.1,0,0.2-0.1,0.3-0.2c0.5-0.3,1.3-0.8,3-0.8c0.1,0,0.1,0,0.2,0
						c0,0,0.1,0,0.1,0c1.3,0,4,0.3,6.7,0.6c0.9-0.8,1.7-1.6,2.4-2.5c-1.7-0.9-3.2-1.8-3.9-2.2C48,43.1,47.7,43,47.5,43
						C47.4,43,47.4,43,47.3,43"/>
				</defs>
				<clipPath id="SVGID_00000160155137420629657430000013653222892330070418_">
					<use xlink:href="#SVGID_00000176010464486458959450000004741969804814785935_"  style="overflow:visible;"/>
				</clipPath>
				
					<linearGradient id="SVGID_00000065786244167949645680000002804712243867887801_" gradientUnits="userSpaceOnUse" x1="16.8386" y1="22.1627" x2="57.3887" y2="22.1627" gradientTransform="matrix(1 0 0 -1 0 67.89)">
					<stop  offset="0" style="stop-color:#553621"/>
					<stop  offset="0.51" style="stop-color:#160B0C"/>
					<stop  offset="1" style="stop-color:#563820"/>
				</linearGradient>
				
					<rect x="22.1" y="43" style="clip-path:url(#SVGID_00000160155137420629657430000013653222892330070418_);fill:url(#SVGID_00000065786244167949645680000002804712243867887801_);" width="29.9" height="5.5"/>
			</g>
		</g>
		<g>
			<g>
				<defs>
					<path id="SVGID_00000034075179022409192240000002166359102769004449_" d="M39.1,43L38.9,43l-1.5,1.4c0,0-0.1,0.1-0.1,0.1l0,0
						c0,0-0.1,0.1-0.1,0L35.3,43h-8.4c0,0-0.1,0-0.1,0c-0.2,0-0.5,0.1-0.7,0.2c-0.7,0.4-2.3,1.3-4,2.3c0.7,0.9,1.5,1.7,2.3,2.5
						c2.9-0.3,5.8-0.6,7-0.6c0,0,0.1,0,0.1,0c2,0,2.7,0.6,3.2,0.9c0.1,0,0.1,0.1,0.2,0.1c0.1,0,0.1,0.1,0.2,0.1c0.1,0,0.3,0,0.5,0
						c0.2,0,0.4,0,0.6,0c0.3,0,0.5,0,0.9,0c0.1,0,0.1,0,0.2,0c0.4,0,0.7,0,1,0.1c0.2,0,0.4,0,0.6,0c0.1,0,0.3,0,0.4-0.1
						c0,0,0.1,0,0.1,0c0.1,0,0.2-0.1,0.3-0.2c0.5-0.3,1.3-0.8,3-0.8c0.1,0,0.1,0,0.2,0c0,0,0.1,0,0.1,0c1.3,0,4,0.3,6.7,0.6
						c0.9-0.8,1.7-1.6,2.4-2.5c-1.7-0.9-3.2-1.8-3.9-2.2C48,43.1,47.6,43,47.4,43c0,0-0.1,0-0.1,0L39.1,43L39.1,43z"/>
				</defs>
				<clipPath id="SVGID_00000003804721223243282740000006494887753490927239_">
					<use xlink:href="#SVGID_00000034075179022409192240000002166359102769004449_"  style="overflow:visible;"/>
				</clipPath>
				
					<linearGradient id="SVGID_00000127723537276057549000000000729124728094111386_" gradientUnits="userSpaceOnUse" x1="16.8642" y1="22.1695" x2="57.363" y2="22.1695" gradientTransform="matrix(1 0 0 -1 0 67.89)">
					<stop  offset="0" style="stop-color:#583824"/>
					<stop  offset="0.51" style="stop-color:#1A0D0E"/>
					<stop  offset="1" style="stop-color:#593B23"/>
				</linearGradient>
				
					<rect x="22.1" y="43" style="clip-path:url(#SVGID_00000003804721223243282740000006494887753490927239_);fill:url(#SVGID_00000127723537276057549000000000729124728094111386_);" width="29.9" height="5.5"/>
			</g>
		</g>
		<g>
			<g>
				<defs>
					<path id="SVGID_00000167396590510501475560000002630652611440545710_" d="M47.3,43h-8.2l-0.2,0.1l-1.5,1.4c0,0-0.1,0.1-0.1,0.1
						l0,0c0,0-0.1,0-0.1,0L35.3,43h-8.4c0,0-0.1,0-0.1,0c-0.2,0-0.5,0.1-0.7,0.2c-0.7,0.4-2.3,1.3-4,2.3c0.7,0.9,1.5,1.7,2.3,2.5
						c2.9-0.3,5.8-0.6,7-0.6c0,0,0.1,0,0.1,0c2,0,2.7,0.6,3.2,0.9c0.1,0,0.1,0.1,0.2,0.1c0.1,0,0.1,0.1,0.2,0.1c0.1,0,0.3,0,0.5,0
						c0.2,0,0.4,0,0.6,0c0.3,0,0.5,0,0.9,0c0.1,0,0.1,0,0.2,0c0.4,0,0.7,0,1,0.1c0.2,0,0.4,0,0.6,0c0.1,0,0.3,0,0.4-0.1
						c0,0,0.1,0,0.1,0c0.1,0,0.2-0.1,0.3-0.2c0.5-0.3,1.3-0.8,3-0.8c0.1,0,0.1,0,0.2,0c0,0,0.1,0,0.1,0c1.3,0,4,0.3,6.7,0.6
						c0.8-0.8,1.6-1.6,2.3-2.5c-1.7-0.9-3.2-1.8-3.9-2.2C47.9,43.1,47.6,43,47.3,43C47.4,43,47.3,43,47.3,43"/>
				</defs>
				<clipPath id="SVGID_00000070077441888468990380000005720125303933295284_">
					<use xlink:href="#SVGID_00000167396590510501475560000002630652611440545710_"  style="overflow:visible;"/>
				</clipPath>
				
					<linearGradient id="SVGID_00000088824081126736377890000011490465559239292550_" gradientUnits="userSpaceOnUse" x1="16.888" y1="22.1695" x2="57.3392" y2="22.1695" gradientTransform="matrix(1 0 0 -1 0 67.89)">
					<stop  offset="0" style="stop-color:#5B3A27"/>
					<stop  offset="0.51" style="stop-color:#1E0F0F"/>
					<stop  offset="1" style="stop-color:#5C3E26"/>
				</linearGradient>
				
					<rect x="22.1" y="43" style="clip-path:url(#SVGID_00000070077441888468990380000005720125303933295284_);fill:url(#SVGID_00000088824081126736377890000011490465559239292550_);" width="29.9" height="5.5"/>
			</g>
		</g>
		<g>
			<g>
				<defs>
					<path id="SVGID_00000034079099571505586420000002454957135452982426_" d="M39.1,43l-0.2,0.1l-1.5,1.4c0,0-0.1,0.1-0.1,0.1l0,0
						c0,0-0.1,0-0.1,0L35.3,43h-8.4c0,0-0.1,0-0.1,0c-0.2,0-0.5,0.1-0.7,0.2c-0.7,0.4-2.3,1.3-4,2.3c0.7,0.9,1.5,1.7,2.3,2.4
						c2.9-0.3,5.8-0.6,7-0.6c0,0,0.1,0,0.1,0c2,0,2.7,0.6,3.2,0.9c0.1,0,0.1,0.1,0.2,0.1c0.1,0,0.1,0.1,0.2,0.1c0.1,0,0.3,0,0.5,0
						c0.2,0,0.4,0,0.6,0c0.3,0,0.5,0,0.9,0c0.1,0,0.1,0,0.2,0c0.4,0,0.7,0,1,0.1c0.2,0,0.4,0,0.6,0c0.1,0,0.3,0,0.4-0.1
						c0,0,0.1,0,0.1,0c0.1,0,0.2-0.1,0.3-0.2c0.5-0.3,1.3-0.8,3-0.8c0.1,0,0.1,0,0.2,0c0,0,0.1,0,0.1,0c1.3,0,4,0.3,6.8,0.6
						c0.8-0.8,1.6-1.6,2.3-2.5c-1.7-0.9-3.2-1.8-3.9-2.2c-0.2-0.1-0.5-0.2-0.7-0.2c0,0-0.1,0-0.1,0L39.1,43L39.1,43z"/>
				</defs>
				<clipPath id="SVGID_00000117655877954963110620000014158351989537817987_">
					<use xlink:href="#SVGID_00000034079099571505586420000002454957135452982426_"  style="overflow:visible;"/>
				</clipPath>
				
					<linearGradient id="SVGID_00000136393611872071063250000011268291742603907478_" gradientUnits="userSpaceOnUse" x1="16.9091" y1="22.1695" x2="57.3181" y2="22.1695" gradientTransform="matrix(1 0 0 -1 0 67.89)">
					<stop  offset="0" style="stop-color:#5D3D2B"/>
					<stop  offset="0.51" style="stop-color:#221111"/>
					<stop  offset="1" style="stop-color:#5E4028"/>
				</linearGradient>
				
					<rect x="22.2" y="43" style="clip-path:url(#SVGID_00000117655877954963110620000014158351989537817987_);fill:url(#SVGID_00000136393611872071063250000011268291742603907478_);" width="29.8" height="5.4"/>
			</g>
		</g>
		<g>
			<g>
				<defs>
					<path id="SVGID_00000072973177805875981560000016117606168401067190_" d="M47.3,43H39l-0.2,0.1l-1.5,1.4c0,0-0.1,0.1-0.1,0.1
						l0,0c0,0-0.1,0-0.1,0L35.3,43h-8.4c0,0-0.1,0-0.1,0c-0.2,0-0.5,0.1-0.7,0.2c-0.7,0.4-2.3,1.3-4,2.3c0.7,0.9,1.5,1.7,2.3,2.4
						c2.9-0.3,5.8-0.6,7-0.6c0,0,0.1,0,0.1,0c1.9,0,2.7,0.6,3.2,0.9c0.1,0,0.1,0.1,0.2,0.1c0.1,0,0.1,0.1,0.2,0.1
						c0.1,0,0.3,0.1,0.5,0c0.2,0,0.4,0,0.6,0c0.3,0,0.5,0,0.9,0c0.1,0,0.1,0,0.2,0c0.4,0,0.7,0,1,0.1c0.2,0,0.4,0,0.6,0
						c0.1,0,0.3,0,0.4-0.1c0,0,0.1,0,0.1,0c0.1,0,0.2-0.1,0.3-0.2c0.5-0.3,1.3-0.8,3-0.8c0.1,0,0.1,0,0.2,0c0,0,0.1,0,0.1,0
						c1.3,0,4.1,0.3,6.8,0.6c0.8-0.7,1.6-1.6,2.3-2.5c-1.6-0.9-3.2-1.8-3.9-2.2c-0.2-0.1-0.5-0.2-0.7-0.2C47.4,43,47.3,43,47.3,43"
						/>
				</defs>
				<clipPath id="SVGID_00000128470581690601899570000018345120738624069524_">
					<use xlink:href="#SVGID_00000072973177805875981560000016117606168401067190_"  style="overflow:visible;"/>
				</clipPath>
				
					<linearGradient id="SVGID_00000088104721804620949580000013809671849578444934_" gradientUnits="userSpaceOnUse" x1="16.9275" y1="22.1695" x2="57.2998" y2="22.1695" gradientTransform="matrix(1 0 0 -1 0 67.89)">
					<stop  offset="0" style="stop-color:#603F2E"/>
					<stop  offset="0.51" style="stop-color:#261312"/>
					<stop  offset="1" style="stop-color:#61432B"/>
				</linearGradient>
				
					<rect x="22.2" y="43" style="clip-path:url(#SVGID_00000128470581690601899570000018345120738624069524_);fill:url(#SVGID_00000088104721804620949580000013809671849578444934_);" width="29.8" height="5.4"/>
			</g>
		</g>
		<g>
			<g>
				<defs>
					<path id="SVGID_00000084529060837793858000000015204604003361533876_" d="M47.3,43H39l-0.2,0.1l-1.5,1.4c0,0-0.1,0.1-0.1,0.1
						l0,0c0,0-0.1,0-0.1,0L35.3,43h-8.4c0,0-0.1,0-0.1,0c-0.2,0-0.5,0.1-0.7,0.2c-0.7,0.4-2.3,1.3-4,2.3c0.7,0.9,1.4,1.7,2.3,2.4
						c2.8-0.3,5.8-0.6,7-0.6c0,0,0.1,0,0.1,0c1.9,0,2.7,0.6,3.2,0.9c0.1,0,0.1,0.1,0.2,0.1c0.1,0,0.1,0.1,0.2,0.1
						c0.1,0,0.3,0.1,0.5,0.1c0.2,0,0.4,0,0.6,0c0.3,0,0.5,0,0.9,0c0.1,0,0.1,0,0.2,0c0.4,0,0.7,0,1,0.1c0.2,0,0.4,0,0.6,0
						c0.1,0,0.3,0,0.4,0c0,0,0.1,0,0.1,0c0.1,0,0.2-0.1,0.3-0.2c0.5-0.3,1.3-0.8,3-0.8c0.1,0,0.1,0,0.2,0c0,0,0.1,0,0.1,0
						c1.2,0,4.1,0.3,6.8,0.6c0.8-0.7,1.6-1.5,2.3-2.4c-1.6-0.9-3.2-1.8-3.9-2.2C47.9,43.2,47.6,43.1,47.3,43
						C47.4,43,47.3,43,47.3,43"/>
				</defs>
				<clipPath id="SVGID_00000153663966181185088940000011021547050542584469_">
					<use xlink:href="#SVGID_00000084529060837793858000000015204604003361533876_"  style="overflow:visible;"/>
				</clipPath>
				
					<linearGradient id="SVGID_00000170278792364409216950000009315309819819936667_" gradientUnits="userSpaceOnUse" x1="16.9449" y1="22.1695" x2="57.2824" y2="22.1695" gradientTransform="matrix(1 0 0 -1 0 67.89)">
					<stop  offset="0" style="stop-color:#634131"/>
					<stop  offset="0.51" style="stop-color:#2A1514"/>
					<stop  offset="1" style="stop-color:#64462E"/>
				</linearGradient>
				
					<rect x="22.2" y="43" style="clip-path:url(#SVGID_00000153663966181185088940000011021547050542584469_);fill:url(#SVGID_00000170278792364409216950000009315309819819936667_);" width="29.8" height="5.4"/>
			</g>
		</g>
		<g>
			<g>
				<defs>
					<path id="SVGID_00000068664118052305236410000017040679607081576095_" d="M47.3,43L47.3,43L47.3,43L47.3,43L47.3,43L47.3,43
						L47.3,43L47.3,43L47.3,43L47.3,43L47.3,43L47.3,43L47.3,43L47.3,43L47.3,43H39l-0.2,0.1l-1.5,1.4c0,0-0.1,0.1-0.1,0.1l0,0
						c0,0-0.1,0-0.1,0L35.3,43h-8.4l0,0l0,0l0,0l0,0l0,0l0,0l0,0l0,0l0,0l0,0l0,0l0,0l0,0l0,0c0,0-0.1,0-0.1,0
						c-0.2,0-0.5,0.1-0.7,0.2c-0.7,0.4-2.3,1.3-4,2.3c0.7,0.8,1.4,1.6,2.2,2.4c2.8-0.3,5.8-0.6,7-0.6c0,0,0.1,0,0.1,0
						c1.9,0,2.7,0.6,3.2,0.9c0.1,0,0.1,0.1,0.2,0.1c0.1,0,0.1,0.1,0.2,0.1c0.1,0,0.3,0.1,0.5,0.1c0.2,0,0.4,0,0.6,0
						c0.3,0,0.5,0,0.9,0c0.1,0,0.1,0,0.2,0c0.4,0,0.7,0,1,0c0.2,0,0.4,0,0.6,0c0.1,0,0.3,0,0.4,0c0,0,0.1,0,0.1,0
						c0.1,0,0.2-0.1,0.3-0.2c0.5-0.3,1.3-0.8,3-0.8c0.1,0,0.1,0,0.2,0c0,0,0.1,0,0.1,0c1.2,0,4.1,0.3,6.8,0.6
						c0.8-0.7,1.6-1.5,2.3-2.4c-1.6-0.9-3.2-1.8-3.9-2.2c-0.2-0.1-0.5-0.2-0.7-0.2C47.4,43,47.3,43,47.3,43"/>
				</defs>
				<clipPath id="SVGID_00000090271284843668671350000015179532240028967075_">
					<use xlink:href="#SVGID_00000068664118052305236410000017040679607081576095_"  style="overflow:visible;"/>
				</clipPath>
				
					<linearGradient id="SVGID_00000101816954326927098730000016915816753082234044_" gradientUnits="userSpaceOnUse" x1="16.9623" y1="22.1695" x2="57.2641" y2="22.1695" gradientTransform="matrix(1 0 0 -1 0 67.89)">
					<stop  offset="0" style="stop-color:#664334"/>
					<stop  offset="0.51" style="stop-color:#2E1616"/>
					<stop  offset="1" style="stop-color:#674931"/>
				</linearGradient>
				
					<rect x="22.2" y="43" style="clip-path:url(#SVGID_00000090271284843668671350000015179532240028967075_);fill:url(#SVGID_00000101816954326927098730000016915816753082234044_);" width="29.8" height="5.3"/>
			</g>
		</g>
		<g>
			<g>
				<defs>
					<path id="SVGID_00000099620407830248286160000016221358148492041638_" d="M39,43.1l-0.2,0.1l-1.5,1.4c0,0-0.1,0.1-0.1,0.1l0,0
						c-0.1,0-0.1,0-0.1,0l-1.8-1.5H27h-0.1c-0.2,0-0.5,0.1-0.7,0.2c-0.7,0.4-2.3,1.3-4,2.3c0.7,0.8,1.4,1.6,2.2,2.3
						c2.8-0.3,5.8-0.6,7-0.6c0,0,0.1,0,0.1,0c1.9,0,2.7,0.6,3.2,0.9c0.1,0,0.1,0.1,0.2,0.1c0.1,0,0.1,0.1,0.2,0.1
						c0.1,0,0.3,0.1,0.5,0.1c0.2,0,0.4,0,0.6,0c0.3,0,0.5,0,0.9,0c0.1,0,0.1,0,0.2,0c0.4,0,0.7,0,1,0c0.2,0,0.4,0,0.6,0
						c0.1,0,0.3,0,0.4,0c0,0,0.1,0,0.1,0c0.1,0,0.2-0.1,0.3-0.2c0.5-0.3,1.3-0.8,3-0.9c0.1,0,0.1,0,0.2,0c0,0,0.1,0,0.1,0
						c1.2,0,4.1,0.3,6.9,0.6c0.8-0.7,1.6-1.5,2.2-2.4c-1.6-0.9-3.2-1.8-3.9-2.2c-0.2-0.1-0.5-0.2-0.7-0.2h-0.1L39,43.1L39,43.1z"/>
				</defs>
				<clipPath id="SVGID_00000024702312371321528300000017943836028978420125_">
					<use xlink:href="#SVGID_00000099620407830248286160000016221358148492041638_"  style="overflow:visible;"/>
				</clipPath>
				
					<linearGradient id="SVGID_00000119087585005328324540000002159633454262670470_" gradientUnits="userSpaceOnUse" x1="16.9806" y1="22.1627" x2="57.2466" y2="22.1627" gradientTransform="matrix(1 0 0 -1 0 67.89)">
					<stop  offset="0" style="stop-color:#684638"/>
					<stop  offset="0.51" style="stop-color:#321817"/>
					<stop  offset="1" style="stop-color:#6A4C34"/>
				</linearGradient>
				
					<rect x="22.2" y="43.1" style="clip-path:url(#SVGID_00000024702312371321528300000017943836028978420125_);fill:url(#SVGID_00000119087585005328324540000002159633454262670470_);" width="29.8" height="5.3"/>
			</g>
		</g>
		<g>
			<g>
				<defs>
					<path id="SVGID_00000047766691825872028420000007785745328743860113_" d="M35.5,48.4L35.5,48.4L35.5,48.4c0.2,0,0.4,0,0.6,0
						c0.3,0,0.6,0,1,0s0.7,0,1,0c0.2,0,0.4,0,0.6,0h0h0c0.2,0,0.3,0,0.5-0.1c0.1,0,0.2-0.1,0.3-0.2c0.5-0.3,1.3-0.8,3.2-0.9
						c0,0,0.1,0,0.1,0c1.2,0,4.1,0.3,6.9,0.6c0.8-0.7,1.5-1.5,2.2-2.4c-1.6-0.9-3.2-1.8-3.9-2.2c-0.2-0.1-0.5-0.2-0.7-0.2H39
						l-1.7,1.5c0,0-0.1,0.1-0.1,0.1l0,0c-0.1,0-0.1,0-0.1-0.1l-1.8-1.5h-8.4c-0.2,0-0.5,0.1-0.7,0.2c-0.8,0.4-2.3,1.3-4,2.3
						c0.7,0.8,1.4,1.6,2.2,2.3c2.8-0.3,5.8-0.6,7-0.6c0,0,0.1,0,0.1,0c1.9,0,2.7,0.6,3.2,0.9c0.1,0.1,0.3,0.2,0.3,0.2
						C35.2,48.4,35.3,48.4,35.5,48.4"/>
				</defs>
				<clipPath id="SVGID_00000161599293167832463500000011858501815279802815_">
					<use xlink:href="#SVGID_00000047766691825872028420000007785745328743860113_"  style="overflow:visible;"/>
				</clipPath>
				
					<linearGradient id="SVGID_00000058577562159983113130000010849850932925402810_" gradientUnits="userSpaceOnUse" x1="16.998" y1="22.1627" x2="57.2292" y2="22.1627" gradientTransform="matrix(1 0 0 -1 0 67.89)">
					<stop  offset="0" style="stop-color:#6B483B"/>
					<stop  offset="0.51" style="stop-color:#361A19"/>
					<stop  offset="1" style="stop-color:#6D4F37"/>
				</linearGradient>
				
					<rect x="22.2" y="43.1" style="clip-path:url(#SVGID_00000161599293167832463500000011858501815279802815_);fill:url(#SVGID_00000058577562159983113130000010849850932925402810_);" width="29.8" height="5.3"/>
			</g>
		</g>
		<rect x="36.9" y="47.3" class="st19" width="0.4" height="0.6"/>
		<path class="st20" d="M51.7,45.8c-4.7-1.4-9.7-2.5-14.6-0.3v2.5L39,48c1.6-1.4,6.6-1,11-0.4C50.6,47,51.2,46.4,51.7,45.8"/>
		<path class="st20" d="M22.4,45.8c4.7-1.4,9.8-2.5,14.7-0.4v2.5L35.3,48c-1.7-1.4-6.7-0.9-11.1-0.4C23.6,47.1,23,46.4,22.4,45.8"/>
		<g>
			<g>
				<defs>
					<path id="SVGID_00000092424611485683080660000009318856410726673540_" d="M37.1,43.6v4c1.1-4.2,9.8-2,14.4-1.6
						c0.1-0.2,0.3-0.3,0.4-0.5l-4.9-2.9c-1.5,0.1-2.9-0.1-4.2-0.3c-1.1-0.2-2.1-0.3-2.9-0.3C38.6,42,37.7,42.4,37.1,43.6"/>
				</defs>
				<clipPath id="SVGID_00000072256696487598928080000013082452439645695377_">
					<use xlink:href="#SVGID_00000092424611485683080660000009318856410726673540_"  style="overflow:visible;"/>
				</clipPath>
				
					<linearGradient id="SVGID_00000022562492346914316740000005682147857005105332_" gradientUnits="userSpaceOnUse" x1="36.8602" y1="21.7328" x2="52.3929" y2="24.4719" gradientTransform="matrix(1 0 0 -1 0 67.89)">
					<stop  offset="0" style="stop-color:#929292"/>
					<stop  offset="6.456326e-02" style="stop-color:#B7B7B7"/>
					<stop  offset="0.1401" style="stop-color:#DCDCDC"/>
					<stop  offset="0.2013" style="stop-color:#F3F3F3"/>
					<stop  offset="0.24" style="stop-color:#FBFBFB"/>
					<stop  offset="0.57" style="stop-color:#D7D7D7"/>
					<stop  offset="0.7069" style="stop-color:#E4E4E4"/>
					<stop  offset="1" style="stop-color:#FBFBFB"/>
				</linearGradient>
				
					<rect x="37.1" y="42" style="clip-path:url(#SVGID_00000072256696487598928080000013082452439645695377_);fill:url(#SVGID_00000022562492346914316740000005682147857005105332_);" width="14.8" height="5.5"/>
			</g>
		</g>
		<path class="st22" d="M37.1,43.6v3.8c0.5-1.4,1.9-2.2,4.4-2.3c2.2-0.1,4.9,0.3,7.3,0.6c1,0.1,1.9,0.3,2.7,0.4c0,0,0,0,0,0.1
			c-0.8-0.1-1.7-0.2-2.6-0.4c-2.4-0.3-5.1-0.7-7.3-0.6c-2.6,0.1-4,1-4.4,2.5h-0.1L37.1,43.6c0.8-2,2.7-1.7,5.3-1.3
			c1.3,0.2,2.9,0.4,4.5,0.4h0l0,0l4.9,2.9l0,0l-4.9-2.9c-1.6,0.1-3.2-0.2-4.5-0.4C39.9,42,38,41.7,37.1,43.6"/>
		<path class="st23" d="M38.9,48c0.2-0.2,0.6-0.4,0.9-0.5c0.3-0.1,0.7-0.2,1.1-0.3c0.7-0.1,1.5-0.2,2.2-0.2s1.5,0,2.3,0.1
			c0.7,0.1,1.5,0.1,2.2,0.2c0.8,0.1,1.6,0.2,2.3,0.3l0,0c-0.8-0.1-1.5-0.2-2.3-0.3c-1.5-0.2-3-0.3-4.5-0.3c-0.8,0-1.5,0-2.2,0.2
			c-0.4,0.1-0.7,0.1-1.1,0.3C39.5,47.6,39.2,47.8,38.9,48L38.9,48z"/>
		<path class="st23" d="M38.8,48c0.2-0.2,0.5-0.4,0.8-0.5s0.7-0.2,1.1-0.3C41.5,47,42.2,47,43,47c0.8,0,1.5,0,2.3,0.1
			c0.7,0.1,1.5,0.1,2.2,0.2c0.9,0.1,1.7,0.2,2.6,0.3l0,0c-0.8-0.1-1.7-0.2-2.6-0.3C46,47.1,44.5,47,43,47c-0.7,0-1.5,0.1-2.2,0.2
			c-0.4,0.1-0.7,0.2-1,0.3C39.4,47.6,39.1,47.8,38.8,48L38.8,48z"/>
		<path class="st23" d="M38.8,48c0.2-0.2,0.5-0.4,0.8-0.6c0.3-0.1,0.7-0.2,1-0.3c0.7-0.1,1.5-0.2,2.2-0.2c0.7,0,1.5,0,2.2,0.1
			c0.7,0.1,1.5,0.1,2.2,0.2c0.9,0.1,1.9,0.2,2.8,0.3l0,0c-0.9-0.1-1.9-0.2-2.8-0.3c-1.5-0.2-3-0.3-4.5-0.2c-0.7,0-1.5,0.1-2.2,0.2
			c-0.4,0.1-0.7,0.2-1,0.3C39.3,47.6,39,47.7,38.8,48L38.8,48z"/>
		<path class="st23" d="M38.7,48c0.2-0.2,0.5-0.4,0.8-0.6c0.3-0.1,0.7-0.3,1-0.4c0.7-0.2,1.5-0.2,2.2-0.3c0.7,0,1.5,0,2.2,0
			c0.7,0,1.5,0.1,2.2,0.2c1,0.1,2,0.2,3,0.4l0,0c-1-0.1-2-0.3-3-0.4c-1.5-0.2-3-0.3-4.5-0.2c-0.7,0-1.5,0.1-2.2,0.3
			c-0.4,0.1-0.7,0.2-1,0.3C39.2,47.5,38.9,47.7,38.7,48L38.7,48z"/>
		<path class="st23" d="M38.6,48c0.2-0.2,0.4-0.4,0.8-0.6c0.3-0.2,0.6-0.3,1-0.4c0.7-0.2,1.5-0.3,2.2-0.3s1.5,0,2.2,0
			c0.7,0,1.5,0.1,2.2,0.2c1.1,0.1,2.2,0.3,3.3,0.4l0,0c-1.1-0.1-2.2-0.3-3.3-0.4c-1.5-0.1-3-0.3-4.4-0.2c-0.7,0-1.5,0.1-2.2,0.3
			c-0.4,0.1-0.7,0.2-1,0.4C39.1,47.5,38.8,47.7,38.6,48L38.6,48z"/>
		<path class="st23" d="M38.5,47.9c0.2-0.2,0.4-0.4,0.7-0.6c0.3-0.2,0.6-0.3,1-0.4c0.7-0.2,1.4-0.3,2.2-0.3c0.7,0,1.5,0,2.2,0
			c0.7,0,1.5,0.1,2.2,0.2c1.2,0.1,2.3,0.3,3.5,0.4l0,0c-1.2-0.2-2.3-0.3-3.5-0.4c-1.5-0.1-3-0.3-4.4-0.2c-0.4,0-0.7,0.1-1.1,0.1
			c-0.4,0.1-0.7,0.1-1.1,0.2s-0.7,0.2-1,0.4C38.9,47.5,38.7,47.7,38.5,47.9L38.5,47.9z"/>
		<path class="st23" d="M38.4,47.9c0.2-0.2,0.4-0.5,0.7-0.6c0.3-0.2,0.6-0.3,1-0.4c0.7-0.2,1.4-0.3,2.2-0.4c0.7,0,1.5,0,2.2,0
			c0.7,0,1.5,0.1,2.2,0.2c1.3,0.1,2.5,0.3,3.8,0.5l0,0c-1.2-0.2-2.5-0.3-3.7-0.5c-1.5-0.1-3-0.2-4.4-0.2c-0.4,0-0.7,0.1-1.1,0.1
			c-0.4,0.1-0.7,0.1-1.1,0.2c-0.3,0.1-0.7,0.2-1,0.4C38.8,47.5,38.6,47.7,38.4,47.9L38.4,47.9z"/>
		<path class="st23" d="M38.3,47.9c0.2-0.2,0.4-0.5,0.6-0.6c0.3-0.2,0.6-0.3,0.9-0.4c0.7-0.2,1.4-0.3,2.2-0.4c0.7-0.1,1.5,0,2.2,0
			c0.7,0,1.5,0.1,2.2,0.2c1.3,0.1,2.7,0.3,4,0.5l0,0c-1.3-0.2-2.6-0.4-4-0.5c-1.5-0.1-3-0.2-4.4-0.1c-0.7,0.1-1.5,0.1-2.2,0.4
			c-0.3,0.1-0.7,0.3-0.9,0.4C38.7,47.5,38.5,47.7,38.3,47.9L38.3,47.9z"/>
		<path class="st23" d="M38.2,47.9c0.1-0.2,0.4-0.5,0.6-0.7c0.3-0.2,0.6-0.4,0.9-0.5c0.7-0.2,1.4-0.4,2.1-0.4c0.7-0.1,1.5-0.1,2.2,0
			s1.5,0.1,2.2,0.1c1.4,0.1,2.8,0.3,4.2,0.5l0,0c-1.4-0.2-2.8-0.4-4.2-0.5c-1.5-0.1-3-0.2-4.4-0.1c-0.7,0.1-1.5,0.2-2.1,0.4
			c-0.3,0.1-0.6,0.3-0.9,0.5C38.6,47.4,38.4,47.7,38.2,47.9L38.2,47.9z"/>
		<path class="st23" d="M38.2,47.9c0.1-0.3,0.3-0.5,0.6-0.7c0.3-0.2,0.6-0.4,0.9-0.5c0.7-0.3,1.4-0.4,2.1-0.4s1.5-0.1,2.2,0
			c0.7,0,1.5,0.1,2.2,0.1c1.5,0.1,2.9,0.3,4.4,0.5l0.1,0l0,0l-0.1,0c-1.5-0.2-2.9-0.4-4.4-0.5c-0.7-0.1-1.5-0.1-2.2-0.1
			c-0.7,0-1.5,0-2.2,0.1s-1.5,0.2-2.1,0.4c-0.3,0.1-0.6,0.3-0.9,0.5C38.5,47.4,38.3,47.7,38.2,47.9L38.2,47.9z"/>
		<path class="st23" d="M38.1,47.9c0.1-0.3,0.3-0.5,0.6-0.7c0.2-0.2,0.5-0.4,0.8-0.5c0.6-0.3,1.4-0.4,2.1-0.5
			c0.7-0.1,1.5-0.1,2.2-0.1c0.7,0,1.5,0.1,2.2,0.1c1.5,0.1,2.9,0.3,4.4,0.5l0.3,0l0,0l-0.3,0c-1.5-0.2-2.9-0.4-4.4-0.5
			c-0.7-0.1-1.5-0.1-2.2-0.1s-1.5,0-2.2,0.1c-0.4,0-0.7,0.1-1.1,0.2c-0.4,0.1-0.7,0.2-1,0.3c-0.3,0.1-0.6,0.3-0.8,0.5
			C38.4,47.4,38.2,47.6,38.1,47.9L38.1,47.9z"/>
		<path class="st23" d="M38,47.9c0.1-0.3,0.3-0.5,0.5-0.7s0.5-0.4,0.8-0.5c0.6-0.3,1.4-0.4,2.1-0.5c0.7-0.1,1.5-0.1,2.2-0.1
			s1.5,0.1,2.2,0.1c1.5,0.1,2.9,0.3,4.4,0.5c0.2,0,0.4,0.1,0.6,0.1l0,0c-0.2,0-0.4-0.1-0.6-0.1c-1.5-0.2-2.9-0.4-4.4-0.5
			c-0.7-0.1-1.5-0.1-2.2-0.1c-0.7,0-1.5,0-2.2,0.1c-0.4,0-0.7,0.1-1.1,0.2c-0.4,0.1-0.7,0.2-1,0.3c-0.3,0.1-0.6,0.3-0.8,0.5
			C38.3,47.4,38.1,47.6,38,47.9L38,47.9z"/>
		<path class="st23" d="M37.9,47.9c0.1-0.3,0.3-0.5,0.5-0.7c0.2-0.2,0.5-0.4,0.8-0.6c0.6-0.3,1.3-0.5,2.1-0.6
			c0.7-0.1,1.5-0.1,2.2-0.1c0.7,0,1.5,0.1,2.2,0.1c1.5,0.1,2.9,0.3,4.4,0.5c0.3,0,0.5,0.1,0.8,0.1l0,0c-0.3,0-0.5-0.1-0.8-0.1
			c-1.5-0.2-2.9-0.4-4.4-0.5C44.9,46,44.2,46,43.4,46s-1.5,0-2.2,0.1c-0.7,0.1-1.4,0.3-2.1,0.6c-0.3,0.1-0.6,0.3-0.8,0.6
			C38.2,47.4,38,47.6,37.9,47.9L37.9,47.9z"/>
		<path class="st23" d="M37.8,47.9c0.1-0.3,0.3-0.5,0.5-0.7c0.2-0.2,0.5-0.4,0.8-0.6c0.6-0.3,1.3-0.5,2-0.6c0.7-0.1,1.5-0.1,2.2-0.1
			c0.7,0,1.5,0.1,2.2,0.1c1.5,0.1,2.9,0.3,4.4,0.5c0.4,0.1,0.7,0.1,1.1,0.1l0,0c-0.4,0-0.7-0.1-1-0.1c-1.5-0.2-2.9-0.4-4.4-0.5
			c-0.7-0.1-1.5-0.1-2.2-0.1c-0.7,0-1.5,0-2.2,0.1c-0.7,0.1-1.4,0.3-2,0.6c-0.3,0.2-0.6,0.4-0.8,0.6C38.1,47.4,37.9,47.6,37.8,47.9
			L37.8,47.9z"/>
		<path class="st23" d="M37.7,47.9c0.1-0.3,0.2-0.5,0.4-0.7c0.2-0.2,0.4-0.4,0.7-0.6c0.6-0.3,1.3-0.5,2-0.6c0.7-0.1,1.5-0.1,2.2-0.1
			s1.5,0,2.2,0.1c1.5,0.1,2.9,0.3,4.4,0.5c0.4,0.1,0.9,0.1,1.3,0.2l0,0c-0.4-0.1-0.9-0.1-1.3-0.2c-1.5-0.2-2.9-0.4-4.4-0.5
			c-0.7-0.1-1.5-0.1-2.2-0.1s-1.5,0-2.2,0.1c-0.4,0.1-0.7,0.1-1.1,0.2c-0.3,0.1-0.7,0.2-1,0.4c-0.3,0.2-0.5,0.4-0.7,0.6
			C38,47.3,37.8,47.6,37.7,47.9L37.7,47.9z"/>
		<path class="st23" d="M37.6,47.8c0.1-0.3,0.2-0.5,0.4-0.8c0.2-0.2,0.4-0.4,0.7-0.6c0.6-0.4,1.3-0.6,2-0.7c0.7-0.1,1.5-0.1,2.2-0.1
			s1.5,0,2.2,0.1c1.5,0.1,2.9,0.3,4.4,0.5c0.5,0.1,1,0.1,1.5,0.2l0,0c-0.5-0.1-1-0.1-1.5-0.2c-1.5-0.2-2.9-0.4-4.4-0.5
			c-0.7-0.1-1.5-0.1-2.2-0.1c-0.7,0-1.5,0-2.2,0.2s-1.4,0.3-2,0.7c-0.3,0.2-0.5,0.4-0.7,0.6C37.9,47.3,37.7,47.6,37.6,47.8
			L37.6,47.8z"/>
		<path class="st23" d="M37.5,47.8c0.1-0.3,0.2-0.5,0.4-0.8c0.2-0.2,0.4-0.5,0.7-0.6c0.6-0.4,1.3-0.6,2-0.7c0.7-0.1,1.5-0.2,2.2-0.2
			c0.7,0,1.5,0,2.2,0.1c1.5,0.1,2.9,0.3,4.4,0.5c0.6,0.1,1.2,0.2,1.8,0.2l0,0c-0.6-0.1-1.2-0.2-1.8-0.2c-1.5-0.2-2.9-0.4-4.4-0.5
			c-0.7-0.1-1.5-0.1-2.2-0.1s-1.5,0.1-2.2,0.2c-0.7,0.1-1.4,0.4-2,0.7c-0.3,0.2-0.5,0.4-0.7,0.6C37.8,47.3,37.6,47.6,37.5,47.8
			L37.5,47.8z"/>
		<path class="st23" d="M37.5,47.8c0.1-0.3,0.2-0.5,0.4-0.8c0.2-0.2,0.4-0.5,0.6-0.6c0.3-0.2,0.6-0.4,0.9-0.5c0.3-0.1,0.7-0.2,1-0.3
			c0.7-0.1,1.5-0.2,2.2-0.2s1.5,0,2.2,0.1c1.5,0.1,2.9,0.3,4.4,0.5c0.7,0.1,1.3,0.2,2,0.3l0,0c-0.7-0.1-1.3-0.2-2-0.3
			c-1.5-0.2-2.9-0.4-4.4-0.5c-0.7-0.1-1.5-0.1-2.2-0.1s-1.5,0.1-2.2,0.2c-0.7,0.1-1.4,0.4-1.9,0.8c-0.3,0.2-0.5,0.4-0.6,0.6
			C37.6,47.3,37.5,47.6,37.5,47.8L37.5,47.8z"/>
		<path class="st23" d="M37.4,47.8c0.1-0.3,0.2-0.5,0.3-0.8c0.2-0.2,0.4-0.5,0.6-0.7c0.3-0.2,0.6-0.4,0.9-0.5c0.3-0.1,0.7-0.2,1-0.3
			c0.7-0.1,1.5-0.2,2.2-0.2c0.7,0,1.5,0,2.2,0.1c1.5,0.1,2.9,0.3,4.4,0.5c0.7,0.1,1.5,0.2,2.2,0.3l0.1,0l0,0l-0.1,0
			c-0.7-0.1-1.5-0.2-2.2-0.3c-1.5-0.2-2.9-0.4-4.4-0.5c-0.7-0.1-1.5-0.1-2.2-0.1c-0.7,0-1.5,0.1-2.2,0.2c-0.7,0.1-1.4,0.4-1.9,0.8
			C37.8,46.8,37.5,47.3,37.4,47.8L37.4,47.8z"/>
		<path class="st23" d="M37.3,47.8c0.1-0.3,0.1-0.5,0.3-0.8c0.1-0.2,0.3-0.5,0.6-0.7c0.2-0.2,0.5-0.4,0.8-0.5c0.3-0.1,0.7-0.2,1-0.3
			c0.7-0.2,1.5-0.2,2.2-0.2c0.7,0,1.5,0,2.2,0.1c1.5,0.1,2.9,0.3,4.4,0.5c0.7,0.1,1.5,0.2,2.2,0.3c0.1,0,0.2,0,0.3,0l0,0
			c-0.1,0-0.2,0-0.3,0c-0.7-0.1-1.5-0.2-2.2-0.3c-1.5-0.2-2.9-0.4-4.4-0.5c-0.7-0.1-1.5-0.1-2.2-0.1c-0.7,0-1.5,0.1-2.2,0.2
			c-0.7,0.2-1.4,0.4-1.9,0.8C37.7,46.8,37.4,47.3,37.3,47.8L37.3,47.8z"/>
		<path class="st23" d="M37.2,47.8c0.1-0.3,0.1-0.5,0.3-0.8c0.1-0.3,0.3-0.5,0.6-0.7c0.2-0.2,0.5-0.4,0.8-0.5c0.3-0.1,0.7-0.3,1-0.4
			c0.7-0.2,1.5-0.2,2.2-0.3s1.5,0,2.2,0.1c1.5,0.1,2.9,0.3,4.4,0.5c0.7,0.1,1.5,0.2,2.2,0.3c0.2,0,0.4,0.1,0.6,0.1l0,0
			c-0.2,0-0.4,0-0.6-0.1c-0.7-0.1-1.5-0.2-2.2-0.3c-1.5-0.2-2.9-0.4-4.4-0.5c-0.7-0.1-1.5-0.1-2.2-0.1s-1.5,0.1-2.2,0.3
			c-0.7,0.2-1.4,0.5-1.8,0.9C37.6,46.7,37.3,47.3,37.2,47.8L37.2,47.8z"/>
		<path class="st23" d="M37.1,47.8c0-0.3,0.1-0.5,0.3-0.8c0.1-0.3,0.3-0.5,0.5-0.7s0.5-0.4,0.8-0.6s0.6-0.3,1-0.4
			c0.7-0.2,1.4-0.3,2.2-0.3c0.7,0,1.5,0,2.2,0c1.5,0.1,2.9,0.3,4.4,0.5c0.7,0.1,1.5,0.2,2.2,0.3c0.3,0,0.5,0.1,0.8,0.1l0,0
			c-0.3,0-0.5-0.1-0.8-0.1c-0.7-0.1-1.5-0.2-2.2-0.3c-1.5-0.2-2.9-0.4-4.4-0.5c-0.7-0.1-1.5-0.1-2.2,0c-0.7,0-1.5,0.1-2.2,0.3
			c-0.7,0.2-1.3,0.5-1.8,0.9C37.5,46.7,37.2,47.3,37.1,47.8L37.1,47.8z"/>
		<g>
			<g>
				<defs>
					<path id="SVGID_00000119826535784461295320000010479131828792237492_" d="M31.8,42.4c-1.3,0.2-2.9,0.4-4.5,0.2l-5,2.9
						c0.1,0.1,0.2,0.3,0.4,0.4c4.6-0.5,13.4-2.7,14.5,1.5v-4c-0.5-1.1-1.4-1.5-2.6-1.5C33.8,42.1,32.8,42.3,31.8,42.4"/>
				</defs>
				<clipPath id="SVGID_00000115481247026578690760000014540537283190756775_">
					<use xlink:href="#SVGID_00000119826535784461295320000010479131828792237492_"  style="overflow:visible;"/>
				</clipPath>
				
					<linearGradient id="SVGID_00000016758809431532869180000014613515679933695135_" gradientUnits="userSpaceOnUse" x1="37.3527" y1="21.693" x2="21.8227" y2="24.4321" gradientTransform="matrix(1 0 0 -1 0 67.89)">
					<stop  offset="0" style="stop-color:#929292"/>
					<stop  offset="2.350340e-02" style="stop-color:#A3A3A3"/>
					<stop  offset="8.520796e-02" style="stop-color:#C9C9C9"/>
					<stop  offset="0.1422" style="stop-color:#E4E4E4"/>
					<stop  offset="0.1923" style="stop-color:#F5F5F5"/>
					<stop  offset="0.23" style="stop-color:#FBFBFB"/>
					<stop  offset="0.57" style="stop-color:#D7D7D7"/>
					<stop  offset="0.6303" style="stop-color:#DCDCDC"/>
					<stop  offset="1" style="stop-color:#FBFBFB"/>
				</linearGradient>
				
					<rect x="22.3" y="42.1" style="clip-path:url(#SVGID_00000115481247026578690760000014540537283190756775_);fill:url(#SVGID_00000016758809431532869180000014613515679933695135_);" width="14.9" height="5.5"/>
			</g>
		</g>
		<path class="st22" d="M31.7,45c0.3,0,0.6,0,0.9,0c2.5,0.1,3.9,0.9,4.4,2.3v-3.8c-0.8-1.8-2.6-1.5-4.9-1.2
			c-1.4,0.2-3.1,0.5-4.9,0.3l-5,2.9l0,0l5-2.9h0c1.8,0.2,3.4-0.1,4.8-0.3c2.4-0.4,4.2-0.6,5,1.2v0v4h-0.1c-0.4-1.5-1.8-2.3-4.4-2.5
			c-2.2-0.1-4.9,0.3-7.3,0.6c-1,0.1-1.9,0.3-2.7,0.4c0,0,0,0,0-0.1c0.8-0.1,1.7-0.2,2.8-0.4C27.4,45.3,29.7,45,31.7,45"/>
		<path class="st23" d="M35.3,48c-0.2-0.2-0.6-0.4-0.9-0.5c-0.3-0.1-0.7-0.2-1.1-0.3c-0.7-0.1-1.5-0.2-2.2-0.2c-0.8,0-1.5,0-2.3,0.1
			c-0.7,0.1-1.5,0.1-2.2,0.2c-0.8,0.1-1.6,0.2-2.4,0.3l0,0c0.8-0.1,1.6-0.2,2.4-0.3c1.5-0.2,3-0.3,4.5-0.3c0.8,0,1.5,0,2.2,0.2
			c0.4,0.1,0.7,0.1,1.1,0.3C34.7,47.6,35,47.8,35.3,48L35.3,48z"/>
		<path class="st23" d="M35.4,48c-0.2-0.2-0.5-0.4-0.8-0.5s-0.7-0.2-1.1-0.3C32.7,47,32,47,31.2,47c-0.8,0-1.5,0-2.3,0.1
			c-0.7,0.1-1.5,0.1-2.2,0.2c-0.9,0.1-1.8,0.2-2.7,0.3l0,0c0.9-0.1,1.8-0.2,2.7-0.3c1.5-0.2,3-0.3,4.5-0.3c0.7,0,1.5,0.1,2.2,0.2
			c0.4,0.1,0.7,0.2,1,0.3C34.8,47.6,35.1,47.8,35.4,48L35.4,48z"/>
		<path class="st23" d="M35.5,48c-0.2-0.2-0.5-0.4-0.8-0.6c-0.3-0.1-0.7-0.2-1-0.3c-0.7-0.1-1.5-0.2-2.2-0.2c-0.7,0-1.5,0-2.2,0.1
			c-0.7,0.1-1.5,0.1-2.2,0.2c-1,0.1-1.9,0.2-2.9,0.4l0,0c1-0.1,1.9-0.3,2.9-0.4c1.5-0.2,3-0.3,4.5-0.2c0.7,0,1.5,0.1,2.2,0.2
			c0.4,0.1,0.7,0.2,1,0.3C35,47.6,35.2,47.7,35.5,48L35.5,48z"/>
		<path class="st23" d="M35.5,48c-0.2-0.2-0.5-0.4-0.8-0.6c-0.3-0.1-0.7-0.3-1-0.4c-0.7-0.2-1.5-0.2-2.2-0.3c-0.7,0-1.5,0-2.2,0
			c-0.7,0-1.5,0.1-2.2,0.2c-1.1,0.1-2.1,0.2-3.2,0.4l0,0c1-0.1,2.1-0.3,3.1-0.4c1.5-0.2,3-0.3,4.5-0.2c0.7,0,1.5,0.1,2.2,0.3
			c0.4,0.1,0.7,0.2,1,0.3C35.1,47.5,35.3,47.7,35.5,48L35.5,48z"/>
		<path class="st23" d="M35.6,48c-0.2-0.2-0.4-0.4-0.8-0.6c-0.3-0.2-0.6-0.3-1-0.4c-0.7-0.2-1.5-0.3-2.2-0.3c-0.7,0-1.5,0-2.2,0
			c-0.7,0-1.5,0.1-2.2,0.2c-1.1,0.1-2.3,0.3-3.4,0.4l0,0c1.1-0.1,2.2-0.3,3.4-0.4c1.5-0.1,3-0.3,4.4-0.2c0.7,0,1.5,0.1,2.2,0.3
			c0.4,0.1,0.7,0.2,1,0.4C35.2,47.5,35.4,47.7,35.6,48L35.6,48z"/>
		<path class="st23" d="M35.7,47.9c-0.2-0.2-0.4-0.4-0.7-0.6c-0.3-0.2-0.6-0.3-1-0.4c-0.7-0.2-1.4-0.3-2.2-0.3c-0.7,0-1.5,0-2.2,0
			c-0.7,0-1.5,0.1-2.2,0.2c-1.2,0.1-2.4,0.3-3.6,0.4l0,0c1.2-0.2,2.4-0.3,3.6-0.4c1.5-0.1,3-0.3,4.4-0.2c0.4,0,0.7,0.1,1.1,0.1
			c0.4,0.1,0.7,0.1,1.1,0.2c0.4,0.1,0.7,0.2,1,0.4C35.3,47.5,35.5,47.7,35.7,47.9L35.7,47.9z"/>
		<path class="st23" d="M35.8,47.9c-0.2-0.2-0.4-0.5-0.7-0.6c-0.3-0.2-0.6-0.3-1-0.4c-0.7-0.2-1.4-0.3-2.2-0.4c-0.7,0-1.5,0-2.2,0
			c-0.7,0-1.5,0.1-2.2,0.2c-1.3,0.1-2.6,0.3-3.9,0.5l0,0c1.3-0.2,2.6-0.4,3.8-0.5c1.5-0.1,3-0.2,4.4-0.2c0.4,0,0.7,0.1,1.1,0.1
			c0.4,0.1,0.7,0.1,1.1,0.2c0.3,0.1,0.7,0.2,1,0.4C35.4,47.5,35.6,47.7,35.8,47.9L35.8,47.9z"/>
		<path class="st23" d="M35.9,47.9c-0.2-0.2-0.4-0.5-0.6-0.6c-0.3-0.2-0.6-0.3-0.9-0.4c-0.7-0.2-1.4-0.3-2.2-0.4
			c-0.7-0.1-1.5,0-2.2,0c-0.7,0-1.5,0.1-2.2,0.2c-1.4,0.1-2.7,0.3-4.1,0.5l0,0c1.4-0.2,2.7-0.4,4.1-0.5c1.5-0.1,3-0.2,4.4-0.1
			c0.7,0.1,1.5,0.1,2.2,0.4c0.3,0.1,0.7,0.3,0.9,0.4C35.5,47.5,35.7,47.7,35.9,47.9L35.9,47.9z"/>
		<path class="st23" d="M36,47.9c-0.1-0.2-0.4-0.5-0.6-0.7c-0.3-0.2-0.6-0.4-0.9-0.5c-0.7-0.2-1.4-0.4-2.1-0.4
			c-0.7-0.1-1.5-0.1-2.2,0s-1.5,0.1-2.2,0.1c-1.5,0.1-2.9,0.3-4.3,0.5l0,0c1.4-0.2,2.9-0.4,4.3-0.5c1.5-0.1,3-0.2,4.4-0.1
			c0.7,0.1,1.5,0.2,2.1,0.4c0.3,0.1,0.6,0.3,0.9,0.5C35.6,47.4,35.8,47.7,36,47.9L36,47.9z"/>
		<path class="st23" d="M36.1,47.9c-0.1-0.3-0.3-0.5-0.6-0.7c-0.3-0.2-0.6-0.4-0.9-0.5c-0.7-0.3-1.4-0.4-2.1-0.4
			c-0.7-0.1-1.5-0.1-2.2,0c-0.7,0-1.5,0.1-2.2,0.1c-1.5,0.1-2.9,0.3-4.4,0.5l-0.2,0l0,0l0.2,0c1.5-0.2,2.9-0.4,4.4-0.5
			c0.7-0.1,1.5-0.1,2.2-0.1c0.7,0,1.5,0,2.2,0.1s1.5,0.2,2.1,0.4c0.3,0.1,0.6,0.3,0.9,0.5C35.7,47.4,35.9,47.7,36.1,47.9L36.1,47.9z
			"/>
		<path class="st23" d="M36.2,47.9c-0.1-0.3-0.3-0.5-0.6-0.7c-0.2-0.2-0.5-0.4-0.8-0.5c-0.6-0.3-1.4-0.4-2.1-0.5
			c-0.7-0.1-1.5-0.1-2.2-0.1c-0.7,0-1.5,0.1-2.2,0.1c-1.5,0.1-2.9,0.3-4.4,0.5l-0.4,0.1l0,0l0.4-0.1c1.5-0.2,2.9-0.4,4.4-0.5
			c0.7-0.1,1.5-0.1,2.2-0.1c0.7,0,1.5,0,2.2,0.1c0.4,0,0.7,0.1,1.1,0.2c0.4,0.1,0.7,0.2,1,0.3c0.3,0.1,0.6,0.3,0.8,0.5
			C35.8,47.4,36,47.6,36.2,47.9L36.2,47.9z"/>
		<path class="st23" d="M36.2,47.9c-0.1-0.3-0.3-0.5-0.5-0.7c-0.2-0.2-0.5-0.4-0.8-0.5c-0.6-0.3-1.4-0.4-2.1-0.5
			C32.1,46,31.3,46,30.6,46c-0.7,0-1.5,0.1-2.2,0.1c-1.5,0.1-2.9,0.3-4.4,0.5c-0.2,0-0.4,0.1-0.7,0.1l0,0c0.2,0,0.4-0.1,0.7-0.1
			c1.5-0.2,2.9-0.4,4.4-0.5c0.7-0.1,1.5-0.1,2.2-0.1c0.7,0,1.5,0,2.2,0.1c0.4,0,0.7,0.1,1.1,0.2c0.4,0.1,0.7,0.2,1,0.3
			c0.3,0.1,0.6,0.3,0.8,0.5C35.9,47.4,36.1,47.6,36.2,47.9L36.2,47.9z"/>
		<path class="st23" d="M36.3,47.9c-0.1-0.3-0.3-0.5-0.5-0.7c-0.2-0.2-0.5-0.4-0.8-0.6c-0.6-0.3-1.3-0.5-2.1-0.6
			c-0.7-0.1-1.5-0.1-2.2-0.1c-0.7,0-1.5,0.1-2.2,0.1c-1.5,0.1-2.9,0.3-4.4,0.5c-0.3,0-0.6,0.1-0.9,0.1l0,0c0.3,0,0.6-0.1,0.9-0.1
			c1.5-0.2,2.9-0.4,4.4-0.5C29.3,46,30,46,30.8,46s1.5,0,2.2,0.1c0.7,0.1,1.4,0.3,2.1,0.6c0.3,0.1,0.6,0.3,0.8,0.6
			C36,47.4,36.2,47.6,36.3,47.9L36.3,47.9z"/>
		<path class="st23" d="M36.4,47.9c-0.1-0.3-0.3-0.5-0.5-0.7c-0.2-0.2-0.5-0.4-0.8-0.6c-0.6-0.3-1.3-0.5-2-0.6
			c-0.7-0.1-1.5-0.1-2.2-0.1c-0.7,0-1.5,0.1-2.2,0.1c-1.5,0.1-2.9,0.3-4.4,0.5c-0.4,0.1-0.8,0.1-1.2,0.2l0,0
			c0.4-0.1,0.8-0.1,1.1-0.2c1.5-0.2,2.9-0.4,4.4-0.5c0.7-0.1,1.5-0.1,2.2-0.1c0.7,0,1.5,0,2.2,0.1c0.7,0.1,1.4,0.3,2,0.6
			c0.3,0.2,0.6,0.4,0.8,0.6C36.2,47.4,36.3,47.6,36.4,47.9L36.4,47.9z"/>
		<path class="st23" d="M36.5,47.9c-0.1-0.3-0.2-0.5-0.4-0.7c-0.2-0.2-0.4-0.4-0.7-0.6c-0.6-0.3-1.3-0.5-2-0.6
			c-0.7-0.1-1.5-0.1-2.2-0.1c-0.7,0-1.5,0-2.2,0.1c-1.5,0.1-2.9,0.3-4.4,0.5c-0.5,0.1-0.9,0.1-1.4,0.2l0,0c0.5-0.1,0.9-0.1,1.4-0.2
			c1.5-0.2,2.9-0.4,4.4-0.5c0.7-0.1,1.5-0.1,2.2-0.1c0.7,0,1.5,0,2.2,0.1c0.4,0.1,0.7,0.1,1.1,0.2c0.3,0.1,0.7,0.2,1,0.4
			c0.3,0.2,0.5,0.4,0.7,0.6C36.3,47.3,36.4,47.6,36.5,47.9L36.5,47.9z"/>
		<path class="st23" d="M36.6,47.8c-0.1-0.3-0.2-0.5-0.4-0.8c-0.2-0.2-0.4-0.4-0.7-0.6c-0.6-0.4-1.3-0.6-2-0.7
			c-0.7-0.1-1.5-0.1-2.2-0.1c-0.7,0-1.5,0-2.2,0.1c-1.5,0.1-2.9,0.3-4.4,0.5c-0.6,0.1-1.1,0.1-1.6,0.2l0,0c0.5-0.1,1.1-0.1,1.6-0.2
			c1.5-0.2,2.9-0.4,4.4-0.5c0.7-0.1,1.5-0.1,2.2-0.1c0.7,0,1.5,0,2.2,0.2c0.7,0.1,1.4,0.3,2,0.7c0.3,0.2,0.5,0.4,0.7,0.6
			C36.4,47.3,36.5,47.6,36.6,47.8L36.6,47.8z"/>
		<path class="st23" d="M36.7,47.8c-0.1-0.3-0.2-0.5-0.4-0.8c-0.2-0.2-0.4-0.5-0.7-0.6c-0.6-0.4-1.3-0.6-2-0.7
			c-0.7-0.1-1.5-0.2-2.2-0.2c-0.7,0-1.5,0-2.2,0.1c-1.5,0.1-2.9,0.3-4.4,0.5c-0.6,0.1-1.3,0.2-1.9,0.3l0,0c0.6-0.1,1.3-0.2,1.9-0.3
			c1.5-0.2,2.9-0.4,4.4-0.5c0.7-0.1,1.5-0.1,2.2-0.1c0.7,0,1.5,0.1,2.2,0.2c0.7,0.1,1.4,0.4,2,0.7c0.3,0.2,0.5,0.4,0.7,0.6
			C36.5,47.3,36.6,47.6,36.7,47.8L36.7,47.8z"/>
		<path class="st23" d="M36.8,47.8c-0.1-0.3-0.2-0.5-0.4-0.8c-0.2-0.2-0.4-0.5-0.6-0.6c-0.3-0.2-0.6-0.4-0.9-0.5
			c-0.3-0.1-0.7-0.2-1-0.3c-0.7-0.1-1.5-0.2-2.2-0.2c-0.7,0-1.5,0-2.2,0.1c-1.5,0.1-2.9,0.3-4.4,0.5c-0.7,0.1-1.4,0.2-2.1,0.3l0,0
			c0.7-0.1,1.4-0.2,2.1-0.3c1.5-0.2,2.9-0.4,4.4-0.5c0.7-0.1,1.5-0.1,2.2-0.1c0.7,0,1.5,0.1,2.2,0.2c0.7,0.1,1.4,0.4,1.9,0.8
			c0.3,0.2,0.5,0.4,0.6,0.6C36.6,47.3,36.7,47.6,36.8,47.8L36.8,47.8z"/>
		<path class="st23" d="M36.9,47.8c-0.1-0.3-0.2-0.5-0.3-0.8c-0.2-0.2-0.4-0.5-0.6-0.7c-0.3-0.2-0.6-0.4-0.9-0.5
			c-0.3-0.1-0.7-0.2-1-0.3c-0.7-0.1-1.5-0.2-2.2-0.2c-0.7,0-1.5,0-2.2,0.1c-1.5,0.1-2.9,0.3-4.4,0.5c-0.7,0.1-1.5,0.2-2.2,0.3
			l-0.2,0l0,0l0.2,0c0.7-0.1,1.5-0.2,2.2-0.3c1.5-0.2,2.9-0.4,4.4-0.5c0.7-0.1,1.5-0.1,2.2-0.1c0.7,0,1.5,0.1,2.2,0.2
			c0.7,0.1,1.4,0.4,1.9,0.8C36.4,46.8,36.7,47.3,36.9,47.8L36.9,47.8z"/>
		<path class="st23" d="M36.9,47.8c-0.1-0.3-0.1-0.5-0.3-0.8c-0.1-0.2-0.3-0.5-0.6-0.7c-0.2-0.2-0.5-0.4-0.8-0.5
			c-0.3-0.1-0.7-0.2-1-0.3c-0.7-0.2-1.5-0.2-2.2-0.2c-0.7,0-1.5,0-2.2,0.1c-1.5,0.1-2.9,0.3-4.4,0.5c-0.7,0.1-1.5,0.2-2.2,0.3
			c-0.1,0-0.3,0-0.4,0.1l0,0c0.1,0,0.3,0,0.4-0.1c0.7-0.1,1.5-0.2,2.2-0.3c1.5-0.2,2.9-0.4,4.4-0.5c0.7-0.1,1.5-0.1,2.2-0.1
			c0.7,0,1.5,0.1,2.2,0.2c0.7,0.2,1.4,0.4,1.9,0.8C36.5,46.8,36.8,47.3,36.9,47.8L36.9,47.8z"/>
		<path class="st23" d="M37,47.8c-0.1-0.3-0.1-0.5-0.3-0.8c-0.1-0.3-0.3-0.5-0.6-0.7s-0.5-0.4-0.8-0.5c-0.3-0.1-0.7-0.3-1-0.4
			c-0.7-0.2-1.5-0.2-2.2-0.3c-0.7,0-1.5,0-2.2,0.1c-1.5,0.1-2.9,0.3-4.4,0.5c-0.7,0.1-1.5,0.2-2.2,0.3c-0.2,0-0.4,0.1-0.7,0.1l0,0
			c0.2,0,0.4-0.1,0.7-0.1c0.7-0.1,1.5-0.2,2.2-0.3c1.5-0.2,2.9-0.4,4.4-0.5c0.7-0.1,1.5-0.1,2.2-0.1s1.5,0.1,2.2,0.3
			c0.7,0.2,1.4,0.5,1.8,0.9C36.7,46.7,36.9,47.3,37,47.8L37,47.8z"/>
		<path class="st23" d="M37.1,47.8c0-0.3-0.1-0.5-0.3-0.8c-0.1-0.3-0.3-0.5-0.5-0.7c-0.2-0.2-0.5-0.4-0.8-0.6s-0.6-0.3-1-0.4
			c-0.7-0.2-1.4-0.3-2.2-0.3c-0.7,0-1.5,0-2.2,0c-1.5,0.1-2.9,0.3-4.4,0.5c-0.7,0.1-1.5,0.2-2.2,0.3c-0.3,0-0.6,0.1-0.9,0.1l0,0
			c0.3,0,0.6-0.1,0.9-0.1c0.7-0.1,1.5-0.2,2.2-0.3c1.5-0.2,2.9-0.4,4.4-0.5c0.7-0.1,1.5-0.1,2.2,0c0.7,0,1.5,0.1,2.2,0.3
			c0.7,0.2,1.3,0.5,1.8,0.9C36.8,46.7,37,47.3,37.1,47.8L37.1,47.8z"/>
		<g>
			<g>
				<defs>
					<path id="SVGID_00000183933645987193262560000016498930817057202357_" d="M37.1,47.5v-4c0,0,0,0,0,0c0,0,0,0,0,0L37.1,47.5
						C37.1,47.5,37.1,47.6,37.1,47.5C37.1,47.6,37.1,47.5,37.1,47.5"/>
				</defs>
				<clipPath id="SVGID_00000030447575263393270380000015036155389878698890_">
					<use xlink:href="#SVGID_00000183933645987193262560000016498930817057202357_"  style="overflow:visible;"/>
				</clipPath>
				
					<linearGradient id="SVGID_00000011727692834028564130000011423861350360024766_" gradientUnits="userSpaceOnUse" x1="37.1099" y1="20.312" x2="37.1099" y2="24.3278" gradientTransform="matrix(1 0 0 -1 0 67.89)">
					<stop  offset="0" style="stop-color:#6E6E6E"/>
					<stop  offset="1" style="stop-color:#A4A3A4"/>
				</linearGradient>
				
					<rect x="37.1" y="43.6" style="clip-path:url(#SVGID_00000030447575263393270380000015036155389878698890_);fill:url(#SVGID_00000011727692834028564130000011423861350360024766_);" width="0" height="4"/>
			</g>
		</g>
		<path class="st26" d="M35.4,48.1c-0.1,0-0.1,0-0.2-0.1c0,0,0,0,0,0c0,0,0,0,0.1,0c1.3-0.2,2.3-0.3,3.6,0c0.1,0,0.1,0,0.1,0
			c0,0,0,0,0,0c0,0-0.1,0.1-0.1,0.1c0,0,0,0,0,0c-0.1,0-0.1,0-0.2,0c-0.1,0-0.1-0.1-0.2-0.1c-0.1,0-0.1,0-0.2,0
			c-0.1,0-0.1-0.1-0.2-0.1c-0.1,0-0.1,0-0.2,0c-0.1,0-0.1-0.1-0.2-0.1s-0.1,0-0.2,0S37.3,48,37.2,48c0,0-0.1,0.1-0.2,0.1
			c-0.1,0-0.1-0.1-0.2-0.1c-0.1,0-0.1,0-0.2,0.1c-0.1,0-0.1,0-0.2,0c-0.1,0-0.1,0.1-0.2,0.1s-0.1,0-0.2,0s-0.1,0.1-0.2,0.1
			c0,0-0.1,0-0.2,0C35.5,48.1,35.5,48.1,35.4,48.1"/>
		<path class="st27" d="M35.5,48C35.5,48,35.5,48,35.5,48c-0.1,0.1-0.1,0.1-0.2,0h0l0,0h0C35.4,48,35.4,48,35.5,48
			C35.5,48,35.5,48,35.5,48L35.5,48z M36,47.9C36,47.9,36,47.9,36,47.9c-0.1,0-0.1,0.1-0.1,0.1s-0.1,0-0.1,0h0c0,0,0.1,0,0.1,0
			C35.9,48,35.9,47.9,36,47.9L36,47.9z M36.4,47.9c0,0-0.1,0-0.1,0c0,0,0,0-0.1,0c0,0,0,0-0.1,0c0,0-0.1,0-0.1,0h0c0,0,0,0,0.1,0
			c0,0,0.1,0,0.1,0C36.3,47.9,36.3,47.9,36.4,47.9L36.4,47.9z M38.4,47.9C38.3,47.9,38.3,47.9,38.4,47.9c-0.1,0-0.2,0-0.2,0
			c0,0-0.1,0-0.1-0.1c0,0-0.1,0-0.1,0c0,0-0.1,0-0.1,0c-0.1,0-0.1-0.1-0.2-0.1c0,0-0.1,0-0.1,0c0,0,0,0-0.1,0s0,0-0.1,0
			c0,0-0.1,0-0.1,0c0,0-0.1,0-0.1,0s-0.1,0-0.1,0c-0.1,0-0.1,0-0.1,0s-0.1,0-0.1,0c0,0-0.1,0-0.1,0c-0.1,0-0.2,0-0.2,0h0.1
			c0.1,0,0.1,0,0.2,0c0,0,0.1,0,0.1,0l0,0c0,0,0.1,0,0.1,0h0c0,0,0.1,0,0.1,0c0,0,0.1,0,0.1,0c0,0,0,0,0.1,0l0,0l0,0h0.1
			c0,0,0.1,0,0.1,0c0.1,0,0.1,0,0.2,0h0.1c0,0,0,0,0.1,0c0,0,0.1,0,0.1,0s0.1,0,0.1,0c0,0,0,0,0,0c0,0,0.1,0,0.1,0
			c0,0,0.1,0,0.1,0.1S38.2,47.9,38.4,47.9C38.3,47.9,38.3,47.9,38.4,47.9L38.4,47.9z M38.7,48C38.7,48,38.7,48,38.7,48
			c-0.1,0-0.2,0-0.2,0c0,0,0,0-0.1,0h0c0,0,0,0,0,0C38.6,48,38.6,48,38.7,48C38.7,48,38.7,48,38.7,48L38.7,48z M39,48
			C38.9,48,38.9,48,39,48L39,48C38.9,48,38.9,48,39,48L39,48z"/>
		<path class="st28" d="M35.5,48C35.5,48,35.5,48,35.5,48c-0.1,0-0.1,0-0.2,0l0,0C35.4,48,35.4,48,35.5,48C35.5,48,35.5,48,35.5,48
			L35.5,48z M35.9,47.9L35.9,47.9c0,0-0.1,0-0.1,0s-0.1,0-0.1,0h0c0,0,0.1,0,0.1,0C35.8,48,35.9,47.9,35.9,47.9L35.9,47.9z
			 M36.4,47.9C36.3,47.9,36.3,47.9,36.4,47.9c-0.1,0-0.1,0-0.1,0.1c0,0,0,0-0.1,0s-0.1,0-0.1,0h0c0,0,0,0,0,0
			C36.2,47.9,36.3,47.9,36.4,47.9C36.3,47.9,36.3,47.9,36.4,47.9L36.4,47.9z M38,47.9C38,47.9,37.9,47.9,38,47.9c-0.1,0-0.1,0-0.2,0
			c-0.1,0-0.1-0.1-0.2-0.1c0,0-0.1,0-0.1,0c0,0,0,0-0.1,0s0,0-0.1,0c0,0-0.1,0-0.1,0c0,0-0.1,0-0.1,0s-0.1,0-0.1,0
			c-0.1,0-0.1,0-0.1,0c0,0-0.1,0-0.1,0c0,0-0.1,0-0.1,0c-0.1,0-0.1,0-0.2,0h0c0,0,0.1,0,0.1,0c0,0,0.1,0,0.1,0c0.1,0,0.1,0,0.2,0
			c0,0,0.1,0,0.1,0s0.1,0,0.1,0c0,0,0,0,0,0h0c0,0,0.1,0,0.1,0c0,0,0.1,0,0.1,0c0.1,0,0.1,0,0.2,0c0,0,0.1,0,0.1,0c0,0,0,0,0,0
			c0,0,0.1,0,0.1,0S37.9,47.9,38,47.9L38,47.9z M38.3,47.9C38.3,47.9,38.3,47.9,38.3,47.9c-0.1,0-0.1,0-0.2,0c0,0-0.1,0-0.1-0.1h0h0
			c0,0,0.1,0,0.1,0C38.2,47.9,38.2,47.9,38.3,47.9L38.3,47.9L38.3,47.9z M38.7,48C38.7,48,38.6,48,38.7,48c-0.1,0-0.1,0-0.2,0
			c0,0,0,0,0,0h0l0,0C38.5,48,38.6,48,38.7,48C38.6,48,38.6,48,38.7,48L38.7,48z M39,48C38.9,48,38.9,48,39,48L39,48
			C38.9,48,38.9,48,39,48L39,48z"/>
		<path class="st27" d="M38.9,48.1C38.9,48.1,38.9,48,38.9,48.1C38.8,48,38.8,48,38.8,48c0,0-0.1,0-0.1,0s-0.1,0-0.1,0
			c0,0-0.1,0-0.1-0.1c0,0-0.1,0-0.1,0c0,0-0.1,0-0.1,0c0,0-0.1,0-0.1-0.1c0,0-0.1,0-0.1,0c0,0-0.1,0-0.1,0c-0.1,0-0.1-0.1-0.2-0.1
			c0,0-0.1,0-0.1,0c0,0,0,0-0.1,0s0,0-0.1,0c0,0-0.1,0-0.1,0c0,0-0.1,0-0.1,0c0,0-0.1,0-0.1,0c-0.1,0-0.1,0-0.1,0c0,0-0.1,0-0.1,0
			c0,0-0.1,0-0.1,0c-0.1,0-0.2-0.1-0.2,0c0,0-0.1,0-0.1,0c0,0,0,0-0.1,0c0,0,0,0-0.1,0c0,0-0.1,0-0.1,0s-0.1,0-0.1,0s-0.1,0-0.1,0
			s-0.1,0-0.1,0s-0.1,0-0.1,0c0,0-0.1,0-0.1,0.1c0,0-0.1,0-0.1,0c0,0-0.1,0-0.1,0l0,0c0,0,0.1,0,0.1,0c0,0,0.1,0,0.1,0
			c0,0,0.1,0,0.1-0.1c0,0,0.1,0,0.1,0c0,0,0.1,0,0.1,0c0,0,0.1,0,0.1,0c0,0,0.1,0,0.1,0c0,0,0.1,0,0.1,0c0,0,0.1,0,0.1,0
			c0,0,0.1,0,0.1,0c0.1,0,0.2,0.1,0.2,0c0,0,0.1,0,0.1,0c0,0,0,0,0.1,0s0,0,0.1,0c0,0,0.1,0,0.1,0c0,0,0.1,0,0.1,0c0,0,0,0,0.1,0
			c0,0,0.1,0,0.1,0c0,0,0.1,0,0.1,0c0.1,0,0.1,0,0.2,0c0.1,0,0.1,0,0.1,0c0,0,0.1,0,0.1,0s0.1,0,0.1,0c0,0,0,0,0.1,0s0,0,0.1,0
			c0,0,0.1,0,0.1,0.1c0,0,0.1,0,0.1,0c0,0,0.1,0,0.1,0c0,0,0.1,0,0.1,0.1c0,0,0.1,0,0.1,0c0,0,0.1,0,0.1,0
			C38.8,48,38.9,48,38.9,48.1C38.9,48,38.9,48.1,38.9,48.1L38.9,48.1z"/>
		<path class="st28" d="M38.9,48.1C38.9,48.1,38.9,48,38.9,48.1C38.8,48,38.8,48,38.8,48c0,0-0.1,0-0.1,0c0,0-0.1,0-0.1,0
			c0,0-0.1,0-0.1-0.1s-0.1,0-0.1,0c0,0-0.1,0-0.1,0c0,0-0.1,0-0.1-0.1c0,0-0.1,0-0.1,0c0,0-0.1,0-0.1,0c-0.1,0-0.1-0.1-0.2-0.1
			c0,0-0.1,0-0.1,0c0,0,0,0-0.1,0s0,0-0.1,0c0,0-0.1,0-0.1,0c0,0-0.1,0-0.1,0c0,0-0.1,0-0.1,0c-0.1,0-0.1,0-0.1,0c0,0-0.1,0-0.1,0
			c0,0-0.1,0-0.1,0c-0.1,0-0.2-0.1-0.2,0c0,0-0.1,0-0.1,0c0,0,0,0-0.1,0c0,0,0,0-0.1,0c0,0-0.1,0-0.1,0s-0.1,0-0.1,0s-0.1,0-0.1,0
			s-0.1,0-0.1,0s-0.1,0-0.1,0c0,0-0.1,0-0.1,0.1c0,0-0.1,0-0.1,0c0,0-0.1,0-0.1,0l0,0c0,0,0.1,0,0.1,0c0,0,0.1,0,0.1,0
			s0.1,0,0.1-0.1c0,0,0.1,0,0.1,0c0,0,0.1,0,0.1,0c0,0,0.1,0,0.1,0c0,0,0.1,0,0.1,0c0,0,0.1,0,0.1,0c0,0,0.1,0,0.1,0
			c0,0,0.1,0,0.1,0c0.1,0,0.2,0.1,0.2,0c0,0,0.1,0,0.1,0c0,0,0,0,0.1,0c0,0,0,0,0.1,0c0,0,0.1,0,0.1,0c0,0,0.1,0,0.1,0
			c0,0,0,0,0.1,0c0,0,0.1,0,0.1,0c0,0,0.1,0,0.1,0c0.1,0,0.1,0,0.2,0c0.1,0,0.1,0,0.1,0c0,0,0.1,0,0.1,0s0.1,0,0.1,0c0,0,0,0,0.1,0
			s0,0,0.1,0c0,0,0.1,0,0.1,0.1c0,0,0.1,0,0.1,0c0,0,0.1,0,0.1,0c0,0,0.1,0,0.1,0.1c0,0,0.1,0,0.1,0s0.1,0,0.1,0
			C38.8,48,38.8,48,38.9,48.1C38.9,48,38.9,48.1,38.9,48.1L38.9,48.1z"/>
		<path class="st27" d="M38.9,48.1C38.9,48.1,38.9,48.1,38.9,48.1c-0.1,0-0.1-0.1-0.1-0.1c0,0-0.1,0-0.1,0c0,0-0.1,0-0.1,0
			c0,0-0.1,0-0.1-0.1c0,0-0.1,0-0.1,0c0,0-0.1,0-0.1,0c0,0-0.1,0-0.1-0.1c0,0-0.1,0-0.1,0c0,0-0.1,0-0.1,0c-0.1,0-0.1-0.1-0.2-0.1
			c0,0-0.1,0-0.1,0c0,0,0,0-0.1,0s0,0-0.1,0c0,0-0.1,0-0.1,0c0,0-0.1,0-0.1,0S37,48,37,48c-0.1,0-0.1,0-0.1,0c0,0-0.1,0-0.1,0
			c0,0-0.1,0-0.1,0c-0.1,0-0.2-0.1-0.2,0c0,0-0.1,0-0.1,0c0,0,0,0-0.1,0c0,0,0,0-0.1,0c0,0-0.1,0-0.1,0S36,48,36,48c0,0-0.1,0-0.1,0
			s-0.1,0-0.1,0s-0.1,0-0.1,0c0,0-0.1,0-0.1,0.1c0,0-0.1,0-0.1,0c0,0-0.1,0-0.1,0l0,0c0,0,0.1,0,0.1,0c0,0,0.1,0,0.1,0
			c0,0,0.1,0,0.1-0.1c0,0,0.1,0,0.1,0c0,0,0.1,0,0.1,0c0,0,0.1,0,0.1,0c0,0,0.1,0,0.1,0c0,0,0.1,0,0.1,0c0,0,0.1,0,0.1,0
			c0,0,0.1,0,0.1,0c0.1,0,0.2,0.1,0.2,0c0,0,0.1,0,0.1,0c0,0,0,0,0.1,0s0,0,0.1,0c0,0,0.1,0,0.1,0c0,0,0.1,0,0.1,0c0,0,0,0,0.1,0
			c0,0,0.1,0,0.1,0c0,0,0.1,0,0.1,0c0.1,0,0.1,0,0.2,0c0.1,0,0.1,0,0.1,0c0,0,0.1,0,0.1,0s0.1,0,0.1,0c0,0,0,0,0.1,0c0,0,0,0,0.1,0
			c0,0,0.1,0,0.1,0.1c0,0,0.1,0,0.1,0c0,0,0.1,0,0.1,0c0,0,0.1,0,0.1,0.1c0,0,0.1,0,0.1,0c0,0,0.1,0,0.1,0
			C38.8,48,38.9,48.1,38.9,48.1C38.9,48.1,38.9,48.1,38.9,48.1L38.9,48.1z"/>
		<path class="st28" d="M38.9,48.1C38.9,48.1,38.9,48.1,38.9,48.1c-0.1,0-0.1-0.1-0.1-0.1c0,0-0.1,0-0.1,0c0,0-0.1,0-0.1,0
			c0,0-0.1,0-0.1-0.1c0,0-0.1,0-0.1,0c0,0-0.1,0-0.1,0c0,0-0.1,0-0.1-0.1c0,0-0.1,0-0.1,0c0,0-0.1,0-0.1,0c-0.1,0-0.1-0.1-0.2-0.1
			c0,0-0.1,0-0.1,0c0,0,0,0-0.1,0s0,0-0.1,0c0,0-0.1,0-0.1,0c0,0-0.1,0-0.1,0S37,48,37,48c-0.1,0-0.1,0-0.1,0s-0.1,0-0.1,0
			c0,0-0.1,0-0.1,0c-0.1,0-0.2-0.1-0.2,0c0,0-0.1,0-0.1,0c0,0,0,0-0.1,0c0,0,0,0-0.1,0c0,0-0.1,0-0.1,0S36,48,36,48s-0.1,0-0.1,0
			s-0.1,0-0.1,0c0,0-0.1,0-0.1,0c0,0-0.1,0-0.1,0.1c0,0-0.1,0-0.1,0c0,0-0.1,0-0.1,0l0,0c0,0,0.1,0,0.1,0c0,0,0.1,0,0.1,0
			s0.1,0,0.1-0.1c0,0,0.1,0,0.1,0c0,0,0.1,0,0.1,0c0,0,0.1,0,0.1,0c0,0,0.1,0,0.1,0c0,0,0.1,0,0.1,0c0,0,0.1,0,0.1,0
			c0,0,0.1,0,0.1,0c0.1,0,0.2,0.1,0.2,0c0,0,0.1,0,0.1,0c0,0,0,0,0.1,0c0,0,0,0,0.1,0c0,0,0.1,0,0.1,0c0,0,0.1,0,0.1,0
			c0,0,0,0,0.1,0c0,0,0.1,0,0.1,0c0,0,0.1,0,0.1,0c0.1,0,0.1,0,0.2,0c0.1,0,0.1,0,0.1,0c0,0,0.1,0,0.1,0s0.1,0,0.1,0c0,0,0,0,0.1,0
			s0,0,0.1,0c0,0,0.1,0,0.1,0.1c0,0,0.1,0,0.1,0c0,0,0.1,0,0.1,0c0,0,0.1,0,0.1,0.1c0,0,0.1,0,0.1,0s0.1,0,0.1,0
			C38.8,48,38.8,48,38.9,48.1C38.9,48.1,38.9,48.1,38.9,48.1L38.9,48.1z"/>
		<path class="st27" d="M38.8,48.1C38.8,48.1,38.8,48.1,38.8,48.1c-0.1,0-0.2,0-0.2,0c0,0-0.1,0-0.1,0c0,0-0.1,0-0.1-0.1
			c0,0-0.1,0-0.1,0l0,0l0,0l0,0l0,0c0,0,0,0,0,0h0l0,0l0,0l0,0l0,0l0,0l0,0l0,0l0,0c0,0-0.1,0-0.1,0l0,0c0,0-0.1,0-0.1,0l0,0l0,0
			c0,0,0,0-0.1,0c0,0,0,0-0.1,0c0,0-0.1,0-0.1,0c0,0,0,0-0.1,0l0,0l0,0l0,0l0,0c0,0,0,0,0,0l0,0l0,0l0,0l0,0h0c0,0-0.1,0-0.1,0
			c0,0-0.1-0.1-0.1,0c0,0-0.1,0-0.1,0l0,0l0,0l0,0c0,0,0,0-0.1,0l0,0l0,0l0,0l0,0l0,0l0,0l0,0l0,0h0c0,0,0,0-0.1,0c0,0-0.1,0-0.1,0
			c0,0-0.1,0-0.1,0c-0.1,0-0.1,0-0.1,0l0,0l0,0c-0.1,0-0.1,0-0.1,0c0,0-0.1,0-0.1,0s-0.1,0-0.1,0l0,0c0,0,0,0,0,0l0,0l0,0l0,0l0,0
			l0,0l0,0l0,0l0,0c-0.1,0-0.1-0.1-0.2,0c0,0-0.1,0-0.1,0c0,0,0,0,0,0l0,0c0,0,0,0-0.1,0l0,0l0,0l0,0c0,0,0,0,0,0c0,0-0.1,0-0.1,0
			c0,0-0.1,0-0.1,0c0,0-0.1,0-0.1,0l0,0l0,0l0,0c0,0,0,0,0,0l0,0l0,0l0,0l0,0l0,0l0,0l0,0l0,0l0,0c0,0,0,0-0.1,0c0,0,0,0,0,0h0
			c0,0-0.1,0-0.1,0c0,0,0,0,0,0c0,0,0,0,0,0c0,0,0,0,0.1,0c0,0,0.1,0,0.1,0c0,0,0.1,0,0.1,0c0,0,0.1,0,0.1,0c0,0,0.1,0,0.1,0
			c0,0,0.1,0,0.1,0c0,0,0.1,0,0.1,0c0,0,0.1,0,0.1,0c0.1,0,0.2,0.1,0.2,0c0,0,0.1,0,0.1,0c0,0,0,0,0.1,0s0,0,0.1,0c0,0,0.1,0,0.1,0
			c0,0,0.1,0,0.1,0c0,0,0,0,0.1,0c0,0,0.1,0,0.1,0c0,0,0.1,0,0.1,0c0.1,0,0.1,0,0.2,0c0.1,0,0.1,0,0.1,0c0,0,0.1,0,0.1,0
			c0,0,0.1,0,0.1,0c0,0,0,0,0.1,0c0,0,0,0,0.1,0c0,0,0.1,0,0.1,0.1c0,0,0.1,0,0.1,0c0,0,0.1,0,0.1,0c0,0,0.1,0,0.1,0.1
			c0,0,0.1,0,0.1,0C38.7,48.1,38.8,48.1,38.8,48.1C38.8,48.1,38.8,48.1,38.8,48.1L38.8,48.1z"/>
		<path class="st28" d="M38.9,48.1c0,0-0.1,0-0.1,0c0,0-0.1,0-0.1,0c0,0-0.1,0-0.1,0c0,0-0.1,0-0.1-0.1s-0.1,0-0.1,0
			c0,0-0.1,0-0.1,0c0,0-0.1,0-0.1-0.1c0,0-0.1,0-0.1,0c0,0-0.1,0-0.1,0c-0.1,0-0.1-0.1-0.2-0.1c0,0-0.1,0-0.1,0c0,0,0,0-0.1,0
			s0,0-0.1,0c0,0-0.1,0-0.1,0c0,0-0.1,0-0.1,0S37,48,37,48c-0.1,0-0.1,0-0.1,0c0,0-0.1,0-0.1,0c0,0-0.1,0-0.1,0
			c-0.1,0-0.2-0.1-0.2,0c0,0-0.1,0-0.1,0c0,0,0,0-0.1,0c0,0,0,0-0.1,0c0,0-0.1,0-0.1,0S36,48,36,48s-0.1,0-0.1,0s-0.1,0-0.1,0
			s-0.1,0-0.1,0c0,0-0.1,0-0.1,0c0,0,0,0-0.1,0l0,0l0,0h0l0,0c0,0,0,0-0.1,0c0,0,0.1,0,0.1,0c0,0,0.1,0,0.1-0.1c0,0,0.1,0,0.1,0
			c0,0,0.1,0,0.1,0c0,0,0.1,0,0.1,0c0,0,0.1,0,0.1,0c0,0,0.1,0,0.1,0c0,0,0.1,0,0.1,0c0,0,0.1,0,0.1,0c0.1,0,0.2,0.1,0.2,0
			c0,0,0.1,0,0.1,0c0,0,0,0,0.1,0s0,0,0.1,0c0,0,0.1,0,0.1,0c0,0,0.1,0,0.1,0c0,0,0,0,0.1,0c0,0,0.1,0,0.1,0c0,0,0.1,0,0.1,0
			c0.1,0,0.1,0,0.2,0c0.1,0,0.1,0,0.1,0c0,0,0.1,0,0.1,0s0.1,0,0.1,0c0,0,0,0,0.1,0c0,0,0,0,0.1,0c0,0,0.1,0,0.1,0.1
			c0,0,0.1,0,0.1,0c0,0,0.1,0,0.1,0c0,0,0.1,0,0.1,0.1c0,0,0.1,0,0.1,0c0,0,0.1,0,0.1,0C38.8,48.1,38.8,48.1,38.9,48.1L38.9,48.1z"
			/>
	</g>
	<path class="st29" d="M37,14.7c-10.5,0-19,8.5-19,19s8.5,19,19,19s19-8.5,19-19S47.5,14.7,37,14.7 M37,50.3
		c-9.2,0-16.6-7.4-16.6-16.6S27.9,17.1,37,17.1s16.6,7.4,16.6,16.6C53.6,42.9,46.2,50.3,37,50.3z"/>
	<path class="st2" d="M37,53c-10.6,0-19.2-8.6-19.2-19.2c0-10.6,8.6-19.2,19.2-19.2s19.2,8.6,19.2,19.2C56.3,44.3,47.7,53,37,53
		 M37,15c-10.3,0-18.7,8.4-18.7,18.7S26.7,52.4,37,52.4S55.7,44,55.7,33.7C55.7,23.4,47.4,15,37,15z M37,50.6
		c-9.3,0-16.9-7.6-16.9-16.9S27.7,16.8,37,16.8s16.9,7.6,16.9,16.9S46.3,50.6,37,50.6z M37,17.4c-9,0-16.3,7.3-16.3,16.3
		S28,50,37,50s16.3-7.3,16.3-16.3C53.4,24.7,46,17.4,37,17.4z"/>
	<path class="st30" d="M58.5,36.8c0-0.1-0.1-0.2-0.1-0.3c0-0.1-0.1-0.2-0.1-0.3C58.2,36.1,58.1,36,58,36c-0.1,0-0.2,0-0.3,0
		c-0.1,0-0.1,0.1-0.1,0.2c0,0.1,0,0.2,0.1,0.3c0.1,0.1,0.2,0.1,0.3,0.1c0.1,0,0.2,0,0.4,0.1L58.5,36.8z M59.2,36.2l0.2-0.4
		c0.3,0.1,0.5,0.2,0.6,0.4c0.1,0.1,0.2,0.3,0.1,0.6c0,0.2-0.1,0.4-0.2,0.5c-0.1,0.1-0.2,0.2-0.4,0.2s-0.4,0-0.8,0l-1-0.1
		c-0.3,0-0.5-0.1-0.6-0.1c-0.1,0-0.3,0-0.4,0l0.1-0.5c0.1,0,0.1,0,0.3,0c0.1,0,0.1,0,0.1,0c-0.1-0.1-0.2-0.2-0.3-0.3
		C57,36.3,56.9,36.1,57,36c0-0.2,0.1-0.3,0.3-0.4c0.2-0.1,0.4-0.1,0.7-0.1c0.2,0,0.3,0.1,0.5,0.1s0.2,0.1,0.3,0.3
		c0.1,0.1,0.1,0.2,0.1,0.4c0,0.2,0.1,0.4,0.1,0.5l0.1,0c0.2,0,0.3,0,0.4,0c0.1,0,0.1-0.1,0.1-0.3c0-0.1,0-0.2-0.1-0.2
		C59.5,36.3,59.4,36.2,59.2,36.2z M57.2,34.5l3.2,0.2l0,0.5L57.1,35L57.2,34.5z M60.8,34.8l0.8,0.1l0,0.5l-0.8-0.1L60.8,34.8z
		 M60.4,34.3l-0.7,0l0-0.3l-1.3,0c-0.3,0-0.4,0-0.5,0c0,0-0.1,0-0.1,0c0,0,0,0.1,0,0.1c0,0,0,0.1,0.1,0.2l-0.7,0
		c-0.1-0.1-0.1-0.3-0.1-0.4c0-0.1,0-0.2,0.1-0.2c0.1-0.1,0.1-0.1,0.2-0.1c0.1,0,0.2-0.1,0.3-0.1c0.1,0,0.3,0,0.6,0l1.4,0v-0.2l0.7,0
		v0.2l0.6,0l0.5,0.5l-1.1,0L60.4,34.3z M58,31.1l0.2,0.5c-0.2,0-0.3,0.1-0.4,0.2c-0.1,0.1-0.1,0.2-0.1,0.3c0,0.1,0.1,0.2,0.1,0.3
		c0.1,0,0.1,0.1,0.2,0.1c0.1,0,0.1,0,0.2-0.1c0,0,0.1-0.1,0.1-0.2c0.1-0.4,0.2-0.7,0.4-0.8c0.2-0.2,0.4-0.3,0.7-0.3
		c0.3,0,0.5,0,0.7,0.1c0.2,0.1,0.3,0.3,0.3,0.6c0,0.3,0,0.5-0.2,0.6c-0.1,0.1-0.3,0.2-0.6,0.3l-0.2-0.5c0.1,0,0.2-0.1,0.3-0.1
		c0.1-0.1,0.1-0.1,0.1-0.2c0-0.1-0.1-0.2-0.1-0.3c0,0-0.1-0.1-0.2,0c-0.1,0-0.1,0-0.1,0.1c-0.1,0.1-0.1,0.2-0.2,0.5
		c-0.1,0.3-0.2,0.5-0.3,0.6c-0.1,0.1-0.4,0.2-0.6,0.2c-0.3,0-0.6,0-0.8-0.2c-0.2-0.1-0.3-0.3-0.4-0.6c0-0.3,0.1-0.5,0.2-0.6
		C57.4,31.2,57.7,31.1,58,31.1z M57,30.3l3.2-0.4l0.1,0.5L57,30.8L57,30.3z M60.5,29.9l0.8-0.1l0.1,0.5l-0.8,0.1L60.5,29.9z
		 M56.8,29.4l-0.1-0.5l3.1-0.7l0.1,0.4l-0.4,0.1c0.2,0,0.4,0.1,0.5,0.1S60,28.9,60,29c0,0.1,0,0.2-0.1,0.4l-0.8,0
		c0.1-0.1,0.1-0.2,0.1-0.3c0-0.1-0.1-0.1-0.1-0.1c-0.1,0-0.2,0-0.4,0c-0.2,0-0.5,0.1-1.1,0.2L56.8,29.4z M58,27.5L57.9,28
		c-0.5,0.1-0.9,0.1-1.1,0c-0.3-0.1-0.5-0.3-0.6-0.5c-0.1-0.3,0-0.7,0.3-1c0.3-0.3,0.8-0.6,1.4-0.8c0.7-0.2,1.3-0.3,1.7-0.2
		c0.5,0.1,0.7,0.3,0.9,0.6c0.1,0.3,0,0.6-0.2,0.9c-0.1,0.2-0.4,0.3-0.7,0.5L59.3,27c0.2-0.1,0.4-0.2,0.4-0.4
		c0.1-0.1,0.1-0.3,0.1-0.4c-0.1-0.2-0.2-0.3-0.5-0.3c-0.3,0-0.6,0-1.1,0.2c-0.5,0.2-0.9,0.4-1.1,0.6c-0.2,0.2-0.2,0.4-0.2,0.6
		c0,0.1,0.1,0.2,0.3,0.3C57.4,27.5,57.7,27.5,58,27.5z M56.5,23.9c-0.1,0-0.1-0.1-0.3-0.2c-0.1-0.1-0.2-0.2-0.3-0.2
		c-0.1,0-0.2,0-0.3,0.1c-0.1,0.1-0.2,0.1-0.2,0.2c-0.1,0.1-0.1,0.2,0,0.2c0,0.1,0.1,0.1,0.3,0.2c0.1,0,0.2,0,0.3,0
		c0.1,0,0.2-0.1,0.4-0.2L56.5,23.9z M56.8,23l-0.1-0.5c0.3-0.1,0.5-0.1,0.7-0.1c0.2,0,0.3,0.2,0.4,0.4C58,23,58,23.2,58,23.3
		c0,0.1-0.1,0.3-0.2,0.4c-0.1,0.1-0.3,0.2-0.6,0.4l-0.9,0.4c-0.2,0.1-0.4,0.2-0.5,0.3c-0.1,0.1-0.2,0.2-0.3,0.3l-0.2-0.4
		c0,0,0.1-0.1,0.2-0.1c0,0,0.1-0.1,0.1-0.1c-0.2,0-0.3,0-0.4-0.1c-0.1-0.1-0.2-0.1-0.2-0.2c-0.1-0.2-0.1-0.4,0-0.5
		c0.1-0.2,0.3-0.3,0.5-0.5c0.2-0.1,0.3-0.1,0.5-0.1s0.3,0,0.4,0c0.1,0.1,0.2,0.1,0.4,0.3c0.2,0.2,0.3,0.3,0.4,0.3l0.1,0
		c0.1-0.1,0.2-0.1,0.3-0.2c0-0.1,0-0.2,0-0.3c0-0.1-0.1-0.1-0.2-0.1C57.1,22.9,56.9,23,56.8,23z M56.4,22.1L56,21.8
		c0.1-0.1,0.2-0.2,0.3-0.3c0-0.1,0-0.2,0-0.3c-0.1-0.1-0.2-0.1-0.3-0.1s-0.4,0.1-0.7,0.3c-0.3,0.2-0.5,0.4-0.6,0.5s-0.1,0.3,0,0.4
		c0.1,0.1,0.1,0.1,0.2,0.1c0.1,0,0.3,0,0.5-0.1l0.1,0.5c-0.4,0.2-0.6,0.2-0.9,0.2c-0.2,0-0.4-0.1-0.6-0.3c-0.1-0.2-0.1-0.5,0-0.8
		c0.2-0.3,0.5-0.6,0.9-0.9c0.4-0.3,0.8-0.4,1.2-0.5c0.3,0,0.6,0.1,0.7,0.3c0.1,0.2,0.1,0.4,0.1,0.6C56.8,21.7,56.6,21.9,56.4,22.1z
		 M53,21.1l2.5-2l0.3,0.4l-2.5,2L53,21.1z M55.8,18.9l0.6-0.5l0.3,0.4l-0.6,0.5L55.8,18.9z M52.7,20.7l-0.3-0.4l1.2-1.1
		c0.3-0.2,0.4-0.4,0.5-0.5c0.1-0.1,0.1-0.2,0.1-0.2c0-0.1,0-0.1-0.1-0.2c-0.1-0.1-0.1-0.1-0.2-0.1s-0.2,0-0.3,0.1
		c-0.1,0.1-0.3,0.2-0.6,0.4l-1.1,0.9l-0.3-0.4l2.4-2.1l0.3,0.4L53.9,18c0.4-0.1,0.6-0.1,0.8,0.1c0.1,0.1,0.1,0.2,0.1,0.3
		c0,0.1,0,0.2-0.1,0.3c-0.1,0.1-0.1,0.2-0.2,0.3c-0.1,0.1-0.2,0.2-0.4,0.4L52.7,20.7z M52.8,17.6l-0.5-0.2c0.1-0.1,0.2-0.2,0.2-0.4
		c0-0.1,0-0.2-0.1-0.2c-0.1-0.1-0.2-0.1-0.4,0c-0.1,0.1-0.4,0.2-0.6,0.5c-0.3,0.3-0.4,0.5-0.5,0.7c-0.1,0.2,0,0.3,0.1,0.4
		c0.1,0.1,0.2,0.1,0.3,0.1c0.1,0,0.2-0.1,0.4-0.3l0.3,0.4c-0.3,0.2-0.6,0.4-0.8,0.4c-0.2,0-0.4,0-0.6-0.2c-0.2-0.2-0.3-0.4-0.2-0.8
		s0.3-0.7,0.7-1.1c0.4-0.4,0.7-0.6,1-0.7c0.3-0.1,0.6-0.1,0.8,0.1c0.2,0.2,0.2,0.3,0.2,0.6C53.1,17,53,17.3,52.8,17.6z M50.9,14.2
		l0.7-0.6l0.5,0.3l-0.9,0.4L50.9,14.2z M50.5,16c0.1-0.2,0.2-0.4,0.2-0.5c0-0.1,0-0.2-0.1-0.3c-0.1-0.1-0.2-0.1-0.3,0
		c-0.1,0.1-0.3,0.2-0.4,0.4L50.5,16z M49.9,16.7l0.3,0.4c-0.2,0.2-0.4,0.4-0.6,0.4c-0.2,0.1-0.4,0-0.6-0.1c-0.3-0.2-0.4-0.5-0.3-0.9
		c0.1-0.3,0.2-0.6,0.5-1c0.3-0.4,0.6-0.7,0.9-0.9c0.3-0.1,0.6-0.1,0.8,0c0.2,0.2,0.3,0.4,0.3,0.8c-0.1,0.4-0.3,0.8-0.6,1.3l-1-0.7
		c-0.1,0.2-0.2,0.4-0.2,0.5c0,0.2,0,0.3,0.1,0.3c0.1,0,0.1,0.1,0.2,0C49.7,16.9,49.8,16.8,49.9,16.7z M47.1,16l1.8-3.2l-0.7-0.4
		l0.4-0.6l1.8,1L50,13.5l-0.7-0.4l-1.8,3.2L47.1,16z M44.8,14.9l-0.5-0.2l1.2-3l0.4,0.2l-0.2,0.4c0.1-0.2,0.3-0.3,0.4-0.3
		c0.1,0,0.2,0,0.2,0c0.1,0,0.2,0.1,0.2,0.3l-0.4,0.6c0-0.1-0.1-0.2-0.2-0.2c-0.1,0-0.1,0-0.2,0c-0.1,0-0.1,0.1-0.2,0.3
		c-0.1,0.1-0.2,0.5-0.4,1L44.8,14.9z M44,12.9c-0.1,0-0.2,0-0.3,0s-0.2,0-0.3,0.1c-0.1,0.1-0.1,0.1-0.2,0.2c0,0.1-0.1,0.2,0,0.3
		c0,0.1,0.1,0.2,0.1,0.2c0.1,0,0.2,0,0.3-0.1c0.1-0.1,0.1-0.1,0.2-0.2c0-0.1,0.1-0.2,0.1-0.4L44,12.9z M43.5,12.1l-0.4-0.3
		c0.1-0.3,0.3-0.5,0.5-0.6c0.2-0.1,0.4-0.1,0.6,0c0.2,0.1,0.4,0.2,0.4,0.3c0.1,0.1,0.1,0.3,0.1,0.4c0,0.1-0.1,0.4-0.2,0.7l-0.3,0.9
		c-0.1,0.3-0.1,0.5-0.2,0.6c0,0.1-0.1,0.3-0.1,0.4l-0.5-0.2c0-0.1,0-0.1,0-0.2c0-0.1,0-0.1,0-0.1c-0.1,0.1-0.2,0.2-0.4,0.2
		c-0.1,0-0.2,0-0.3,0c-0.2-0.1-0.3-0.2-0.4-0.4s0-0.4,0.1-0.7c0.1-0.2,0.1-0.3,0.2-0.4c0.1-0.1,0.2-0.2,0.3-0.2
		c0.1,0,0.3-0.1,0.4-0.1c0.2,0,0.4,0,0.5,0l0-0.1c0.1-0.1,0.1-0.3,0.1-0.4c0-0.1-0.1-0.1-0.2-0.2c-0.1,0-0.2,0-0.2,0
		C43.7,11.8,43.6,11.9,43.5,12.1z M41.5,13.8l1-4.3L43,9.6l-1,4.3L41.5,13.8z M40.5,13.6l0.1-0.5c-0.1,0.2-0.2,0.3-0.3,0.4
		c-0.1,0.1-0.2,0.1-0.4,0.1s-0.2-0.1-0.3-0.2c-0.1-0.1-0.1-0.2-0.2-0.4c0-0.2,0-0.4,0-0.7l0.2-2l0.5,0.1L40,11.8
		c-0.1,0.4-0.1,0.7-0.1,0.8c0,0.1,0,0.2,0.1,0.3c0,0.1,0.1,0.1,0.2,0.1c0.1,0,0.2,0,0.2-0.1c0.1-0.1,0.1-0.2,0.2-0.3
		c0-0.1,0.1-0.4,0.1-0.8l0.2-1.3l0.5,0.1L41,13.7L40.5,13.6z M39,11.1l-0.5,0.1c0-0.2,0-0.3-0.1-0.4c-0.1-0.1-0.1-0.1-0.2-0.1
		c-0.1,0-0.2,0.1-0.3,0.2c-0.1,0.1-0.1,0.4-0.1,0.7c0,0.4,0,0.6,0.1,0.8c0.1,0.2,0.2,0.2,0.3,0.2c0.1,0,0.2,0,0.2-0.1
		c0.1-0.1,0.1-0.2,0.1-0.5l0.5,0.2c-0.1,0.4-0.2,0.7-0.3,0.8c-0.1,0.2-0.4,0.3-0.6,0.3c-0.3,0-0.5-0.2-0.6-0.5
		c-0.2-0.3-0.2-0.7-0.2-1.2c0-0.5,0.1-0.9,0.3-1.2c0.2-0.3,0.4-0.4,0.7-0.4c0.2,0,0.4,0.1,0.5,0.3C38.8,10.5,38.9,10.8,39,11.1z
		 M36.3,13.4l-0.1-3.2l0.5,0l0.1,3.2L36.3,13.4z M36.2,9.7l0-0.8l0.5,0l0,0.8L36.2,9.7z M35.7,10.2l0.1,0.7l-0.3,0l0.1,1.3
		c0,0.3,0,0.4,0,0.5c0,0,0,0.1,0.1,0.1c0,0,0.1,0,0.1,0c0,0,0.1,0,0.2-0.1l0.1,0.6c-0.1,0.1-0.2,0.1-0.4,0.2c-0.1,0-0.2,0-0.2-0.1
		c-0.1,0-0.1-0.1-0.2-0.2s-0.1-0.2-0.1-0.3c0-0.1,0-0.3-0.1-0.6l-0.1-1.4l-0.2,0l-0.1-0.7l0.2,0l-0.1-0.6l0.5-0.5l0.1,1.1L35.7,10.2
		z M34.1,13.5l-0.5,0.1l-0.4-3.2l0.5-0.1l0.1,0.4c0.1-0.2,0.1-0.4,0.2-0.4c0.1-0.1,0.1-0.1,0.2-0.1c0.1,0,0.2,0,0.4,0.1l-0.1,0.8
		c-0.1-0.1-0.2-0.1-0.2-0.1s-0.1,0.1-0.2,0.1s-0.1,0.2-0.1,0.4c0,0.2,0,0.5,0.1,1.1L34.1,13.5z M32.4,12.3c-0.1,0.1-0.1,0.1-0.3,0.2
		c-0.1,0.1-0.2,0.1-0.2,0.2c0,0.1-0.1,0.2,0,0.3c0,0.1,0.1,0.2,0.1,0.3c0.1,0.1,0.1,0.1,0.2,0.1c0.1,0,0.2-0.1,0.2-0.2
		c0-0.1,0.1-0.2,0.1-0.3c0-0.1,0-0.2-0.1-0.4L32.4,12.3z M31.6,11.8l-0.5,0c0-0.3,0-0.6,0.1-0.7c0.1-0.2,0.3-0.3,0.5-0.3
		c0.2-0.1,0.4,0,0.5,0c0.1,0.1,0.2,0.1,0.3,0.3c0.1,0.1,0.1,0.4,0.2,0.7l0.2,1c0.1,0.3,0.1,0.5,0.2,0.6s0.1,0.3,0.2,0.4l-0.5,0.1
		c0-0.1-0.1-0.1-0.1-0.2c0,0,0-0.1,0-0.1c-0.1,0.2-0.1,0.3-0.2,0.4c-0.1,0.1-0.2,0.1-0.3,0.2c-0.2,0-0.4,0-0.5-0.2s-0.3-0.4-0.3-0.6
		c0-0.2-0.1-0.3,0-0.5c0-0.1,0.1-0.3,0.1-0.4c0.1-0.1,0.2-0.2,0.3-0.3c0.2-0.1,0.4-0.2,0.4-0.3l0-0.1c0-0.2-0.1-0.3-0.1-0.3
		c-0.1-0.1-0.2-0.1-0.3,0c-0.1,0-0.1,0.1-0.2,0.1C31.6,11.6,31.6,11.7,31.6,11.8z M28.7,11.2l0.4,1.2l0.3-0.1
		c0.2-0.1,0.3-0.1,0.4-0.2c0.1-0.1,0.1-0.1,0.1-0.3s0-0.2-0.1-0.4c-0.1-0.1-0.1-0.3-0.2-0.4S29.4,11,29.3,11c-0.1,0-0.2,0-0.4,0.1
		L28.7,11.2z M29.4,14.8L28,10.6l0.8-0.3c0.3-0.1,0.5-0.1,0.6-0.1c0.2,0,0.3,0.1,0.5,0.3c0.2,0.2,0.3,0.4,0.4,0.8
		c0.1,0.3,0.1,0.5,0.1,0.7c0,0.2,0,0.4-0.1,0.5c-0.1,0.1-0.1,0.2-0.2,0.3c-0.1,0.1-0.3,0.2-0.5,0.2l-0.3,0.1l0.5,1.6L29.4,14.8z
		 M26.9,14.4c0,0.1-0.1,0.1-0.2,0.3c-0.1,0.1-0.1,0.2-0.2,0.3c0,0.1,0,0.2,0.1,0.3c0.1,0.1,0.1,0.2,0.2,0.2c0.1,0.1,0.2,0.1,0.2,0
		s0.1-0.1,0.1-0.3c0-0.1,0-0.2,0-0.3c0-0.1-0.1-0.2-0.2-0.4L26.9,14.4z M25.9,14.1l-0.5,0.1c-0.1-0.3-0.1-0.5-0.1-0.7
		c0-0.2,0.1-0.4,0.4-0.5c0.2-0.1,0.4-0.2,0.5-0.1c0.1,0,0.3,0.1,0.4,0.2c0.1,0.1,0.3,0.3,0.4,0.6l0.5,0.8c0.1,0.2,0.3,0.4,0.3,0.5
		s0.2,0.2,0.3,0.3l-0.4,0.2c0,0-0.1-0.1-0.2-0.2c0,0-0.1-0.1-0.1-0.1c0,0.2,0,0.3-0.1,0.4c-0.1,0.1-0.1,0.2-0.2,0.2
		c-0.2,0.1-0.3,0.1-0.5,0c-0.2-0.1-0.4-0.3-0.5-0.5c-0.1-0.1-0.1-0.3-0.2-0.5c0-0.1,0-0.3,0-0.4c0-0.1,0.1-0.2,0.2-0.4
		c0.2-0.2,0.3-0.3,0.3-0.4l0-0.1c-0.1-0.1-0.2-0.2-0.2-0.3s-0.2,0-0.3,0c-0.1,0-0.1,0.1-0.1,0.2C25.9,13.9,25.9,14,25.9,14.1z
		 M25.5,17.1L23,14.9l0.4-0.3l1.2,1.1l0.4,0.4c-0.1-0.1-0.1-0.2-0.1-0.3c0-0.1-0.1-0.2-0.1-0.3L24.2,14l0.4-0.3l1.2,3L25.5,17.1z
		 M24.3,18l-2-2.5l0.4-0.3l2,2.5L24.3,18z M22,15.1l-0.5-0.6l0.4-0.3l0.5,0.6L22,15.1z M21.9,15.8l0.4,0.5l-0.3,0.2l0.8,1
		c0.2,0.2,0.3,0.3,0.3,0.3c0,0,0.1,0,0.1,0.1c0,0,0.1,0,0.1,0c0,0,0.1-0.1,0.1-0.2l0.5,0.5c0,0.1-0.1,0.3-0.2,0.4
		c-0.1,0.1-0.1,0.1-0.2,0.1c-0.1,0-0.2,0-0.2-0.1c-0.1,0-0.2-0.1-0.3-0.2c-0.1-0.1-0.2-0.2-0.4-0.4l-0.9-1.1L21.5,17l-0.4-0.5
		l0.2-0.1l-0.4-0.5l0.1-0.7l0.7,0.9L21.9,15.8z M21.5,18.4c0,0.1-0.1,0.2-0.1,0.3c-0.1,0.1-0.1,0.2-0.1,0.3c0,0.1,0.1,0.2,0.1,0.3
		s0.2,0.1,0.3,0.1c0.1,0,0.2,0,0.2-0.1c0.1-0.1,0.1-0.2,0.1-0.3c0-0.1-0.1-0.2-0.1-0.3c0-0.1-0.1-0.2-0.3-0.3L21.5,18.4z M20.6,18.4
		l-0.4,0.2c-0.2-0.3-0.3-0.5-0.3-0.7c0-0.2,0.1-0.4,0.2-0.6c0.1-0.2,0.3-0.3,0.4-0.3c0.1,0,0.3,0,0.4,0.1c0.1,0.1,0.3,0.2,0.6,0.5
		l0.7,0.7c0.2,0.2,0.4,0.3,0.5,0.4c0.1,0.1,0.2,0.2,0.4,0.2l-0.3,0.4c-0.1,0-0.1-0.1-0.2-0.1c0,0-0.1,0-0.1-0.1c0,0.2,0.1,0.3,0,0.4
		c0,0.1-0.1,0.2-0.1,0.3c-0.1,0.1-0.3,0.2-0.5,0.1c-0.2,0-0.4-0.2-0.6-0.3c-0.1-0.1-0.2-0.3-0.3-0.4c-0.1-0.1-0.1-0.3-0.1-0.4
		c0-0.1,0.1-0.3,0.1-0.4c0.1-0.2,0.2-0.4,0.2-0.5L21.1,18c-0.1-0.1-0.2-0.2-0.3-0.2c-0.1,0-0.2,0-0.3,0.1c-0.1,0.1-0.1,0.1-0.1,0.2
		C20.5,18.2,20.5,18.3,20.6,18.4z M19.9,19.1l-0.2,0.5c-0.1-0.1-0.3-0.1-0.4-0.1c-0.1,0-0.2,0-0.2,0.1c-0.1,0.1-0.1,0.2,0,0.4
		c0.1,0.1,0.2,0.3,0.5,0.5c0.3,0.2,0.5,0.4,0.7,0.4c0.2,0,0.3,0,0.4-0.1c0.1-0.1,0.1-0.2,0-0.3c0-0.1-0.1-0.2-0.3-0.4l0.4-0.3
		c0.3,0.3,0.4,0.5,0.5,0.8c0.1,0.2,0,0.4-0.1,0.6c-0.2,0.2-0.4,0.3-0.8,0.2c-0.3-0.1-0.7-0.2-1.1-0.6c-0.4-0.3-0.7-0.6-0.8-1
		c-0.1-0.3-0.1-0.6,0.1-0.8c0.1-0.2,0.3-0.3,0.5-0.3C19.4,18.9,19.6,19,19.9,19.1z M20.2,22.6l-0.4-0.3c0.1,0.1,0.2,0.3,0.2,0.4
		c0,0.1,0,0.3-0.1,0.4c-0.1,0.1-0.2,0.2-0.3,0.2c-0.1,0-0.3,0-0.5,0c-0.2-0.1-0.4-0.2-0.6-0.3L16.8,22l0.3-0.4l1.2,0.8
		c0.4,0.2,0.6,0.4,0.7,0.4c0.1,0,0.2,0.1,0.3,0c0.1,0,0.1,0,0.2-0.1c0-0.1,0.1-0.2,0-0.3c0-0.1-0.1-0.2-0.2-0.3
		c-0.1-0.1-0.3-0.3-0.7-0.5l-1.1-0.7l0.3-0.4l2.7,1.7L20.2,22.6z M17.2,24.6c0.3,0.1,0.6,0.2,0.7,0.2c0.2,0,0.4,0,0.4-0.2
		c0-0.1,0-0.2-0.1-0.4c-0.1-0.1-0.3-0.3-0.6-0.4c-0.3-0.1-0.6-0.2-0.8-0.2c-0.2,0-0.3,0.1-0.4,0.2c-0.1,0.1,0,0.2,0.1,0.4
		C16.7,24.4,16.9,24.5,17.2,24.6z M19.3,24.1l-0.2,0.4l-0.4-0.2c0.1,0.1,0.2,0.3,0.3,0.4s0,0.2,0,0.4c-0.1,0.2-0.3,0.3-0.6,0.3
		c-0.3,0-0.7-0.1-1.2-0.3c-0.5-0.2-0.8-0.5-1-0.7c-0.2-0.3-0.2-0.5-0.1-0.7c0.1-0.2,0.3-0.3,0.6-0.3L15,22.8l0.2-0.5L19.3,24.1z
		 M17.7,27.9l-4.2-1.4l0.6-1.8l0.7,0.2l-0.5,1.3l0.9,0.3l0.4-1.2l0.7,0.2l-0.4,1.2l1.1,0.4l0.5-1.4l0.7,0.2L17.7,27.9z M15.5,30.4
		c0.3,0.1,0.6,0.1,0.7,0.1c0.2,0,0.4-0.1,0.4-0.3c0-0.1,0-0.2-0.2-0.3c-0.1-0.1-0.4-0.2-0.7-0.3c-0.4-0.1-0.6-0.1-0.8,0
		c-0.2,0.1-0.3,0.1-0.3,0.3c0,0.1,0,0.2,0.2,0.3C15,30.3,15.2,30.4,15.5,30.4z M17.4,29.4l-0.1,0.5l-0.5-0.1
		c0.2,0.1,0.3,0.2,0.4,0.3c0.1,0.1,0.1,0.2,0.1,0.3c0,0.2-0.2,0.4-0.5,0.5c-0.3,0.1-0.7,0.1-1.3,0c-0.5-0.1-0.9-0.2-1.2-0.4
		c-0.3-0.2-0.4-0.4-0.3-0.6c0-0.2,0.2-0.4,0.5-0.5L13,29.1l0.1-0.5L17.4,29.4z M15.5,32c0,0.1,0.1,0.2,0.1,0.3
		c0,0.1,0.1,0.2,0.1,0.3c0.1,0.1,0.2,0.1,0.3,0.1c0.1,0,0.2,0,0.3-0.1c0.1,0,0.1-0.1,0.1-0.2c0-0.1,0-0.2-0.1-0.3
		c-0.1-0.1-0.2-0.1-0.3-0.1c-0.1,0-0.2,0-0.4-0.1L15.5,32z M14.8,32.6L14.6,33c-0.3-0.1-0.5-0.2-0.7-0.3c-0.1-0.1-0.2-0.3-0.2-0.6
		c0-0.2,0.1-0.4,0.2-0.5c0.1-0.1,0.2-0.2,0.4-0.2c0.1,0,0.4,0,0.8,0l1,0.1c0.3,0,0.5,0,0.6,0c0.1,0,0.3,0,0.4-0.1l0,0.5
		c-0.1,0-0.1,0-0.2,0c-0.1,0-0.1,0-0.1,0c0.1,0.1,0.2,0.2,0.3,0.3c0.1,0.1,0.1,0.2,0.1,0.3c0,0.2-0.1,0.3-0.3,0.4
		c-0.2,0.1-0.4,0.1-0.7,0.1c-0.2,0-0.3-0.1-0.5-0.1c-0.1-0.1-0.2-0.1-0.3-0.2c-0.1-0.1-0.1-0.2-0.2-0.4C15.1,32.2,15,32,15,32h-0.1
		c-0.2,0-0.3,0-0.4,0c-0.1,0-0.1,0.1-0.1,0.3c0,0.1,0,0.2,0.1,0.2C14.5,32.5,14.6,32.5,14.8,32.6z M15.4,35.1c0.3,0,0.6-0.1,0.7-0.1
		c0.2-0.1,0.3-0.2,0.3-0.4c0-0.1-0.1-0.2-0.3-0.3c-0.2-0.1-0.4-0.1-0.8-0.1c-0.4,0-0.6,0.1-0.8,0.2c-0.2,0.1-0.2,0.2-0.2,0.3
		c0,0.1,0.1,0.2,0.3,0.3C14.8,35.1,15.1,35.1,15.4,35.1z M16.9,33.6l0,0.5l-0.5,0c0.2,0.1,0.3,0.1,0.4,0.2c0.1,0.1,0.1,0.2,0.2,0.3
		c0,0.2-0.1,0.4-0.4,0.6c-0.3,0.2-0.7,0.3-1.2,0.3c-0.5,0-1,0-1.2-0.1c-0.3-0.1-0.4-0.3-0.5-0.5c0-0.2,0.1-0.4,0.4-0.6l-1.6,0.1
		l0-0.5L16.9,33.6z M17.2,36.3L14,36.7L14,36.2l3.2-0.4L17.2,36.3z M13.6,36.8l-0.8,0.1l-0.1-0.5l0.8-0.1L13.6,36.8z M17.2,36.8
		l0.1,0.5l-1.6,0.4c-0.3,0.1-0.6,0.1-0.6,0.2C15,37.9,15,38,14.9,38c0,0.1-0.1,0.1,0,0.2c0,0.1,0.1,0.1,0.2,0.2
		c0.1,0.1,0.2,0.1,0.3,0.1c0.1,0,0.4-0.1,0.7-0.1l1.4-0.3l0.1,0.5l-3.1,0.7l-0.1-0.4l0.5-0.1c-0.4-0.1-0.6-0.2-0.7-0.5
		c0-0.1,0-0.2,0-0.3c0-0.1,0.1-0.2,0.2-0.3c0.1-0.1,0.2-0.1,0.3-0.2c0.1-0.1,0.3-0.1,0.5-0.2L17.2,36.8z M14.3,42.4l-0.2-0.5
		l2.3-0.8c0.4-0.1,0.6-0.2,0.7-0.3c0.2-0.1,0.3-0.2,0.4-0.3c0.1-0.1,0.1-0.2,0-0.4c0-0.1-0.1-0.2-0.3-0.3c-0.1,0-0.3,0-0.4,0
		c-0.1,0-0.4,0.1-0.7,0.2L13.8,41l-0.2-0.5l2.2-0.7c0.5-0.2,0.9-0.3,1.1-0.3c0.2,0,0.4-0.1,0.6,0c0.2,0,0.3,0.1,0.4,0.2
		c0.1,0.1,0.2,0.2,0.3,0.4c0.1,0.2,0.1,0.4,0,0.6c-0.1,0.1-0.1,0.3-0.3,0.4c-0.1,0.1-0.3,0.2-0.4,0.3c-0.2,0.1-0.6,0.2-1,0.4
		L14.3,42.4z"/>
	<path class="st30" d="M57.3,41.2c0-0.1,0-0.2,0-0.3c0-0.1,0-0.2,0-0.3c-0.1-0.1-0.1-0.2-0.2-0.2c-0.1,0-0.2-0.1-0.3,0
		c-0.1,0-0.2,0.1-0.2,0.1c0,0.1,0,0.2,0,0.3c0.1,0.1,0.1,0.1,0.2,0.2c0.1,0,0.2,0.1,0.4,0.2L57.3,41.2z M58.2,40.8l0.3-0.4
		c0.3,0.2,0.5,0.3,0.6,0.5c0.1,0.2,0.1,0.4,0,0.6c-0.1,0.2-0.2,0.4-0.3,0.4c-0.1,0.1-0.3,0.1-0.4,0.1c-0.1,0-0.4-0.1-0.7-0.2
		l-0.9-0.4c-0.3-0.1-0.5-0.2-0.6-0.2c-0.1,0-0.3-0.1-0.4-0.1l0.2-0.5c0.1,0,0.1,0,0.2,0c0.1,0,0.1,0,0.1,0c-0.1-0.1-0.2-0.3-0.2-0.4
		c0-0.1,0-0.2,0-0.3c0.1-0.2,0.2-0.3,0.4-0.3c0.2,0,0.4,0,0.7,0.1c0.2,0.1,0.3,0.1,0.4,0.2c0.1,0.1,0.2,0.2,0.2,0.3
		c0,0.1,0.1,0.3,0,0.4c0,0.2,0,0.4,0,0.5l0.1,0c0.1,0.1,0.3,0.1,0.4,0.1c0.1,0,0.1-0.1,0.2-0.2c0-0.1,0-0.2,0-0.2
		C58.4,41,58.3,40.9,58.2,40.8z M56.4,39.2l0.1-0.5l1.6,0.4c0.3,0.1,0.6,0.1,0.7,0.1c0.1,0,0.2,0,0.3-0.1c0.1,0,0.1-0.1,0.1-0.1
		c0-0.1,0-0.2-0.1-0.3c-0.1-0.1-0.2-0.2-0.3-0.2c-0.1-0.1-0.4-0.1-0.7-0.2L56.7,38l0.1-0.5l3.1,0.7l-0.1,0.4l-0.5-0.1
		c0.3,0.2,0.4,0.5,0.4,0.7c0,0.1-0.1,0.2-0.2,0.3c-0.1,0.1-0.2,0.1-0.3,0.1c-0.1,0-0.2,0-0.4,0c-0.1,0-0.3,0-0.6-0.1L56.4,39.2z"/>
	<path class="st30" d="M53.5,45l0.6-0.9l0.8,0.6c0.3,0.2,0.5,0.4,0.6,0.6c0.1,0.2,0.1,0.5,0.1,0.8L55,46.1c0-0.2,0-0.4,0-0.5
		c0-0.1-0.1-0.2-0.2-0.3l-0.3,0.4L53.5,45z M52.8,46l0.6-0.9l0.8,0.6c0.3,0.2,0.5,0.4,0.6,0.6c0.1,0.2,0.1,0.5,0.1,0.8l-0.6-0.1
		c0-0.2,0-0.4,0-0.5c0-0.1-0.1-0.2-0.2-0.3l-0.3,0.4L52.8,46z M53.7,49l-1.4-0.8l0.9,1.3L53.7,49z M54.5,49.5l-0.9,0.9l0.4,0.6
		l-0.8,0.8l-2.2-3.9l0.8-0.9l4.1,2l-0.8,0.8L54.5,49.5z M47.1,50.9l0.9-0.7l2.5,2l-1.2-3l0.9-0.6l1.4,4.3l-1,0.7L47.1,50.9z
		 M44.1,52.3l2.7-1.2l0.4,0.8l-1.7,0.8l0.3,0.6l1.6-0.7l0.4,0.8l-1.6,0.7l0.4,0.8l1.7-0.8l0.4,0.9l-2.7,1.2L44.1,52.3z M42.3,52.9
		l1.1-0.3l0.6,2.5c0.1,0.2,0.1,0.5,0.1,0.7s-0.1,0.5-0.2,0.6c-0.1,0.2-0.2,0.4-0.4,0.4c-0.2,0.1-0.4,0.2-0.7,0.3
		c-0.2,0-0.4,0.1-0.6,0.1c-0.2,0-0.4,0-0.5-0.1c-0.1-0.1-0.3-0.1-0.5-0.3c-0.1-0.1-0.3-0.3-0.3-0.4c-0.1-0.3-0.2-0.5-0.3-0.7
		l-0.6-2.5l1.1-0.3l0.6,2.6c0.1,0.2,0.1,0.4,0.3,0.5c0.1,0.1,0.3,0.1,0.5,0.1c0.2,0,0.3-0.1,0.4-0.3c0.1-0.1,0.1-0.3,0-0.6
		L42.3,52.9z M35.9,53.7l1,0l1.4,2.3l-0.1-2.4l1,0l0.2,4.3l-1,0L37,55.6l0.1,2.4l-1,0L35.9,53.7z M30.4,55.4l0-1.6l-0.8,1.4
		L30.4,55.4z M30.4,56.3L29.2,56l-0.4,0.6l-1.1-0.3l2.5-3.8l1.2,0.3l0.1,4.5L30.4,57L30.4,56.3z M26.4,51.9L25.4,54l0.2,0.1
		c0.2,0.1,0.4,0.1,0.5,0.1c0.1,0,0.2-0.1,0.4-0.2c0.1-0.1,0.3-0.3,0.4-0.6c0.2-0.4,0.3-0.7,0.3-0.9c0-0.2-0.2-0.4-0.4-0.5L26.4,51.9
		z M25.9,50.6l1.5,0.7c0.3,0.1,0.5,0.3,0.6,0.5c0.1,0.2,0.2,0.4,0.2,0.6c0,0.2,0,0.5-0.1,0.7c-0.1,0.3-0.2,0.5-0.3,0.8
		c-0.2,0.4-0.4,0.7-0.6,0.9c-0.2,0.2-0.4,0.3-0.6,0.4c-0.2,0.1-0.4,0.1-0.6,0.1c-0.3,0-0.5-0.1-0.6-0.2L24,54.4L25.9,50.6z
		 M24.2,49.3l0.9,0.6l-2.5,3.5l-0.9-0.6L24.2,49.3z M20.8,46.2l0.8,0.8l-1.5,2.8l2.7-1.7l0.8,0.8l-3.9,2.2l-0.9-0.8L20.8,46.2z
		 M18.9,47.3l-0.6-0.9l0.8-0.6c0.3-0.2,0.6-0.3,0.8-0.4c0.2,0,0.5,0,0.8,0.2l-0.3,0.5c-0.2-0.1-0.4-0.1-0.5-0.1
		c-0.1,0-0.3,0-0.4,0.1l0.3,0.4L18.9,47.3z M18.2,46.3l-0.6-0.9l0.8-0.6c0.3-0.2,0.6-0.3,0.8-0.4c0.2,0,0.5,0,0.8,0.2l-0.3,0.5
		c-0.2-0.1-0.4-0.1-0.5-0.1c-0.1,0-0.3,0-0.4,0.1l0.3,0.4L18.2,46.3z"/>
</g>
</svg>
